<svg width="61" height="60" viewBox="0 0 61 60" fill="none" xmlns="http://www.w3.org/2000/svg">
<path d="M30.5 45.9375C29.0166 45.9375 27.5666 45.4976 26.3332 44.6735C25.0999 43.8494 24.1386 42.6781 23.5709 41.3076C23.0032 39.9372 22.8547 38.4292 23.1441 36.9743C23.4335 35.5195 24.1478 34.1831 25.1967 33.1342C26.2456 32.0853 27.582 31.371 29.0368 31.0816C30.4917 30.7922 31.9997 30.9407 33.3701 31.5084C34.7406 32.0761 35.9119 33.0374 36.736 34.2707C37.5601 35.5041 38 36.9541 38 38.4375C37.9978 40.4259 37.2069 42.3323 35.8008 43.7383C34.3948 45.1444 32.4884 45.9353 30.5 45.9375ZM30.5 32.8125C29.3875 32.8125 28.2999 33.1424 27.3749 33.7605C26.4499 34.3786 25.7289 35.2571 25.3032 36.2849C24.8774 37.3127 24.766 38.4437 24.9831 39.5349C25.2001 40.626 25.7359 41.6283 26.5225 42.415C27.3092 43.2017 28.3115 43.7374 29.4026 43.9544C30.4938 44.1715 31.6248 44.0601 32.6526 43.6343C33.6804 43.2086 34.5589 42.4876 35.177 41.5626C35.7951 40.6376 36.125 39.55 36.125 38.4375C36.1235 36.9461 35.5304 35.5162 34.4758 34.4617C33.4213 33.4071 31.9914 32.814 30.5 32.8125Z" fill="#615EFC"/>
<path d="M41.75 58.125C41.5014 58.125 41.2629 58.0262 41.0871 57.8504C40.9113 57.6746 40.8125 57.4361 40.8125 57.1875V51.5625C40.8125 50.6081 37.1722 48.75 30.5 48.75C23.8278 48.75 20.1875 50.6081 20.1875 51.5625V57.1875C20.1875 57.4361 20.0887 57.6746 19.9129 57.8504C19.7371 58.0262 19.4986 58.125 19.25 58.125C19.0014 58.125 18.7629 58.0262 18.5871 57.8504C18.4113 57.6746 18.3125 57.4361 18.3125 57.1875V51.5625C18.3125 48.4847 24.4437 46.875 30.5 46.875C36.5562 46.875 42.6875 48.4847 42.6875 51.5625V57.1875C42.6875 57.4361 42.5887 57.6746 42.4129 57.8504C42.2371 58.0262 41.9986 58.125 41.75 58.125Z" fill="#615EFC"/>
<path d="M46.4375 41.25C44.9541 41.25 43.5041 40.8101 42.2707 39.986C41.0374 39.1619 40.0761 37.9906 39.5084 36.6201C38.9407 35.2497 38.7922 33.7417 39.0816 32.2868C39.371 30.832 40.0853 29.4956 41.1342 28.4467C42.1831 27.3978 43.5195 26.6835 44.9743 26.3941C46.4292 26.1047 47.9372 26.2532 49.3076 26.8209C50.6781 27.3886 51.8494 28.3499 52.6735 29.5832C53.4976 30.8166 53.9375 32.2666 53.9375 33.75C53.9353 35.7384 53.1444 37.6448 51.7383 39.0508C50.3323 40.4569 48.4259 41.2478 46.4375 41.25ZM46.4375 28.125C45.325 28.125 44.2374 28.4549 43.3124 29.073C42.3874 29.6911 41.6664 30.5696 41.2407 31.5974C40.8149 32.6252 40.7035 33.7562 40.9206 34.8474C41.1376 35.9385 41.6734 36.9408 42.46 37.7275C43.2467 38.5142 44.249 39.0499 45.3401 39.2669C46.4313 39.484 47.5623 39.3726 48.5901 38.9468C49.6179 38.5211 50.4964 37.8001 51.1145 36.8751C51.7326 35.9501 52.0625 34.8625 52.0625 33.75C52.061 32.2586 51.4679 30.8287 50.4133 29.7742C49.3588 28.7196 47.9289 28.1265 46.4375 28.125Z" fill="#615EFC"/>
<path d="M57.6875 53.4375C57.4389 53.4375 57.2004 53.3387 57.0246 53.1629C56.8488 52.9871 56.75 52.7486 56.75 52.5V46.875C56.75 45.9206 53.1097 44.0625 46.4375 44.0625C42.5938 44.0625 39.0313 44.7328 37.1563 45.8119C37.0496 45.8744 36.9316 45.9152 36.8091 45.932C36.6866 45.9487 36.562 45.9411 36.4425 45.9095C36.323 45.8779 36.2109 45.8229 36.1127 45.7478C36.0144 45.6727 35.9321 45.5789 35.8702 45.4719C35.8084 45.3648 35.7684 45.2466 35.7524 45.1239C35.7365 45.0013 35.745 44.8768 35.7774 44.7575C35.8098 44.6382 35.8655 44.5264 35.9412 44.4287C36.017 44.331 36.1113 44.2492 36.2188 44.1881C38.3985 42.9375 42.2188 42.1875 46.4375 42.1875C52.4938 42.1875 58.625 43.7972 58.625 46.875V52.5C58.625 52.7486 58.5262 52.9871 58.3504 53.1629C58.1746 53.3387 57.9362 53.4375 57.6875 53.4375Z" fill="#615EFC"/>
<path d="M14.5625 41.25C13.0791 41.25 11.6291 40.8101 10.3957 39.986C9.16236 39.1619 8.20106 37.9906 7.63341 36.6201C7.06575 35.2497 6.91722 33.7417 7.20661 32.2868C7.496 30.832 8.21031 29.4956 9.2592 28.4467C10.3081 27.3978 11.6445 26.6835 13.0993 26.3941C14.5542 26.1047 16.0622 26.2532 17.4326 26.8209C18.8031 27.3886 19.9744 28.3499 20.7985 29.5832C21.6226 30.8166 22.0625 32.2666 22.0625 33.75C22.0603 35.7384 21.2694 37.6448 19.8633 39.0508C18.4573 40.4569 16.5509 41.2478 14.5625 41.25ZM14.5625 28.125C13.45 28.125 12.3624 28.4549 11.4374 29.073C10.5124 29.6911 9.79142 30.5696 9.36568 31.5974C8.93994 32.6252 8.82854 33.7562 9.04559 34.8474C9.26263 35.9385 9.79836 36.9408 10.585 37.7275C11.3717 38.5142 12.374 39.0499 13.4651 39.2669C14.5563 39.484 15.6873 39.3726 16.7151 38.9468C17.7429 38.5211 18.6214 37.8001 19.2395 36.8751C19.8576 35.9501 20.1875 34.8625 20.1875 33.75C20.186 32.2586 19.5929 30.8287 18.5383 29.7742C17.4838 28.7196 16.0539 28.1265 14.5625 28.125Z" fill="#615EFC"/>
<path d="M3.3125 53.4375C3.06386 53.4375 2.8254 53.3387 2.64959 53.1629C2.47377 52.9871 2.375 52.7486 2.375 52.5V46.875C2.375 43.7972 8.50625 42.1875 14.5625 42.1875C18.7812 42.1875 22.6016 42.9375 24.7756 44.1881C24.8831 44.2492 24.9774 44.331 25.0532 44.4287C25.1289 44.5264 25.1846 44.6382 25.217 44.7575C25.2494 44.8768 25.2579 45.0013 25.2419 45.1239C25.226 45.2466 25.186 45.3648 25.1242 45.4719C25.0623 45.5789 24.9799 45.6727 24.8817 45.7478C24.7835 45.8229 24.6714 45.8779 24.5519 45.9095C24.4324 45.9411 24.3078 45.9487 24.1853 45.932C24.0628 45.9152 23.9448 45.8744 23.8381 45.8119C21.9688 44.7328 18.4109 44.0625 14.5625 44.0625C7.89031 44.0625 4.25 45.9206 4.25 46.875V52.5C4.25 52.7486 4.15123 52.9871 3.97541 53.1629C3.7996 53.3387 3.56114 53.4375 3.3125 53.4375Z" fill="#615EFC"/>
<path d="M15.5835 25.3125C15.393 25.3123 15.2072 25.2542 15.0506 25.1459C14.894 25.0375 14.7741 24.8841 14.7069 24.7059C13.1273 20.5173 13.2763 15.8728 15.1211 11.794C16.9659 7.71528 20.3555 4.53645 24.5441 2.95683C28.7327 1.37722 33.3772 1.52622 37.456 3.37105C41.5347 5.21588 44.7135 8.60542 46.2931 12.794C46.3388 12.9096 46.361 13.0332 46.3584 13.1575C46.3559 13.2818 46.3287 13.4043 46.2783 13.518C46.228 13.6316 46.1555 13.7341 46.0652 13.8195C45.9748 13.9049 45.8684 13.9715 45.7521 14.0154C45.6358 14.0593 45.5119 14.0796 45.3877 14.0752C45.2635 14.0708 45.1414 14.0417 45.0285 13.9896C44.9156 13.9375 44.8142 13.8635 44.7302 13.7719C44.6462 13.6803 44.5812 13.5729 44.5391 13.4559C43.135 9.73251 40.3093 6.71938 36.6837 5.07938C33.058 3.43937 28.9293 3.30682 25.206 4.7109C21.4826 6.11497 18.4694 8.94065 16.8294 12.5663C15.1894 16.192 15.0569 20.3206 16.461 24.044C16.5045 24.1593 16.5248 24.2819 16.5209 24.405C16.517 24.5281 16.4888 24.6493 16.4381 24.7615C16.3873 24.8737 16.3149 24.9748 16.2251 25.0591C16.1352 25.1433 16.0297 25.209 15.9144 25.2525C15.8085 25.292 15.6965 25.3123 15.5835 25.3125Z" fill="#615EFC"/>
<path d="M30.5 30C28.275 30 26.0999 29.3402 24.2498 28.104C22.3998 26.8679 20.9578 25.1109 20.1064 23.0552C19.2549 20.9995 19.0321 18.7375 19.4662 16.5552C19.9003 14.373 20.9717 12.3684 22.5451 10.7951C24.1184 9.22171 26.123 8.15025 28.3052 7.71617C30.4875 7.28209 32.7495 7.50487 34.8052 8.35636C36.8609 9.20785 38.6179 10.6498 39.854 12.4998C41.0902 14.3499 41.75 16.525 41.75 18.75C41.7468 21.7327 40.5605 24.5923 38.4514 26.7014C36.3423 28.8105 33.4827 29.9968 30.5 30ZM30.5 9.37501C28.6458 9.37501 26.8332 9.92484 25.2915 10.955C23.7498 11.9851 22.5482 13.4493 21.8386 15.1623C21.1291 16.8754 20.9434 18.7604 21.3051 20.579C21.6669 22.3975 22.5598 24.068 23.8709 25.3791C25.182 26.6902 26.8525 27.5831 28.671 27.9449C30.4896 28.3066 32.3746 28.1209 34.0877 27.4114C35.8007 26.7018 37.2649 25.5002 38.295 23.9585C39.3252 22.4168 39.875 20.6042 39.875 18.75C39.8723 16.2644 38.8837 13.8815 37.1261 12.1239C35.3686 10.3663 32.9856 9.37773 30.5 9.37501Z" fill="#615EFC"/>
<path d="M30.5 24.375C29.3875 24.375 28.2999 24.0451 27.3749 23.427C26.4499 22.8089 25.7289 21.9304 25.3032 20.9026C24.8774 19.8748 24.766 18.7438 24.9831 17.6526C25.2001 16.5615 25.7359 15.5592 26.5225 14.7725C27.3092 13.9859 28.3115 13.4501 29.4026 13.2331C30.4938 13.016 31.6248 13.1274 32.6526 13.5532C33.6804 13.9789 34.5589 14.6999 35.177 15.6249C35.7951 16.5499 36.125 17.6375 36.125 18.75C36.1235 20.2414 35.5304 21.6713 34.4758 22.7258C33.4213 23.7804 31.9914 24.3735 30.5 24.375ZM30.5 15C29.7583 15 29.0333 15.2199 28.4166 15.632C27.7999 16.044 27.3193 16.6297 27.0355 17.3149C26.7516 18.0002 26.6774 18.7542 26.8221 19.4816C26.9668 20.209 27.3239 20.8772 27.8484 21.4017C28.3728 21.9261 29.041 22.2833 29.7684 22.4279C30.4958 22.5726 31.2498 22.4984 31.9351 22.2146C32.6203 21.9307 33.206 21.4501 33.618 20.8334C34.0301 20.2167 34.25 19.4917 34.25 18.75C34.25 17.7554 33.8549 16.8016 33.1517 16.0984C32.4484 15.3951 31.4946 15 30.5 15Z" fill="#615EFC"/>
<path d="M54.875 23.4375H47.0863C46.8442 23.437 46.6118 23.343 46.4375 23.175L42.8141 19.6875H30.5C30.2514 19.6875 30.0129 19.5887 29.8371 19.4129C29.6613 19.2371 29.5625 18.9986 29.5625 18.75C29.5625 18.5014 29.6613 18.2629 29.8371 18.0871C30.0129 17.9113 30.2514 17.8125 30.5 17.8125H42.8141L46.4375 14.325C46.612 14.1568 46.8448 14.0627 47.0872 14.0625H54.875C55.0619 14.0625 55.2445 14.1183 55.3994 14.2229C55.5544 14.3274 55.6745 14.4759 55.7444 14.6492C55.8144 14.8225 55.8309 15.0128 55.7919 15.1956C55.7529 15.3783 55.6602 15.5453 55.5256 15.675L52.3325 18.75L55.5256 21.825C55.6602 21.9547 55.7529 22.1217 55.7919 22.3044C55.8309 22.4872 55.8144 22.6775 55.7444 22.8508C55.6745 23.0241 55.5544 23.1726 55.3994 23.2771C55.2445 23.3816 55.0619 23.4375 54.875 23.4375ZM47.4687 21.5625H52.55L50.6028 19.6875H45.5178L47.4687 21.5625ZM45.5216 17.8125H50.6066L52.5537 15.9375H47.4687L45.5216 17.8125Z" fill="#615EFC"/>
</svg>
