<svg width="60" height="60" viewBox="0 0 60 60" fill="none" xmlns="http://www.w3.org/2000/svg">
<path d="M33.8672 47.7785C33.6108 47.7785 33.3649 47.8804 33.1836 48.0617C33.0023 48.243 32.9004 48.4889 32.9004 48.7453V53.0004C32.8998 53.0855 32.8655 53.1668 32.8052 53.2268C32.7448 53.2867 32.6632 53.3203 32.5781 53.3203H27.4219C27.3364 53.3203 27.2544 53.2864 27.194 53.2259C27.1336 53.1655 27.0996 53.0835 27.0996 52.998V48.75C27.0997 48.5269 27.0227 48.3105 26.8815 48.1377C26.7403 47.965 26.5437 47.8463 26.325 47.802C24.0234 47.334 21.8345 46.4238 19.8797 45.1219C19.6935 44.9992 19.4708 44.9445 19.249 44.9669C19.0272 44.9893 18.82 45.0875 18.6621 45.2449L15.6445 48.2555C15.5839 48.316 15.5017 48.35 15.416 48.35C15.3303 48.35 15.2481 48.316 15.1875 48.2555L11.5418 44.6098C11.4815 44.549 11.4477 44.4668 11.4477 44.3812C11.4477 44.2957 11.4815 44.2135 11.5418 44.1527L14.557 41.1387C14.7139 40.9803 14.8113 40.7727 14.8327 40.5508C14.854 40.3289 14.798 40.1064 14.6742 39.9211C13.3723 37.9663 12.4621 35.7774 11.9941 33.4758C11.9512 33.257 11.8339 33.0598 11.6622 32.9176C11.4905 32.7753 11.2749 32.6968 11.052 32.6953H6.79688C6.71141 32.6953 6.62944 32.6614 6.569 32.6009C6.50856 32.5405 6.47461 32.4585 6.47461 32.373V27.2168C6.47553 27.1318 6.50986 27.0506 6.57016 26.9908C6.63046 26.9309 6.7119 26.8972 6.79688 26.8969H11.0648C11.2877 26.897 11.5037 26.8201 11.6763 26.6791C11.8489 26.5381 11.9674 26.3418 12.0117 26.1234C12.4772 23.8232 13.3829 21.6347 14.6789 19.6781C14.8029 19.4928 14.8591 19.2704 14.8377 19.0484C14.8163 18.8265 14.7188 18.6188 14.5617 18.4605L11.5418 15.4418C11.4815 15.381 11.4477 15.2989 11.4477 15.2133C11.4477 15.1277 11.4815 15.0456 11.5418 14.9848L15.1875 11.3391C15.2481 11.2785 15.3303 11.2445 15.416 11.2445C15.5017 11.2445 15.5839 11.2785 15.6445 11.3391L18.6586 14.3543C18.8164 14.5117 19.0237 14.6099 19.2455 14.6323C19.4673 14.6547 19.69 14.6 19.8762 14.4773C21.8312 13.1759 24.02 12.2657 26.3215 11.7973C26.5402 11.7529 26.7368 11.6343 26.878 11.4615C27.0192 11.2887 27.0962 11.0724 27.0961 10.8492V6.59414C27.0962 6.55157 27.1048 6.50944 27.1213 6.47018C27.1377 6.43092 27.1618 6.3953 27.1921 6.36536C27.2223 6.33542 27.2582 6.31175 27.2977 6.29571C27.3371 6.27967 27.3793 6.27157 27.4219 6.27188H32.5781C32.6635 6.27218 32.7453 6.30624 32.8057 6.36661C32.866 6.42698 32.9001 6.50877 32.9004 6.59414V10.8492C32.9004 11.1056 33.0023 11.3515 33.1836 11.5328C33.3649 11.7142 33.6108 11.816 33.8672 11.816C34.1236 11.816 34.3695 11.7142 34.5508 11.5328C34.7321 11.3515 34.834 11.1056 34.834 10.8492V6.59414C34.8337 5.99573 34.596 5.42188 34.1731 4.99852C33.7501 4.57516 33.1765 4.33687 32.5781 4.33594H27.4219C26.8239 4.33687 26.2506 4.57484 25.8278 4.99769C25.4049 5.42054 25.1669 5.99379 25.166 6.5918V10.0781C23.1598 10.5683 21.2415 11.3656 19.4789 12.4418L17.0109 9.97266C16.5813 9.56246 16.0101 9.33359 15.416 9.33359C14.822 9.33359 14.2508 9.56246 13.8211 9.97266L10.1754 13.6184C9.75275 14.0415 9.51536 14.6152 9.51536 15.2133C9.51536 15.8114 9.75275 16.385 10.1754 16.8082L12.6363 19.2762C11.568 21.0399 10.7767 22.9571 10.2902 24.9609H6.79688C6.19887 24.9619 5.62562 25.1998 5.20277 25.6227C4.77991 26.0455 4.54195 26.6188 4.54102 27.2168V32.373C4.54133 32.9715 4.77902 33.5453 5.20194 33.9687C5.62486 34.392 6.19846 34.6303 6.79688 34.6312H10.2785C10.7686 36.6374 11.566 38.5558 12.6422 40.3184L10.1813 42.7863C9.75861 43.2095 9.52122 43.7832 9.52122 44.3812C9.52122 44.9793 9.75861 45.553 10.1813 45.9762L13.827 49.6219C14.2562 50.0329 14.8276 50.2623 15.4219 50.2623C16.0162 50.2623 16.5875 50.0329 17.0168 49.6219L19.4848 47.1609C21.2476 48.2364 23.1659 49.0333 25.1719 49.5234V53.0051C25.174 53.6013 25.4117 54.1724 25.8332 54.5941C26.2547 55.0158 26.8257 55.2538 27.4219 55.2562H32.5781C33.1761 55.2553 33.7494 55.0174 34.1722 54.5945C34.5951 54.1716 34.8331 53.5984 34.834 53.0004V48.75C34.8346 48.6226 34.8101 48.4964 34.7617 48.3786C34.7134 48.2607 34.6423 48.1536 34.5525 48.0633C34.4626 47.9731 34.3559 47.9014 34.2383 47.8526C34.1206 47.8037 33.9945 47.7785 33.8672 47.7785Z" fill="#0F62FE"/>
<path d="M38.7012 22.0629C38.7006 20.7808 38.1912 19.5514 37.2848 18.6446C36.3785 17.7378 35.1493 17.2278 33.8672 17.2266H22.2657C21.2493 17.2238 20.2581 17.5424 19.4336 18.1368C18.6092 18.7312 17.9937 19.571 17.6753 20.5362C17.3568 21.5014 17.3516 22.5425 17.6604 23.5109C17.9691 24.4792 18.5761 25.3251 19.3946 25.9278C18.7863 26.3725 18.2915 26.9545 17.9504 27.6265C17.6093 28.2984 17.4315 29.0414 17.4315 29.7949C17.4315 30.5485 17.6093 31.2914 17.9504 31.9634C18.2915 32.6353 18.7863 33.2174 19.3946 33.6621C18.5751 34.2645 17.9672 35.1105 17.6578 36.0793C17.3484 37.0481 17.3533 38.0899 17.6719 39.0557C17.9905 40.0215 18.6065 40.8618 19.4316 41.4563C20.2567 42.0508 21.2487 42.3691 22.2657 42.3656H33.8672C34.8836 42.3684 35.8748 42.0499 36.6993 41.4555C37.5237 40.8611 38.1392 40.0212 38.4576 39.0561C38.7761 38.0909 38.7813 37.0497 38.4725 36.0814C38.1638 35.113 37.5568 34.2671 36.7383 33.6645C37.3466 33.2197 37.8414 32.6377 38.1825 31.9657C38.5236 31.2938 38.7014 30.5509 38.7014 29.7973C38.7014 29.0437 38.5236 28.3008 38.1825 27.6288C37.8414 26.9569 37.3466 26.3749 36.7383 25.9301C37.345 25.4838 37.8386 24.9015 38.1795 24.2299C38.5204 23.5583 38.6991 22.8161 38.7012 22.0629ZM36.7676 37.5317C36.7664 38.3003 36.4603 39.0371 35.9166 39.5803C35.3729 40.1236 34.6359 40.4291 33.8672 40.4297H22.2657C21.4964 40.4297 20.7587 40.1241 20.2148 39.5802C19.6709 39.0363 19.3653 38.2985 19.3653 37.5293C19.3653 36.7601 19.6709 36.0224 20.2148 35.4784C20.7587 34.9345 21.4964 34.6289 22.2657 34.6289H33.8672C34.6367 34.6295 35.3744 34.9356 35.9183 35.4799C36.4621 36.0242 36.7676 36.7622 36.7676 37.5317ZM36.7676 29.7973C36.7664 30.5659 36.4603 31.3027 35.9166 31.846C35.3729 32.3893 34.6359 32.6947 33.8672 32.6953H22.2657C21.4964 32.6953 20.7587 32.3898 20.2148 31.8458C19.6709 31.3019 19.3653 30.5642 19.3653 29.7949C19.3653 29.0257 19.6709 28.288 20.2148 27.7441C20.7587 27.2001 21.4964 26.8945 22.2657 26.8945H33.8672C34.6367 26.8952 35.3744 27.2013 35.9183 27.7456C36.4621 28.2899 36.7676 29.0278 36.7676 29.7973ZM33.8672 24.961H22.2657C21.4964 24.961 20.7587 24.6554 20.2148 24.1115C19.6709 23.5675 19.3653 22.8298 19.3653 22.0606C19.3653 21.2913 19.6709 20.5536 20.2148 20.0097C20.7587 19.4657 21.4964 19.1602 22.2657 19.1602H33.8672C34.6365 19.1602 35.3742 19.4657 35.9181 20.0097C36.462 20.5536 36.7676 21.2913 36.7676 22.0606C36.7676 22.8298 36.462 23.5675 35.9181 24.1115C35.3742 24.6554 34.6365 24.961 33.8672 24.961Z" fill="#0F62FE"/>
<path d="M32.5781 21.0938H27.4219C27.1655 21.0937 26.9196 21.1956 26.7382 21.3769C26.5569 21.5582 26.4551 21.8041 26.4551 22.0605C26.4551 22.317 26.5569 22.5629 26.7382 22.7442C26.9196 22.9255 27.1655 23.0273 27.4219 23.0273H32.5781C32.8345 23.0273 33.0804 22.9255 33.2618 22.7442C33.4431 22.5629 33.5449 22.317 33.5449 22.0605C33.5449 21.8041 33.4431 21.5582 33.2618 21.3769C33.0804 21.1956 32.8345 21.0938 32.5781 21.0938Z" fill="#0F62FE"/>
<path d="M23.5547 23.3516C24.2666 23.3516 24.8438 22.7744 24.8438 22.0625C24.8438 21.3506 24.2666 20.7734 23.5547 20.7734C22.8428 20.7734 22.2656 21.3506 22.2656 22.0625C22.2656 22.7744 22.8428 23.3516 23.5547 23.3516Z" fill="#0F62FE"/>
<path d="M27.4219 30.7637H32.5781C32.8345 30.7637 33.0804 30.6618 33.2618 30.4805C33.4431 30.2992 33.5449 30.0533 33.5449 29.7969C33.5449 29.5405 33.4431 29.2946 33.2618 29.1132C33.0804 28.9319 32.8345 28.8301 32.5781 28.8301H27.4219C27.1655 28.8301 26.9196 28.9319 26.7382 29.1132C26.5569 29.2946 26.4551 29.5405 26.4551 29.7969C26.4551 30.0533 26.5569 30.2992 26.7382 30.4805C26.9196 30.6618 27.1655 30.7637 27.4219 30.7637Z" fill="#0F62FE"/>
<path d="M23.5547 31.0859C24.2666 31.0859 24.8438 30.5088 24.8438 29.7969C24.8438 29.0849 24.2666 28.5078 23.5547 28.5078C22.8428 28.5078 22.2656 29.0849 22.2656 29.7969C22.2656 30.5088 22.8428 31.0859 23.5547 31.0859Z" fill="#0F62FE"/>
<path d="M27.4219 38.498H32.5781C32.8345 38.498 33.0804 38.3962 33.2618 38.2149C33.4431 38.0336 33.5449 37.7877 33.5449 37.5312C33.5449 37.2748 33.4431 37.0289 33.2618 36.8476C33.0804 36.6663 32.8345 36.5645 32.5781 36.5645H27.4219C27.1655 36.5645 26.9196 36.6663 26.7382 36.8476C26.5569 37.0289 26.4551 37.2748 26.4551 37.5312C26.4551 37.7877 26.5569 38.0336 26.7382 38.2149C26.9196 38.3962 27.1655 38.498 27.4219 38.498Z" fill="#0F62FE"/>
<path d="M23.5547 38.8203C24.2666 38.8203 24.8438 38.2432 24.8438 37.5312C24.8438 36.8193 24.2666 36.2422 23.5547 36.2422C22.8428 36.2422 22.2656 36.8193 22.2656 37.5312C22.2656 38.2432 22.8428 38.8203 23.5547 38.8203Z" fill="#0F62FE"/>
<path d="M37.7344 15.2951C37.8847 15.2954 38.033 15.2606 38.1674 15.1934C38.3019 15.1263 38.4189 15.0287 38.509 14.9084L42.0855 10.1389H48.5156C48.7492 10.9619 49.2726 11.6726 49.9892 12.14C50.7057 12.6074 51.5671 12.7999 52.4145 12.682C53.2618 12.5641 54.038 12.1437 54.5997 11.4984C55.1614 10.8531 55.4708 10.0264 55.4708 9.17091C55.4708 8.31539 55.1614 7.48873 54.5997 6.84344C54.038 6.19814 53.2618 5.77775 52.4145 5.65983C51.5671 5.5419 50.7057 5.73438 49.9892 6.20178C49.2726 6.66917 48.7492 7.37993 48.5156 8.20294H41.6016C41.4515 8.20321 41.3036 8.23827 41.1694 8.30538C41.0352 8.37248 40.9184 8.46979 40.8281 8.58966L36.9609 13.7459C36.8533 13.8895 36.7877 14.0602 36.7715 14.2389C36.7553 14.4176 36.7892 14.5973 36.8694 14.7578C36.9495 14.9184 37.0728 15.0535 37.2254 15.1479C37.3779 15.2424 37.5538 15.2926 37.7332 15.2928L37.7344 15.2951ZM51.9141 7.56075C52.2328 7.56075 52.5443 7.65525 52.8093 7.83231C53.0743 8.00936 53.2808 8.26102 53.4027 8.55545C53.5247 8.84988 53.5566 9.17387 53.4944 9.48643C53.4323 9.799 53.2788 10.0861 53.0534 10.3115C52.8281 10.5368 52.541 10.6903 52.2284 10.7524C51.9159 10.8146 51.5919 10.7827 51.2974 10.6608C51.003 10.5388 50.7513 10.3323 50.5743 10.0673C50.3972 9.8023 50.3027 9.49077 50.3027 9.17208C50.3034 8.74492 50.4733 8.33543 50.7754 8.03338C51.0774 7.73133 51.4869 7.56137 51.9141 7.56075Z" fill="#0F62FE"/>
<path d="M51.9141 33.9844C51.1442 33.9859 50.3959 34.2384 49.7826 34.7037C49.1693 35.1689 48.7245 35.8216 48.5156 36.5625H44.4141L42.0398 35.3754C41.9263 35.3186 41.8026 35.2848 41.676 35.2758C41.5493 35.2667 41.4221 35.2828 41.3017 35.3229C41.1812 35.3631 41.0698 35.4266 40.9739 35.5098C40.878 35.593 40.7994 35.6942 40.7426 35.8078C40.6858 35.9214 40.6519 36.045 40.6429 36.1717C40.6339 36.2984 40.65 36.4256 40.6901 36.546C40.7303 36.6665 40.7938 36.7778 40.877 36.8738C40.9602 36.9697 41.0614 37.0483 41.175 37.1051L43.7531 38.3942C43.8874 38.4612 44.0355 38.4961 44.1856 38.4961H48.5215C48.7026 39.1288 49.0567 39.6985 49.5438 40.141C50.031 40.5835 50.6319 40.8814 51.2791 41.0011C51.9262 41.1208 52.594 41.0577 53.2072 40.8187C53.8204 40.5798 54.3548 40.1745 54.7504 39.6485C55.1459 39.1225 55.3869 38.4966 55.4462 37.8411C55.5055 37.1857 55.3808 36.5267 55.0861 35.9382C54.7915 35.3497 54.3385 34.8551 53.7781 34.5099C53.2177 34.1648 52.5722 33.9828 51.9141 33.9844ZM51.9141 39.1406C51.5954 39.1406 51.2838 39.0461 51.0189 38.8691C50.7539 38.692 50.5474 38.4404 50.4254 38.1459C50.3034 37.8515 50.2715 37.5275 50.3337 37.215C50.3959 36.9024 50.5493 36.6153 50.7747 36.3899C51 36.1646 51.2871 36.0111 51.5997 35.9489C51.9123 35.8868 52.2363 35.9187 52.5307 36.0406C52.8251 36.1626 53.0768 36.3691 53.2538 36.6341C53.4309 36.8991 53.5254 37.2106 53.5254 37.5293C53.5251 37.9566 53.3552 38.3662 53.0531 38.6683C52.751 38.9705 52.3413 39.1403 51.9141 39.1406Z" fill="#0F62FE"/>
<path d="M51.9141 18.5156C51.1442 18.5171 50.3959 18.7696 49.7826 19.2349C49.1693 19.7002 48.7245 20.3528 48.5156 21.0938H44.1797C44.0527 21.0937 43.927 21.1187 43.8098 21.1674C43.6925 21.216 43.5861 21.2874 43.4965 21.3773L42.2074 22.6664C42.0262 22.8476 41.9244 23.0934 41.9244 23.3496C41.9244 23.6059 42.0262 23.8516 42.2074 24.0328C42.3886 24.214 42.6344 24.3158 42.8906 24.3158C43.1469 24.3158 43.3926 24.214 43.5738 24.0328L44.5805 23.0273H48.5156C48.6967 23.6598 49.0506 24.2293 49.5374 24.6717C50.0243 25.1142 50.6249 25.4121 51.2718 25.5321C51.9186 25.6521 52.5861 25.5893 53.1993 25.3508C53.8124 25.1123 54.3469 24.7076 54.7428 24.1821C55.1386 23.6566 55.38 23.0312 55.44 22.376C55.5 21.7209 55.3761 21.062 55.0823 20.4734C54.7884 19.8847 54.3363 19.3897 53.7766 19.0439C53.217 18.698 52.572 18.5151 51.9141 18.5156ZM51.9141 23.6719C51.5954 23.6719 51.2838 23.5774 51.0189 23.4003C50.7539 23.2233 50.5474 22.9716 50.4254 22.6772C50.3034 22.3827 50.2715 22.0588 50.3337 21.7462C50.3959 21.4336 50.5493 21.1465 50.7747 20.9212C51 20.6958 51.2871 20.5424 51.5997 20.4802C51.9123 20.418 52.2363 20.4499 52.5307 20.5719C52.8251 20.6938 53.0768 20.9004 53.2538 21.1653C53.4309 21.4303 53.5254 21.7419 53.5254 22.0605C53.5251 22.4878 53.3552 22.8975 53.0531 23.1996C52.751 23.5017 52.3413 23.6716 51.9141 23.6719Z" fill="#0F62FE"/>
<path d="M51.9141 46.875C51.1442 46.8765 50.3959 47.129 49.7826 47.5943C49.1693 48.0596 48.7245 48.7122 48.5156 49.4531H42.0844L38.5078 44.6836C38.4316 44.582 38.3362 44.4965 38.2269 44.4318C38.1177 44.3671 37.9968 44.3245 37.8711 44.3066C37.7454 44.2886 37.6174 44.2956 37.4944 44.3271C37.3714 44.3586 37.2559 44.4141 37.1543 44.4902C37.0527 44.5664 36.9672 44.6618 36.9025 44.7711C36.8378 44.8803 36.7952 45.0013 36.7773 45.1269C36.7593 45.2526 36.7663 45.3806 36.7978 45.5036C36.8293 45.6266 36.8848 45.7422 36.9609 45.8438L40.8281 51C40.9182 51.1201 41.035 51.2175 41.1692 51.2847C41.3034 51.3518 41.4515 51.3867 41.6016 51.3867H48.5156C48.6967 52.0192 49.0506 52.5886 49.5374 53.0311C50.0243 53.4736 50.6249 53.7715 51.2718 53.8915C51.9186 54.0114 52.5861 53.9486 53.1993 53.7102C53.8124 53.4717 54.3469 53.067 54.7428 52.5415C55.1386 52.016 55.38 51.3905 55.44 50.7354C55.5 50.0803 55.3761 49.4214 55.0823 48.8327C54.7884 48.2441 54.3363 47.7491 53.7766 47.4032C53.2169 47.0574 52.5719 46.8745 51.9141 46.875ZM51.9141 52.0312C51.5954 52.0312 51.2838 51.9367 51.0189 51.7597C50.7539 51.5826 50.5473 51.331 50.4254 51.0366C50.3034 50.7421 50.2715 50.4181 50.3337 50.1056C50.3959 49.793 50.5493 49.5059 50.7747 49.2805C51 49.0552 51.2871 48.9017 51.5997 48.8396C51.9123 48.7774 52.2363 48.8093 52.5307 48.9312C52.8251 49.0532 53.0768 49.2597 53.2538 49.5247C53.4309 49.7897 53.5254 50.1012 53.5254 50.4199C53.5251 50.8472 53.3552 51.2568 53.0531 51.559C52.751 51.8611 52.3413 52.0309 51.9141 52.0312Z" fill="#0F62FE"/>
</svg>
