<svg width="60" height="58" viewBox="0 0 60 58" fill="none" xmlns="http://www.w3.org/2000/svg">
<path d="M19.8183 57.3704H16.1728C15.9819 57.3704 15.8092 57.2977 15.6819 57.1613C15.5546 57.0249 15.4819 56.8431 15.491 56.6522L16.191 43.534C16.2001 43.3249 16.3092 43.134 16.4819 43.0067C16.6546 42.8795 16.8728 42.8522 17.0728 42.9158C17.691 43.1068 18.3092 43.1158 18.9001 42.9249C19.1001 42.8613 19.3183 42.8977 19.491 43.0158C19.6637 43.134 19.7728 43.3249 19.7819 43.5431L20.4819 56.634V56.6704V56.6795C20.5001 57.0613 20.2001 57.3704 19.8183 57.3704ZM16.891 56.0067H19.1001L18.4728 44.4158C18.1546 44.4522 17.8365 44.4522 17.5092 44.4068L16.891 56.0067Z" fill="#0F62FE"/>
<path d="M31.3261 17.181C31.3079 17.181 31.2806 17.181 31.2624 17.181C30.8897 17.1446 30.617 16.8083 30.6443 16.4356C31.517 7.21737 29.8715 4.0901 28.3443 3.08101C26.7624 2.04464 24.8988 3.06282 24.8806 3.07192C24.7261 3.16282 24.5352 3.18101 24.3624 3.13555C17.7897 1.28101 12.8715 1.6901 9.73517 4.34464C5.12608 8.23555 5.88972 15.8356 5.89881 15.9083C5.93517 16.281 5.67154 16.6174 5.29881 16.6628C4.91699 16.6992 4.58063 16.4356 4.54426 16.0537C4.5079 15.7174 3.68063 7.68101 8.84426 3.29919C12.3079 0.362825 17.5624 -0.155357 24.4715 1.74464C25.1897 1.42646 27.217 0.71737 29.0806 1.93555C31.7715 3.6901 32.7534 8.61737 31.9988 16.5537C31.9715 16.9174 31.6715 17.181 31.3261 17.181Z" fill="#0F62FE"/>
<path d="M28.1901 23.126C28.1355 23.126 28.081 23.126 28.0264 23.126C27.6537 23.1169 27.3537 22.7987 27.3719 22.4169C27.381 22.0442 27.6628 21.7624 28.081 21.7624C29.0264 21.8169 29.9264 21.4442 30.5901 20.7987C31.1628 20.2442 31.481 19.5351 31.481 18.8169C31.481 17.1896 30.1628 15.8714 28.5355 15.8714C28.1628 15.8714 27.8537 15.5624 27.8537 15.1896C27.8537 14.8169 28.1628 14.5078 28.5355 14.5078C30.9082 14.5078 32.8446 16.4442 32.8446 18.8169C32.8446 19.9169 32.381 20.9714 31.5355 21.7805C30.6446 22.6351 29.4355 23.126 28.1901 23.126Z" fill="#0F62FE"/>
<path d="M7.83619 23.1273C6.59073 23.1273 5.38164 22.6364 4.49073 21.7818C3.64528 20.9636 3.18164 19.9091 3.18164 18.8091C3.18164 16.4364 5.118 14.5 7.49073 14.5C7.86346 14.5 8.17255 14.8091 8.17255 15.1818C8.17255 15.5545 7.86346 15.8636 7.49073 15.8636C5.86346 15.8636 4.54528 17.1909 4.54528 18.8091C4.54528 19.5364 4.86346 20.2364 5.43619 20.7909C6.09982 21.4364 7.02709 21.8 7.94528 21.7545C8.36346 21.7545 8.63619 22.0364 8.65437 22.4091C8.66346 22.7818 8.37255 23.1 7.99982 23.1182C7.93619 23.1273 7.88164 23.1273 7.83619 23.1273Z" fill="#0F62FE"/>
<path d="M16.0716 32.5346C15.9806 32.5346 15.8897 32.5164 15.7988 32.4801C13.4716 31.4801 11.417 29.8801 9.87156 27.8528C8.67156 26.2892 7.80792 24.5255 7.29883 22.6164C7.28974 22.5892 7.28974 22.5619 7.28065 22.5346C6.96246 21.3255 6.79883 20.0619 6.79883 18.7801V14.371C6.79883 14.2619 6.8261 14.1619 6.87156 14.0619C6.89883 14.0164 9.31701 9.3619 15.0534 11.4619C15.3534 11.571 15.6806 11.5346 15.9716 11.3528L20.2443 8.8619C20.8443 8.51644 21.5261 8.41644 22.1716 8.60735C23.8534 9.04372 27.917 10.471 29.1625 14.1528C29.1897 14.2255 29.1988 14.2983 29.1988 14.371V18.7801C29.1988 20.071 29.0352 21.3346 28.717 22.5437C28.717 22.571 28.7079 22.5983 28.6988 22.6164C27.517 27.0528 24.417 30.6528 20.217 32.4801C19.8716 32.6346 19.4716 32.471 19.317 32.1255C19.1625 31.7801 19.3261 31.3801 19.6716 31.2255C23.4806 29.571 26.2806 26.3255 27.3716 22.3164C27.3716 22.2892 27.3806 22.2619 27.3897 22.2437C27.6897 21.1346 27.8443 19.971 27.8443 18.7801V14.4892C26.7716 11.5074 23.2806 10.3074 21.817 9.92553C21.5079 9.84372 21.2079 9.88008 20.9261 10.0437L16.6625 12.5346C16.0261 12.9164 15.2625 12.9983 14.5806 12.7437C10.4625 11.2437 8.55337 13.9074 8.16246 14.5528V18.7801C8.16246 19.971 8.31701 21.1346 8.61701 22.2437C8.6261 22.271 8.6261 22.2983 8.63519 22.3255C9.09883 24.0437 9.88065 25.6255 10.9534 27.0255C12.3625 28.8619 14.2261 30.3164 16.3352 31.2255C16.6806 31.371 16.8443 31.771 16.6897 32.1255C16.5897 32.3801 16.3352 32.5346 16.0716 32.5346Z" fill="#0F62FE"/>
<path d="M21.9079 44.3248C21.7352 44.3248 21.5625 44.2612 21.4352 44.1339L20.317 43.043C20.0443 42.7793 20.0443 42.3521 20.3079 42.0793C20.5716 41.8157 20.9988 41.8066 21.2716 42.0703L21.9079 42.6884C22.1807 42.3975 22.5534 41.9703 22.9443 41.4521C23.0807 41.2793 23.2261 41.0884 23.3625 40.8884L23.4261 40.7884C23.5352 40.6248 23.6443 40.4612 23.7534 40.2884C24.6898 38.7612 25.1625 37.3339 25.1625 36.043V35.9339C25.1534 35.8703 25.1443 35.7521 25.1352 35.643C25.1352 35.6339 25.1352 35.6066 25.1352 35.5793C25.0352 35.5521 24.9352 35.5248 24.8261 35.5066L24.717 35.4975C24.6898 35.4975 24.6716 35.4884 24.6443 35.4884L23.1625 35.2521C22.9898 35.2521 22.8261 35.1793 22.6988 35.0521C22.4352 34.7884 22.4352 34.3521 22.6988 34.0884C22.8534 33.9339 23.0716 33.8612 23.2807 33.8884H23.3261L24.8625 34.1339C24.8807 34.1339 24.8988 34.143 24.917 34.143L25.0443 34.1612C25.0716 34.1612 25.1261 34.1793 25.1534 34.1793C25.4352 34.2521 25.717 34.3248 25.9807 34.4066C26.2625 34.4975 26.5261 34.7793 26.5261 35.0703C26.5352 35.1339 26.5261 35.2612 26.4988 35.443C26.4988 35.6248 26.5079 35.7339 26.5261 35.8521V36.043C26.5261 37.5884 25.9807 39.2612 24.917 41.0066C24.7988 41.1975 24.6807 41.3793 24.5625 41.5612L24.4898 41.6703C24.3261 41.8975 24.1716 42.1066 24.0352 42.2884C23.1898 43.4157 22.417 44.1248 22.3898 44.1521C22.2352 44.2703 22.0716 44.3248 21.9079 44.3248Z" fill="#0F62FE"/>
<path d="M14.0537 44.3259C13.8901 44.3259 13.7264 44.2622 13.5901 44.144C13.5537 44.1168 12.7901 43.4077 11.9355 42.2713C11.7992 42.0986 11.6446 41.8986 11.4992 41.6804L11.4174 41.5531C11.2992 41.3713 11.1719 41.1895 11.0537 40.9895C10.2446 39.6713 9.73553 38.3986 9.55371 37.2077C9.54462 37.1713 9.54462 37.135 9.54462 37.0986C9.51735 36.7531 9.49917 36.4168 9.48099 36.135L9.46281 35.835C9.46281 35.8259 9.46281 35.7531 9.46281 35.735V35.7259V35.7168C9.46281 35.6804 9.4719 35.6168 9.4719 35.5622C9.4719 35.4168 9.4628 35.2531 9.45371 35.1531C9.41735 34.8259 9.61735 34.5168 9.93553 34.4259L10.3537 34.2986C10.3719 34.2895 10.3901 34.2895 10.4083 34.2804C10.4174 34.2804 10.4264 34.2713 10.4446 34.2713C10.4537 34.2713 10.4628 34.2622 10.4719 34.2622L10.7537 34.1713C10.7901 34.1622 10.8174 34.1531 10.8537 34.144L12.6264 33.8804C12.9901 33.835 13.3446 34.0804 13.3992 34.4531C13.4537 34.8259 13.1992 35.1713 12.8264 35.2259L11.281 35.4531C11.2446 35.4713 11.2083 35.4804 11.1719 35.4895C11.1719 35.4895 11.1083 35.5077 11.0174 35.5168C11.0174 35.5168 11.0174 35.5168 11.0083 35.5168C10.9719 35.5259 10.9355 35.535 10.8992 35.544C10.881 35.5531 10.8537 35.5531 10.8264 35.5622C10.8264 35.5986 10.8264 35.635 10.8174 35.6713V35.7804L10.8264 36.044C10.8446 36.3168 10.8628 36.6531 10.8901 37.0168C11.0446 37.9895 11.4901 39.0895 12.2083 40.2622C12.3174 40.444 12.4264 40.6077 12.5355 40.7713L12.6083 40.8804C12.7355 41.0622 12.8719 41.244 13.0083 41.4168C13.3992 41.944 13.7719 42.3622 14.0537 42.6622L14.681 42.0531C14.9537 41.7895 15.381 41.7986 15.6446 42.0622C15.9083 42.335 15.8992 42.7622 15.6355 43.0259L14.5264 44.1077C14.3901 44.2622 14.2174 44.3259 14.0537 44.3259Z" fill="#0F62FE"/>
<path d="M10.218 37.7823C9.89986 37.7823 9.61804 37.555 9.5544 37.2368C9.48168 36.8641 9.44531 36.4732 9.44531 36.0459C9.44531 35.9823 9.44531 35.9096 9.4544 35.8368C9.4544 35.8368 9.4544 35.8368 9.4544 35.8278C9.4544 35.5641 9.58168 35.3914 9.66349 35.3187C9.8544 35.1278 10.1362 35.0641 10.3908 35.1641C10.6453 35.2641 10.8089 35.4914 10.8271 35.7641L10.8453 36.0732C10.8635 36.3459 10.8817 36.6823 10.9089 37.0459C10.9362 37.4096 10.6817 37.7278 10.318 37.7732C10.2817 37.7823 10.2453 37.7823 10.218 37.7823Z" fill="#0F62FE"/>
<path d="M15.1532 43.2458C14.9805 43.2458 14.8078 43.1822 14.6714 43.0549C14.5441 42.9276 14.4623 42.7458 14.4714 42.564C14.4714 42.3822 14.5441 42.2003 14.6714 42.0731L17.5078 39.3367C17.7805 39.0731 18.2078 39.0822 18.4714 39.3549C18.735 39.6276 18.7259 40.0549 18.4532 40.3185L15.635 43.0549C15.5078 43.1731 15.335 43.2458 15.1532 43.2458Z" fill="#0F62FE"/>
<path d="M22.6265 57.3612H19.7719C19.3992 57.3612 19.0901 57.0521 19.0901 56.6794C19.0901 56.3066 19.3992 55.9975 19.7719 55.9975H22.2537C25.3446 50.7612 25.5446 38.3066 25.5446 35.7066C25.2446 35.5703 25.0901 35.2248 25.181 34.9066C25.281 34.543 25.6537 34.3339 26.0265 34.443C26.181 34.4885 26.3265 34.5339 26.4719 34.5885C26.7355 34.6885 26.9083 34.9339 26.9083 35.2157C26.9174 35.8612 27.0719 51.1248 23.1992 57.0612C23.0719 57.243 22.8628 57.3612 22.6265 57.3612Z" fill="#0F62FE"/>
<path d="M34.3726 57.3714L22.6271 57.3623C22.2544 57.3623 21.9453 57.0532 21.9453 56.6805C21.9453 56.3078 22.2544 55.9987 22.6271 55.9987L33.6817 56.0078V46.0532C33.6817 41.5169 30.5999 37.426 25.9999 35.8532C25.6453 35.7351 25.4544 35.3441 25.5726 34.9896C25.6908 34.6351 26.0817 34.4441 26.4362 34.5623C31.5817 36.3169 35.0362 40.9351 35.0362 46.0532V56.6805C35.0544 57.0623 34.7453 57.3714 34.3726 57.3714Z" fill="#0F62FE"/>
<path d="M16.1804 57.373H13.7713C13.5441 57.373 13.335 57.2639 13.2077 57.073C11.4259 54.4366 10.1895 47.7366 9.53498 37.1548C9.5077 36.7821 9.79861 36.4548 10.1713 36.4276C10.5441 36.4003 10.8713 36.6912 10.8986 37.0639C11.6532 49.2366 13.0532 54.1003 14.1532 56.0003H16.1804C16.5532 56.0003 16.8622 56.3094 16.8622 56.6821C16.8622 57.0548 16.5622 57.373 16.1804 57.373Z" fill="#0F62FE"/>
<path d="M13.7809 57.3736H1.59002C1.21729 57.3736 0.908203 57.0645 0.908203 56.6918V46.0554C0.908203 40.7554 4.52639 36.0827 9.91729 34.4282C10.2809 34.3191 10.6627 34.5191 10.7718 34.8827C10.8809 35.2464 10.6809 35.6282 10.3173 35.7373C5.5082 37.21 2.27184 41.3554 2.27184 46.0554V56.0009H13.7809C14.1537 56.0009 14.4627 56.31 14.4627 56.6827C14.4627 57.0554 14.1537 57.3736 13.7809 57.3736Z" fill="#0F62FE"/>
<path d="M5.38022 54.6464H4.31658C3.94386 54.6464 3.63477 54.3373 3.63477 53.9646V48.5373C3.63477 48.1646 3.94386 47.8555 4.31658 47.8555C4.68931 47.8555 4.9984 48.1646 4.9984 48.5373V53.2827H5.38022C5.75295 53.2827 6.06204 53.5918 6.06204 53.9646C6.06204 54.3373 5.75295 54.6464 5.38022 54.6464Z" fill="#0F62FE"/>
<path d="M9.36289 54.6449H8.14471C7.77198 54.6449 7.46289 54.3358 7.46289 53.9631C7.46289 53.5903 7.77198 53.2812 8.14471 53.2812H9.3538C9.72653 53.2812 10.0356 53.5903 10.0356 53.9631C10.0356 54.3358 9.73562 54.6449 9.36289 54.6449Z" fill="#0F62FE"/>
<path d="M17.9904 40.4994C17.9177 40.4994 17.854 40.4903 17.7813 40.4631C13.5631 39.1267 12.2631 34.9267 12.2086 34.7449C12.154 34.5449 12.1813 34.3358 12.2995 34.1631C12.4177 33.9903 12.5995 33.8812 12.8086 33.8721C13.0904 33.854 13.3722 33.8358 13.6631 33.8267L15.3449 31.3903C15.5359 31.1085 15.9086 31.0176 16.2086 31.1631L16.6086 31.3449C17.0722 31.554 17.5177 31.754 17.9813 31.8903C18.5449 31.7267 19.0995 31.4812 19.6722 31.2267C19.6813 31.2176 19.6995 31.2176 19.7086 31.2085C19.7904 31.1721 19.8449 31.1449 19.9086 31.1176C20.1995 31.0267 20.5268 31.1358 20.6904 31.3903L22.2995 33.8176C22.6086 33.8267 22.9177 33.8449 23.2359 33.8721C23.4449 33.8903 23.6359 34.0085 23.7449 34.1812C23.854 34.354 23.8813 34.5812 23.8086 34.7721L23.1631 34.5449L23.7995 34.7812C23.5359 35.5085 22.054 39.2267 18.1904 40.4449C18.1268 40.4903 18.0631 40.4994 17.9904 40.4994ZM13.854 35.1812C14.3904 36.3085 15.6359 38.2631 17.9904 39.0903C20.3177 38.2721 21.5813 36.3449 22.1631 35.1812C21.8631 35.1812 21.5359 35.1267 21.3631 34.8721L19.8722 32.6358C19.3086 32.8812 18.7449 33.1085 18.1449 33.2631C18.0359 33.2903 17.9177 33.2903 17.7995 33.2631C17.1995 33.1085 16.654 32.8721 16.1359 32.6358L14.5813 34.8994C14.4268 35.1176 14.1359 35.1812 13.854 35.1812Z" fill="#0F62FE"/>
<path d="M50.2077 36.2355C50.1259 36.2355 50.044 36.2173 49.9622 36.1901C49.6986 36.0901 49.5259 35.8264 49.5259 35.5355L49.6622 30.2991H36.4804C35.0895 30.2991 33.9531 29.1628 33.9531 27.7719V16.6991C33.9531 15.3082 35.0895 14.1719 36.4804 14.1719H56.5531C57.944 14.1719 59.0804 15.3082 59.0804 16.6991V27.7719C59.0804 29.1628 57.944 30.2991 56.5531 30.2991H55.7077L50.7077 35.9991C50.5895 36.1537 50.3986 36.2355 50.2077 36.2355ZM36.4804 15.5355C35.8349 15.5355 35.3168 16.0628 35.3168 16.6991V27.7719C35.3168 28.4173 35.844 28.9355 36.4804 28.9355H50.3622C50.544 28.9355 50.7259 29.0082 50.8531 29.1446C50.9804 29.281 51.0531 29.4537 51.044 29.6355L50.944 33.6901L54.9077 29.1719C55.0349 29.0264 55.2259 28.9355 55.4168 28.9355H56.5713C57.2168 28.9355 57.7349 28.4082 57.7349 27.7719V16.6991C57.7349 16.0537 57.2077 15.5355 56.5713 15.5355H36.4804Z" fill="#0F62FE"/>
<path d="M42.58 27.4011H39.2346C38.8618 27.4011 38.5527 27.092 38.5527 26.7192V22.592C38.5527 22.2192 38.8618 21.9102 39.2346 21.9102H42.58C42.9527 21.9102 43.2618 22.2192 43.2618 22.592V26.7192C43.2618 27.1011 42.9527 27.4011 42.58 27.4011ZM39.9164 26.0374H41.8982V23.2738H39.9164V26.0374Z" fill="#0F62FE"/>
<path d="M48.1991 27.3977H44.8537C44.481 27.3977 44.1719 27.0886 44.1719 26.7159V20.8068C44.1719 20.4341 44.481 20.125 44.8537 20.125H48.1991C48.5719 20.125 48.881 20.4341 48.881 20.8068V26.7159C48.881 27.0977 48.5719 27.3977 48.1991 27.3977ZM45.5264 26.0341H47.5082V21.4886H45.5264V26.0341Z" fill="#0F62FE"/>
<path d="M53.8085 27.398H50.4631C50.0903 27.398 49.7812 27.0889 49.7812 26.7162V17.9162C49.7812 17.5435 50.0903 17.2344 50.4631 17.2344H53.8085C54.1813 17.2344 54.4903 17.5435 54.4903 17.9162V26.7162C54.4903 27.098 54.1903 27.398 53.8085 27.398ZM51.1449 26.0344H53.1267V18.598H51.1449V26.0344Z" fill="#0F62FE"/>
<path d="M17.9986 44.4354C17.5532 44.4354 17.1077 44.3627 16.6714 44.2264C15.4805 43.8445 14.7168 43.09 14.6805 43.0536C14.5532 42.9263 14.4805 42.7536 14.4805 42.5718C14.4805 42.39 14.5532 42.2173 14.6805 42.09L17.5168 39.3354C17.7805 39.0809 18.2077 39.0809 18.4714 39.3354L21.2714 42.0718C21.4077 42.2082 21.4805 42.39 21.4805 42.5718C21.4714 42.7627 21.3896 42.9445 21.2532 43.0627C20.6532 43.59 20.035 43.9718 19.4077 44.1809C19.3714 44.1991 19.335 44.2173 19.2986 44.2264C18.8623 44.3627 18.435 44.4354 17.9986 44.4354ZM16.1987 42.5082C16.435 42.6536 16.735 42.8082 17.0805 42.9264C17.6532 43.1082 18.2168 43.1173 18.7714 42.9627C18.7987 42.9445 18.835 42.9354 18.8714 42.9264C19.1623 42.8354 19.4532 42.6991 19.7441 42.5082L17.9805 40.7809L16.1987 42.5082Z" fill="#0F62FE"/>
<path d="M15.1532 43.2458C14.9805 43.2458 14.8078 43.1822 14.6714 43.0549C14.5441 42.9276 14.4623 42.7458 14.4714 42.564C14.4714 42.3822 14.5441 42.2003 14.6714 42.0731L17.5078 39.3367C17.7805 39.0731 18.2078 39.0822 18.4714 39.3549C18.735 39.6276 18.7259 40.0549 18.4532 40.3185L15.635 43.0549C15.5078 43.1731 15.335 43.2458 15.1532 43.2458Z" fill="#0F62FE"/>
<path d="M54.8089 57.3739H34.7089C34.5089 57.3739 34.318 57.283 34.1907 57.1284C34.0634 56.9739 34.0089 56.7739 34.0362 56.5739L36.7271 41.0011C36.7816 40.6739 37.0634 40.4375 37.3998 40.4375H57.4998C57.6998 40.4375 57.8907 40.5284 58.018 40.683C58.1453 40.8375 58.1998 41.0375 58.1725 41.2375L55.4816 56.8102C55.4271 57.1284 55.1453 57.3739 54.8089 57.3739ZM35.518 56.0102H54.2362L56.6907 41.8011H37.9725L35.518 56.0102Z" fill="#0F62FE"/>
<path d="M46.1082 51.6795C44.581 51.6795 43.3264 50.4341 43.3264 48.9068C43.3264 47.3795 44.5719 46.125 46.1082 46.125C47.6446 46.125 48.8901 47.3705 48.8901 48.9068C48.8901 50.4432 47.6355 51.6795 46.1082 51.6795ZM46.1082 47.4886C45.3264 47.4886 44.6901 48.125 44.6901 48.9068C44.6901 49.6886 45.3264 50.3159 46.1082 50.3159C46.8901 50.3159 47.5264 49.6795 47.5264 48.9068C47.5264 48.1341 46.881 47.4886 46.1082 47.4886Z" fill="#0F62FE"/>
</svg>
