<svg width="58" height="58" viewBox="0 0 58 58" fill="none" xmlns="http://www.w3.org/2000/svg">
<path d="M0.875 42.6138C0.875 43.465 1.40492 44.1496 2.0579 44.6408C2.71088 45.132 3.55128 45.5059 4.55003 45.8237C6.5476 46.4592 9.19878 46.8344 12.1272 46.8344C14.1833 46.8344 16.0949 46.6448 17.7469 46.3162C17.7458 48.4241 17.747 50.9482 17.7469 52.9044C17.7469 53.7556 18.2768 54.4402 18.9298 54.9314C19.5828 55.4226 20.4231 55.8038 21.4219 56.1216C23.4195 56.7571 26.0707 57.125 28.9991 57.125C31.9275 57.125 34.5805 56.7571 36.5781 56.1216C37.5769 55.8037 38.4099 55.4226 39.0629 54.9314C39.7159 54.4402 40.2531 53.7556 40.2531 52.9044C40.2498 50.6826 40.2541 48.5777 40.2531 46.3162C41.9051 46.6451 43.8167 46.8344 45.8728 46.8344C48.8012 46.8344 51.4524 46.4592 53.45 45.8237C54.4487 45.5059 55.2891 45.132 55.9421 44.6408C56.5951 44.1496 57.125 43.465 57.125 42.6138V12.5882C57.1219 11.7369 56.5932 11.0547 55.9421 10.5649C55.2891 10.0738 54.4487 9.69802 53.45 9.38026C51.6722 8.81464 49.3619 8.4771 46.814 8.40613V5.56067C46.814 4.01876 45.5379 2.75181 43.9959 2.75181H31.6359C31.2465 1.6655 30.2129 0.874982 28.9991 0.875C27.7852 0.875018 26.7517 1.66553 26.3623 2.75184H13.9949C12.453 2.75184 11.186 4.01879 11.186 5.5607V8.40617C8.63811 8.47703 6.32783 8.81467 4.55003 9.38029C3.55128 9.69813 2.71088 10.0738 2.0579 10.565C1.40683 11.0547 0.878083 11.737 0.875 12.5882V42.6138ZM28.9991 2.75184C29.528 2.75184 29.9329 3.15681 29.9329 3.68568C29.9329 4.21456 29.528 4.62686 28.9991 4.62686C28.4702 4.62686 28.0579 4.21456 28.0579 3.68568C28.0579 3.15681 28.4702 2.75184 28.9991 2.75184ZM22.191 10.5652C21.538 10.074 20.6976 9.69827 19.6989 9.38051C17.9195 8.81443 15.6106 8.47693 13.0611 8.40641V5.56095C13.0611 5.02534 13.4593 4.62711 13.9949 4.62699L26.3659 4.62686C26.6505 5.41436 27.2718 6.03838 28.0579 6.32425V18.7114C26.3587 18.7603 24.7722 18.9311 23.3739 19.2094V12.5957C23.3739 11.741 22.844 11.0564 22.191 10.5652ZM43.9959 4.62686C44.5315 4.62686 44.939 5.0251 44.939 5.5607V8.40617C42.3894 8.47668 40.0805 8.81421 38.3011 9.38029C37.3024 9.69813 36.462 10.0738 35.809 10.565C35.156 11.0561 34.6261 11.7408 34.6261 12.5955V19.2092C33.2253 18.9303 31.6353 18.7597 29.9329 18.7111V6.32765C30.7228 6.04313 31.3468 5.41681 31.6322 4.62674L43.9959 4.62686ZM11.186 10.283V12.1287C11.188 12.6465 11.6094 13.0646 12.1272 13.0625C12.6421 13.0605 13.0591 12.6436 13.0611 12.1287V10.283C15.4479 10.3546 17.597 10.6775 19.1312 11.1656C19.9987 11.4416 20.6723 11.7725 21.063 12.0665C21.4538 12.3602 21.4989 12.5371 21.4989 12.592C21.4989 12.6469 21.4539 12.8308 21.063 13.1248C20.6723 13.4189 19.9987 13.7424 19.1312 14.0184C17.3962 14.5703 14.8944 14.9376 12.1272 14.9376C9.35997 14.9376 6.85265 14.5703 5.11768 14.0184C4.25022 13.7423 3.57661 13.4187 3.18588 13.1248C2.79515 12.8311 2.75007 12.6469 2.75007 12.592C2.75007 12.537 2.79507 12.3602 3.18588 12.0665C3.57661 11.7724 4.25022 11.4415 5.11768 11.1656C6.65035 10.678 8.80114 10.3551 11.186 10.283ZM44.939 10.283V12.1287C44.941 12.6436 45.3579 13.0605 45.8728 13.0625C46.3906 13.0646 46.812 12.6465 46.814 12.1287V10.283C49.1989 10.3553 51.3496 10.678 52.8823 11.1656C53.7498 11.4416 54.4234 11.7725 54.8142 12.0665C55.2049 12.3602 55.25 12.5371 55.25 12.592C55.25 12.6469 55.205 12.8308 54.8142 13.1248C54.4234 13.4189 53.7498 13.7424 52.8823 14.0184C51.1474 14.5703 48.64 14.9376 45.8728 14.9376C43.1056 14.9376 40.6038 14.5703 38.8688 14.0184C38.0013 13.7423 37.3277 13.4187 36.937 13.1248C36.5463 12.8311 36.5012 12.6469 36.5012 12.592C36.5012 12.537 36.5462 12.3602 36.937 12.0665C37.3277 11.7724 38.0013 11.4415 38.8688 11.1656C40.403 10.6775 42.5521 10.3547 44.939 10.283ZM2.75007 15.0566C3.27294 15.3454 3.87178 15.5934 4.55003 15.8091C6.5476 16.4447 9.19878 16.8144 12.1272 16.8144C15.0556 16.8144 17.7013 16.4447 19.6989 15.8091C20.3769 15.5934 20.9759 15.3453 21.4989 15.0566V19.6727C21.4741 19.6798 21.4457 19.6869 21.422 19.6939C20.4232 20.0118 19.5828 20.393 18.9298 20.8841C18.591 21.1389 18.2904 21.4465 18.0747 21.7997C16.4412 22.1899 14.3831 22.4405 12.1272 22.4405C9.36001 22.4405 6.85268 22.0733 5.11771 21.5213C4.25025 21.2453 3.57665 20.9144 3.18591 20.6204C2.79518 20.3267 2.75011 20.1499 2.75011 20.0949L2.75007 15.0566ZM36.5012 15.0566C37.0241 15.3454 37.6231 15.5934 38.3011 15.8091C40.2987 16.4447 42.9444 16.8144 45.8728 16.8144C48.8012 16.8144 51.4524 16.4447 53.45 15.8091C54.1282 15.5934 54.7271 15.3455 55.25 15.0566V20.0938C55.25 20.1488 55.205 20.3256 54.8142 20.6193C54.4234 20.9131 53.7498 21.2442 52.8823 21.5202C51.1474 22.0722 48.64 22.4394 45.8728 22.4394C43.6151 22.4394 41.5557 22.1875 39.9217 21.7967C39.7041 21.4442 39.401 21.1374 39.0629 20.883C38.4099 20.3918 37.5769 20.0106 36.5781 19.6928C36.5533 19.6857 36.5253 19.6786 36.5012 19.6715V15.0566ZM18.6863 17.7501C18.1684 17.75 17.7486 18.1698 17.7487 18.6876C17.7486 19.2053 18.1684 19.6251 18.6863 19.6251C19.2041 19.6251 19.6239 19.2053 19.6238 18.6876C19.6239 18.1698 19.2041 17.7501 18.6863 17.7501ZM39.3119 17.7501C38.7941 17.7501 38.3743 18.1698 38.3744 18.6876C38.3743 19.2053 38.7941 19.6251 39.3119 19.6251C39.8298 19.6251 40.2495 19.2053 40.2494 18.6876C40.2495 18.1698 39.8298 17.7501 39.3119 17.7501ZM4.65257 18.6345C4.51873 19.1351 4.81647 19.6494 5.31728 19.7826C7.27091 20.296 9.6607 20.5644 12.1272 20.5644C13.1068 20.5644 14.0824 20.518 15.0277 20.4326C15.5405 20.3833 15.9175 19.9295 15.8718 19.4164C15.8263 18.8998 15.3702 18.5184 14.8537 18.5649C13.9672 18.645 13.0517 18.6893 12.1272 18.6893C9.79925 18.6893 7.53798 18.4278 5.79518 17.9697C5.71652 17.9474 5.63528 17.9355 5.55351 17.9346C5.12958 17.9377 4.76021 18.2245 4.65257 18.6345ZM45.8729 18.6901C44.9483 18.6901 44.0328 18.6458 43.1463 18.5657C42.6299 18.5192 42.1737 18.9006 42.1282 19.4171C42.0826 19.9303 42.4595 20.3841 42.9724 20.4334C43.9177 20.5188 44.8932 20.5652 45.8729 20.5652C48.3393 20.5652 50.7291 20.2966 52.6828 19.7833C53.1835 19.6501 53.4813 19.1359 53.3475 18.6353C53.2399 18.2252 52.8705 17.9385 52.4465 17.9354C52.3647 17.9363 52.2835 17.9482 52.2049 17.9705C50.4621 18.4285 48.2008 18.6901 45.8729 18.6901ZM28.0579 20.5956V22.4394C28.0599 22.9572 28.4813 23.3753 28.9991 23.3733C29.514 23.3713 29.9309 22.9544 29.9329 22.4394V20.5956C32.3214 20.6675 34.476 20.99 36.0104 21.4781C36.8779 21.7542 37.5497 22.0833 37.9404 22.3772C38.3311 22.6709 38.3781 22.8478 38.3781 22.9027C38.3781 22.9576 38.3313 23.1433 37.9404 23.4374C37.5497 23.7311 36.8779 24.0604 36.0104 24.3364C34.2754 24.8884 31.7663 25.2501 28.9991 25.2501C26.2319 25.2501 23.7245 24.8884 21.9896 24.3364C21.1221 24.0604 20.4485 23.7313 20.0577 23.4374C19.667 23.1433 19.6219 22.9576 19.6219 22.9027C19.6219 22.8478 19.6669 22.671 20.0577 22.3772C20.4485 22.0834 21.1221 21.7541 21.9896 21.4781C23.5222 20.9905 25.673 20.668 28.0579 20.5956ZM2.75007 22.5566C3.27291 22.8436 3.87185 23.0898 4.55003 23.3055C6.5476 23.9411 9.19878 24.309 12.1272 24.309C14.1833 24.309 16.0949 24.1247 17.7469 23.7981C17.7496 25.7319 17.746 27.4401 17.7469 29.3792C16.1669 29.7243 14.2348 29.9413 12.1272 29.9413C9.35997 29.9413 6.85265 29.5796 5.11768 29.0276C4.25022 28.7516 3.57661 28.4225 3.18588 28.1286C2.79515 27.8348 2.75007 27.6579 2.75007 27.6031V22.5566ZM55.25 22.5566V27.6031C55.25 27.658 55.205 27.8348 54.8142 28.1286C54.4234 28.4223 53.7498 28.7516 52.8823 29.0276C51.1474 29.5796 48.64 29.9413 45.8728 29.9413C43.7652 29.9413 41.8331 29.7241 40.2531 29.3792C40.254 27.5717 40.2528 25.5084 40.2531 23.7981C41.9051 24.1248 43.8167 24.309 45.8728 24.309C48.8012 24.309 51.4524 23.9411 53.45 23.3055C54.1281 23.0898 54.7271 22.8435 55.25 22.5566ZM38.3781 25.3636V30.4046C38.3781 30.4595 38.3313 30.6381 37.9404 30.9319C37.5497 31.226 36.8779 31.555 36.0104 31.8309C34.2754 32.383 31.7663 32.752 28.9991 32.752C26.2319 32.752 23.7245 32.383 21.9896 31.8309C21.1221 31.5549 20.4485 31.2258 20.0577 30.9319C19.667 30.6382 19.6219 30.4595 19.6219 30.4046V25.3673C20.1448 25.6561 20.7437 25.9059 21.4219 26.1217C23.4195 26.7572 26.0707 27.1251 28.9991 27.1251C31.9275 27.1251 34.5805 26.7572 36.5781 26.1217C37.259 25.9052 37.8558 25.6541 38.3781 25.3636ZM5.31728 27.2772C7.27095 27.7906 9.6607 28.0591 12.1272 28.0591C13.1068 28.059 14.0824 28.0201 15.0277 27.9347C15.5405 27.8854 15.9174 27.4316 15.8718 26.9185C15.8263 26.402 15.3702 26.0205 14.8537 26.067C13.9672 26.1471 13.0518 26.1843 12.1272 26.1843C9.79925 26.1843 7.53798 25.9228 5.79518 25.4647C5.71621 25.4448 5.63496 25.4353 5.55351 25.4367C5.12957 25.4396 4.76019 25.7264 4.65257 26.1365C4.52342 26.6347 4.82013 27.1439 5.31728 27.2772ZM45.8729 26.1849C44.9483 26.1849 44.0328 26.1477 43.1463 26.0677C42.6299 26.0211 42.1737 26.4026 42.1282 26.9191C42.0826 27.4322 42.4595 27.8861 42.9724 27.9353C43.9177 28.0207 44.8932 28.0597 45.8729 28.0597C48.3393 28.0597 50.7291 27.7911 52.6828 27.2778C53.1799 27.1445 53.4766 26.6354 53.3475 26.1371C53.2399 25.7271 52.8705 25.4403 52.4465 25.4373C52.3651 25.4359 52.2839 25.4454 52.2049 25.4653C50.4621 25.9233 48.2008 26.1849 45.8729 26.1849ZM22.4364 28.0627C21.9185 28.0627 21.4987 28.4825 21.4989 29.0003C21.4987 29.518 21.9185 29.9378 22.4364 29.9377C22.9542 29.9378 23.374 29.518 23.3739 29.0003C23.374 28.4825 22.9542 28.0627 22.4364 28.0627ZM28.999 29.001C28.0745 29.001 27.1517 28.9563 26.2651 28.8766C25.7494 28.8312 25.2944 29.2121 25.2489 29.728C25.2025 30.2445 25.5837 30.7006 26.1003 30.7461C27.0457 30.8315 28.0194 30.8779 28.999 30.8779C31.4655 30.8779 33.8498 30.6075 35.8034 30.0942C36.3065 29.9635 36.6071 29.4484 36.4736 28.9461C36.3662 28.5368 35.9978 28.2502 35.5746 28.2463C35.4903 28.2463 35.4067 28.2566 35.3255 28.2814C33.5827 28.7393 31.327 29.001 28.999 29.001ZM2.75007 30.0605C3.27294 30.3493 3.87178 30.5973 4.55003 30.8131C6.5476 31.4486 9.19878 31.8183 12.1272 31.8183C14.1833 31.8183 16.0949 31.6288 17.7469 31.3001C17.7473 33.2371 17.7475 34.9836 17.7469 36.8885C16.1669 37.2337 14.2348 37.4506 12.1272 37.4506C9.35997 37.4507 6.85265 37.0816 5.11768 36.5296C4.25022 36.2536 3.57661 35.9318 3.18588 35.6379C2.79515 35.3438 2.75007 35.16 2.75007 35.1051V30.0605ZM55.25 30.0605V35.1051C55.25 35.16 55.205 35.3439 54.8142 35.6379C54.4234 35.9317 53.7498 36.2536 52.8823 36.5296C51.1474 37.0816 48.64 37.4507 45.8728 37.4506C43.7652 37.4506 41.8331 37.2334 40.2531 36.8885C40.2539 34.996 40.2522 33.1363 40.2531 31.3001C41.9051 31.6289 43.8167 31.8183 45.8728 31.8183C48.8012 31.8183 51.4524 31.4486 53.45 30.8131C54.1282 30.5973 54.7271 30.3494 55.25 30.0605ZM38.3781 32.8657V37.9084C38.3781 37.9634 38.3313 38.1402 37.9404 38.434C37.5497 38.7281 36.8779 39.057 36.0104 39.333C34.2754 39.885 31.7663 40.2467 28.9991 40.2467C26.2319 40.2467 23.7245 39.885 21.9896 39.333C21.1221 39.057 20.4485 38.7278 20.0577 38.434C19.667 38.1402 19.6219 37.9633 19.6219 37.9084V32.8694C20.1448 33.1564 20.7437 33.4007 21.4219 33.6164C23.4195 34.2519 26.0707 34.6272 28.9991 34.6272C31.9275 34.6272 34.5805 34.2519 36.5781 33.6164C37.259 33.3999 37.8558 33.1541 38.3781 32.8657ZM5.31728 34.7793C7.27095 35.2926 9.6607 35.5611 12.1272 35.5611C13.1068 35.5611 14.0824 35.5221 15.0277 35.4367C15.5405 35.3874 15.9174 34.9336 15.8718 34.4205C15.8263 33.904 15.3702 33.5225 14.8537 33.569C13.9672 33.6491 13.0518 33.6863 12.1272 33.6863C9.79925 33.6863 7.53798 33.4248 5.79518 32.9667C5.71621 32.9468 5.63496 32.9373 5.55351 32.9387C5.12958 32.9417 4.76021 33.2285 4.65257 33.6385C4.5234 34.1367 4.82011 34.646 5.31728 34.7793ZM45.8729 33.687C44.9483 33.687 44.0328 33.6498 43.1463 33.5697C42.6299 33.5232 42.1737 33.9047 42.1282 34.4212C42.0826 34.9343 42.4595 35.3881 42.9724 35.4374C43.9177 35.5228 44.8932 35.5618 45.8729 35.5618C48.3393 35.5618 50.7291 35.2932 52.6828 34.7799C53.1799 34.6466 53.4766 34.1374 53.3475 33.6392C53.2398 33.2292 52.8705 32.9424 52.4465 32.9394C52.3651 32.938 52.2839 32.9475 52.2049 32.9674C50.4621 33.4254 48.2008 33.687 45.8729 33.687ZM22.4364 35.5629C21.9185 35.5629 21.4987 35.9827 21.4989 36.5004C21.4987 37.0182 21.9185 37.438 22.4364 37.438C22.9542 37.438 23.374 37.0182 23.3739 36.5004C23.374 35.9827 22.9542 35.5629 22.4364 35.5629ZM26.1003 38.2483C27.0457 38.3337 28.0194 38.3727 28.999 38.3727C31.4655 38.3727 33.8498 38.1041 35.8034 37.5908C36.3037 37.4601 36.6036 36.9488 36.4736 36.4482C36.3662 36.0389 35.9978 35.7523 35.5746 35.7483C35.4906 35.7458 35.407 35.7551 35.3255 35.7763C33.5827 36.2343 31.327 36.5032 28.999 36.5032C28.0745 36.5032 27.1517 36.4589 26.2652 36.3788C25.7494 36.3335 25.2944 36.7144 25.2485 37.2305C25.2025 37.7467 25.5838 38.2028 26.1003 38.2483ZM2.75007 37.5698C3.27294 37.8586 3.87178 38.1066 4.55003 38.3224C6.5476 38.9579 9.19878 39.3258 12.1272 39.3258C14.1833 39.3258 16.0949 39.1377 17.7469 38.8094C17.746 40.6951 17.7479 42.5759 17.7469 44.3923C16.1669 44.7389 14.2347 44.96 12.1272 44.96C9.35997 44.96 6.85265 44.5909 5.11768 44.039C4.25022 43.7629 3.57661 43.4338 3.18588 43.1399C2.79515 42.8462 2.75007 42.6693 2.75007 42.6144V37.5698ZM55.25 37.5698V42.6144C55.25 42.6693 55.205 42.8461 54.8142 43.1399C54.4234 43.434 53.7498 43.763 52.8823 44.039C51.1474 44.5909 48.64 44.96 45.8728 44.96C43.7653 44.96 41.8331 44.7389 40.2531 44.3923C40.2528 42.4741 40.2525 40.7124 40.2531 38.8094C41.9051 39.1376 43.8167 39.3258 45.8728 39.3258C48.8012 39.3258 51.4524 38.9579 53.45 38.3224C54.1282 38.1066 54.7271 37.8587 55.25 37.5698ZM38.3781 40.3677V45.4104C38.3781 45.4654 38.3313 45.6422 37.9404 45.9359C37.5497 46.2297 36.8779 46.559 36.0104 46.835C34.2754 47.387 31.7663 47.7487 28.9991 47.7487C26.2319 47.7487 23.7245 47.387 21.9896 46.835C21.1221 46.559 20.4485 46.2298 20.0577 45.9359C19.667 45.6422 19.6219 45.4653 19.6219 45.4104V40.3713C20.1448 40.658 20.7437 40.9027 21.4219 41.1184C23.4195 41.7539 26.0707 42.1218 28.9991 42.1218C31.9275 42.1218 34.5805 41.7539 36.5781 41.1184C37.259 40.9019 37.8558 40.656 38.3781 40.3677ZM5.31728 42.2811C7.27095 42.7945 9.6607 43.063 12.1272 43.063C13.1068 43.0629 14.0824 43.0183 15.0277 42.9329C15.5413 42.8837 15.9185 42.4287 15.8718 41.9149C15.8226 41.4013 15.3676 41.0241 14.8537 41.0707C13.9672 41.1508 13.0518 41.188 12.1272 41.188C9.79925 41.188 7.53798 40.9265 5.79518 40.4684C5.71652 40.4461 5.63528 40.4341 5.55351 40.4333C5.12958 40.4363 4.76021 40.7231 4.65257 41.1331C4.51876 41.6337 4.81649 42.1479 5.31728 42.2811ZM45.8729 41.1886C44.9483 41.1886 44.0328 41.1514 43.1463 41.0713C42.6325 41.0246 42.1775 41.4019 42.1282 41.9154C42.0815 42.4293 42.4588 42.8842 42.9724 42.9335C43.9177 43.0189 44.8932 43.0635 45.8729 43.0635C48.3393 43.0635 50.7291 42.795 52.6828 42.2817C53.1835 42.1485 53.4813 41.6342 53.3475 41.1336C53.2398 40.7236 52.8705 40.4368 52.4465 40.4339C52.3647 40.4348 52.2835 40.4466 52.2049 40.469C50.4621 40.927 48.2008 41.1886 45.8729 41.1886ZM22.4364 43.063C21.9185 43.0629 21.4987 43.4827 21.4989 44.0005C21.4987 44.5183 21.9185 44.938 22.4364 44.938C22.9542 44.938 23.374 44.5183 23.3739 44.0005C23.374 43.4827 22.9542 43.0629 22.4364 43.063ZM28.999 43.9977C28.0745 43.9976 27.1517 43.9605 26.2651 43.8804C25.7494 43.835 25.2944 44.2159 25.2489 44.7318C25.2025 45.2483 25.5837 45.7044 26.1003 45.7499C27.0457 45.8353 28.0194 45.8743 28.999 45.8743C31.4655 45.8743 33.8498 45.6057 35.8034 45.0924C36.3037 44.9617 36.6036 44.4503 36.4736 43.9498C36.3662 43.5405 35.9978 43.2539 35.5746 43.25C35.4906 43.2477 35.407 43.2568 35.3255 43.278C33.5827 43.7361 31.327 43.9977 28.999 43.9977ZM38.3781 47.864V52.9049C38.3781 52.9598 38.3313 53.1437 37.9404 53.4378C37.5497 53.7315 36.8779 54.0608 36.0104 54.3368C34.2754 54.8888 31.7663 55.2505 28.9991 55.2505C26.2319 55.2505 23.7245 54.8888 21.9896 54.3368C21.1221 54.0608 20.4485 53.7316 20.0577 53.4378C19.667 53.1437 19.6219 52.9598 19.6219 52.9049V47.8677C20.1447 48.1564 20.7439 48.4045 21.4219 48.6202C23.4195 49.2557 26.0707 49.6236 28.9991 49.6236C31.9275 49.6236 34.5805 49.2557 36.5781 48.6202C37.2588 48.4037 37.8559 48.1543 38.3781 47.864ZM22.4364 50.563C21.9185 50.5629 21.4987 50.9827 21.4989 51.5005C21.4987 52.0182 21.9185 52.438 22.4364 52.438C22.9542 52.438 23.374 52.0182 23.3739 51.5005C23.374 50.9827 22.9542 50.5629 22.4364 50.563ZM25.2489 52.2263C25.2025 52.7427 25.5837 53.1988 26.1003 53.2443C27.0457 53.3297 28.0194 53.3761 28.999 53.3761C31.4655 53.3762 33.8498 53.1076 35.8034 52.5943C36.3037 52.4635 36.6036 51.9522 36.4736 51.4517C36.3662 51.0424 35.9978 50.7557 35.5746 50.7519C35.4906 50.7494 35.407 50.7586 35.3255 50.7799C33.5827 51.2378 31.327 51.4995 28.999 51.4995C28.0745 51.4994 27.1517 51.4622 26.2652 51.3822C25.752 51.3365 25.2982 51.7135 25.2489 52.2263Z" fill="#0F62FE"/>
</svg>
