<svg width="499" height="503" viewBox="0 0 499 503" fill="none" xmlns="http://www.w3.org/2000/svg">
<mask id="mask0_339_3884" style="mask-type:luminance" maskUnits="userSpaceOnUse" x="-70" y="-239" width="569" height="948">
<path d="M-70 708.145L-70 -238.941L498.998 -238.941L498.998 708.145L-70 708.145Z" fill="white"/>
</mask>
<g mask="url(#mask0_339_3884)">
<path d="M425.749 833.993C365.814 812.835 303.831 790.976 251.199 752.24C194.47 710.493 156.973 651.319 145.612 585.629C142.71 568.884 141.268 551.553 141.268 533.577C141.268 484.423 152.117 430.401 174.024 369.864C187.395 332.946 204.579 297.07 221.194 262.388C234.376 234.866 248.031 206.396 259.677 177.586C265.993 161.978 273.2 141.673 273.2 122.617C273.2 122.428 273.2 122.238 273.2 122.049C273.124 112.54 271.228 103.846 267.548 96.1934C263.47 87.7075 257.041 80.1308 248.411 73.6906C231.113 60.7724 210.516 52.1728 190.582 43.8574C187.414 42.5315 184.133 41.1677 180.947 39.8038C154.374 28.5145 124.255 15.71 95.9762 0.329291C35.321 -32.6862 -1.56905 -79.6995 -27.3447 -156.925C-51.5461 -229.434 -47.9234 -346.892 -19.2459 -418.757C31.5656 -546.102 67.3936 -567.639 102.027 -588.475C111.889 -594.403 121.221 -600.01 130.761 -608.022C150.543 -624.615 172.222 -618.933 195.172 -612.909C204.143 -610.561 213.436 -608.117 222.939 -606.905L222.958 -607.094C213.455 -608.307 204.181 -610.75 195.21 -613.099C183.507 -616.167 172.45 -619.066 161.677 -619.16C149.557 -619.255 139.694 -615.77 130.628 -608.174C121.107 -600.181 111.775 -594.574 101.913 -588.645C84.8998 -578.417 67.3177 -567.847 47.5735 -543.867C36.9142 -530.892 26.6533 -515.322 16.2027 -496.228C4.40545 -474.692 -7.24004 -449.367 -19.4356 -418.832C-26.3774 -401.444 -31.9725 -381.044 -36.0883 -358.181C-40.0712 -336.057 -42.48 -312.626 -43.2387 -288.551C-44.0163 -264.4 -43.1059 -240.856 -40.5265 -218.58C-37.8522 -195.434 -33.4709 -174.673 -27.5343 -156.887C-14.7888 -118.72 -0.241383 -89.5303 18.27 -65.0576C38.3936 -38.4445 63.7709 -17.0024 95.8814 0.461859C124.161 15.8615 154.299 28.6472 180.871 39.9554C184.057 41.3002 187.338 42.683 190.506 44.0089C210.421 52.3244 231.018 60.905 248.278 73.8232C284.125 100.607 274.85 139.494 259.468 177.51C247.823 206.321 234.186 234.79 221.004 262.312C204.389 296.995 187.187 332.87 173.815 369.807C159.932 408.164 150.695 442.941 145.593 476.108C142.71 494.898 141.174 513.328 141.041 530.868C140.889 549.715 142.369 568.146 145.384 585.667C151.15 619.061 163.44 650.561 181.876 679.296C199.799 707.235 223.071 731.84 251.047 752.411C274.49 769.667 302.029 785.123 335.221 799.689C365.226 812.854 395.952 823.708 425.654 834.182L425.749 833.993Z" fill="url(#paint0_linear_339_3884)" fill-opacity="0.2"/>
<path d="M415.545 833.918C355.06 806.756 305.216 781.014 258.634 743.718C206.874 702.368 170.667 642.891 156.651 576.216C142.046 506.757 147.793 434.21 173.74 360.564C187.623 321.62 206.324 283.926 224.38 247.482C236.879 222.271 249.815 196.207 261.043 169.935C267.662 154.441 275.344 134.211 275.875 115.231C276.14 105.874 274.623 97.2744 271.399 89.6977C267.814 81.2875 261.972 73.7677 254.006 67.3085C238.833 55.0154 220.701 46.4537 203.157 38.1572C199.307 36.3388 195.343 34.4636 191.473 32.5883C183.621 28.7621 175.712 25.0117 167.367 21.0339C147.604 11.6388 127.177 1.92164 107.224 -8.78045C45.1839 -42.2126 7.19376 -88.3547 -19.8526 -163.042C-45.3817 -233.562 -42.9539 -348.16 -14.4661 -418.471C35.473 -541.706 70.7509 -562.959 104.853 -583.511C114.469 -589.307 123.573 -594.781 132.923 -602.509C153.047 -619.121 175.086 -614.101 198.415 -608.798C207.424 -606.752 216.737 -604.631 226.258 -603.684L226.277 -603.911C216.775 -604.877 207.462 -606.979 198.453 -609.025C175.086 -614.329 152.99 -619.348 132.772 -602.68C123.44 -594.97 114.355 -589.496 104.739 -583.7C87.9536 -573.585 70.5991 -563.129 51.1773 -539.774C40.6888 -527.159 30.5986 -512.024 20.3376 -493.518C8.74903 -472.645 -2.70679 -448.115 -14.6747 -418.547C-29.9808 -380.815 -37.7571 -330.354 -37.7571 -280.803C-37.7571 -237.919 -31.9343 -195.697 -20.0802 -162.947C-13.5367 -144.858 -6.59497 -129.004 1.10548 -114.456C9.24215 -99.0946 18.0806 -85.5513 28.095 -73.0308C48.8444 -47.1185 74.6769 -26.0364 107.091 -8.57208C127.063 2.13001 147.49 11.8471 167.253 21.2422C175.617 25.22 183.507 28.9705 191.36 32.7966C195.229 34.6719 199.193 36.5472 203.043 38.3656C220.568 46.6431 238.7 55.2048 253.854 67.479C286.97 94.3195 276.785 132.544 260.834 169.84C249.606 196.093 236.69 222.157 224.191 247.369C206.116 283.813 187.433 321.507 173.531 360.47C147.585 434.153 141.819 506.757 156.442 576.254C163.479 609.724 175.883 641.186 193.294 669.75C210.667 698.258 232.612 723.185 258.501 743.888C281.091 761.978 306.089 778.552 334.937 794.558C363.5 810.412 392.975 824.031 415.45 834.127L415.545 833.918Z" fill="url(#paint1_linear_339_3884)" fill-opacity="0.2"/>
<path d="M405.339 833.862C353.523 804.332 309.254 773.002 266.067 735.213C218.822 694.091 184.815 635.845 167.688 566.802C148.323 488.724 150.219 418.223 173.454 351.245C187.641 310.331 207.935 270.97 227.527 232.916C239.381 209.921 251.615 186.149 262.407 162.282C269.292 147.034 277.334 127.146 278.529 108.431C278.623 106.802 278.68 105.192 278.68 103.62C278.68 86.3071 272.402 72.3092 259.562 60.9442C246.304 49.2003 230.372 40.6954 214.971 32.4558C210.685 30.1638 206.247 27.7962 201.941 25.3905C187.811 17.5108 172.316 9.68781 155.89 1.39137C143.6 -4.8026 130.911 -11.2239 118.393 -17.8724C55.045 -51.494 15.9169 -96.7269 -12.4002 -169.103C-39.238 -237.653 -38.0241 -349.372 -9.70696 -418.149C39.3597 -537.312 74.1065 -558.28 107.696 -578.567C117.066 -584.23 125.923 -589.572 135.084 -596.997C155.568 -613.609 177.968 -609.29 201.695 -604.725C210.742 -602.983 220.092 -601.183 229.614 -600.463L229.633 -600.71C220.111 -601.41 210.761 -603.21 201.733 -604.953C177.949 -609.536 155.492 -613.874 134.913 -597.186C125.791 -589.78 116.933 -584.439 107.564 -578.775C90.9868 -568.774 73.8599 -558.432 54.7605 -535.702C44.4427 -523.427 34.5421 -508.748 24.4519 -490.81C13.0909 -470.58 1.82474 -446.846 -9.95352 -418.244C-16.8953 -401.386 -22.3387 -381.762 -26.151 -359.884C-29.8305 -338.764 -31.8031 -316.451 -32.0686 -293.569C-32.3152 -270.688 -30.8168 -248.393 -27.6114 -227.292C-24.2923 -205.433 -19.2661 -185.829 -12.6658 -169.009C-5.76192 -151.393 1.54023 -135.861 9.69587 -121.522C18.2308 -106.539 27.4296 -93.2795 37.8613 -80.9673C59.2367 -55.718 85.5433 -34.9957 118.28 -17.6072C130.798 -10.9587 143.505 -4.55639 155.777 1.6565C172.183 9.93403 187.697 17.7759 201.809 25.6368C206.114 28.0424 210.552 30.41 214.839 32.702C230.24 40.9227 246.153 49.4465 259.372 61.1525C289.757 88.0498 278.661 125.611 262.141 162.188C251.368 186.035 239.116 209.807 227.281 232.803C207.669 270.875 187.394 310.236 173.188 351.17C167.081 368.766 162.396 386.875 159.248 404.964C156.194 422.504 154.506 440.593 154.221 458.74C153.937 476.242 154.961 494.388 157.237 512.648C159.418 530.169 162.851 548.41 167.422 566.859C175.786 600.556 188.304 631.981 204.616 660.242C221.439 689.374 242.056 714.642 265.878 735.384C309.084 773.172 353.352 804.521 405.188 834.051L405.339 833.862Z" fill="url(#paint2_linear_339_3884)" fill-opacity="0.2"/>
<path d="M395.135 833.786C353.939 803.896 317.998 769.403 276.385 729.455L273.502 726.69C231.225 686.401 199.343 629.443 178.726 557.389C167.972 519.846 158.413 477.89 158.413 433.188C158.413 403.809 162.547 373.256 173.188 341.945C187.64 299.402 209.414 258.696 230.486 219.316C241.752 198.234 253.416 176.451 263.791 154.668C270.923 139.685 279.344 120.137 281.202 101.65C283.137 82.4245 277.902 67.0438 265.157 54.618C253.606 43.3667 239.685 34.8997 226.199 26.7168C221.685 23.9703 217.019 21.148 212.467 18.2309C194.487 6.69538 172.372 -4.74541 148.948 -16.8682C142.632 -20.1451 136.089 -23.5167 129.64 -26.9073C65.7228 -60.4531 24.2049 -106.178 -4.94679 -175.183C-33.0743 -241.782 -33.0743 -350.64 -4.94678 -417.827C43.2284 -532.917 77.4442 -553.601 110.522 -573.604C119.645 -579.116 128.275 -584.344 137.208 -591.466C158.033 -608.097 180.812 -604.46 204.919 -600.615C214.004 -599.175 223.373 -597.679 232.913 -597.224L232.932 -597.508C223.411 -597.963 214.023 -599.459 204.957 -600.899C180.793 -604.763 157.976 -608.4 137.037 -591.693C128.104 -584.571 119.493 -579.362 110.37 -573.85C94.002 -563.962 77.1028 -553.734 58.3258 -531.629C48.1977 -519.695 38.4678 -505.451 28.5482 -488.082C17.3959 -468.515 6.33835 -445.576 -5.23128 -417.94C-18.9252 -385.228 -26.4739 -342.06 -26.4739 -296.353C-26.4739 -296.259 -26.4739 -296.183 -26.4739 -296.088C-26.4549 -273.851 -24.6721 -252.162 -21.1253 -231.648C-17.4837 -210.453 -12.1351 -191.416 -5.23129 -175.07C9.31609 -140.633 26.6136 -112.467 47.6666 -88.9225C69.6299 -64.374 96.3728 -44.0117 129.47 -26.642C135.918 -23.2515 142.462 -19.8799 148.778 -16.6029C172.201 -4.48022 194.316 6.96058 212.278 18.4772C216.83 21.3942 221.496 24.2355 226.01 26.9631C240.102 35.5058 253.397 43.5939 264.929 54.8264C292.563 81.7804 280.577 118.679 263.488 154.536C253.113 176.319 241.467 198.102 230.182 219.184C209.11 258.564 187.337 299.288 172.865 341.851C161.144 376.381 156.44 411.764 158.488 450.065C160.195 481.83 166.53 515.963 178.403 557.464C188.19 591.692 200.822 623.079 215.938 650.714C232.25 680.548 251.52 706.176 273.255 726.879L276.138 729.645C317.751 769.593 353.693 804.105 394.907 833.995L395.135 833.786Z" fill="url(#paint3_linear_339_3884)" fill-opacity="0.2"/>
<path d="M384.951 833.748C364.391 814.541 346.316 793.194 327.178 770.596C312.783 753.605 297.913 736.047 280.976 718.184C244.256 679.486 214.422 623.798 189.803 547.974C174.042 499.445 160.955 453.777 160.955 406.934C160.955 382.67 164.464 358.083 172.942 332.625C187.584 288.643 210.856 246.744 233.351 206.246C244.086 186.907 255.2 166.923 265.196 147.015C272.574 132.317 281.355 113.091 283.897 94.8499C284.39 91.2698 284.636 87.8225 284.636 84.5076C284.636 70.2824 280.065 58.3681 270.772 48.291C260.776 37.4375 249.15 29.3872 236.859 20.8823C232.307 17.738 227.604 14.4611 222.995 11.0705C202.89 -3.81768 174.839 -18.3459 145.137 -33.7456L140.869 -35.9618C75.4916 -69.8865 32.8167 -114.684 2.52705 -181.245C-27.4023 -246.992 -28.5782 -350.773 -0.18516 -417.505C47.0607 -528.523 80.7833 -548.923 113.368 -568.66C121.865 -573.793 130.628 -579.116 139.352 -585.954C160.538 -602.585 183.677 -599.649 208.182 -596.561C217.286 -595.406 226.712 -594.213 236.253 -594.004L236.253 -594.307C226.712 -594.516 217.305 -595.709 208.201 -596.864C183.639 -599.971 160.443 -602.926 139.144 -586.2C130.438 -579.362 121.656 -574.059 113.178 -568.925C80.5367 -549.169 46.7762 -528.731 -0.507593 -417.657C-14.2205 -385.456 -21.4467 -343.178 -20.8777 -298.608C-20.5932 -276.995 -18.5069 -255.951 -14.6567 -236.024C-10.6927 -215.473 -5.02165 -197.023 2.20462 -181.15C17.3969 -147.756 35.491 -120.196 57.4923 -96.9163C80.0056 -73.0876 107.204 -53.0851 140.68 -35.7156L144.947 -33.4994C174.63 -18.1187 202.663 -3.5714 222.748 11.2789C227.338 14.6884 232.061 17.9464 236.613 21.0907C248.903 29.5956 260.492 37.6268 270.468 48.4616C281.848 60.8115 286.116 75.9649 283.498 94.793C280.976 112.996 272.194 132.184 264.835 146.864C254.84 166.772 243.744 186.755 233.009 206.095C210.496 246.611 187.224 288.529 172.582 332.531C166.531 350.734 162.852 368.823 161.353 387.784C159.988 405.002 160.481 422.542 162.814 441.389C167.404 478.306 178.973 515.811 189.443 548.088C201.051 583.831 213.455 614.289 227.338 641.186C235.02 656.056 243.251 669.921 251.786 682.404C260.852 695.644 270.582 707.766 280.691 718.412C297.628 736.255 312.498 753.814 326.894 770.805C346.031 793.402 364.125 814.75 384.685 833.975L384.951 833.748Z" fill="url(#paint4_linear_339_3884)" fill-opacity="0.2"/>
<path d="M374.748 833.692C361.13 816.947 349.655 798.706 337.497 779.386C323.064 756.466 308.156 732.751 288.412 709.68C249.701 664.447 223.432 600.709 200.824 538.58C199.534 535.037 198.244 531.514 196.955 528.01C179.486 480.258 162.701 434.362 162.701 385.815C162.701 365.566 165.622 344.843 172.62 323.345C187.376 278.055 212.147 235.152 236.102 193.651C246.344 175.921 256.908 157.586 266.524 139.383C274.149 124.949 283.291 106.064 286.515 88.0504C287.33 83.4286 287.748 79.0151 287.748 74.8291C287.748 62.1192 283.973 51.2844 276.33 41.9462C267.7 31.3956 257.61 23.3643 246.932 14.8784C242.512 11.3742 237.941 7.73744 233.484 3.89222C214.347 -12.5492 184.057 -28.6307 152.08 -45.0343C85.1844 -79.3567 41.3525 -123.226 9.98177 -187.325C-6.65195 -221.306 -15.0921 -265.857 -15.0921 -309.878C-15.0921 -348.519 -8.58654 -386.762 4.57629 -417.183C50.8738 -524.109 84.1033 -544.244 116.233 -563.716C124.483 -568.716 133.018 -573.888 141.515 -580.441C163.061 -597.072 186.58 -594.856 211.464 -592.507C220.606 -591.636 230.051 -590.746 239.611 -590.784L239.611 -591.125C230.07 -591.087 220.625 -591.977 211.502 -592.848C186.542 -595.216 162.985 -597.451 141.326 -580.726C132.829 -574.172 124.312 -569.001 116.081 -564.019C83.9136 -544.528 50.6272 -524.355 4.29179 -417.372C-9.4021 -385.758 -16.3249 -344.465 -15.1869 -301.127C-14.6369 -280.158 -12.2471 -259.72 -8.09341 -240.38C-3.80696 -220.492 2.18649 -202.592 9.69727 -187.23C41.106 -123.055 84.9757 -79.1295 151.947 -44.7691C183.906 -28.3845 214.176 -12.303 233.295 4.1006C237.771 7.94575 242.342 11.5825 246.761 15.0868C257.439 23.5727 267.51 31.5851 276.102 42.1167C286.193 54.4667 289.493 69.4685 286.211 87.9557C283.006 105.931 273.864 124.778 266.259 139.193C256.661 157.396 246.078 175.713 235.836 193.442C211.881 234.962 187.092 277.884 172.336 323.193C166.589 340.828 163.403 358.254 162.568 376.495C161.828 392.842 163.023 409.53 166.21 427.505C172.146 461.051 184.057 493.612 196.67 528.086C197.96 531.59 199.25 535.132 200.539 538.655C210.212 565.231 223.299 599.818 238.757 631.603C254.329 663.614 270.507 689.223 288.165 709.87C307.89 732.922 322.798 756.618 337.232 779.519C349.389 798.839 360.883 817.099 374.52 833.862L374.748 833.692Z" fill="url(#paint5_linear_339_3884)" fill-opacity="0.2"/>
<path d="M364.562 833.653C355.06 817.704 347.549 800.43 339.621 782.151C327.862 755.083 315.704 727.068 295.865 701.194C264.286 659.977 242.379 605.273 219.183 547.368C216.793 541.42 214.328 535.264 211.881 529.184C208.202 520.073 204.389 510.981 200.691 502.173C181.914 457.47 163.877 414.548 163.877 368.065C163.877 350.639 166.399 332.739 172.374 314.025C187.206 267.561 213.474 223.748 238.871 181.395C248.619 165.143 258.691 148.36 267.908 131.729C275.761 117.561 285.282 99.036 289.17 81.2118C293.172 62.9331 290.801 48.007 281.944 35.5812C274.566 25.239 265.822 17.1698 256.585 8.62709C252.47 4.81977 248.202 0.879894 244.011 -3.3062C226.504 -20.8652 194.887 -38.1022 163.308 -54.1269C94.8192 -88.8661 49.8304 -131.826 17.4544 -193.443C-15.0543 -255.307 -18.62 -353.463 9.3557 -416.899C54.6669 -519.696 87.4223 -539.566 119.115 -558.773C127.119 -563.622 135.389 -568.641 143.677 -574.93C165.603 -591.58 189.463 -590.064 214.745 -588.454C223.906 -587.867 233.389 -587.28 242.948 -587.545L242.929 -587.924C233.389 -587.659 223.906 -588.246 214.764 -588.833C189.425 -590.443 165.489 -591.959 143.45 -575.233C135.18 -568.963 126.93 -563.944 118.926 -559.095C103.146 -549.529 86.8343 -539.641 69.0057 -519.393C59.4086 -508.482 50.1908 -495.583 40.8403 -479.918C30.3328 -462.321 19.9201 -441.751 9.03327 -417.051C-4.64165 -386.005 -11.261 -345.735 -9.57298 -303.609C-8.75741 -283.284 -6.06415 -263.471 -1.58804 -244.7C3.00188 -225.455 9.31776 -208.142 17.151 -193.254C49.5649 -131.58 94.5916 -88.563 163.156 -53.7859C194.697 -37.7801 226.296 -20.5621 243.764 -3.04107C247.956 1.16401 252.223 5.10389 256.339 8.91121C265.576 17.435 274.281 25.4852 281.64 35.8085C290.441 48.1395 292.793 62.9709 288.81 81.155C284.922 98.9223 275.419 117.428 267.586 131.578C258.368 148.19 248.297 164.991 238.548 181.224C213.133 223.597 186.845 267.409 172.013 313.93C150.069 382.688 174.479 440.802 200.33 502.324C204.029 511.114 207.841 520.224 211.521 529.317C213.967 535.397 216.433 541.553 218.823 547.501C242.019 605.424 263.944 660.147 295.562 701.421C315.363 727.277 327.52 755.253 339.28 782.302C347.227 800.6 354.738 817.875 364.259 833.843L364.562 833.653Z" fill="url(#paint6_linear_339_3884)" fill-opacity="0.2"/>
<path d="M354.377 833.614C347.909 817.817 343.395 800.769 338.635 782.699C330.555 752.108 322.21 720.475 303.3 692.669C280.938 659.786 263.925 618.285 245.907 574.359C238.586 556.497 231.018 538.048 222.9 519.75C217.286 507.078 211.236 494.557 205.375 482.473C184.588 439.475 164.654 398.258 164.654 352.475C164.654 337.133 166.892 321.297 172.07 304.704C186.94 257.142 214.726 212.553 241.602 169.441C250.857 154.591 260.435 139.229 269.255 124.076C277.335 110.192 287.197 92.0076 291.787 74.3729C296.453 56.3972 295.049 41.6226 287.501 29.2158C281.242 18.9304 273.712 10.7476 265.746 2.0912C262.048 -1.92443 258.235 -6.07268 254.48 -10.524C238.244 -29.7499 204.92 -47.9718 174.479 -63.2388C104.321 -98.4326 58.1944 -140.483 24.8701 -199.562C-8.92837 -259.494 -13.67 -354.847 14.0781 -416.635C58.3841 -515.321 90.7032 -534.926 121.96 -553.887C129.718 -558.584 137.74 -563.452 145.782 -569.457C168.087 -586.087 192.326 -585.311 217.969 -584.458C227.149 -584.155 236.651 -583.852 246.229 -584.364L246.21 -584.762C236.651 -584.25 227.168 -584.572 217.988 -584.856C192.25 -585.69 167.954 -586.485 145.536 -569.76C137.513 -563.774 129.49 -558.906 121.752 -554.209C106.142 -544.738 90.0204 -534.964 72.4953 -515.34C63.0689 -504.771 54.0218 -492.307 44.842 -477.229C34.5431 -460.276 24.358 -440.52 13.6988 -416.786C0.0238661 -386.328 -6.25408 -347.043 -4.01602 -306.148C-2.93493 -286.467 0.061798 -267.279 4.86035 -249.095C9.7727 -230.513 16.392 -213.769 24.5097 -199.354C57.853 -140.199 104.056 -98.1106 174.289 -62.8789C204.693 -47.6309 237.96 -29.4468 254.157 -10.2588C257.913 -5.80748 261.725 -1.65923 265.424 2.3564C273.371 10.9938 280.881 19.1767 287.121 29.4241C294.613 41.7363 296.017 56.3972 291.37 74.2592C286.799 91.8372 276.955 110.002 268.876 123.868C260.056 139.021 250.478 154.364 241.222 169.214C214.328 212.344 186.522 256.952 171.653 304.572C166.456 321.203 164.218 337.095 164.218 352.475C164.218 398.333 184.171 439.589 204.977 482.624C210.819 494.728 216.869 507.229 222.502 519.901C230.62 538.18 238.188 556.648 245.509 574.51C263.527 618.455 280.559 659.975 302.94 692.896C321.792 720.646 330.138 752.241 338.217 782.794C342.997 800.864 347.492 817.931 353.979 833.747L354.377 833.614Z" fill="url(#paint7_linear_339_3884)" fill-opacity="0.2"/>
<path d="M344.173 833.578C340.209 817.629 338.217 800.411 336.131 782.208C332.243 748.397 328.203 713.45 310.754 684.166C294.746 657.307 281.811 624.803 268.117 590.404C257.704 564.208 246.931 537.121 233.958 510.338C226.637 495.222 218.481 480.448 210.591 466.165C187.433 424.247 165.242 384.11 165.242 338.366C165.242 324.614 167.233 310.37 171.823 295.406C186.693 246.839 216.016 201.568 244.39 157.775C253.171 144.232 262.237 130.234 270.658 116.444C283.006 96.2524 290.346 81.1558 294.462 67.5368C299.81 49.8641 299.374 35.26 293.115 22.8911C287.861 12.511 281.413 4.08192 274.585 -4.83965C271.455 -8.93108 268.231 -13.1551 265.025 -17.6821C258.558 -26.831 247.993 -36.1503 232.706 -46.1705C220.643 -54.0881 205.717 -62.3846 185.726 -72.3101C113.824 -107.996 66.5208 -149.119 32.362 -205.641C-2.70728 -263.678 -8.62486 -356.209 18.8578 -416.311C62.1206 -510.887 94.0224 -530.245 124.862 -548.941C132.373 -553.487 140.13 -558.203 147.926 -563.924C170.61 -580.555 195.209 -580.498 221.25 -580.422C230.468 -580.403 239.989 -580.365 249.568 -581.123L249.53 -581.559C239.97 -580.82 230.449 -580.839 221.25 -580.877C195.133 -580.934 170.458 -581.009 147.66 -564.284C139.884 -558.582 132.126 -553.885 124.635 -549.32C109.196 -539.963 93.2448 -530.283 76.0231 -511.285C66.7484 -501.056 57.891 -489.028 48.9009 -474.519C38.8106 -458.229 28.8532 -439.249 18.4595 -416.5C4.8035 -386.629 -1.17098 -348.348 1.65504 -308.665C4.4052 -269.891 15.1782 -233.239 31.9826 -205.433C49.7544 -176.016 70.9969 -150.956 96.9243 -128.813C121.221 -108.072 150.202 -89.4524 185.517 -71.9313C216.471 -56.5695 250.08 -38.0823 264.646 -17.4548C267.851 -12.9277 271.076 -8.70378 274.224 -4.61235C281.033 4.2903 287.482 12.7004 292.698 23.0426C298.9 35.3168 299.336 49.8073 294.006 67.3662C289.891 80.9664 282.569 96.0062 270.241 116.179C261.82 129.95 252.754 143.948 243.972 157.491C215.579 201.303 186.238 246.593 171.349 295.235C151.472 360.168 179.979 411.746 210.155 466.336C218.045 480.618 226.201 495.393 233.522 510.489C246.476 537.273 257.249 564.34 267.662 590.518C281.356 624.954 294.291 657.458 310.318 684.355C327.729 713.545 331.75 748.454 335.638 782.227C337.743 800.449 339.716 817.667 343.699 833.654L344.173 833.578Z" fill="url(#paint8_linear_339_3884)" fill-opacity="0.2"/>
<path d="M333.987 833.558C332.242 817.268 332.508 799.728 332.792 781.147C332.906 774.252 333.001 767.319 333.001 760.386C333.001 730.307 330.99 700.493 318.207 675.679C306.808 653.555 297.192 627.7 287.026 600.329C274.925 567.749 262.407 534.052 245.015 500.922C236.157 484.045 225.934 467.718 216.053 451.92C183.297 399.584 152.363 350.127 171.557 286.085C186.389 236.572 217.305 190.676 247.196 146.295C255.484 134.002 264.038 121.273 272.042 108.791C284.712 89.0155 292.45 74.1652 297.135 60.6597C303.166 43.2901 303.678 28.8565 298.728 16.5444C294.404 5.78547 288.904 -3.07927 283.062 -12.4744C280.615 -16.4142 278.074 -20.5057 275.551 -24.8433C269.899 -34.5793 259.771 -44.3344 244.541 -54.6576C232.459 -62.8594 217.342 -71.3453 196.953 -81.3655C123.192 -117.582 74.7326 -157.795 39.834 -211.723C2.90605 -268.794 -4.05468 -356.608 23.6366 -415.99C65.8562 -506.456 97.3598 -525.549 127.82 -544.017C135.065 -548.412 142.576 -552.958 150.106 -558.394C173.169 -575.025 198.148 -575.688 224.588 -576.408C233.824 -576.654 243.365 -576.919 252.943 -577.885L252.905 -578.34C243.346 -577.374 233.806 -577.109 224.588 -576.862C198.072 -576.143 173.037 -575.48 149.859 -558.754C142.33 -553.337 134.838 -548.791 127.612 -544.396C112.324 -535.134 96.5252 -525.568 79.607 -507.176C70.503 -497.288 61.7974 -485.696 53.0158 -471.755C43.1532 -456.109 33.4233 -437.925 23.2762 -416.161C16.2775 -401.178 11.3841 -384.244 8.70984 -365.832C6.16832 -348.255 5.71312 -329.862 7.36321 -311.148C10.6634 -273.776 22.0813 -238.374 39.4926 -211.457C57.9092 -183.007 79.9484 -158.572 106.881 -136.751C131.462 -116.824 160.879 -98.5835 196.802 -80.9488C217.172 -70.9475 232.269 -62.4806 244.332 -54.2788C259.486 -43.9745 269.595 -34.2763 275.191 -24.616C277.713 -20.2594 280.255 -16.1869 282.701 -12.2281C288.524 -2.85198 294.006 5.99385 298.33 16.7149C303.242 28.9323 302.711 43.2522 296.718 60.5081C292.052 73.9946 284.314 88.8071 271.682 108.544C263.678 121.027 255.124 133.737 246.836 146.049C216.925 190.448 186.01 236.382 171.14 285.953C166.512 301.409 164.634 316.373 165.393 331.697C166.076 345.392 168.883 359.106 173.966 373.615C183.43 400.607 199.097 425.648 215.692 452.166C225.574 467.945 235.778 484.273 244.635 501.131C262.009 534.241 274.527 567.919 286.627 600.48C296.813 627.87 306.41 653.744 317.828 675.887C333.513 706.289 332.925 744.343 332.356 781.128C332.071 799.728 331.806 817.287 333.551 833.596L333.987 833.558Z" fill="url(#paint9_linear_339_3884)" fill-opacity="0.2"/>
<path d="M334.425 717.257C334.425 699.186 332.187 682.12 325.643 667.175C317.677 648.972 310.755 628.344 303.414 606.485C291.314 570.439 277.62 529.601 256.036 491.509C245.737 473.325 233.504 455.899 221.668 439.04C186.125 388.39 152.554 340.562 171.255 276.785C186.049 226.381 218.558 179.936 249.986 135.044C257.762 123.926 265.823 112.428 273.371 101.177C290.024 76.3629 306.203 48.4996 306.203 24.008C306.203 19.2725 305.596 14.6698 304.268 10.2374C300.797 -1.37395 296.093 -11.0721 291.124 -21.3575C289.474 -24.767 287.767 -28.2901 286.041 -32.0027C281.243 -42.326 271.532 -52.5356 256.358 -63.1998C244.334 -71.6478 229.027 -80.3042 208.145 -90.438C131.368 -127.753 83.2691 -165.845 47.2705 -217.802C9.07174 -272.961 0.954035 -358.028 28.3798 -415.668C69.4804 -502.042 99.239 -520.056 130.724 -539.111C137.703 -543.335 144.93 -547.71 152.213 -552.863C175.674 -569.474 201.014 -570.895 227.852 -572.392C237.107 -572.903 246.666 -573.452 256.226 -574.627L256.169 -575.119C246.61 -573.926 237.05 -573.395 227.814 -572.884C200.919 -571.388 175.504 -569.967 151.928 -553.26C144.664 -548.127 137.457 -543.752 130.477 -539.528C115.342 -530.36 99.6942 -520.889 83.0605 -503.122C74.1462 -493.575 65.6112 -482.418 57.0004 -469.045C47.3464 -454.063 37.8631 -436.674 27.9625 -415.876C20.9638 -401.158 16.1463 -384.603 13.6427 -366.684C11.2719 -349.618 11.0443 -331.775 12.9789 -313.647C16.8291 -277.677 28.8729 -243.525 46.8911 -217.499C65.9336 -189.996 88.7884 -166.186 116.726 -144.706C141.857 -125.385 170.838 -107.997 207.956 -89.9644C228.8 -79.8306 244.106 -71.1932 256.093 -62.7641C271.19 -52.1567 280.863 -42.0229 285.605 -31.7754C287.331 -28.0629 289.038 -24.5397 290.688 -21.1302C295.657 -10.8638 300.361 -1.1845 303.813 10.3889C311.912 37.5703 292.774 71.4002 272.973 100.911C265.405 112.182 257.364 123.66 249.587 134.779C218.122 179.709 185.594 226.192 170.781 276.672C166.267 292.071 164.617 306.903 165.774 322.018C166.798 335.524 170.06 348.972 175.731 363.141C186.277 389.508 203.271 413.715 221.251 439.325C233.067 456.164 245.301 473.59 255.6 491.755C277.146 529.809 290.859 570.629 302.94 606.656C310.28 628.515 317.203 649.161 325.188 667.383C338.958 698.845 333.59 739.93 328.412 779.67C325.928 798.763 323.557 816.777 323.291 833.521L323.785 833.521C324.069 816.795 326.421 798.782 328.906 779.726C331.637 758.739 334.425 737.392 334.425 717.257Z" fill="url(#paint10_linear_339_3884)" fill-opacity="0.2"/>
<path d="M338.388 692.954C338.388 680.642 336.87 669.069 333.096 658.689C327.729 643.876 322.93 627.511 317.866 610.179C306.069 569.871 292.716 524.202 267.073 482.095C255.39 462.907 241.184 444.704 227.433 427.088C188.969 377.821 152.648 331.3 170.988 267.485C185.707 216.229 219.865 169.31 252.886 123.926C260.15 113.943 267.661 103.62 274.755 93.5241C287.861 74.8665 296.661 60.0541 302.427 46.9085C309.805 30.1072 312.252 16.0335 309.881 3.89186C307.264 -9.57573 303.318 -20.4862 298.748 -33.1203C298.027 -35.0903 297.306 -37.117 296.566 -39.1817C292.659 -50.13 283.385 -60.7753 268.23 -71.7615C256.3 -80.3989 240.786 -89.2257 219.372 -99.5111C140.452 -137.47 91.2149 -174.672 54.7421 -223.901C15.3106 -277.147 6.01693 -359.449 33.1771 -415.346C73.1398 -497.61 102.576 -515.396 133.738 -534.224C140.452 -538.277 147.394 -542.483 154.393 -547.351C178.253 -563.943 203.971 -566.122 231.189 -568.414C240.444 -569.19 250.022 -570.005 259.582 -571.407L259.506 -571.918C249.947 -570.516 240.387 -569.702 231.132 -568.925C203.839 -566.614 178.044 -564.455 154.07 -547.767C147.091 -542.899 140.149 -538.713 133.435 -534.66C118.432 -525.586 102.917 -516.21 86.5492 -499.049C77.7487 -489.824 69.3844 -479.103 60.9822 -466.318C51.5558 -451.979 42.3001 -435.386 32.665 -415.573C25.6474 -401.12 20.9057 -384.963 18.5728 -367.537C16.3537 -350.982 16.3727 -333.707 18.5918 -316.167C22.9731 -281.598 35.6617 -248.715 54.2869 -223.579C73.9553 -197.023 97.6067 -173.857 126.588 -152.718C151.794 -134.326 181.193 -117.278 219.107 -99.0376C240.482 -88.7522 255.978 -79.9443 267.889 -71.3258C282.948 -60.4153 292.166 -49.8269 296.035 -38.9922C296.775 -36.9276 297.496 -34.9008 298.216 -32.9309C302.768 -20.3157 306.714 -9.40526 309.331 4.00551C311.683 16.0524 309.255 30.0125 301.915 46.7191C296.149 59.8268 287.368 74.6013 274.281 93.24C267.187 103.336 259.676 113.659 252.412 123.623C219.353 169.045 185.175 216.001 170.438 267.334C166 282.752 164.597 297.527 166.152 312.51C167.537 325.901 171.254 339.179 177.513 353.083C189.177 378.976 207.537 402.483 226.978 427.391C240.729 444.988 254.935 463.191 266.58 482.36C292.166 524.411 305.519 570.06 317.316 610.33C322.38 627.662 327.178 644.028 332.546 658.859C344.305 691.287 334.044 735.346 324.106 777.946C319.516 797.607 315.192 816.17 312.991 833.426L313.504 833.483C315.704 816.265 320.028 797.702 324.599 778.059C331.446 749.003 338.388 719.264 338.388 692.954Z" fill="url(#paint11_linear_339_3884)" fill-opacity="0.2"/>
<path d="M343.585 673.954C343.585 665.487 342.656 657.532 340.531 650.201C337.118 638.381 334.007 625.672 330.707 612.204C319.934 568.126 307.719 518.158 278.112 472.698C265.12 452.752 248.942 433.962 233.294 415.816C198.965 375.982 166.209 337.947 166.209 289.664C166.209 279.644 167.613 269.188 170.704 258.183C185.347 206.112 221.175 158.758 255.846 112.957C262.579 104.073 269.521 94.8862 276.121 85.8889C289.549 67.629 298.748 53.0629 305.121 40.012C312.195 25.5216 315.666 13.039 315.666 2.07173C315.666 0.537427 315.59 -0.958972 315.458 -2.43645C313.959 -18.7453 310.773 -31.9665 307.074 -46.3433C304.097 -57.9167 295.277 -69.0355 280.123 -80.3437C268.307 -89.1517 252.564 -98.1301 230.582 -108.605C170.382 -137.264 108.323 -171.813 62.1965 -230.002C26.71 -274.781 6.96578 -352.707 37.9193 -415.063C76.706 -493.198 105.858 -510.776 136.716 -529.377C143.146 -533.26 149.803 -537.275 156.518 -541.859C180.795 -558.452 206.893 -561.369 234.508 -564.476C243.764 -565.517 253.342 -566.597 262.92 -568.226L262.825 -568.775C253.285 -567.146 243.707 -566.067 234.451 -565.044C206.76 -561.937 180.605 -559.001 156.214 -542.333C149.519 -537.768 142.862 -533.752 136.432 -529.869C120.86 -520.474 106.142 -511.609 90.0585 -495.054C81.4097 -486.152 73.2162 -475.885 64.9846 -463.649C55.7858 -449.954 46.7577 -434.156 37.4072 -415.328C30.3706 -401.141 25.7048 -385.363 23.5426 -368.448C21.4942 -352.404 21.7408 -335.697 24.2633 -318.744C29.1946 -285.577 42.5092 -253.964 61.7413 -229.68C82.0356 -204.071 106.503 -181.531 136.508 -160.751C161.638 -143.344 191.454 -126.637 230.317 -108.131C252.261 -97.6755 267.965 -88.716 279.762 -79.9271C294.803 -68.6946 303.547 -57.6705 306.505 -46.2297C310.204 -31.8719 313.39 -18.6695 314.889 -2.39849C315.989 9.5348 312.613 23.3244 304.59 39.7468C298.236 52.7598 289.037 67.3071 275.647 85.529C269.046 94.5074 262.086 103.694 255.371 112.578C220.682 158.417 184.816 205.809 170.154 257.975C165.792 273.469 164.616 288.244 166.551 303.151C168.277 316.467 172.449 329.612 179.334 343.345C192.137 368.86 211.919 391.817 232.858 416.119C248.487 434.265 264.665 453.018 277.638 472.944C307.188 518.329 319.403 568.24 330.157 612.28C333.457 625.747 336.567 638.476 339.981 650.315C349.635 683.652 334.386 730.628 319.63 776.05C313.049 796.337 306.828 815.506 302.788 833.311L303.319 833.425C307.34 815.657 313.561 796.507 320.142 776.22C331.731 740.705 343.585 704.185 343.585 673.954Z" fill="url(#paint12_linear_339_3884)" fill-opacity="0.2"/>
<path d="M349.598 657.722C349.598 652.097 349.086 646.736 347.986 641.717C345.994 632.643 344.155 623.116 342.22 613.02C337.839 590.252 332.87 564.453 324.922 538.882C315.8 509.541 304.097 484.822 289.151 463.304C274.889 442.753 256.775 423.583 239.25 405.058C194.717 357.931 152.668 313.437 170.421 248.903C184.968 196.055 222.541 148.303 258.862 102.123C265.026 94.2813 271.399 86.1932 277.468 78.2945C287.691 64.9974 300.399 48.4423 309.142 33.0806C317.317 18.6848 321.338 6.50532 321.338 -3.93157C321.338 -5.57952 321.243 -7.17058 321.034 -8.74279C320.124 -15.9217 319.858 -22.665 319.593 -29.181C319.289 -36.9092 318.986 -44.8836 317.563 -53.4642C315.553 -65.6627 307.189 -77.2551 292.034 -88.8853C280.18 -97.9773 264.685 -106.861 241.792 -117.639C170.06 -151.45 113.331 -184.522 69.632 -236.063C33.0454 -279.193 12.0494 -354.411 42.6615 -414.721C80.2533 -488.745 109.139 -506.115 139.733 -524.507C145.878 -528.201 152.232 -532.027 158.642 -536.308C183.337 -552.882 209.814 -556.576 237.847 -560.497C247.103 -561.785 256.681 -563.13 266.24 -564.967L266.126 -565.535C256.605 -563.698 247.027 -562.372 237.771 -561.065C209.681 -557.144 183.128 -553.431 158.32 -536.782C151.928 -532.501 145.574 -528.675 139.448 -524.981C123.971 -515.68 109.367 -506.91 93.5299 -490.943C85.0329 -482.362 76.991 -472.531 68.9492 -460.863C59.959 -447.812 51.1965 -432.791 42.1304 -414.948C35.0559 -401.026 30.4849 -385.645 28.4934 -369.223C26.6157 -353.691 27.1088 -337.533 29.9159 -321.187C35.3783 -289.44 49.3187 -259.077 69.1768 -235.665C90.097 -211.003 115.36 -189.087 146.428 -168.687C178.709 -147.491 214.195 -129.989 241.507 -117.108C276.311 -100.705 312.499 -80.2857 316.957 -53.3695C318.36 -44.8458 318.683 -36.8713 318.986 -29.162C319.233 -22.6271 319.498 -15.8838 320.427 -8.66704C323.709 17.1127 298.881 49.4273 276.975 77.9346C270.906 85.8333 264.533 93.9404 258.369 101.763C222.01 147.981 184.399 195.771 169.814 248.732C165.527 264.34 164.56 279.153 166.874 294.041C168.941 307.338 173.607 320.389 181.118 333.97C195.077 359.2 216.301 381.665 238.776 405.437C256.282 423.962 274.377 443.112 288.62 463.626C322.096 511.833 332.452 565.665 341.594 613.133C343.529 623.229 345.369 632.776 347.36 641.849C354.852 676.039 334.558 725.912 314.927 774.157C306.392 795.107 298.331 814.901 292.547 833.293L293.097 833.464C298.881 815.109 306.942 795.315 315.458 774.384C332.319 733.091 349.598 690.643 349.598 657.722Z" fill="url(#paint13_linear_339_3884)" fill-opacity="0.2"/>
<path d="M356.14 643.216C356.14 639.749 355.912 636.416 355.419 633.214C354.433 626.717 353.523 620.031 352.555 612.947C349.236 588.815 345.5 561.482 337.932 534.168C329.226 502.744 316.879 476.471 300.188 453.855C284.674 432.83 264.645 413.414 245.299 394.605C197.636 348.35 152.628 304.651 170.153 239.548C184.587 185.943 223.943 137.831 262.009 91.3291C267.585 84.529 273.351 77.4827 278.851 70.6069C299.468 44.9408 323.517 12.0201 326.647 -15.0666C327.083 -18.836 327.671 -22.5297 328.221 -26.1097C330.08 -37.8725 331.825 -48.9913 328.088 -60.7351C324.048 -73.4072 315.172 -85.6246 301.687 -97.0465C289.453 -107.408 273.085 -117.409 253.037 -126.766C190.561 -155.917 125.525 -188.857 77.1222 -242.197C39.4545 -283.698 17.1687 -356.188 47.4584 -414.434C83.7984 -484.348 112.495 -501.528 142.86 -519.712C148.702 -523.217 154.734 -526.815 160.822 -530.831C185.953 -547.386 212.828 -551.856 241.259 -556.592C250.515 -558.126 260.074 -559.736 269.595 -561.763L269.463 -562.369C259.96 -560.323 250.401 -558.732 241.145 -557.198C212.639 -552.444 185.706 -547.954 160.48 -531.343C154.411 -527.346 148.38 -523.728 142.538 -520.243C127.156 -511.037 112.628 -502.343 97.0371 -486.962C88.6729 -478.703 80.7828 -469.308 72.9495 -458.209C64.187 -445.802 55.652 -431.576 46.9084 -414.718C39.8149 -401.061 35.3008 -386.078 33.499 -370.148C31.792 -355.147 32.5127 -339.539 35.6232 -323.798C41.6167 -293.472 56.202 -264.34 76.667 -241.799C98.1941 -218.084 124.273 -196.813 156.422 -176.772C187.754 -157.243 222.71 -140.253 252.772 -126.236C294.707 -106.669 319.838 -84.5639 327.5 -60.5836C331.199 -48.9913 329.454 -37.9482 327.614 -26.2422C327.045 -22.6623 326.457 -18.9496 326.021 -15.1802C322.929 11.7549 298.918 44.5809 278.358 70.1712C272.839 77.0281 267.073 84.0744 261.516 90.8745C223.412 137.433 184.018 185.583 169.546 239.321C165.298 255.062 164.558 269.95 167.27 284.838C169.679 298.135 174.819 311.129 182.975 324.597C198.129 349.6 220.813 371.648 244.844 394.965C264.19 413.736 284.181 433.152 299.676 454.139C337.097 504.827 345.31 564.778 351.929 612.947C352.897 620.031 353.826 626.717 354.793 633.233C360.085 668.256 334.689 720.99 310.127 772.019C299.695 793.67 289.852 814.127 282.341 833.106L282.91 833.334C290.421 814.373 300.264 793.935 310.677 772.285C333.077 725.896 356.14 677.993 356.14 643.216Z" fill="url(#paint14_linear_339_3884)" fill-opacity="0.2"/>
<path d="M363.102 629.898C363.102 628.137 363.026 626.413 362.893 624.746C362.552 620.693 362.229 616.601 361.888 612.264C357.81 561.121 352.746 497.458 311.266 444.44C294.538 423.055 272.631 403.469 251.445 384.508C200.596 339.01 152.573 296.031 169.908 230.266C184.228 175.903 225.442 127.488 265.272 80.6826C270.222 74.8674 275.343 68.8629 280.256 62.991C301.385 37.8175 326.401 5.46492 332.262 -21.3566C333.116 -25.2586 334.14 -29.0848 335.107 -32.7784C337.402 -41.4348 339.621 -49.7502 339.621 -58.3498C339.621 -61.4752 339.337 -64.6384 338.654 -67.8585C337.194 -74.7912 334.254 -81.5534 329.948 -87.9936C325.889 -94.0739 320.446 -100.059 313.808 -105.799C301.783 -116.16 285.604 -125.972 264.305 -135.803C194.356 -168.136 132.544 -198.916 84.6341 -248.26C47.0802 -286.92 20.9443 -355.299 52.2771 -414.095C87.3084 -479.917 115.834 -496.908 146.029 -514.902C151.548 -518.198 157.257 -521.589 162.985 -525.283C188.571 -541.8 215.826 -547.066 244.693 -552.653C253.93 -554.434 263.47 -556.29 272.954 -558.525L272.802 -559.15C263.338 -556.915 253.797 -555.078 244.561 -553.278C215.637 -547.691 188.325 -542.406 162.625 -525.813C156.897 -522.119 151.207 -518.729 145.688 -515.433C115.398 -497.381 86.7963 -480.353 51.6512 -414.379C37.7676 -388.296 34.183 -357.838 41.2954 -326.281C47.8199 -297.376 63.0312 -269.493 84.122 -247.786C95.8624 -235.701 108.57 -224.526 122.985 -213.615C136.072 -203.709 150.278 -194.257 166.38 -184.729C197.77 -166.166 231.796 -150.085 263.982 -135.215C309.123 -114.342 332.642 -92.8995 337.971 -67.707C340.513 -55.7358 337.554 -44.655 334.443 -32.93C333.457 -29.2174 332.452 -25.3912 331.579 -21.4703C325.738 5.21864 300.797 37.4765 279.706 62.5932C274.793 68.4462 269.672 74.4697 264.722 80.2659C245.035 103.394 224.684 127.298 207.557 152.15C188.192 180.202 175.655 205.698 169.225 230.114C165.034 246.025 164.502 261.008 167.594 275.934C170.363 289.25 175.977 302.225 184.778 315.579C201.127 340.412 226.447 363.085 250.933 385.001C272.1 403.942 293.969 423.528 310.678 444.856C352.063 497.723 357.108 561.272 361.167 612.339C361.509 616.677 361.831 620.749 362.172 624.822C365.207 660.641 334.69 716.254 305.159 770.029C292.868 792.399 281.28 813.538 272.081 833.143L272.669 833.408C281.849 813.823 293.456 792.703 305.728 770.332C333.988 718.943 363.102 665.926 363.102 629.898Z" fill="url(#paint15_linear_339_3884)" fill-opacity="0.2"/>
<path d="M370.346 617.434C370.346 617.037 370.346 616.658 370.327 616.26C370.289 614.555 370.251 612.851 370.232 611.108C369.701 584.552 369.113 554.472 362.949 523.919C355.818 488.536 342.503 459.441 322.285 435.026C304.361 413.375 280.596 393.676 257.627 374.639C203.554 329.823 152.477 287.488 169.622 220.946C183.828 165.845 226.939 117.164 268.628 70.0751C272.915 65.245 277.353 60.2255 281.62 55.3574C303.318 30.6195 329.302 -1.18364 337.837 -27.6642C339.108 -31.6041 340.53 -35.4493 341.915 -39.1808C345.765 -49.5419 349.426 -59.4105 349.426 -70.0558C349.426 -71.6848 349.331 -73.3327 349.16 -74.9996C347.586 -89.3385 339.999 -102.276 325.964 -114.55C314.262 -124.778 297.761 -134.704 275.513 -144.876C207.195 -176.148 142.69 -205.679 92.0679 -254.34C53.4709 -291.466 26.0451 -357.175 56.9987 -413.792C90.7402 -475.485 119.171 -492.324 149.252 -510.148C154.411 -513.217 159.76 -516.38 165.127 -519.77C191.187 -536.269 218.86 -542.349 248.144 -548.77C257.343 -550.778 266.845 -552.881 276.291 -555.305L276.12 -555.949C266.693 -553.525 257.191 -551.441 248.011 -549.414C218.651 -542.974 190.922 -536.894 164.767 -520.339C159.418 -516.948 154.07 -513.785 148.911 -510.716C118.735 -492.835 90.2471 -475.958 56.4107 -414.095C42.4892 -388.637 39.2269 -359.145 46.9843 -328.857C54.0209 -301.372 69.858 -274.74 91.5748 -253.866C103.713 -242.198 116.876 -231.364 131.784 -220.756C145.174 -211.247 159.76 -202.08 176.337 -192.76C207.707 -175.145 242.018 -159.442 275.191 -144.251C297.381 -134.098 313.826 -124.21 325.471 -114.02C339.374 -101.878 346.884 -89.0733 348.44 -74.9049C349.805 -62.4791 345.651 -51.2656 341.251 -39.3891C339.867 -35.6576 338.425 -31.7934 337.154 -27.8346C328.657 -1.46776 302.73 30.2597 281.07 54.9407C276.803 59.8088 272.364 64.8283 268.078 69.6585C247.518 92.8811 226.276 116.88 208.409 141.94C188.21 170.277 175.293 196.076 168.921 220.813C164.767 236.914 164.463 252.029 167.953 266.993C171.083 280.347 177.19 293.303 186.654 306.601C204.217 331.301 231.131 353.595 257.153 375.17C280.103 394.187 303.83 413.868 321.716 435.461C367.103 490.298 368.43 557.294 369.511 611.127C369.549 612.87 369.587 614.574 369.606 616.279C369.606 616.658 369.625 617.056 369.625 617.434C369.625 654.087 334.309 711.935 300.151 767.87C286.039 790.979 272.725 812.781 261.876 833.029L262.464 833.351C273.294 813.121 286.608 791.32 300.72 768.23C334.973 712.2 370.346 654.276 370.346 617.434Z" fill="url(#paint16_linear_339_3884)" fill-opacity="0.2"/>
<path d="M378.731 571.403C378.731 554.261 377.84 535.907 374.786 517.457C368.698 480.635 355.118 450.574 333.306 425.609C314.207 403.75 288.621 384.032 263.889 364.958C236.349 343.724 207.861 321.77 189.122 297.26C168.183 269.87 161.716 241.874 169.34 211.643C183.413 155.803 228.497 106.876 272.101 59.541C275.686 55.658 279.384 51.6423 282.969 47.7213C298.256 31.0147 309.674 17.6229 318.873 5.59492C330.499 -9.61528 338.522 -22.5525 343.397 -33.9744C343.871 -35.0919 344.345 -36.2095 344.819 -37.327C351.211 -52.2531 357.242 -66.3647 359.632 -82.1053C359.917 -83.9805 360.068 -85.8558 360.068 -87.6931C360.068 -100.157 353.506 -111.806 340.134 -123.133C325.265 -135.748 303.775 -146.242 286.706 -153.97C282.628 -155.827 278.569 -157.664 274.51 -159.482C209.758 -188.766 148.572 -216.421 99.5051 -260.461C58.5562 -297.208 30.9977 -358.787 61.7615 -413.491C94.1565 -471.093 122.531 -487.78 152.574 -505.472C157.353 -508.294 162.323 -511.211 167.273 -514.28C193.807 -530.759 221.916 -537.654 251.674 -544.928C260.816 -547.163 270.261 -549.474 279.631 -552.088L279.441 -552.77C270.091 -550.156 260.645 -547.845 251.504 -545.61C221.688 -538.317 193.542 -531.403 166.912 -514.867C161.962 -511.799 157.012 -508.882 152.232 -506.059C122.094 -488.33 93.6444 -471.585 61.1546 -413.832C47.1762 -388.98 44.2364 -360.492 52.6576 -331.454C60.2063 -305.409 76.6693 -280.009 99.0499 -259.949C148.211 -215.834 209.417 -188.16 274.244 -158.857C278.303 -157.02 282.362 -155.183 286.44 -153.345C303.453 -145.636 324.885 -135.161 339.698 -122.603C354.853 -109.76 361.149 -96.5578 358.968 -82.219C356.579 -66.5731 350.566 -52.5183 344.193 -37.6112C343.719 -36.4936 343.245 -35.395 342.771 -34.2585C331.789 -8.51665 306.127 21.3923 282.476 47.2289C278.891 51.1499 275.193 55.1655 271.608 59.0485C250.157 82.3279 227.966 106.403 209.379 131.671C188.307 160.292 175.011 186.375 168.695 211.435C166.609 219.693 165.566 227.876 165.547 235.756C165.547 235.775 165.547 235.794 165.547 235.813C165.547 243.314 166.495 250.796 168.373 258.05C171.863 271.461 178.463 284.436 188.591 297.676C207.387 322.263 235.913 344.254 263.49 365.507C288.204 384.562 313.771 404.262 332.813 426.064C382.259 482.68 379.282 554.962 377.1 607.734C375.564 645.087 334.672 706.401 295.108 765.708C279.214 789.555 264.192 812.058 251.731 832.951L252.338 833.311C264.799 812.456 279.802 789.934 295.696 766.106C335.298 706.723 376.247 645.314 377.802 607.772C378.238 596.653 378.731 584.379 378.731 571.403Z" fill="url(#paint17_linear_339_3884)" fill-opacity="0.2"/>
<path d="M388.517 545.416C388.517 533.142 387.834 520.583 386.051 508.006C383.624 490.845 379.261 474.877 373.097 460.557C366.06 444.229 356.387 429.303 344.344 416.195C324.106 394.185 296.719 374.486 270.222 355.449C241.108 334.519 211.008 312.849 191.018 288.433C168.694 261.138 161.506 232.972 169.054 202.343C182.995 145.764 230.146 96.6105 275.723 49.0857C278.605 46.074 281.488 43.0812 284.333 40.1073C308.8 14.4981 335.6 -15.0889 348.953 -40.2624C349.711 -41.6831 350.451 -43.0848 351.21 -44.4865C359.157 -59.3747 366.648 -73.4484 370.138 -89.2268C371.883 -97.1066 371.068 -104.816 367.711 -112.146C364.638 -118.852 359.574 -125.216 352.196 -131.618C337.326 -144.537 315.382 -155.182 297.913 -163.024C289.739 -166.698 281.469 -170.354 273.484 -173.915C212.355 -201.04 154.621 -226.649 106.939 -266.54C67.9813 -299.12 34.0121 -357.082 66.5019 -413.149C97.4933 -466.66 125.905 -483.234 156.005 -500.793C160.368 -503.35 164.901 -505.983 169.396 -508.729C196.48 -525.209 225.044 -532.937 255.277 -541.101C264.343 -543.544 273.712 -546.082 282.968 -548.848L282.759 -549.549C273.503 -546.783 264.134 -544.245 255.087 -541.802C224.797 -533.619 196.196 -525.891 169.035 -509.354C164.521 -506.608 160.007 -503.975 155.645 -501.437C125.469 -483.821 96.9813 -467.19 65.876 -413.528C58.6118 -400.97 54.3633 -387.559 53.2632 -373.656C52.239 -360.719 53.927 -347.384 58.2894 -334.03C66.3312 -309.424 83.4391 -285.255 106.465 -265.991C154.222 -226.043 211.995 -200.396 273.181 -173.252C281.166 -169.71 289.435 -166.036 297.61 -162.361C315.021 -154.538 336.909 -143.912 351.703 -131.069C366.895 -117.886 372.68 -104.248 369.399 -89.3973C365.928 -73.7325 358.455 -59.6966 350.546 -44.8463C349.806 -43.4447 349.047 -42.043 348.289 -40.6223C334.974 -15.5245 308.212 14.0056 283.783 39.577C280.938 42.5508 278.074 45.5436 275.191 48.5554C252.811 71.8916 229.672 96.0233 210.288 121.481C188.305 150.367 174.593 176.753 168.334 202.135C166.266 210.507 165.28 218.785 165.394 226.74C165.508 234.336 166.608 241.894 168.694 249.205C172.544 262.692 179.657 275.667 190.449 288.869C210.477 313.38 240.634 335.049 269.786 356.018C296.244 375.054 323.594 394.716 343.794 416.669C393.012 470.16 390.584 538.938 384.458 599.21C380.589 637.302 334.462 701.477 289.872 763.53C272.195 788.116 255.523 811.339 241.45 832.857L242.076 833.255C256.13 811.737 272.821 788.533 290.479 763.947C335.126 701.818 381.31 637.568 385.198 599.267C386.905 582.674 388.517 564.377 388.517 545.416Z" fill="url(#paint18_linear_339_3884)" fill-opacity="0.2"/>
<path d="M398.816 525.358C398.816 516.456 398.38 507.477 397.318 498.537C395.289 481.319 391.116 465.294 384.914 450.917C377.877 434.608 367.939 419.758 355.383 406.783C334.008 384.678 304.837 365.035 276.634 346.056C245.927 325.39 214.177 304.005 192.953 279.646C169.207 252.408 161.317 224.071 168.789 193.025C182.597 135.689 234.091 84.1294 279.535 38.6314C281.603 36.5667 283.651 34.5021 285.7 32.4564C310.565 7.51008 338.427 -21.2245 354.529 -46.5875C355.459 -48.046 356.388 -49.5045 357.299 -50.9441C366.934 -66.0407 376.038 -80.2849 380.627 -96.3854C382.96 -104.549 382.581 -112.505 379.471 -120.063C376.682 -126.882 371.562 -133.625 364.259 -140.103C349.352 -153.343 326.952 -164.159 309.123 -172.095C297.212 -177.399 285.169 -182.608 273.504 -187.666C215.542 -212.782 160.786 -236.497 114.393 -272.619C74.4685 -303.778 39.1906 -359.183 71.3011 -412.845C100.87 -462.283 129.415 -478.781 159.648 -496.264C163.536 -498.518 167.576 -500.848 171.578 -503.235C199.193 -519.695 228.25 -528.276 259.014 -537.349C267.947 -539.982 277.203 -542.709 286.326 -545.645L286.098 -546.365C276.975 -543.448 267.738 -540.721 258.805 -538.088C228.003 -528.996 198.908 -520.415 171.198 -503.898C167.196 -501.511 163.175 -499.181 159.268 -496.927C128.96 -479.406 100.32 -462.851 70.6562 -413.243C63.3162 -400.987 59.1245 -387.974 58.2142 -374.564C57.3607 -362.138 59.2953 -349.371 63.98 -336.623C68.3613 -324.728 75.0565 -312.965 83.9139 -301.714C92.3351 -291.012 102.444 -281.029 113.957 -272.051C135.124 -255.572 159.135 -240.683 189.539 -225.246C216.377 -211.608 243.992 -199.656 273.239 -186.984C284.903 -181.926 296.947 -176.717 308.858 -171.414C326.649 -163.496 348.972 -152.718 363.804 -139.554C379.053 -126.01 384.326 -111.974 379.945 -96.6127C375.374 -80.6258 366.308 -66.4195 356.711 -51.3798C355.781 -49.9402 354.852 -48.4817 353.941 -47.0232C337.877 -21.717 310.053 6.97975 285.207 31.8881C283.158 33.9338 281.11 35.9984 279.042 38.0631C255.713 61.4182 231.588 85.5879 211.388 111.254C188.458 140.405 174.29 167.075 168.107 192.817C166.058 201.303 165.148 209.675 165.375 217.725C165.584 225.397 166.855 233.011 169.131 240.38C173.341 253.942 180.966 266.955 192.441 280.12C213.74 304.554 245.528 325.959 276.273 346.662C304.439 365.623 333.571 385.246 354.89 407.294C404.981 459.1 402.306 526.059 391.951 590.688C385.73 629.519 334.368 696.554 284.694 761.353C265.273 786.678 246.951 810.621 231.303 832.783L231.929 833.218C247.558 811.057 265.898 787.133 285.301 761.808C335.032 696.914 386.45 629.822 392.709 590.783C395.839 570.894 398.816 548.391 398.816 525.358Z" fill="url(#paint19_linear_339_3884)" fill-opacity="0.2"/>
<path d="M409.456 508.176C409.456 501.831 409.19 495.447 408.583 489.083C406.952 471.789 402.969 455.707 396.729 441.293C389.673 425.003 379.469 410.228 366.42 397.348C343.945 375.186 313.029 355.657 283.119 336.753C250.819 316.334 217.419 295.233 194.905 270.912C169.737 243.711 161.107 215.185 168.504 183.704C182.179 125.61 236.006 73.88 283.498 28.2304L287.064 24.8019C315.457 -2.51207 342.428 -29.0305 360.105 -52.916C361.091 -54.2609 362.096 -55.6058 363.082 -56.9317C374.538 -72.3692 385.368 -86.9353 391.134 -103.547C394.055 -111.976 394.112 -120.178 391.267 -127.982C388.706 -135.009 383.699 -141.942 376.359 -148.591C361.394 -162.191 338.558 -173.158 320.351 -181.189C305.007 -187.952 289.397 -194.524 274.3 -200.87C219.126 -224.092 167.006 -246.027 121.846 -278.739C78.9056 -309.861 44.3105 -361.344 76.0417 -412.525C104.169 -457.909 132.979 -474.389 163.478 -491.815C166.816 -493.728 170.287 -495.698 173.701 -497.706C201.942 -514.185 231.549 -523.656 262.882 -533.676C271.644 -536.48 280.71 -539.378 289.644 -542.408L289.378 -543.166C280.445 -540.135 271.379 -537.237 262.635 -534.434C231.264 -524.395 201.62 -514.924 173.302 -498.407C169.869 -496.399 166.418 -494.429 163.079 -492.516C132.486 -475.033 103.6 -458.515 75.3589 -412.942C67.9429 -400.97 63.8082 -388.374 63.0495 -375.494C62.3478 -363.579 64.5479 -351.4 69.574 -339.258C74.2209 -328.007 81.2575 -316.869 90.4942 -306.167C99.1619 -296.109 109.556 -286.676 121.391 -278.095C141.704 -263.378 165.545 -249.418 194.298 -235.401C219.998 -222.861 247.443 -211.326 273.996 -200.15C289.094 -193.805 304.703 -187.232 320.047 -180.47C338.198 -172.457 360.958 -161.547 375.828 -148.022C391.134 -134.119 395.895 -119.667 390.394 -103.831C384.666 -87.3331 373.874 -72.8048 362.456 -57.4241C361.47 -56.0793 360.465 -54.7534 359.479 -53.3896C341.84 -29.5419 314.907 -3.06139 286.533 24.2337L282.967 27.6621C258.652 51.0362 233.502 75.2059 212.431 101.08C188.495 130.497 173.871 157.47 167.745 183.534C165.716 192.133 164.862 200.638 165.204 208.764C165.526 216.511 166.949 224.202 169.433 231.608C174.004 245.265 182.16 258.297 194.317 271.461C216.888 295.858 250.345 316.997 282.683 337.435C312.536 356.301 343.414 375.83 365.851 397.916C419.167 450.461 412.68 520.545 399.308 582.162C390.717 621.732 334.082 691.608 279.326 759.192C258.178 785.275 238.225 809.918 221.022 832.724L221.667 833.197C238.851 810.391 258.823 785.767 279.952 759.684C334.784 692.043 391.475 622.092 400.086 582.333C404.638 561.402 409.456 535.168 409.456 508.176Z" fill="url(#paint20_linear_339_3884)" fill-opacity="0.2"/>
<path d="M420.306 492.703C420.306 455.596 409.912 418.451 377.46 387.936C353.885 365.755 321.243 346.34 289.683 327.568C255.77 307.396 220.682 286.541 196.898 262.238C170.288 235.057 160.918 206.322 168.258 174.387C181.782 115.516 238.056 63.6343 287.71 17.8522L291.2 14.6321C318.095 -10.1626 345.9 -35.8097 365.682 -59.2406C366.63 -60.3772 367.578 -61.4947 368.546 -62.6123C381.974 -78.4665 394.663 -93.4494 401.661 -110.705C403.748 -115.857 404.715 -120.763 404.715 -125.442C404.715 -154.025 368.546 -174.122 331.599 -190.261C313.03 -198.368 294.026 -206.115 275.647 -213.597C222.996 -235.039 173.285 -255.269 129.339 -284.837C111.624 -296.751 87.9728 -316.394 75.9669 -342.249C64.7956 -366.305 66.4267 -389.85 80.8413 -412.201C107.489 -453.589 136.717 -470.087 167.67 -487.551C170.345 -489.066 173.114 -490.62 175.864 -492.192C204.826 -508.728 235.059 -519.127 267.055 -530.132C275.553 -533.049 284.334 -536.08 293.002 -539.186L292.717 -539.963C284.069 -536.856 275.287 -533.826 266.79 -530.909C234.736 -519.885 204.485 -509.486 175.447 -492.912C172.716 -491.358 169.946 -489.786 167.272 -488.271C136.224 -470.75 106.901 -454.195 80.1206 -412.656C72.6098 -400.987 68.4941 -388.808 67.9251 -376.439C67.394 -365.055 69.8407 -353.425 75.1893 -341.889C80.1206 -331.282 87.4986 -320.75 97.0957 -310.616C106.01 -301.202 116.707 -292.3 128.846 -284.117C148.609 -270.82 171.634 -258.11 199.231 -245.23C223.887 -233.732 250.023 -223.087 275.306 -212.801C293.685 -205.319 312.689 -197.572 331.238 -189.484C373.875 -170.864 415.469 -146.979 400.865 -110.989C393.904 -93.8472 381.272 -78.9211 367.882 -63.1237C366.934 -62.0062 365.966 -60.8696 365.018 -59.7521C345.274 -36.359 317.488 -10.7309 290.612 14.0449L287.122 17.265C261.783 40.6391 235.571 64.7898 213.608 90.8536C188.591 120.535 173.493 147.811 167.424 174.216C165.413 182.948 164.636 191.548 165.091 199.788C165.527 207.629 167.12 215.396 169.795 222.859C174.745 236.61 183.413 249.699 196.291 262.845C220.151 287.223 255.277 308.096 289.246 328.307C320.769 347.06 353.372 366.437 376.872 388.561C433.487 441.806 422.563 515.452 406.707 573.659C395.744 613.949 333.818 686.685 273.921 757.034C251.086 783.856 229.502 809.2 210.782 832.669L211.426 833.18C230.146 809.73 251.711 784.386 274.547 757.565C334.501 687.158 396.484 614.346 407.503 573.868C414.369 548.732 420.306 520.717 420.306 492.703Z" fill="url(#paint21_linear_339_3884)" fill-opacity="0.2"/>
<path d="M431.251 478.175C431.251 475.504 431.194 472.833 431.061 470.162C430.227 452.717 426.623 436.522 420.326 422.05C413.251 405.779 402.535 391.137 388.481 378.522C363.825 356.36 329.495 337.097 296.284 318.477C260.741 298.531 223.965 277.904 198.872 253.639C170.801 226.477 160.673 197.515 167.937 165.105C181.309 105.458 241.452 52.2885 289.779 9.55592C294.065 5.76759 298.409 1.94136 302.638 -1.77123C326.745 -22.986 351.667 -44.9205 371.222 -65.5291C372.018 -66.3625 372.815 -67.196 373.611 -68.0484C388.462 -83.6753 403.825 -99.8326 412.132 -117.846C416.741 -127.847 417.31 -137.584 413.783 -146.77C409.875 -156.98 401.113 -166.602 387.021 -176.187C376.039 -183.65 361.985 -190.999 342.772 -199.315C321.15 -208.672 298.845 -217.423 277.242 -225.89C229.162 -244.756 179.45 -264.266 136.718 -290.898C102.142 -312.454 80.1599 -338.063 74.8303 -363.009C71.2836 -379.621 74.8872 -396.044 85.5275 -411.86C110.81 -449.327 140.72 -465.957 172.395 -483.554C174.253 -484.596 176.131 -485.638 178.009 -486.68C207.824 -503.33 240.295 -515.263 271.685 -526.798C279.765 -529.772 288.11 -532.841 296.341 -535.966L296.038 -536.762C287.825 -533.636 279.461 -530.568 271.381 -527.613C239.954 -516.058 207.464 -504.106 177.591 -487.437C175.714 -486.396 173.855 -485.354 171.977 -484.312C155.988 -475.428 140.891 -467.037 126.192 -455.937C109.539 -443.36 96.3954 -429.514 84.8637 -412.39C74.0717 -396.384 70.4301 -379.716 74.0337 -362.877C76.8977 -349.523 84.2757 -336.131 95.9781 -323.08C106.429 -311.45 119.99 -300.388 136.301 -290.216C155.514 -278.245 177.743 -266.69 204.258 -254.909C227.929 -244.396 252.851 -234.603 276.976 -225.151C298.56 -216.684 320.865 -207.933 342.468 -198.576C370.709 -186.358 404.261 -169.387 413.005 -146.505C416.438 -137.546 415.888 -128.037 411.374 -118.244C403.123 -100.344 387.817 -84.2436 373.004 -68.6734C372.208 -67.84 371.411 -67.0066 370.615 -66.1542C351.079 -45.5835 327.276 -24.6339 302.088 -2.45311C297.878 1.25947 293.515 5.10462 289.229 8.87403C265.938 29.4637 236.957 55.0919 213.893 81.7429C188.364 111.254 173.058 138.436 167.122 164.878C165.13 173.743 164.41 182.475 164.998 190.79C165.548 198.727 167.293 206.569 170.194 214.089C175.524 227.954 184.723 241.081 198.303 254.207C223.472 278.566 260.286 299.213 295.886 319.178C329.04 337.778 363.331 357.023 387.912 379.128C447.278 432.487 433.11 506.53 414.143 565.079C400.696 606.088 333.44 681.741 268.385 754.932C243.918 782.474 220.797 808.481 200.56 832.556L201.224 833.105C221.442 809.03 244.543 783.042 269.029 755.5C334.142 682.253 401.454 606.524 414.958 565.344C422.109 543.334 431.251 511.076 431.251 478.175Z" fill="url(#paint22_linear_339_3884)" fill-opacity="0.2"/>
<path d="M442.382 464.574C442.382 463.286 442.363 461.998 442.344 460.71C441.908 443.17 438.475 426.937 432.14 412.447C425.047 396.195 414.065 381.61 399.537 369.108C373.818 346.984 337.819 327.891 303.015 309.423C265.822 289.704 227.358 269.304 200.956 245.04C171.387 217.877 160.519 188.669 167.727 155.786C180.927 95.4189 244.674 41.3781 291.199 1.92249C298.995 -4.68822 306.961 -11.3556 314.68 -17.7958C337.004 -36.4345 358.076 -54.0504 376.833 -71.8556L378.389 -73.333C395.383 -89.4524 412.965 -106.121 422.676 -125.006C428.043 -135.443 429.011 -145.596 425.54 -155.18C421.784 -165.579 413.041 -175.372 398.797 -185.089C387.626 -192.723 373.42 -200.129 354.055 -208.407C329.284 -219.071 303.414 -228.826 278.397 -238.24C232.706 -255.458 185.479 -273.244 144.246 -297.016C118.413 -311.904 86.2461 -336.017 79.5888 -366.324C76.2507 -381.553 79.8733 -396.763 90.3618 -411.557C114.184 -445.197 146.617 -462.889 178.007 -479.993L180.15 -481.168C211.103 -498.045 244.693 -511.19 277.164 -523.881C284.542 -526.76 292.167 -529.753 299.677 -532.746L299.355 -533.561C291.844 -530.568 284.22 -527.594 276.861 -524.696C244.352 -511.986 210.743 -498.84 179.733 -481.925L177.589 -480.751C161.847 -472.17 145.574 -463.306 130.59 -452.547C113.786 -440.481 100.376 -427.241 89.6221 -412.068C78.9819 -397.066 75.3024 -381.61 78.6974 -366.116C81.5234 -353.235 89.2238 -340.317 101.609 -327.721C112.439 -316.716 126.626 -306.108 143.772 -296.221C185.081 -272.411 232.346 -254.606 278.055 -237.387C303.053 -227.973 328.905 -218.218 353.675 -207.573C372.983 -199.315 387.151 -191.946 398.266 -184.351C412.339 -174.728 420.988 -165.087 424.667 -154.858C428.043 -145.501 427.095 -135.595 421.841 -125.385C412.206 -106.633 394.681 -90.0207 377.744 -73.9581L376.189 -72.4806C357.45 -54.7133 336.378 -37.0975 314.073 -18.4588C306.354 -12.0186 298.369 -5.35119 290.573 1.25953C262.863 24.7473 236.139 47.932 213.834 73.0866C187.964 102.257 172.582 129.249 166.816 155.616C164.844 164.632 164.199 173.459 164.901 181.888C165.564 189.919 167.48 197.837 170.591 205.414C176.318 219.393 186.029 232.576 200.33 245.703C226.827 270.043 265.329 290.481 302.579 310.218C337.345 328.649 373.306 347.723 398.949 369.79C461.899 423.963 442.022 502.344 421.576 556.594C405.739 598.303 333.134 676.855 262.92 752.811C236.784 781.091 212.089 807.799 190.354 832.518L191.018 833.105C212.734 808.386 237.429 781.678 263.565 753.417C333.836 677.404 406.516 598.796 422.391 556.915C428.84 539.811 433.563 524.506 436.825 510.129C440.523 493.934 442.382 478.648 442.382 464.574Z" fill="url(#paint23_linear_339_3884)" fill-opacity="0.2"/>
<path d="M453.612 451.638C453.612 451.506 453.612 451.392 453.612 451.279C453.574 433.663 450.311 417.373 443.958 402.844C436.845 386.592 425.598 372.083 410.576 359.676C383.815 337.609 346.185 318.724 309.807 300.445C270.982 280.935 230.811 260.763 203.082 236.498C172.014 209.317 160.369 179.881 167.425 146.487C179.544 90.0786 235.875 40.3755 292.528 -5.70977C303.775 -14.8586 315.402 -24.0454 326.649 -32.9101C345.407 -47.7036 364.81 -63.0275 382.373 -78.1809L382.752 -78.5029C402.023 -95.1337 421.956 -112.333 433.147 -132.165C439.254 -142.999 440.639 -153.55 437.243 -163.513C433.64 -174.102 424.896 -184.046 410.501 -193.934C399.178 -201.7 384.801 -209.182 365.246 -217.478C337.745 -229.184 308.726 -239.659 280.655 -249.774C236.918 -265.534 191.702 -281.842 151.682 -303.114C133.683 -312.68 118.889 -322.776 107.756 -333.08C94.8014 -345.089 86.8544 -357.363 84.1422 -369.562C81.0506 -383.465 84.7491 -397.482 95.1049 -411.233C117.732 -441.237 152.024 -459.516 182.294 -475.635C215.012 -493.062 250.384 -507.704 284.6 -521.872C290.632 -524.372 296.872 -526.948 303.017 -529.525L302.656 -530.377C296.511 -527.82 290.271 -525.225 284.24 -522.724C250.005 -508.556 214.613 -493.895 181.858 -476.45C164.542 -467.225 149.008 -458.777 134.309 -448.681C117.372 -437.07 104.304 -425.004 94.3652 -411.802C83.8387 -397.823 80.0833 -383.56 83.2318 -369.391C85.9819 -357.003 94.0238 -344.559 107.111 -332.436C118.301 -322.075 133.152 -311.941 151.227 -302.337C191.304 -281.028 236.558 -264.719 280.333 -248.941C308.403 -238.826 337.403 -228.37 364.886 -216.664C384.384 -208.386 398.722 -200.942 409.97 -193.195C424.195 -183.44 432.824 -173.628 436.352 -163.248C439.671 -153.531 438.306 -143.227 432.331 -132.638C421.217 -112.939 401.34 -95.7967 382.127 -79.2226L381.747 -78.9007C364.203 -63.7662 344.8 -48.4613 326.061 -33.6678C314.814 -24.8031 303.187 -15.6163 291.921 -6.46746C266.354 14.3306 237.127 38.6517 213.798 64.3367C187.605 93.185 172.128 119.969 166.495 146.241C164.561 155.39 163.992 164.368 164.826 172.892C165.623 181.018 167.709 189.03 171.028 196.664C177.154 210.756 187.415 223.997 202.437 237.142C230.261 261.482 270.47 281.693 309.352 301.222C345.692 319.482 383.265 338.348 409.951 360.339C438.287 383.694 452.417 413.85 452.417 451.43C452.417 479.407 444.584 511.494 428.955 547.995C410.728 590.424 332.756 671.836 257.345 750.577C229.559 779.596 203.309 807.004 180.094 832.367L180.777 832.992C203.973 807.629 230.223 780.24 258.009 751.221C333.477 672.423 411.506 590.936 429.809 548.355C445.835 511.078 453.612 479.407 453.612 451.638Z" fill="url(#paint24_linear_339_3884)" fill-opacity="0.2"/>
<path d="M464.895 439.156C464.895 422.487 461.822 407.049 455.753 393.241C448.622 377.008 437.128 362.536 421.594 350.262C393.808 328.29 354.547 309.575 316.595 291.505C276.082 272.203 234.166 252.239 205.09 227.955C172.506 200.755 160.102 171.054 167.157 137.168C178.992 80.2666 236.253 31.6054 293.911 -13.3434C308.364 -24.6137 323.48 -35.8462 338.084 -46.6808C354.623 -58.9551 371.712 -71.646 387.948 -84.4885C408.071 -100.419 430.907 -118.451 443.652 -139.306C450.518 -150.538 452.32 -161.487 448.982 -171.848C447.18 -177.417 443.861 -182.967 439.082 -188.308C434.738 -193.157 429.067 -198.025 422.22 -202.761C410.916 -210.565 395.951 -218.35 376.473 -226.552C346.278 -239.28 313.978 -250.38 282.74 -261.101C240.975 -275.459 197.788 -290.29 159.115 -309.194C140.111 -318.495 124.615 -328.117 113.102 -337.796C99.3895 -349.332 91.1201 -361.114 88.5406 -372.82C85.7525 -385.454 89.5648 -398.258 99.8447 -410.911C119.703 -435.308 153.919 -454.269 184.436 -470.123C220.833 -489.027 260.094 -506.132 298.065 -522.687C300.834 -523.899 303.603 -525.092 306.372 -526.304L305.993 -527.176C303.224 -525.964 300.455 -524.77 297.685 -523.558C259.695 -507.003 220.434 -489.898 184 -470.976C153.406 -455.084 119.077 -436.066 99.105 -411.536C88.6355 -398.656 84.7663 -385.567 87.6113 -372.649C90.2287 -360.735 98.6119 -348.783 112.495 -337.114C124.065 -327.378 139.618 -317.718 158.698 -308.38C197.428 -289.438 240.653 -274.588 282.436 -260.23C313.655 -249.509 345.936 -238.409 376.093 -225.699C403.178 -214.296 440.106 -196.264 448.072 -171.583C451.315 -161.506 449.57 -150.822 442.837 -139.817C430.167 -119.114 407.426 -101.119 387.36 -85.2462C371.143 -72.4227 354.054 -59.7317 337.515 -47.4574C322.892 -36.6038 307.776 -25.3903 293.323 -14.1011C267.51 6.034 237.941 29.6922 213.777 55.6802C187.224 84.2065 171.69 110.801 166.247 136.978C164.312 146.279 163.819 155.352 164.767 163.989C165.678 172.21 167.916 180.298 171.444 188.026C177.949 202.232 188.76 215.53 204.502 228.675C233.673 253.034 275.627 273.018 316.197 292.357C354.111 310.428 393.315 329.104 421.025 351.001C472.576 391.763 477.603 453.419 436.445 539.528C415.809 582.677 332.451 666.987 251.824 748.512C222.407 778.27 194.621 806.36 169.945 832.367L170.628 833.011C195.285 807.023 223.071 778.933 252.488 749.175C333.172 667.593 416.587 583.226 437.299 539.945C455.317 502.27 464.345 470.182 464.895 441.845C464.895 440.936 464.895 440.046 464.895 439.156Z" fill="url(#paint25_linear_339_3884)" fill-opacity="0.2"/>
</g>
<defs>
<linearGradient id="paint0_linear_339_3884" x1="-43.5076" y1="107.51" x2="425.749" y2="107.51" gradientUnits="userSpaceOnUse">
<stop stop-color="#07122F" stop-opacity="0.3"/>
<stop offset="1" stop-color="#050D20" stop-opacity="0.3"/>
</linearGradient>
<linearGradient id="paint1_linear_339_3884" x1="-37.7571" y1="110.014" x2="415.545" y2="110.014" gradientUnits="userSpaceOnUse">
<stop stop-color="#07122F" stop-opacity="0.3"/>
<stop offset="1" stop-color="#050D20" stop-opacity="0.3"/>
</linearGradient>
<linearGradient id="paint2_linear_339_3884" x1="-32.0948" y1="112.476" x2="405.339" y2="112.476" gradientUnits="userSpaceOnUse">
<stop stop-color="#07122F" stop-opacity="0.3"/>
<stop offset="1" stop-color="#050D20" stop-opacity="0.3"/>
</linearGradient>
<linearGradient id="paint3_linear_339_3884" x1="-26.4739" y1="114.918" x2="395.135" y2="114.918" gradientUnits="userSpaceOnUse">
<stop stop-color="#07122F" stop-opacity="0.3"/>
<stop offset="1" stop-color="#050D20" stop-opacity="0.3"/>
</linearGradient>
<linearGradient id="paint4_linear_339_3884" x1="-20.909" y1="117.352" x2="384.951" y2="117.352" gradientUnits="userSpaceOnUse">
<stop stop-color="#07122F" stop-opacity="0.3"/>
<stop offset="1" stop-color="#050D20" stop-opacity="0.3"/>
</linearGradient>
<linearGradient id="paint5_linear_339_3884" x1="-15.3079" y1="119.692" x2="374.748" y2="119.692" gradientUnits="userSpaceOnUse">
<stop stop-color="#07122F" stop-opacity="0.3"/>
<stop offset="1" stop-color="#050D20" stop-opacity="0.3"/>
</linearGradient>
<linearGradient id="paint6_linear_339_3884" x1="-9.83157" y1="122.038" x2="364.562" y2="122.038" gradientUnits="userSpaceOnUse">
<stop stop-color="#07122F" stop-opacity="0.3"/>
<stop offset="1" stop-color="#050D20" stop-opacity="0.3"/>
</linearGradient>
<linearGradient id="paint7_linear_339_3884" x1="-4.45975" y1="124.266" x2="354.377" y2="124.266" gradientUnits="userSpaceOnUse">
<stop stop-color="#07122F" stop-opacity="0.3"/>
<stop offset="1" stop-color="#050D20" stop-opacity="0.3"/>
</linearGradient>
<linearGradient id="paint8_linear_339_3884" x1="0.969696" y1="126.048" x2="344.173" y2="126.048" gradientUnits="userSpaceOnUse">
<stop stop-color="#07122F" stop-opacity="0.3"/>
<stop offset="1" stop-color="#050D20" stop-opacity="0.3"/>
</linearGradient>
<linearGradient id="paint9_linear_339_3884" x1="6.39206" y1="127.628" x2="333.987" y2="127.628" gradientUnits="userSpaceOnUse">
<stop stop-color="#07122F" stop-opacity="0.3"/>
<stop offset="1" stop-color="#050D20" stop-opacity="0.3"/>
</linearGradient>
<linearGradient id="paint10_linear_339_3884" x1="11.6789" y1="129.201" x2="334.425" y2="129.201" gradientUnits="userSpaceOnUse">
<stop stop-color="#07122F" stop-opacity="0.3"/>
<stop offset="1" stop-color="#050D20" stop-opacity="0.3"/>
</linearGradient>
<linearGradient id="paint11_linear_339_3884" x1="16.9179" y1="130.783" x2="338.388" y2="130.783" gradientUnits="userSpaceOnUse">
<stop stop-color="#07122F" stop-opacity="0.3"/>
<stop offset="1" stop-color="#050D20" stop-opacity="0.3"/>
</linearGradient>
<linearGradient id="paint12_linear_339_3884" x1="22.1696" y1="132.325" x2="343.585" y2="132.325" gradientUnits="userSpaceOnUse">
<stop stop-color="#07122F" stop-opacity="0.3"/>
<stop offset="1" stop-color="#050D20" stop-opacity="0.3"/>
</linearGradient>
<linearGradient id="paint13_linear_339_3884" x1="27.3745" y1="133.964" x2="349.598" y2="133.964" gradientUnits="userSpaceOnUse">
<stop stop-color="#07122F" stop-opacity="0.3"/>
<stop offset="1" stop-color="#050D20" stop-opacity="0.3"/>
</linearGradient>
<linearGradient id="paint14_linear_339_3884" x1="32.5971" y1="135.482" x2="356.14" y2="135.482" gradientUnits="userSpaceOnUse">
<stop stop-color="#07122F" stop-opacity="0.3"/>
<stop offset="1" stop-color="#050D20" stop-opacity="0.3"/>
</linearGradient>
<linearGradient id="paint15_linear_339_3884" x1="37.7339" y1="137.129" x2="363.102" y2="137.129" gradientUnits="userSpaceOnUse">
<stop stop-color="#07122F" stop-opacity="0.3"/>
<stop offset="1" stop-color="#050D20" stop-opacity="0.3"/>
</linearGradient>
<linearGradient id="paint16_linear_339_3884" x1="42.8728" y1="138.701" x2="370.346" y2="138.701" gradientUnits="userSpaceOnUse">
<stop stop-color="#07122F" stop-opacity="0.3"/>
<stop offset="1" stop-color="#050D20" stop-opacity="0.3"/>
</linearGradient>
<linearGradient id="paint17_linear_339_3884" x1="47.9594" y1="140.271" x2="378.731" y2="140.271" gradientUnits="userSpaceOnUse">
<stop stop-color="#07122F" stop-opacity="0.3"/>
<stop offset="1" stop-color="#050D20" stop-opacity="0.3"/>
</linearGradient>
<linearGradient id="paint18_linear_339_3884" x1="52.9729" y1="141.853" x2="388.517" y2="141.853" gradientUnits="userSpaceOnUse">
<stop stop-color="#07122F" stop-opacity="0.3"/>
<stop offset="1" stop-color="#050D20" stop-opacity="0.3"/>
</linearGradient>
<linearGradient id="paint19_linear_339_3884" x1="58.018" y1="143.427" x2="398.816" y2="143.427" gradientUnits="userSpaceOnUse">
<stop stop-color="#07122F" stop-opacity="0.3"/>
<stop offset="1" stop-color="#050D20" stop-opacity="0.3"/>
</linearGradient>
<linearGradient id="paint20_linear_339_3884" x1="62.9221" y1="145.016" x2="409.456" y2="145.016" gradientUnits="userSpaceOnUse">
<stop stop-color="#07122F" stop-opacity="0.3"/>
<stop offset="1" stop-color="#050D20" stop-opacity="0.3"/>
</linearGradient>
<linearGradient id="paint21_linear_339_3884" x1="67.854" y1="146.609" x2="420.306" y2="146.609" gradientUnits="userSpaceOnUse">
<stop stop-color="#07122F" stop-opacity="0.3"/>
<stop offset="1" stop-color="#050D20" stop-opacity="0.3"/>
</linearGradient>
<linearGradient id="paint22_linear_339_3884" x1="72.688" y1="148.172" x2="431.251" y2="148.172" gradientUnits="userSpaceOnUse">
<stop stop-color="#07122F" stop-opacity="0.3"/>
<stop offset="1" stop-color="#050D20" stop-opacity="0.3"/>
</linearGradient>
<linearGradient id="paint23_linear_339_3884" x1="77.4738" y1="149.772" x2="442.382" y2="149.772" gradientUnits="userSpaceOnUse">
<stop stop-color="#07122F" stop-opacity="0.3"/>
<stop offset="1" stop-color="#050D20" stop-opacity="0.3"/>
</linearGradient>
<linearGradient id="paint24_linear_339_3884" x1="82.1533" y1="151.308" x2="453.612" y2="151.308" gradientUnits="userSpaceOnUse">
<stop stop-color="#07122F" stop-opacity="0.3"/>
<stop offset="1" stop-color="#050D20" stop-opacity="0.3"/>
</linearGradient>
<linearGradient id="paint25_linear_339_3884" x1="86.706" y1="152.918" x2="464.895" y2="152.918" gradientUnits="userSpaceOnUse">
<stop stop-color="#07122F" stop-opacity="0.3"/>
<stop offset="1" stop-color="#050D20" stop-opacity="0.3"/>
</linearGradient>
</defs>
</svg>
