<svg width="90" height="17" viewBox="0 0 90 17" fill="none" xmlns="http://www.w3.org/2000/svg">
<path d="M16.875 0H0V17H16.875V0Z" fill="#0AE496"/>
<path d="M35.1562 0H18.2812V17H35.1562V0Z" fill="#0AE496"/>
<path d="M53.4375 0H36.5625V17H53.4375V0Z" fill="#0AE496"/>
<path d="M71.7188 0H54.8438V17H71.7188V0Z" fill="#0AE496"/>
<path d="M90 0H81.5625V17H90V0Z" fill="#615EFC"/>
<path d="M81.5625 0H73.125V17H81.5625V0Z" fill="#0AE496"/>
<path d="M8.4375 11.4557L11.0039 10.8005L12.0762 14.1297L8.4375 11.4557ZM14.3437 7.1526H9.82617L8.4375 2.86719L7.04883 7.1526H2.53125L6.1875 9.80885L4.79883 14.0943L8.45508 11.438L10.7051 9.80885L14.3437 7.1526Z" fill="white"/>
<path d="M26.7187 11.4557L29.2852 10.8005L30.3574 14.1297L26.7187 11.4557ZM32.625 7.1526H28.1074L26.7187 2.86719L25.3301 7.1526H20.8125L24.4687 9.80885L23.0801 14.0943L26.7363 11.438L28.9863 9.80885L32.625 7.1526Z" fill="white"/>
<path d="M45 11.4557L47.5664 10.8005L48.6387 14.1297L45 11.4557ZM50.9063 7.1526H46.3887L45 2.86719L43.6113 7.1526H39.0938L42.75 9.80885L41.3613 14.0943L45.0176 11.438L47.2676 9.80885L50.9063 7.1526Z" fill="white"/>
<path d="M63.2813 11.4557L65.8477 10.8005L66.9199 14.1297L63.2813 11.4557ZM69.1875 7.1526H64.6699L63.2813 2.86719L61.8926 7.1526H57.375L61.0313 9.80885L59.6426 14.0943L63.2988 11.438L65.5488 9.80885L69.1875 7.1526Z" fill="white"/>
<path d="M81.5625 11.4557L84.1289 10.8005L85.2012 14.1297L81.5625 11.4557ZM87.4688 7.1526H82.9512L81.5625 2.86719L80.1738 7.1526H75.6562L79.3125 9.80885L77.9238 14.0943L81.5801 11.438L83.8301 9.80885L87.4688 7.1526Z" fill="white"/>
</svg>
