<svg width="40" height="40" viewBox="0 0 40 40" fill="none" xmlns="http://www.w3.org/2000/svg">
<path d="M33.75 35V7.5H23.75V35H18.75V17.5H8.75V35H5V2.5H2.5V35C2.5 35.663 2.76339 36.2989 3.23223 36.7678C3.70107 37.2366 4.33696 37.5 5 37.5H37.5V35H33.75ZM16.25 35H11.25V20H16.25V35ZM31.25 35H26.25V10H31.25V35Z" fill="#525252"/>
<path d="M33.75 35V7.5H23.75V35H18.75V17.5H8.75V35H5V2.5H2.5V35C2.5 35.663 2.76339 36.2989 3.23223 36.7678C3.70107 37.2366 4.33696 37.5 5 37.5H37.5V35H33.75ZM16.25 35H11.25V20H16.25V35ZM31.25 35H26.25V10H31.25V35Z" fill="#132A64"/>
</svg>
