<svg width="66" height="54" viewBox="0 0 66 54" fill="none" xmlns="http://www.w3.org/2000/svg">
<path fill-rule="evenodd" clip-rule="evenodd" d="M41.0412 11.0068C41.019 11.5822 41.3919 11.3876 41.3919 11.5251C41.3919 11.5397 41.4066 11.5791 41.3089 11.5791C41.188 11.5791 41.1167 11.566 40.962 11.566C40.7975 11.566 40.6796 11.5791 40.6259 11.5791C40.5752 11.5791 40.565 11.5521 40.565 11.5322C40.565 11.4109 40.8407 11.4947 40.8546 11.1401L40.9007 9.78335C40.9191 9.22644 40.5575 9.38566 40.5575 9.23583C40.5575 9.21555 40.5752 9.19076 40.5999 9.19076C40.6431 9.19076 40.6931 9.20316 40.8046 9.20316C40.8793 9.20316 41.0048 9.19076 41.1163 9.19076C41.1516 9.19076 41.1873 9.18701 41.2335 9.28577L41.9778 10.9066C41.9887 10.937 41.9992 10.9618 42.021 10.9618C42.0424 10.9618 42.0709 10.8991 42.0747 10.8904L42.858 9.25498C42.8689 9.23207 42.8802 9.19076 42.941 9.19076C43.0233 9.19076 43.0871 9.20316 43.1404 9.20316C43.1982 9.20316 43.2628 9.19076 43.356 9.19076C43.4484 9.19076 43.4559 9.20316 43.4559 9.2302C43.4559 9.35375 43.1228 9.21968 43.1404 9.6076L43.1949 11.1026C43.2125 11.5446 43.5242 11.3978 43.5242 11.5213C43.5242 11.5788 43.4773 11.5788 43.3593 11.5788C43.2632 11.5788 43.1701 11.5656 43.0732 11.5656C42.8509 11.5656 42.7724 11.5788 42.6939 11.5788C42.6222 11.5788 42.5362 11.5893 42.5362 11.5284C42.5362 11.4143 42.8009 11.5251 42.7795 11.151L42.7296 10.1285C42.7258 10.0263 42.7221 9.97412 42.7048 9.97412C42.6902 9.97412 42.647 10.0443 42.597 10.1533L41.9605 11.4856C41.9421 11.5322 41.9274 11.5822 41.8704 11.5822C41.8212 11.5822 41.8028 11.5251 41.7889 11.4856L41.1339 10.032C41.1231 10.0121 41.1092 9.9745 41.0979 9.9745C41.0731 9.9745 41.0731 10.0372 41.0731 10.062L41.0412 11.0068ZM44.8051 11.1961C44.8051 11.3643 44.8089 11.4038 44.8953 11.4038C44.9377 11.4038 44.9805 11.3876 45.0053 11.3876C45.0301 11.3876 45.0414 11.4 45.0414 11.4184C45.0414 11.4841 44.8374 11.6021 44.7158 11.6021C44.5588 11.6021 44.5081 11.468 44.4942 11.3981C44.3541 11.5131 44.154 11.6021 43.9685 11.6021C43.7822 11.6021 43.65 11.4717 43.65 11.2859C43.65 10.8709 44.1003 10.8138 44.4473 10.7244C44.4473 10.436 44.4259 10.2291 44.1577 10.2291C44.0285 10.2291 44.0038 10.2644 44.0038 10.4184C44.0038 10.5757 43.786 10.5757 43.7638 10.5757C43.7353 10.5757 43.6752 10.5705 43.6752 10.5055C43.6752 10.2103 44.0575 10.1191 44.294 10.1191C44.641 10.1191 44.8051 10.2749 44.8051 10.6148V11.1961ZM44.4473 10.9621C44.4473 10.8709 44.4548 10.8409 44.4259 10.8409C44.2937 10.8409 44.0255 10.955 44.0255 11.1818C44.0255 11.2355 44.0285 11.4038 44.2047 11.4038C44.2794 11.4038 44.4473 11.3662 44.4473 11.2874V10.9621ZM45.4143 9.49344C45.4143 9.29066 45.1919 9.40181 45.1919 9.30192C45.1919 9.24634 45.2426 9.25873 45.4567 9.18701C45.7143 9.10852 45.7076 9.04919 45.7646 9.04919C45.8071 9.04919 45.7721 9.14795 45.7721 9.3376V11.2675C45.7721 11.5089 46.0185 11.459 46.0185 11.536C46.0185 11.5698 46.0076 11.5791 45.9501 11.5791C45.8825 11.5791 45.6715 11.566 45.5746 11.566C45.4961 11.566 45.3422 11.5791 45.2701 11.5791C45.2453 11.5791 45.2137 11.5791 45.2137 11.545C45.2137 11.4398 45.4139 11.5773 45.4139 11.2569V9.49344H45.4143ZM47.0129 10.1195C47.1237 10.1195 47.4391 10.1735 47.4391 10.3681C47.4391 10.4326 47.2454 10.5761 47.1883 10.5761C47.156 10.5761 47.1492 10.5491 47.1458 10.5254C47.1026 10.3628 47.0497 10.2505 46.8627 10.2505C46.6017 10.2505 46.548 10.4935 46.548 10.7012C46.548 11.0267 46.7271 11.3914 47.0459 11.3914C47.2416 11.3914 47.4068 11.2123 47.4605 11.2123C47.4744 11.2123 47.4928 11.216 47.4928 11.2517C47.4928 11.3358 47.2134 11.6024 46.8627 11.6024C46.4804 11.6024 46.2078 11.3129 46.2078 10.9268C46.2078 10.4773 46.5555 10.1195 47.0129 10.1195ZM48.4842 11.6021C48.0757 11.6021 47.7572 11.3197 47.7572 10.9032C47.7572 10.4634 48.0719 10.1195 48.5229 10.1195C48.9454 10.1195 49.2672 10.3966 49.2672 10.8247C49.2676 11.2825 48.9495 11.6021 48.4842 11.6021ZM48.1155 10.712C48.1046 10.9336 48.2123 11.4841 48.5879 11.4841C48.8526 11.4841 48.9281 11.2874 48.9281 11.0583C48.9281 10.7924 48.8312 10.2269 48.4662 10.2269C48.1725 10.2269 48.1264 10.4706 48.1155 10.712ZM49.7115 9.49344C49.7115 9.29066 49.4861 9.40181 49.4861 9.30192C49.4861 9.24634 49.5399 9.25873 49.7539 9.18701C50.0115 9.10852 50.001 9.04919 50.0618 9.04919C50.105 9.04919 50.0694 9.14795 50.0694 9.3376V11.2675C50.0694 11.5089 50.3157 11.459 50.3157 11.536C50.3157 11.5698 50.3056 11.5791 50.2481 11.5791C50.1771 11.5791 49.9687 11.566 49.8688 11.566C49.7903 11.566 49.6364 11.5791 49.568 11.5791C49.5432 11.5791 49.5109 11.5791 49.5109 11.545C49.5109 11.4398 49.7111 11.5773 49.7111 11.2569L49.7115 9.49344ZM51.9369 11.2874C51.9369 11.5127 52.1554 11.4308 52.1554 11.5251C52.1554 11.5484 52.1479 11.5791 52.1092 11.5791C52.0375 11.5791 51.9662 11.566 51.816 11.566C51.6259 11.566 51.5576 11.5791 51.5043 11.5791C51.4618 11.5791 51.4479 11.566 51.4479 11.536C51.4479 11.4556 51.5794 11.495 51.5794 11.3159V10.7169C51.5794 10.3928 51.4622 10.3305 51.3079 10.3305C51.1077 10.3305 51.0645 10.4863 51.0645 10.5292V11.2949C51.0645 11.5131 51.2868 11.4214 51.2868 11.5363C51.2868 11.59 51.2113 11.5795 51.176 11.5795C51.0645 11.5795 50.9605 11.5664 50.8505 11.5664C50.7682 11.5664 50.6856 11.5795 50.621 11.5795C50.5564 11.5795 50.5388 11.59 50.5388 11.5326C50.5388 11.447 50.7033 11.504 50.7033 11.3504V10.4867C50.7033 10.3237 50.4892 10.4188 50.4892 10.3237C50.4892 10.2719 50.5391 10.2682 50.6608 10.2359C50.9357 10.1698 50.9864 10.0932 51.0262 10.0932C51.0653 10.0932 51.0653 10.1165 51.0653 10.1574V10.3275C51.1768 10.2111 51.3052 10.1198 51.4915 10.1198C51.6669 10.1198 51.796 10.2148 51.8956 10.3508C51.9477 10.28 52.0156 10.2222 52.0938 10.1821C52.1721 10.142 52.2586 10.1207 52.3466 10.1198C52.733 10.1198 52.8115 10.3632 52.8115 10.7248V11.2952C52.8115 11.4905 53.0263 11.4278 53.0263 11.5221C53.0263 11.5863 52.9692 11.5795 52.9223 11.5795C52.8577 11.5795 52.7867 11.5664 52.7184 11.5664C52.5967 11.5664 52.4536 11.5795 52.3928 11.5795C52.3428 11.5795 52.3218 11.5739 52.3218 11.5292C52.3218 11.4721 52.4574 11.4597 52.4574 11.3666V10.7586C52.4574 10.5603 52.4536 10.3189 52.1817 10.3189C51.9098 10.3189 51.9384 10.6245 51.9384 10.6659V11.2874H51.9369ZM54.5134 9.68834C54.5134 9.21968 54.1593 9.40594 54.1593 9.23921C54.1593 9.18738 54.1953 9.19114 54.2137 9.19114C54.2385 9.19114 54.2599 9.20353 54.4169 9.20353C54.7038 9.20353 54.9896 9.19114 55.2757 9.19114C56.103 9.19114 56.103 9.69022 56.103 9.77134C56.103 9.98201 55.9738 10.1686 55.7376 10.2471V10.2546C56.1492 10.3564 56.2776 10.5385 56.2776 10.845C56.2776 11.2881 55.9667 11.5799 55.4158 11.5799C54.9148 11.5799 54.7462 11.5668 54.5754 11.5668C54.4961 11.5668 54.4067 11.5799 54.3384 11.5799C54.2599 11.5799 54.2239 11.5743 54.2239 11.5258C54.2239 11.4154 54.5134 11.5044 54.5134 11.1788V9.68834ZM54.9287 10.0477C54.9287 10.2107 54.9648 10.2269 55.1574 10.2415H55.3613C55.619 10.2415 55.7155 10.1127 55.7155 9.86184C55.7155 9.5524 55.4691 9.33797 55.1683 9.33797C54.9359 9.33797 54.9284 9.46077 54.9284 9.65267V10.0477H54.9287ZM54.9287 11.0297C54.9287 11.3501 55.0181 11.4432 55.3475 11.4432C55.6768 11.4432 55.8484 11.2246 55.8484 10.8957C55.8484 10.6959 55.7478 10.3913 55.1364 10.3913C54.9362 10.3913 54.9287 10.4773 54.9287 10.6527V11.0297ZM57.7024 11.1961C57.7024 11.3643 57.7062 11.4038 57.791 11.4038C57.8305 11.4038 57.877 11.3876 57.9018 11.3876C57.924 11.3876 57.9379 11.4 57.9379 11.4184C57.9379 11.4841 57.734 11.6021 57.6085 11.6021C57.4516 11.6021 57.4054 11.468 57.3907 11.3981C57.2476 11.5131 57.0505 11.6021 56.8642 11.6021C56.6787 11.6021 56.5458 11.4717 56.5458 11.2859C56.5458 10.8709 56.9968 10.8138 57.3445 10.7244C57.3445 10.436 57.319 10.2291 57.0542 10.2291C56.9251 10.2291 56.8965 10.2644 56.8965 10.4184C56.8965 10.5757 56.6825 10.5757 56.6573 10.5757C56.6318 10.5757 56.5709 10.5705 56.5709 10.5055C56.5709 10.2103 56.954 10.1191 57.1898 10.1191C57.5376 10.1191 57.7024 10.2749 57.7024 10.6148V11.1961ZM57.3445 10.9621C57.3445 10.8709 57.3513 10.8409 57.319 10.8409C57.1898 10.8409 56.9213 10.955 56.9213 11.1818C56.9213 11.2355 56.9251 11.4038 57.1012 11.4038C57.1759 11.4038 57.3445 11.3662 57.3445 11.2874V10.9621ZM58.2957 9.49344C58.2957 9.29066 58.0704 9.40181 58.0704 9.30192C58.0704 9.24634 58.1241 9.25873 58.3389 9.18701C58.5999 9.10852 58.589 9.04919 58.6461 9.04919C58.6893 9.04919 58.6536 9.14795 58.6536 9.3376V11.2675C58.6536 11.5089 58.9007 11.459 58.9007 11.536C58.9007 11.5698 58.8898 11.5791 58.8324 11.5791C58.764 11.5791 58.5537 11.566 58.4531 11.566C58.3739 11.566 58.2244 11.5791 58.1523 11.5791C58.1268 11.5791 58.0986 11.5791 58.0986 11.545C58.0986 11.4398 58.295 11.5773 58.295 11.2569V9.49344H58.2957ZM60.06 9.52574C60.06 9.27113 59.8347 9.42172 59.8347 9.30192C59.8347 9.21442 60.0138 9.26587 60.3281 9.07435C60.3457 9.0606 60.3668 9.05202 60.389 9.04957C60.425 9.04957 60.4175 9.08712 60.4175 9.1427V11.1961C60.4175 11.4736 60.6428 11.3287 60.6428 11.4376C60.6428 11.504 60.4141 11.504 60.2425 11.5611C60.1986 11.5786 60.1532 11.5923 60.1069 11.6021C60.06 11.6021 60.06 11.5521 60.06 11.3824C59.9316 11.5127 59.7851 11.6021 59.5846 11.6021C59.1227 11.6021 59.0119 11.0891 59.0866 10.7334C59.155 10.4116 59.4013 10.1195 59.7524 10.1195C59.8418 10.1195 59.995 10.1375 60.0596 10.2021V9.52574H60.06ZM60.06 10.4668C59.9778 10.3343 59.8493 10.2453 59.6882 10.2453C59.4235 10.2453 59.3626 10.5423 59.3626 10.7511C59.3626 10.9678 59.4948 11.3696 59.7776 11.3696C59.8561 11.3696 59.953 11.3467 60.0176 11.2949C60.0713 11.2479 60.06 11.2085 60.06 11.1405V10.4668ZM61.3699 11.2156C61.3699 11.5251 61.6845 11.4233 61.6845 11.5213C61.6845 11.5431 61.6707 11.5788 61.6346 11.5788C61.5524 11.5788 61.359 11.5656 61.2482 11.5656C61.0905 11.5656 60.9906 11.5788 60.9049 11.5788C60.8655 11.5788 60.8512 11.5731 60.8512 11.5446C60.8512 11.4394 61.012 11.5285 61.012 11.2761V10.486C61.012 10.323 60.7979 10.418 60.7979 10.323C60.7979 10.2712 60.8479 10.2674 60.9658 10.2351C61.2482 10.169 61.2906 10.0924 61.3304 10.0924C61.3702 10.0924 61.3699 10.1157 61.3699 10.1566V10.418C61.5201 10.2449 61.6384 10.1191 61.724 10.1191C61.8062 10.1191 61.9925 10.2712 61.9925 10.3339C61.9925 10.4589 61.8772 10.6185 61.8171 10.6185C61.7488 10.6185 61.7277 10.4822 61.5449 10.4822C61.3586 10.4822 61.3695 10.7365 61.3695 10.7665L61.3699 11.2156ZM62.4326 10.4867C62.4326 10.3237 62.2178 10.4188 62.2178 10.3237C62.2178 10.2719 62.2677 10.2682 62.3864 10.2359C62.6688 10.1698 62.7082 10.0932 62.7473 10.0932C62.7905 10.0932 62.7905 10.1165 62.7905 10.1574V11.2949C62.7905 11.5131 63.0376 11.4214 63.0376 11.5363C63.0376 11.59 62.937 11.5795 62.9013 11.5795C62.7905 11.5795 62.6872 11.5664 62.5794 11.5664C62.4965 11.5664 62.4116 11.5795 62.3293 11.5795C62.2723 11.5795 62.2355 11.59 62.2355 11.5326C62.2355 11.447 62.4326 11.504 62.4326 11.3504V10.4867ZM62.6151 9.83142C62.5614 9.83142 62.3936 9.61662 62.3936 9.56817C62.3936 9.51973 62.5614 9.29667 62.6151 9.29667C62.6722 9.29667 62.8404 9.52011 62.8404 9.56817C62.8404 9.61624 62.6726 9.83142 62.6151 9.83142ZM63.2058 11.9551C63.2058 11.753 63.4236 11.6899 63.4597 11.6899C63.4236 11.6595 63.3129 11.5859 63.3129 11.3824C63.3129 11.2404 63.3737 11.1401 63.492 11.0568C63.3102 10.9407 63.2163 10.8547 63.2163 10.6275C63.2163 10.3035 63.4848 10.1191 63.8213 10.1191C64.0538 10.1191 64.1867 10.2355 64.2937 10.2355C64.4939 10.2355 64.4901 10.0226 64.5408 10.0226C64.5694 10.0226 64.5769 10.0545 64.5769 10.1161C64.5769 10.436 64.4793 10.4417 64.4259 10.477C64.4297 10.5322 64.4259 10.4897 64.4297 10.5757C64.4372 10.792 64.3118 11.1064 63.8071 11.1064C63.7571 11.1064 63.7 11.0977 63.6362 11.0977C63.5322 11.0977 63.4924 11.1672 63.4924 11.2476C63.4924 11.382 63.5138 11.3978 64.0072 11.3978C64.4796 11.3978 64.5773 11.5393 64.5773 11.7429C64.5773 11.9434 64.4372 12.0993 64.2618 12.1657C64.0647 12.2442 63.9546 12.2498 63.7425 12.2498C63.6061 12.2502 63.2058 12.2198 63.2058 11.9551ZM63.6133 11.7222C63.5239 11.7222 63.477 11.8082 63.477 11.8882C63.477 12.1124 63.6993 12.15 63.857 12.15C64.0324 12.15 64.3148 12.112 64.3148 11.8814C64.3148 11.7275 64.1927 11.7222 63.6133 11.7222ZM63.8063 10.2145C63.7455 10.2145 63.5416 10.2453 63.5416 10.6118C63.5416 10.78 63.6133 11.0181 63.821 11.0181C64.035 11.0181 64.0925 10.8228 64.0925 10.6407C64.0925 10.4507 64.0324 10.2145 63.8063 10.2145ZM65.1237 10.7511C65.0628 10.7511 65.0444 10.7282 65.0444 10.8386C65.0444 11.1244 65.2555 11.3914 65.5454 11.3914C65.7463 11.3914 65.9108 11.2123 65.9679 11.2123C65.9788 11.2123 66.0002 11.216 66.0002 11.2517C66.0002 11.3358 65.7178 11.6024 65.3663 11.6024C65.0339 11.6024 64.7046 11.3914 64.7046 10.9268C64.7046 10.5382 64.9231 10.1198 65.3595 10.1198C65.8105 10.1198 65.9927 10.5032 65.9927 10.6801C65.9927 10.7511 65.9712 10.7511 65.9532 10.7511H65.1237ZM65.5491 10.6366C65.6062 10.6366 65.6276 10.6403 65.6276 10.5423C65.6276 10.415 65.5353 10.2145 65.3204 10.2145C65.1203 10.2145 65.0448 10.415 65.0448 10.5708C65.0448 10.6242 65.0523 10.6366 65.0632 10.6366H65.5491ZM39.5274 14.354C39.5274 12.9029 38.7009 13.3948 38.7009 13.0332C38.7009 12.9652 38.7399 12.9029 38.8263 12.9029C38.9656 12.9029 39.1012 12.9352 39.2413 12.9352C39.4343 12.9352 39.6243 12.9029 40.0171 12.9029C40.2533 12.9029 40.1647 12.9585 40.2965 13.1012L43.2707 16.431C43.3669 16.535 43.4562 16.6259 43.4994 16.6259C43.5456 16.6259 43.5603 16.535 43.5603 16.3469V13.8331C43.5603 13.1459 42.6582 13.2818 42.6582 13.0332C42.6582 12.9795 42.6804 12.9029 42.7761 12.9029C42.8941 12.9029 43.1055 12.9352 43.6173 12.9352C44.0815 12.9352 44.3436 12.9029 44.4108 12.9029C44.5472 12.9029 44.5472 12.9799 44.5472 13.0032C44.5472 13.2285 43.9208 13.0479 43.9208 13.8402V18.0732C43.9208 18.2377 43.9208 18.3008 43.8314 18.3008C43.7281 18.3008 43.6921 18.2538 43.6384 18.1953L40.0847 14.2698C40.031 14.2105 39.9878 14.1752 39.9491 14.1752C39.906 14.1752 39.8921 14.2251 39.8921 14.2931V16.8565C39.8921 18.3075 40.8369 17.7961 40.8369 18.1502C40.8369 18.2542 40.6544 18.2467 40.5538 18.2467C40.1929 18.2467 39.942 18.2163 39.684 18.2163C39.4448 18.2163 39.2484 18.2467 39.0475 18.2467C38.9653 18.2467 38.8188 18.2861 38.8188 18.1573C38.8188 17.855 39.5274 17.9929 39.5274 17.22V14.354ZM47.2529 17.3886C47.2529 17.7642 47.2604 17.8554 47.453 17.8554C47.5424 17.8554 47.6393 17.8194 47.69 17.8194C47.7437 17.8194 47.7722 17.8479 47.7722 17.8858C47.7722 18.0357 47.3212 18.3008 47.0565 18.3008C46.7095 18.3008 46.6017 18 46.5732 17.8404C46.2652 18.0988 45.8296 18.3008 45.421 18.3008C45.0169 18.3008 44.727 18.0071 44.727 17.5903C44.727 16.6616 45.7113 16.535 46.4733 16.3379C46.4733 15.6886 46.4196 15.2289 45.8367 15.2289C45.5573 15.2289 45.4965 15.3059 45.4965 15.6507C45.4965 16.007 45.0241 16.007 44.97 16.007C44.9099 16.007 44.777 15.9913 44.777 15.8497C44.777 15.1914 45.6144 14.9803 46.1338 14.9803C46.8916 14.9803 47.2529 15.3296 47.2529 16.0897V17.3886ZM46.4733 16.8663C46.4733 16.6623 46.4872 16.5963 46.4196 16.5963C46.1334 16.5963 45.5461 16.8501 45.5461 17.3582C45.5461 17.478 45.557 17.8558 45.94 17.8558C46.1015 17.8558 46.4733 17.7717 46.4733 17.5982V16.8663ZM48.2946 15.4937H48.0659C47.9266 15.4937 47.8759 15.4261 47.8759 15.3795C47.8759 15.215 48.0013 15.1918 48.209 14.9969C48.7636 14.4599 48.8677 14.1129 48.9923 14.1129C49.0494 14.1129 49.0783 14.1647 49.0783 14.197V15.0036C49.0783 15.0787 49.1647 15.0787 49.2432 15.0787H49.7543C49.9267 15.0787 49.8805 14.9127 49.9867 14.9127C50.019 14.9127 50.0337 14.936 50.0337 14.9664C50.0337 15.0183 49.9589 15.1854 49.9405 15.2436C49.8906 15.3514 49.8906 15.4873 49.7911 15.4873H49.0783V17.457C49.0783 17.7217 49.1328 17.8704 49.4186 17.8704C49.7911 17.8704 49.9334 17.6894 50.0119 17.6894C50.0663 17.6894 50.0949 17.715 50.0949 17.8043C50.0949 17.9316 49.6724 18.3019 49.0674 18.3019C48.224 18.3019 48.295 17.6522 48.295 17.4573L48.2946 15.4937ZM50.846 15.8031C50.846 15.44 50.3698 15.651 50.3698 15.44C50.3698 15.3202 50.4843 15.3134 50.7378 15.2432C51.3679 15.102 51.4498 14.9214 51.5433 14.9214C51.6293 14.9214 51.6293 14.9732 51.6293 15.0701V17.6158C51.6293 18.0995 52.1693 17.8952 52.1693 18.1506C52.1693 18.2726 51.9553 18.2471 51.8621 18.2471C51.6297 18.2471 51.4006 18.2167 51.1682 18.2167C50.989 18.2167 50.8065 18.2471 50.6203 18.2471C50.4918 18.2471 50.4092 18.2726 50.4092 18.1416C50.4092 17.9519 50.8463 18.083 50.8463 17.7352V15.8031H50.846ZM51.2466 14.3453C51.1257 14.3453 50.7566 13.8639 50.7566 13.7497C50.7566 13.6386 51.1253 13.1462 51.2466 13.1462C51.3758 13.1462 51.7375 13.6389 51.7375 13.7497C51.7371 13.8639 51.3758 14.3453 51.2466 14.3453ZM53.9738 18.3012C53.0789 18.3012 52.3815 17.6661 52.3815 16.739C52.3815 15.7498 53.0717 14.9803 54.059 14.9803C54.9862 14.9803 55.6982 15.6064 55.6982 16.5564C55.6978 17.5832 54.993 18.3012 53.9738 18.3012ZM53.1645 16.3078C53.1423 16.8069 53.383 18.0364 54.2025 18.0364C54.7781 18.0364 54.9498 17.5982 54.9498 17.0859C54.9498 16.4817 54.7357 15.2222 53.9377 15.2222C53.2899 15.2218 53.1896 15.7641 53.1645 16.3078ZM56.5247 15.8031C56.5247 15.44 56.0523 15.651 56.0523 15.44C56.0523 15.3202 56.1601 15.3134 56.4211 15.2432C57.04 15.102 57.129 14.9214 57.2184 14.9214C57.3085 14.9214 57.3085 14.9732 57.3085 15.0701V15.5012H57.3224C57.5225 15.1704 57.8917 14.9807 58.328 14.9807C59.1261 14.9807 59.4516 15.651 59.4516 16.3833V17.6068C59.4516 18.083 59.9132 17.9681 59.9132 18.1344C59.9132 18.2242 59.867 18.2471 59.7415 18.2471C59.5016 18.2471 59.2699 18.2167 59.1114 18.2167C58.9296 18.2167 58.6611 18.2471 58.5714 18.2471C58.4313 18.2471 58.328 18.2865 58.328 18.1506C58.328 18.0218 58.6683 17.9523 58.6683 17.6733V16.3905C58.6683 15.9015 58.4997 15.4708 57.945 15.4708C57.4542 15.4708 57.3085 15.7569 57.3085 16.1952V17.5907C57.3085 18.0218 57.9093 17.9519 57.9093 18.1344C57.9093 18.2028 57.8556 18.2471 57.6769 18.2471C57.5984 18.2471 57.3299 18.2167 56.9536 18.2167C56.6926 18.2167 56.435 18.2471 56.2127 18.2471C56.1387 18.2471 56.1349 18.2024 56.1349 18.1667C56.1349 17.9448 56.5244 18.1506 56.5244 17.5249V15.8031H56.5247ZM62.9197 17.3886C62.9197 17.7642 62.9264 17.8554 63.1191 17.8554C63.2092 17.8554 63.3061 17.8194 63.356 17.8194C63.406 17.8194 63.4383 17.8479 63.4383 17.8858C63.4383 18.0357 62.9873 18.3008 62.7225 18.3008C62.3718 18.3008 62.2677 18 62.2392 17.8404C61.9283 18.0988 61.4957 18.3008 61.0841 18.3008C60.6792 18.3008 60.3931 18.0071 60.3931 17.5903C60.3931 16.6616 61.3736 16.535 62.1359 16.3379C62.1359 15.6886 62.0822 15.2289 61.502 15.2289C61.2196 15.2289 61.1588 15.3059 61.1588 15.6507C61.1588 16.007 60.6864 16.007 60.6364 16.007C60.5756 16.007 60.4427 15.9913 60.4427 15.8497C60.4427 15.1914 61.2767 14.9803 61.7961 14.9803C62.558 14.9803 62.9197 15.3296 62.9197 16.0897V17.3886ZM62.1356 16.8663C62.1356 16.6623 62.1495 16.5963 62.0819 16.5963C61.7957 16.5963 61.2121 16.8501 61.2121 17.3582C61.2121 17.478 61.2196 17.8558 61.6023 17.8558C61.7672 17.8558 62.1356 17.7717 62.1356 17.5982V16.8663ZM64.2862 13.5852C64.2862 13.1395 63.7992 13.3813 63.7992 13.1609C63.7992 13.0336 63.9107 13.0644 64.3831 12.898C64.9524 12.7335 64.9303 12.5976 65.0557 12.5976C65.1526 12.5976 65.0741 12.8068 65.0741 13.2289V17.5554C65.0741 18.0901 65.6212 17.985 65.6212 18.151C65.6212 18.2246 65.589 18.2475 65.4635 18.2475C65.3133 18.2475 64.8555 18.217 64.6332 18.217C64.4616 18.217 64.1323 18.2475 63.9753 18.2475C63.9145 18.2475 63.8499 18.2475 63.8499 18.1742C63.8499 17.9384 64.2862 18.2385 64.2862 17.534V13.5852ZM35.6204 25.0945C35.5667 25.066 35.531 25.0213 35.424 25.0213C34.7616 25.0213 34.7938 26.021 34.626 26.021C34.4581 26.021 34.4506 25.8835 34.4506 25.7461C34.4506 24.9639 34.9516 24.7922 34.9516 24.6961C34.9516 24.5365 33.9782 24.0213 33.9782 22.5522C33.9782 20.8991 34.9876 19.6538 36.7902 19.6396C38.2608 19.6234 39.3843 20.5968 39.3843 22.1966C39.3843 24.5958 37.4229 24.9898 37.4229 25.1088C37.4229 25.2609 38.3216 25.7675 38.7505 25.7675C39.0907 25.7675 39.2446 25.5579 39.3547 25.5579C39.3979 25.5579 39.4238 25.6011 39.4238 25.653C39.4238 25.7675 38.8049 26.3916 38.171 26.3916C37.9423 26.3916 37.634 26.3777 37.1015 26.036L35.6204 25.0945ZM36.7365 24.8174C38.3148 24.8174 38.4572 23.2375 38.4572 22.4914C38.4572 20.824 37.5337 19.9471 36.5649 19.9633C35.2873 19.9866 34.9118 21.0264 34.9118 22.1196C34.9118 23.2304 35.3913 24.8174 36.7365 24.8174ZM43.2711 24.431C43.2711 24.8981 43.8505 24.6259 43.8505 24.8407C43.8505 24.9563 43.7604 24.9406 43.6605 24.9563L42.523 25.1013C42.4862 25.0281 42.4686 24.9402 42.4686 24.5955C42.3154 24.7171 42.0255 25.1013 41.3844 25.1013C40.4832 25.1013 40.3502 24.4929 40.3502 23.8098V22.5285C40.3502 22.1658 39.8677 22.3768 39.8677 22.1658C39.8677 21.9562 40.3788 22.0602 40.8549 21.8721C40.9695 21.8188 41.0164 21.7808 41.0588 21.7808C41.149 21.7808 41.149 21.8473 41.149 21.9491V23.8564C41.149 24.3322 41.2774 24.6255 41.8069 24.6255C42.0964 24.6255 42.4686 24.461 42.4686 24.1373V22.5285C42.4686 22.1658 41.986 22.3768 41.986 22.1658C41.986 21.9562 42.5009 22.0602 42.9771 21.8721C43.0878 21.8188 43.134 21.7808 43.1772 21.7808C43.2711 21.7808 43.2711 21.8473 43.2711 21.9491V24.431ZM46.6948 24.1873C46.6948 24.565 46.7023 24.6578 46.8987 24.6578C46.9881 24.6578 47.0888 24.6187 47.1421 24.6187C47.1954 24.6187 47.2243 24.6492 47.2243 24.6886C47.2243 24.8407 46.7628 25.1017 46.4909 25.1017C46.1368 25.1017 46.0294 24.8012 46.0008 24.642C45.6854 24.8981 45.2389 25.1017 44.8273 25.1017C44.4086 25.1017 44.1153 24.8088 44.1153 24.3915C44.1153 23.4629 45.1172 23.3355 45.8931 23.141C45.8931 22.4913 45.8431 22.0294 45.2453 22.0294C44.9591 22.0294 44.8983 22.1049 44.8983 22.4538C44.8983 22.8102 44.415 22.8102 44.365 22.8102C44.3042 22.8102 44.1649 22.794 44.1649 22.6487C44.1649 21.9941 45.02 21.7808 45.5498 21.7808C46.3264 21.7808 46.6948 22.1282 46.6948 22.8902V24.1873ZM45.8931 23.6686C45.8931 23.4628 45.9115 23.3983 45.8431 23.3983C45.5498 23.3983 44.952 23.6521 44.952 24.1587C44.952 24.2804 44.9595 24.6578 45.3497 24.6578C45.5175 24.6578 45.8931 24.5722 45.8931 24.3987V23.6686ZM48.0723 20.3854C48.0723 19.9381 47.5788 20.1818 47.5788 19.9629C47.5788 19.8341 47.6904 19.863 48.1729 19.6981C48.7561 19.5318 48.731 19.3958 48.8601 19.3958C48.9608 19.3958 48.8748 19.6088 48.8748 20.0309V24.3536C48.8748 24.8906 49.4287 24.7851 49.4287 24.9477C49.4287 25.0281 49.4039 25.0498 49.2717 25.0498C49.1249 25.0498 48.6562 25.0213 48.4305 25.0213C48.2589 25.0213 47.9157 25.0498 47.758 25.0498C47.6979 25.0498 47.6295 25.0498 47.6295 24.9725C47.6295 24.7382 48.0727 25.0427 48.0727 24.3322V20.3854H48.0723ZM50.241 22.604C50.241 22.2409 49.7539 22.4538 49.7539 22.2409C49.7539 22.1192 49.8692 22.1121 50.1339 22.0456C50.7678 21.9029 50.8565 21.7223 50.9458 21.7223C51.039 21.7223 51.039 21.7741 51.039 21.8721V24.4148C51.039 24.8981 51.5899 24.6961 51.5899 24.9477C51.5899 25.0728 51.3721 25.0498 51.2789 25.0498C51.039 25.0498 50.8065 25.0213 50.5594 25.0213C50.3803 25.0213 50.1948 25.0498 50.0048 25.0498C49.8763 25.0498 49.7907 25.0728 49.7907 24.9402C49.7907 24.7524 50.241 24.8831 50.241 24.5361V22.604ZM50.6488 21.1477C50.5241 21.1477 50.1478 20.6625 50.1478 20.5521C50.1478 20.4394 50.5241 19.9471 50.6488 19.9471C50.7742 19.9471 51.1498 20.4394 51.1498 20.5521C51.1498 20.6625 50.7742 21.1477 50.6488 21.1477ZM52.2264 22.2942H51.9947C51.8471 22.2942 51.8009 22.2285 51.8009 22.1815C51.8009 22.0156 51.9301 21.9941 52.1412 21.7951C52.7067 21.2604 52.81 20.9134 52.9392 20.9134C53 20.9134 53.0323 20.9648 53.0323 20.9956V21.8041C53.0323 21.8796 53.1108 21.8796 53.1968 21.8796H53.7154C53.8908 21.8796 53.8446 21.7151 53.9587 21.7151C53.9873 21.7151 54.0012 21.7365 54.0012 21.7673C54.0012 21.8191 53.9272 21.9855 53.905 22.046C53.8513 22.1519 53.8513 22.2874 53.7548 22.2874H53.0323V24.2579C53.0323 24.5222 53.0822 24.6743 53.3793 24.6743C53.7548 24.6743 53.8979 24.4937 53.9801 24.4937C54.0308 24.4937 54.0624 24.5155 54.0624 24.6033C54.0624 24.7321 53.6332 25.102 53.018 25.102C52.1554 25.102 52.2268 24.4543 52.2268 24.2579L52.2264 22.2942ZM54.732 22.4159C54.5817 22.1046 54.3343 22.1278 54.3343 21.978C54.3343 21.8721 54.4522 21.865 54.596 21.865C54.7169 21.865 54.8386 21.8943 55.1863 21.8943C55.5619 21.8943 55.6974 21.865 55.8413 21.865C55.9697 21.865 56.0553 21.8582 56.0553 21.9637C56.0553 22.1658 55.6366 22.1124 55.6366 22.3393C55.6366 22.4162 55.705 22.5668 55.7729 22.7099L56.3918 23.9571C56.4455 24.0588 56.4665 24.1448 56.5274 24.1448C56.5627 24.1448 56.6021 24.0374 56.6344 23.9571L57.0032 23.0051C57.0925 22.7689 57.1248 22.5972 57.1248 22.5199C57.1248 22.0602 56.6201 22.1819 56.6201 21.9851C56.6201 21.8586 56.7242 21.8653 56.8886 21.8653C56.9746 21.8653 57.0925 21.8946 57.3149 21.8946C57.5218 21.8946 57.6367 21.8653 57.7298 21.8653C57.826 21.8653 57.9191 21.8653 57.9191 21.9495C57.9191 22.091 57.6296 22.1196 57.5327 22.3629L55.922 26.4066C55.8972 26.4926 55.8796 26.5512 55.8048 26.5512H55.447C55.3963 26.5512 55.3786 26.5298 55.3786 26.4926C55.3786 26.4356 55.4109 26.3781 55.447 26.3188L55.9186 25.573C56.0478 25.369 56.091 25.2402 56.091 25.1772C56.091 25.0953 56.0411 24.9898 55.901 24.7246L54.732 22.4159ZM30.9473 29.7624C30.8113 29.7624 30.6502 29.7932 30.4711 30.2881C30.4178 30.4406 30.3066 30.7069 30.3066 30.8875C30.3066 31.4286 31.1482 31.3085 31.1482 31.5109C31.1482 31.6739 30.912 31.6156 30.7471 31.6156C30.4963 31.6156 30.2642 31.5871 30.0171 31.5871C29.7809 31.5871 29.5556 31.6156 29.3299 31.6156C29.2228 31.6156 29.097 31.6318 29.097 31.5334C29.097 31.3618 29.4906 31.4065 29.6877 30.9863L31.7956 26.4168C31.8493 26.3 31.8887 26.1558 31.989 26.1558C32.057 26.1558 32.0746 26.1697 32.1786 26.395L34.2719 31.0152C34.519 31.5499 34.9407 31.2566 34.9407 31.5037C34.9407 31.6322 34.8697 31.616 34.6613 31.616C34.3826 31.616 34.172 31.5875 33.6631 31.5875C33.3199 31.5875 33.0266 31.616 32.805 31.616C32.6616 31.616 32.5651 31.6322 32.5651 31.5266C32.5651 31.3088 33.1197 31.3926 33.1197 30.9326C33.1197 30.7669 33.0589 30.6318 32.9766 30.4248C32.7224 29.8383 32.6762 29.7624 32.4761 29.7624H30.9473ZM32.2387 29.3508C32.3784 29.3508 32.4821 29.3632 32.4821 29.287C32.4821 29.1792 32.4393 29.0985 32.3995 29.0053L31.7592 27.6403C31.7122 27.5832 31.7374 27.5832 31.6983 27.5832C31.6837 27.5832 31.6552 27.5907 31.6157 27.6692L31.0145 29.0057C30.9754 29.0988 30.9323 29.1796 30.9323 29.2873C30.9323 29.3636 31.04 29.3512 31.1794 29.3512L32.2387 29.3508ZM37.9708 30.3726C38.0031 30.441 38.0317 30.5781 38.0854 30.5781C38.1316 30.5781 38.1639 30.4928 38.2033 30.4102L38.6295 29.4353C38.708 29.2562 38.779 29.1135 38.779 28.9328C38.779 28.5352 38.3212 28.7875 38.3212 28.5265C38.3212 28.4473 38.382 28.4326 38.468 28.4326C38.5721 28.4326 38.6791 28.4634 38.9514 28.4634C39.1444 28.4634 39.2769 28.4326 39.3306 28.4326C39.4091 28.4326 39.4876 28.4259 39.4876 28.5119C39.4876 28.6535 39.3085 28.6212 39.2127 28.8176L37.9821 31.5034C37.9138 31.6389 37.8991 31.7482 37.7989 31.7482C37.6918 31.7482 37.6456 31.5796 37.5672 31.399L36.9554 29.987C36.9231 29.9122 36.8983 29.8822 36.866 29.8822C36.8439 29.8822 36.8228 29.9197 36.783 29.9945L35.9749 31.5034C35.9065 31.6318 35.8964 31.7482 35.7958 31.7482C35.685 31.7482 35.638 31.5796 35.5633 31.399L34.4653 28.878C34.3751 28.667 34.0788 28.7218 34.0788 28.5487C34.0788 28.4109 34.1859 28.4319 34.2929 28.4319C34.3898 28.4319 34.5039 28.4627 34.9084 28.4627C35.2193 28.4627 35.4063 28.4319 35.5171 28.4319C35.6065 28.4319 35.7248 28.4105 35.7248 28.5419C35.7248 28.7135 35.3917 28.6437 35.3917 28.8551C35.3917 28.925 35.4386 29.0744 35.4987 29.2393L35.9572 30.4399C35.982 30.5097 36.0218 30.6453 36.0752 30.6453C36.1142 30.6453 36.1961 30.4774 36.222 30.4399L36.6336 29.6865C36.6805 29.6035 36.7053 29.5574 36.7053 29.4533C36.7053 29.2393 36.5404 28.9009 36.3868 28.7507C36.3005 28.6662 36.1138 28.6824 36.1138 28.5483C36.1138 28.4315 36.2145 28.4315 36.3001 28.4315C36.3932 28.4315 36.5649 28.4623 36.955 28.4623C37.373 28.4623 37.48 28.4315 37.5807 28.4315C37.7275 28.4315 37.7985 28.4462 37.7985 28.5415C37.7985 28.7132 37.4128 28.6523 37.4128 28.9096C37.4128 28.9813 37.4552 29.0887 37.4804 29.1544L37.9708 30.3726ZM42.3548 30.7591C42.3548 31.1346 42.3616 31.2255 42.5617 31.2255C42.6549 31.2255 42.7589 31.1879 42.8126 31.1879C42.8697 31.1879 42.8986 31.2187 42.8986 31.2563C42.8986 31.4065 42.4224 31.6735 42.143 31.6735C41.7784 31.6735 41.6706 31.3689 41.6383 31.2116C41.3127 31.4662 40.8549 31.6735 40.4257 31.6735C39.9995 31.6735 39.6953 31.3757 39.6953 30.9607C39.6953 30.0343 40.7295 29.9051 41.5275 29.7087C41.5275 29.059 41.4776 28.5998 40.8624 28.5998C40.5691 28.5998 40.5046 28.676 40.5046 29.0215C40.5046 29.3741 40.0074 29.3741 39.9537 29.3741C39.8891 29.3741 39.7497 29.3632 39.7497 29.2164C39.7497 28.5637 40.6262 28.3538 41.1741 28.3538C41.9751 28.3538 42.3552 28.6993 42.3552 29.4612L42.3548 30.7591ZM41.5275 30.2371C41.5275 30.0347 41.5459 29.9663 41.4776 29.9663C41.1738 29.9663 40.5579 30.2224 40.5579 30.7283C40.5579 30.8507 40.5688 31.2255 40.9695 31.2255C41.1418 31.2255 41.5275 31.1417 41.5275 30.9679V30.2371ZM44.4769 30.806C44.4769 31.4962 45.1995 31.2702 45.1995 31.4887C45.1995 31.5334 45.1672 31.6156 45.0815 31.6156C44.896 31.6156 44.4514 31.5871 44.1942 31.5871C43.8288 31.5871 43.6038 31.6156 43.41 31.6156C43.3102 31.6156 43.2779 31.6017 43.2779 31.5424C43.2779 31.3085 43.6504 31.5034 43.6504 30.9468V29.1706C43.6504 28.8089 43.1524 29.0218 43.1524 28.8089C43.1524 28.691 43.2711 28.6835 43.5426 28.6136C44.1938 28.4721 44.2869 28.2881 44.3797 28.2881C44.4773 28.2881 44.4773 28.3474 44.4773 28.4398V29.0215C44.8168 28.6283 45.0962 28.3542 45.2892 28.3542C45.483 28.3542 45.9047 28.6906 45.9047 28.8322C45.9047 29.1131 45.64 29.471 45.5044 29.471C45.3429 29.471 45.3072 29.163 44.878 29.163C44.4518 29.163 44.4777 29.7387 44.4777 29.7996V30.806H44.4769ZM48.6311 27.0266C48.6311 26.4694 48.1117 26.7949 48.1117 26.5332C48.1117 26.3293 48.5233 26.4461 49.2537 26.0176C49.2928 25.9962 49.3322 25.9676 49.3859 25.9676C49.4719 25.9676 49.4542 26.0469 49.4542 26.1701V30.7594C49.4542 31.3843 49.9766 31.0602 49.9766 31.3013C49.9766 31.4515 49.4471 31.4515 49.0494 31.58C48.8887 31.6322 48.7708 31.6739 48.731 31.6739C48.6311 31.6739 48.6311 31.5571 48.6311 31.1744C48.3378 31.4662 47.9945 31.6739 47.536 31.6739C46.4733 31.6739 46.2115 30.5232 46.391 29.7324C46.548 29.0053 47.1135 28.3542 47.9224 28.3542C48.1264 28.3542 48.4842 28.3973 48.6311 28.5427V27.0266ZM48.6311 29.1274C48.4478 28.8326 48.1402 28.6287 47.7752 28.6287C47.1635 28.6287 47.0242 29.3012 47.0242 29.7699C47.0242 30.251 47.3321 31.1496 47.987 31.1496C48.1654 31.1496 48.3911 31.0974 48.5304 30.9866C48.6558 30.8789 48.6311 30.7895 48.6311 30.6389V29.1274ZM16.2182 31.5236H26.8743L43.2054 1.33877C43.5024 0.728532 43.0236 0.000375875 42.4968 0.0150216H32.9045C32.2857 0.0736046 32.5572 0.43374 32.7363 0.612117C32.8073 0.685346 32.7363 0.89339 32.6113 1.16903C32.5324 1.34027 24.7566 15.8358 24.7566 15.8358H29.1898L25.021 19.0774L27.1398 25.0375L21.7794 21.2641L16.2182 31.5236ZM14.5613 31.5236L18.8018 23.7115L16.4837 25.2988L18.9986 19.0778L14.7619 15.9676H20.1905L22.1764 10.7368L23.6327 14.5778L30.7967 1.35792C31.1508 0.73379 31.1831 0.819411 31.627 0.627889C32.407 0.289911 31.6912 0.0146463 31.6912 0.0146463L22.126 0C20.6017 0.0480681 20.6874 0.662063 20.3047 1.23963C19.8789 1.88705 1.45789 36.3214 1.45789 36.3214C0.992606 36.9839 1.25736 37.6797 1.78723 37.3789C2.69226 36.8705 11.7167 31.5229 11.7167 31.5229H14.5613V31.5236Z" fill="#0C1018"/>
<path fill-rule="evenodd" clip-rule="evenodd" d="M2.74852 37.4129L10.1089 33.0613L7.67587 37.4129H2.74852ZM11.118 32.5156H21.2483L14.9574 44.0324L0 52.7711L11.118 32.5156ZM31.9728 33.7076L21.5131 53.1661L16.0814 44.0324L22.3719 32.5156H30.3159C31.1751 32.5156 32.4951 32.5156 31.9728 33.7076Z" fill="#0C1018"/>
</svg>
