<svg width="80" height="47" viewBox="0 0 80 47" fill="none" xmlns="http://www.w3.org/2000/svg">
<path fill-rule="evenodd" clip-rule="evenodd" d="M69.6335 6.67723C71.4953 9.46891 71.1689 13.0449 68.8101 14.8597C67.1068 16.1698 64.7871 16.2208 62.7938 15.2011C63.9009 16.7884 64.4931 18.6777 64.4903 20.6129C64.4903 23.9231 62.7938 26.8358 60.2229 28.531C60.278 28.607 61.009 29.5929 62.3814 29.5556C64.0233 29.511 64.6414 28.4085 64.6414 28.4085C64.6414 28.4085 65.3315 29.5601 66.9101 29.5601C68.4742 29.5601 69.0527 28.4085 69.0527 28.4085C69.7446 29.5479 71.2813 29.5597 71.3155 29.5601C73.279 26.4794 74.3196 22.901 74.3143 19.2478C74.3143 14.4432 72.5504 10.0497 69.6335 6.67723ZM49.1613 4.5442C51.4541 6.30761 51.8265 9.73429 50.1377 12.4882C51.6104 11.6011 53.2976 11.1336 55.0169 11.1363C56.7395 11.1337 58.4299 11.603 59.9047 12.4932C58.2269 9.74203 58.6033 6.32536 60.8907 4.56559C62.7656 3.12309 65.3875 3.2073 67.5 4.56605C64.0178 1.61156 59.5977 -0.00704049 55.031 2.33035e-05C50.5221 -0.0069932 46.1541 1.57065 42.6903 4.45726C44.7783 3.18318 47.3273 3.13311 49.1613 4.5442ZM40.9911 28.4067C40.9911 28.4067 41.5692 29.5579 43.1337 29.5579C44.7127 29.5579 45.4328 28.4053 45.4328 28.4053C45.4328 28.4053 46.0196 29.5083 47.6614 29.5529C49.0885 29.5916 49.8327 28.5492 49.8341 28.5473C47.2495 26.8549 45.5416 23.9335 45.5416 20.6124C45.5385 18.6694 46.1357 16.7728 47.2513 15.182C45.258 16.198 42.942 16.1466 41.2414 14.8374C38.9227 13.0535 38.5681 9.56769 40.3247 6.79785C37.4697 10.1544 35.7464 14.4992 35.7464 19.2473C35.7411 22.9006 36.7818 26.4791 38.7456 29.5597C38.8289 29.5592 40.311 29.5256 40.9911 28.4067Z" fill="#0C1018"/>
<path fill-rule="evenodd" clip-rule="evenodd" d="M79.9995 38.7991C79.9902 38.4312 79.8374 38.0815 79.5739 37.8245C79.3104 37.5676 78.9569 37.4238 78.5889 37.4238C78.2208 37.4238 77.8674 37.5676 77.6038 37.8245C77.3403 38.0815 77.1876 38.4312 77.1782 38.7991C77.1876 39.167 77.3403 39.5167 77.6038 39.7736C77.8674 40.0306 78.2208 40.1743 78.5889 40.1743C78.9569 40.1743 79.3104 40.0306 79.5739 39.7736C79.8374 39.5167 79.9902 39.167 79.9995 38.7991ZM79.8493 38.8023C79.8493 39.1373 79.7162 39.4586 79.4793 39.6955C79.2424 39.9323 78.9212 40.0654 78.5861 40.0654C78.2511 40.0654 77.9298 39.9323 77.693 39.6955C77.4561 39.4586 77.323 39.1373 77.323 38.8023C77.323 38.4673 77.4561 38.146 77.693 37.9091C77.9298 37.6722 78.2511 37.5391 78.5861 37.5391C78.9212 37.5391 79.2424 37.6722 79.4793 37.9091C79.7162 38.146 79.8493 38.4673 79.8493 38.8023ZM58.5423 31.7618L57.8285 34.0938C57.7799 34.0747 57.7313 34.0554 57.6828 34.036C57.275 32.1114 55.8166 31.7327 55.8166 31.7327C55.0295 31.4559 54.1114 31.7468 54.1114 31.7468C53.2661 32.0973 53.1496 32.8256 53.1496 32.8256C53.0627 33.1174 53.1346 33.4815 53.1346 33.4815C53.2661 33.8894 53.5283 34.0642 53.5283 34.0642C54.0823 34.4434 56.5895 34.8803 56.5895 34.8803C57.8431 35.1867 58.3242 35.6533 58.3242 35.6533C58.5582 35.8426 58.6888 36.032 58.6888 36.032C59.3884 37.3438 58.7038 38.495 58.7038 38.495C58.5286 38.8159 58.3392 39.0053 58.3392 39.0053C57.5923 39.989 56.0979 40.3941 54.5734 40.4273C53.1856 40.4569 51.7731 40.1788 50.8759 39.7486C50.5409 39.6321 50.4385 39.5593 50.4385 39.5593L51.1827 37.0229L51.3721 37.0958C51.4485 37.4803 51.5758 37.8529 51.7508 38.2037C52.246 39.1805 53.2525 39.6762 53.2525 39.6762C54.7095 40.3609 55.9772 39.6175 55.9772 39.6175C56.4593 39.3112 56.5899 38.9907 56.5899 38.9907C57.0133 37.9265 56.6191 37.489 56.6191 37.489C56.284 36.8918 54.695 36.6146 54.695 36.6146C54.2128 36.5237 53.7317 36.4266 53.252 36.3233C52.1008 36.0465 51.5023 35.5508 51.5023 35.5508C51.1377 35.143 51.0366 34.7925 51.0366 34.7925C50.7298 33.5102 51.1085 32.8252 51.1085 32.8252C51.8118 31.4732 53.7145 31.1004 55.0851 31.09C56.2822 31.0818 57.3929 31.4723 58.5423 31.7618ZM59.49 32.7241C63.0614 32.8261 66.1508 32.7387 66.1508 32.7387L66.7047 34.7356H66.4425C65.1453 33.0446 63.3236 33.1324 63.3236 33.1324H62.2156V36.0475H63.2649C64.9996 35.9159 65.2472 34.823 65.2472 34.823H65.4657V37.6511H65.2905C64.8967 36.3247 62.8857 36.4412 62.8857 36.4412H62.2152V38.4964C62.2002 39.8519 63.5125 39.7354 63.5125 39.7354C64.8248 39.6776 65.6259 39.0358 65.6259 39.0358C66.7184 38.0744 67.2592 37.52 67.2592 37.52L67.4335 37.6079C67.1563 38.4577 66.8795 39.308 66.6032 40.1583C62.9886 40.0859 59.2419 40.1729 59.2419 40.1729V39.9689C59.4535 39.9762 59.784 39.7778 59.9124 39.6048C60.0485 39.4213 60.0726 39.2693 60.1168 38.9921C60.1905 38.5255 60.1896 38.1031 60.1896 38.1031V34.1821C60.1309 33.5849 60.058 33.3077 60.058 33.3077C59.8828 32.9576 59.49 32.9144 59.49 32.9144V32.7241ZM68.993 32.5297C71.0145 32.6367 72.1029 32.5489 72.1029 32.5489C72.3455 32.6754 72.5207 33.1033 72.5207 33.1033C73.544 35.021 74.5673 36.9383 75.5914 38.856C75.7175 39.0699 76.0671 39.5556 76.0671 39.5556C76.3106 39.8474 76.6407 39.9248 76.6407 39.9248V40.1683C74.6874 40.0905 72.8321 40.1683 72.8321 40.1683V39.9539L73.2882 39.8087L73.4634 39.3813C73.4634 39.3813 73.2599 38.7609 73.0232 38.2274C72.7875 37.6934 72.5112 37.1754 72.5112 37.1754H70.0431C69.9002 37.4667 69.7577 37.7581 69.6157 38.0498C69.5347 38.3316 69.4532 38.6129 69.3731 38.8947C69.3048 39.1378 69.3917 39.3417 69.3917 39.3417C69.6061 39.8956 70.2088 39.9439 70.2088 39.9439V40.1578C68.9065 40.136 67.4198 40.1679 67.4198 40.1679V39.9926C67.7398 39.8884 68.1632 39.4432 68.1632 39.4432L69.0622 38.1655C69.7254 36.8959 70.3895 35.6264 71.0536 34.3564C71.075 34.3164 71.0491 34.2513 71.0491 34.2513C70.2871 33.0195 68.9903 32.7355 68.9903 32.7355C68.9903 32.6668 68.9921 32.5985 68.993 32.5297ZM70.2325 36.7762H72.3091L71.3035 34.7647C71.2812 34.7174 71.2466 34.7702 71.2466 34.7702L70.2325 36.7762Z" fill="#0C1018"/>
<path fill-rule="evenodd" clip-rule="evenodd" d="M79.2452 39.3497L79.2256 39.0843C79.2174 38.9924 79.2033 38.9259 79.181 38.8868C79.1533 38.8372 79.1036 38.8026 79.0326 38.7835C79.1883 38.7125 79.2675 38.5845 79.2675 38.402C79.2675 38.2705 79.2229 38.1658 79.136 38.0884C79.049 38.0096 78.927 37.97 78.7695 37.97C78.7577 37.9696 78.7458 37.969 78.734 37.9682H78.0057V39.5837H78.221V38.8913H78.6594C78.8 38.8913 78.8915 38.9073 78.9343 38.9391C78.9798 38.971 79.0053 39.0416 79.0126 39.1499L79.0258 39.3602C79.0349 39.4744 79.0499 39.5486 79.0722 39.5837H79.3249V39.5359C79.2789 39.5136 79.252 39.4521 79.2452 39.3497ZM78.9375 38.646C78.8769 38.6851 78.7759 38.7052 78.6352 38.7052H78.2165V38.1589H78.6789C78.8018 38.1589 78.8924 38.1781 78.9493 38.2158C79.0108 38.2586 79.0417 38.3265 79.0417 38.4198C79.0413 38.5267 79.0067 38.6023 78.9375 38.646ZM20.4522 22.0352C19.4153 22.0352 18.6697 22.7093 18.6697 23.6447C18.6697 24.5797 19.4153 25.2484 20.4522 25.2484C21.4951 25.2484 22.2407 24.5792 22.2407 23.6447C22.2407 22.7093 21.4951 22.0352 20.4522 22.0352ZM31.4815 22.087C30.4441 22.087 29.6985 22.7612 29.6985 23.6961C29.6985 24.632 30.4446 25.3002 31.4815 25.3002C32.5239 25.3002 33.2695 24.6316 33.2695 23.6961C33.2695 22.7612 32.5239 22.087 31.4815 22.087ZM15.7674 25.1591V25.0508C16.2208 25.0444 16.1771 24.5783 16.1989 24.2938L16.2026 22.4576C16.2026 22.4576 16.1844 22.341 16.0678 22.2828C15.9513 22.2241 15.8125 22.275 15.8125 22.275C15.6085 22.3119 15.3241 22.5741 15.0077 22.9191H14.9089L15.1347 22.0934L18.0862 22.1298L18.3433 22.9706H18.245C17.8531 22.5673 17.6924 22.3196 17.3715 22.2832C17.3715 22.2832 17.1967 22.2755 17.102 22.3415C17.0351 22.3879 17.0356 22.5017 17.0356 22.5017V24.3166C17.0356 24.6957 17.0947 25.0513 17.4084 25.0513V25.1596L15.7674 25.1591ZM31.4838 25.1478C30.7441 25.1478 30.6094 24.1709 30.6094 23.723C30.6094 23.2532 30.7259 22.2596 31.4815 22.2596C32.1989 22.2596 32.3514 23.0489 32.3514 23.7175C32.3514 24.4991 32.0337 25.1478 31.4838 25.1478ZM26.1444 22.1148C26.6647 22.1685 27.7576 22.1535 27.7576 22.1535V22.2068C27.5241 22.2313 27.505 22.3429 27.505 22.3429C27.4937 22.3603 27.4876 22.3806 27.4876 22.4014C27.4876 22.4221 27.4937 22.4424 27.505 22.4598C27.748 22.9355 28.2192 23.5091 28.2192 23.5091C28.2679 23.5919 28.297 23.5236 28.297 23.5236C28.6953 22.931 28.8068 22.6979 28.8068 22.6979C28.9675 22.3766 28.6853 22.2509 28.6853 22.2509L28.5442 22.2364V22.159C29.1901 22.1881 29.8028 22.159 29.8028 22.159V22.2364L29.0107 22.8631C28.967 22.8968 28.9475 22.931 28.9475 22.931L28.3207 23.7858V24.3352C28.3207 25.1705 28.6753 25.1223 28.6753 25.1223V25.2242C27.8978 25.1764 27.1208 25.2001 27.1208 25.2001V25.1223C27.5236 25.1127 27.5095 24.3302 27.5095 24.3302V23.8837L26.5864 22.5764C26.4591 22.4322 26.3098 22.3091 26.1439 22.2118L26.1444 22.1148ZM22.5834 22.1244C23.2635 22.1726 23.9244 22.1198 23.9244 22.1198V22.1927C23.6522 22.28 23.6764 22.7175 23.6764 22.7175V23.4904L24.5608 22.6351C24.828 22.2659 24.4393 22.2027 24.4393 22.2027V22.1248C25.0761 22.1731 25.7416 22.1153 25.7416 22.1153V22.2318C24.8089 22.6692 23.9777 23.4221 23.9777 23.4221C23.9335 23.4708 23.9681 23.4804 23.9681 23.4804C24.4051 23.5191 24.6723 23.6065 24.6723 23.6065C25.0123 23.7476 25.4061 24.5929 25.4061 24.5929C25.5763 24.9083 25.8772 25.1418 25.8772 25.1418V25.2001C25.2217 25.1614 24.7356 25.1805 24.7356 25.1805C24.5556 24.7519 24.3693 24.3259 24.1766 23.9028C24.1083 23.708 23.8653 23.6597 23.8653 23.6597C23.6905 23.6597 23.6709 23.815 23.6709 23.815V24.3298L23.7 24.8109C23.7 24.8842 23.7246 24.8842 23.7246 24.8842L23.9772 25.0927V25.1705H22.4956V25.0927C22.8597 25.0977 22.8306 24.267 22.8306 24.267V22.7025C22.8306 22.2068 22.5875 22.1776 22.5875 22.1776L22.5834 22.1244ZM20.455 25.0959C19.7153 25.0959 19.5805 24.119 19.5805 23.6711C19.5805 23.2009 19.6971 22.2081 20.4522 22.2081C21.1701 22.2081 21.3221 22.997 21.3221 23.6661C21.3221 24.4472 21.0044 25.0959 20.455 25.0959ZM0.894489 26.5019C0.894489 26.5019 0.500749 26.633 0.909055 26.75L1.50672 26.8957C1.50672 26.8957 1.92914 27.1724 1.4043 27.3181C1.4043 27.3181 0.704674 27.3472 0.413352 27.202C0.413352 27.202 -0.271711 27.0705 0.12203 26.298C0.589511 25.5456 1.74388 25.2738 2.81221 25.1491C3.54325 25.064 4.18643 25.0235 4.73266 25.0399C4.73266 25.0399 4.97573 25.0399 5.40498 25.0699C7.472 25.2179 13.8538 26.0841 18.1431 31.1599C19.2351 32.4522 19.9825 33.9257 19.9889 35.69C19.9889 35.69 20.008 39.052 15.548 40.2569C15.3787 40.3029 14.42 40.556 13.4396 40.6552C12.8141 40.7185 12.1791 40.7098 11.5546 40.6457C10.7944 40.5674 10.0516 40.3675 9.30005 40.2278L9.27593 40.5874C9.27593 40.5874 9.24679 40.825 9.13482 41.0831C9.13482 41.0831 9.04241 41.1363 8.8526 41.2092C8.8526 41.2092 8.66324 41.2429 8.1384 41.2624C8.1384 41.2624 7.83251 41.1313 7.72554 40.7622L7.51161 39.5864C7.51161 39.5864 4.75223 38.1093 3.18729 36.1848C3.18729 36.1848 2.4781 35.4465 3.1486 34.6399C3.1486 34.6399 4.15912 33.4154 7.70597 32.9297C7.70597 32.9297 7.77425 31.3843 8.12384 29.6164C8.12384 29.6164 8.37647 29.0328 8.86261 29.6742C8.86261 29.6742 9.26091 30.1699 9.30916 31.6374V32.7453C9.30916 32.7453 10.8445 32.7836 12.5838 32.9975C12.5838 32.9975 15.0905 33.5615 15.3823 35.029C15.5612 35.9299 14.644 36.35 14.644 36.35C14.644 36.35 14.2935 36.5503 14.0318 36.5544C13.77 36.558 13.2543 36.4178 13.2543 36.4178C13.2543 36.4178 13.0699 36.3113 13.206 36.2335L13.3617 36.1361C13.3617 36.1361 13.9544 35.9221 14.0222 35.5921C14.1674 34.8884 12.2247 34.6494 12.2247 34.6494L9.35832 34.3294V38.9155C9.35832 38.9155 10.7817 39.2068 11.9333 39.2022C13.0604 39.1972 14.8971 38.8959 14.8971 38.8959C14.8971 38.8959 17.9678 38.041 18.1426 35.5725C18.3233 33.0239 15.4802 30.6364 15.4802 30.6364C15.4802 30.6364 14.101 29.2936 10.7385 27.7992C8.11473 26.633 5.86063 26.3804 5.86063 26.3804C5.85972 26.2448 3.693 26.1883 0.894489 26.5019ZM24.4393 27.8193C26.966 27.7801 25.6055 30.0342 25.6055 30.0342C23.3413 32.9739 20.6302 31.9779 20.6302 31.9779C20.5574 32.2893 20.4359 32.4053 20.4359 32.4053C20.2947 32.5801 20.1636 32.4832 20.1636 32.4832C20.032 32.4395 19.9087 32.3738 19.799 32.2888C19.7116 32.1577 19.6971 31.9388 19.6971 31.9388V31.3948C19.2742 30.8745 19.1918 30.5008 19.1918 30.5008C19.1285 30.0001 19.2305 29.6359 19.2305 29.6359C19.2888 29.432 19.5223 29.1548 19.5223 29.1548C19.5805 29.0091 19.9597 28.4993 19.9597 28.4993C21.359 26.9831 23.2685 27.0272 23.2685 27.0272C24.4925 27.0414 24.4393 27.8193 24.4393 27.8193ZM20.6302 29.0091C20.6302 29.0091 20.251 29.3738 20.1058 29.7962C20.1058 29.7962 20.0034 30.0725 20.2224 30.3642C20.2224 30.3642 21.0822 29.1548 22.3504 28.4115C22.3499 28.4119 21.6649 28.193 20.6302 29.0091ZM3.79952 35.0095C3.79952 35.0095 3.02251 35.3208 3.6443 35.8652C3.6443 35.8652 4.46046 37.0697 7.41465 38.3137C7.41465 38.3137 7.49249 36.1761 7.60902 34.3877C7.60902 34.3877 5.85972 34.3103 3.79952 35.0095ZM44.4176 33.5133C45.6808 32.444 44.8746 34.3003 44.8746 34.3003C44.3502 35.3204 44.0685 35.7678 44.0685 35.7678C43.6702 36.4383 43.7084 36.4087 43.7084 36.4087C43.3688 37.1084 43.631 37.711 43.631 37.711C43.6888 37.8758 43.718 37.7206 43.718 37.7206C44.2059 37.1052 44.7018 36.4961 45.2055 35.8935C45.6908 35.3982 46.4396 34.6308 46.4396 34.6308C46.7253 34.4132 47.0186 34.2058 47.319 34.009C47.7847 33.9648 47.9171 33.9894 47.9171 33.9894C48.2221 33.922 48.3536 34.0572 48.3536 34.0572C48.8202 34.3877 48.9663 34.9221 48.9663 34.9221C49.3742 36.1948 48.985 37.2344 48.985 37.2344C48.2462 39.5473 46.2256 40.1208 46.2256 40.1208C45.9375 40.2082 45.6494 40.2961 45.3608 40.383C44.8077 40.4413 44.3311 40.4217 44.3311 40.4217C43.9233 41.4614 43.3789 43.3563 43.3789 43.3563C43.0384 44.6777 42.8631 45.8539 42.8631 45.8539C42.737 46.3979 42.3779 46.077 42.3779 46.077C42.2026 45.9509 42.0383 45.8435 42.0383 45.8435C41.8535 45.7461 41.4748 45.2221 41.4748 45.2221C41.4065 44.8817 41.3574 44.6486 41.3574 44.6486C41.3096 44.4834 41.3669 44.2303 41.3669 44.2303C41.4352 43.492 41.6487 42.8406 41.6487 42.8406C41.8726 41.6848 42.7958 39.0798 42.7958 39.0798C42.8249 39.0124 42.7762 38.9346 42.7762 38.9346C42.0665 37.7779 42.7184 36.3013 42.7184 36.3013C43.4754 34.2907 44.4176 33.5133 44.4176 33.5133ZM45.3608 38.712C45.3608 38.712 45.9725 38.4789 46.6722 38.3137L47.2935 37.828C47.2935 37.828 47.4401 37.7406 47.537 37.6632C47.537 37.6632 47.9167 37.2745 48.1106 36.7688C48.1106 36.7688 48.3728 35.9913 48.1488 35.3504C48.1488 35.3504 48.1392 35.1756 47.868 35.2334C47.868 35.2334 46.9931 35.5643 45.302 38.6833C45.302 38.6829 45.2825 38.7461 45.3608 38.712ZM37.0353 33.856C36.3648 34.1546 37.3635 34.6212 37.3635 34.6212C37.633 34.7304 38.0486 34.8615 38.0486 34.8615C37.7568 35.5247 37.5606 36.035 37.5606 36.035C37.2834 36.101 37.0576 36.2025 37.0576 36.2025C36.795 36.3195 36.9343 36.523 36.9343 36.523C37.0362 36.7925 37.0431 36.9308 37.0431 36.9308C37.0654 37.0478 37.0358 37.1129 37.0358 37.1129C36.8884 37.5057 36.75 37.9019 36.6206 38.301C36.3507 39.2555 36.795 39.824 36.795 39.824C36.9989 40.2319 37.6111 40.4435 37.6111 40.4435C38.3253 40.713 39.1565 40.3926 39.1565 40.3926C40.0906 40.1754 41.4539 39.1849 41.386 39.1171C41.6127 38.869 41.452 38.6874 41.452 38.6874L41.1748 38.2796C40.5339 38.1262 39.9909 38.3078 39.39 38.4102C38.7482 38.5204 38.1869 38.5996 38.1869 38.5996C38.0631 38.5709 38.1214 38.4102 38.1214 38.4102C38.2966 37.7839 38.6025 37.1493 38.6025 37.1493C39.6663 37.0911 40.5772 37.0401 40.5772 37.0401C40.9345 36.9964 41.1389 36.9459 41.1389 36.9459C41.4152 36.2458 41.0801 36.1006 41.0801 36.1006C40.3858 36.0502 39.691 36.0063 38.9958 35.969C39.1706 35.4446 39.309 34.9635 39.309 34.9635C40.8685 34.9999 42.0492 34.7882 42.0492 34.7882C42.3046 34.7009 42.3774 34.6276 42.3774 34.6276C42.4867 34.3722 42.3847 34.2197 42.3847 34.2197C42.1225 33.6735 41.5977 33.404 41.5977 33.404C40.7815 33.2506 38.3836 33.5711 38.3836 33.5711C37.7277 33.7172 37.0353 33.856 37.0353 33.856ZM33.8212 39.169C34.1421 39.4967 34.3902 39.6424 34.3902 39.6424C34.8417 39.8828 35.2136 39.5696 35.2136 39.5696C35.9642 38.9505 36.0808 38.1189 36.0808 38.1189C36.1755 37.8057 36.1682 37.1939 36.1682 37.1939C36.19 36.421 36.0589 35.8962 36.0589 35.8962C35.6001 33.0034 34.1275 32.2888 34.1275 32.2888C34.0693 32.2082 33.8212 32.3252 33.8212 32.3252C33.7921 32.5874 33.8431 32.7408 33.8431 32.7408C34.397 34.7882 34.514 35.3641 34.514 35.3641C34.7767 36.9604 34.7616 37.5799 34.7616 37.5799C34.7543 37.9368 34.514 37.6528 34.514 37.6528C33.4935 36.2312 32.503 34.6494 32.503 34.6494C32.2549 34.3294 31.8175 33.8191 31.8175 33.8191C31.6062 33.7099 31.4383 33.8119 31.4383 33.8119C31.3222 33.892 31.2344 34.0158 31.2344 34.0158C30.1774 36.2308 30.2944 38.8185 30.2944 38.8185C30.2866 39.1317 30.3308 39.3579 30.3308 39.3579L30.5711 39.926L30.9358 40.1012C31.0231 40.1377 31.0814 40.1012 31.0814 40.1012L31.3732 39.9988C31.4533 39.8532 31.5189 39.6788 31.5189 39.6788L31.7956 36.1511C31.8393 35.6991 32.0045 36.1174 32.0045 36.1174L32.3787 36.7415C32.7643 37.6314 33.8212 39.169 33.8212 39.169ZM29.638 33.5424C30.7018 33.9939 29.5064 34.4751 29.5064 34.4751C25.3961 34.7518 24.4197 35.1164 24.4197 35.1164C23.8361 35.2771 24.4197 35.4952 24.4197 35.4952C28.6461 35.7719 28.9379 36.122 28.9379 36.122C29.856 36.6759 29.8706 37.3901 29.8706 37.3901C29.8706 38.2208 29.7395 38.6141 29.7395 38.6141C29.3603 39.7075 27.8008 39.9406 27.8008 39.9406C26.6633 40.2087 25.7602 40.1431 25.7602 40.028C24.0696 39.7512 23.3991 38.3519 23.3991 38.3519C23.3991 38.1913 23.4278 37.8417 23.4278 37.8417C23.7342 36.894 24.6673 36.8794 24.6673 36.8794C25.7165 36.8653 25.9209 36.9085 25.9209 36.9085C27.0138 37.0396 27.6848 37.3746 27.6848 37.3746C28.399 37.6519 27.2765 38.0456 27.2765 38.0456C26.9851 38.118 25.8481 37.9728 25.8481 37.9728C25.2504 37.7106 24.6673 37.5936 24.6673 37.5936C24.4338 37.5208 24.157 37.6377 24.157 37.6377L23.924 37.8999C23.6322 38.7161 25.7602 38.6578 25.7602 38.6578C27.4217 38.6724 28.5879 37.9286 28.5879 37.9286C28.6753 37.8417 28.8064 37.6227 28.8064 37.6227C28.8938 37.5645 28.7772 37.4188 28.7772 37.4188C28.3111 36.7915 27.2032 36.6463 27.2032 36.6463C24.0259 36.4715 23.5157 36.2385 23.5157 36.2385C23.2239 36.0928 23.0637 35.7719 23.0637 35.7719C23.0345 35.466 23.0491 35.0727 23.0491 35.0727C23.1656 34.8247 23.2385 34.6207 23.2385 34.6207C23.5302 34.2129 23.7196 34.1546 23.7196 34.1546C23.9672 33.9648 24.1566 33.8633 24.1566 33.8633L24.7834 33.6298L27.1736 33.2793C27.2901 33.2652 27.4358 33.2793 27.4358 33.2793C28.2911 33.3676 29.0249 33.455 29.638 33.5424ZM22.1751 34.4751C22.3358 35.6563 22.3208 36.7925 22.3208 36.7925C22.3258 37.7452 22.3304 38.6974 22.3358 39.6497C22.3358 39.9993 22.0586 40.1163 22.0586 40.1163H21.3007C20.9366 39.9847 20.8929 39.7221 20.8929 39.7221C20.7904 38.6583 20.7904 37.0109 20.7904 37.0109C20.8637 34.7377 21.1114 33.7463 21.1114 33.7463C21.4177 32.901 21.8838 33.557 21.8838 33.557C22.0516 33.8359 22.1514 34.1504 22.1751 34.4751ZM22.5106 30.9774L23.4287 30.7293L24.1288 30.3647L24.2599 30.3064C24.2599 30.3064 24.493 30.1316 24.8134 29.767C24.8134 29.767 25.0756 29.5044 25.061 29.1548C25.0474 28.8198 24.9381 28.5116 24.0992 28.6887C24.0992 28.6887 22.9185 28.7469 21.359 30.9332C21.7427 30.9478 22.1264 30.9619 22.5106 30.9774Z" fill="#0C1018"/>
</svg>
