<svg width="110" height="41" viewBox="0 0 110 41" fill="none" xmlns="http://www.w3.org/2000/svg">
<path fill-rule="evenodd" clip-rule="evenodd" d="M64.8677 15.6845V9.89062H67.0033V15.6845H70.9664V17.6017H67.0033V32.3265H64.8677V17.601H62.0806V32.3259H59.9025V29.5375C59.0971 30.5431 58.0761 31.3549 56.9148 31.9129C55.7536 32.4709 54.4818 32.7609 53.1935 32.7615C48.4448 32.7615 44.5674 28.8841 44.5674 24.0916C44.5674 19.3435 48.4448 15.4661 53.1935 15.4661C55.8942 15.4661 58.334 16.686 59.9025 18.6463V15.6839H64.8677V15.6845ZM86.868 32.3259V15.6845H88.9153V18.1243C89.8735 16.1202 91.6154 15.5105 93.7071 15.3797V17.6017C90.5701 17.9935 89.0461 19.8236 89.0461 23.0476V32.3265L86.868 32.3259ZM100.983 17.6449C104.555 17.6449 107.43 20.564 107.43 24.0922C107.432 24.9395 107.266 25.7788 106.943 26.5619C106.62 27.3451 106.145 28.0567 105.546 28.6558C104.947 29.255 104.235 29.7298 103.452 30.0532C102.669 30.3766 101.83 30.5421 100.983 30.5402C97.4544 30.5402 94.5352 27.6648 94.5352 24.0922C94.5352 20.5634 97.4544 17.6449 100.983 17.6449ZM109.87 15.6845V32.2827H107.692V29.5381C106.886 30.5438 105.865 31.3557 104.704 31.9137C103.543 32.4717 102.271 32.7617 100.983 32.7621C96.2345 32.7621 92.3571 28.8409 92.3571 24.0922C92.3571 19.3442 96.2345 15.4667 100.983 15.4667C103.684 15.4667 106.123 16.6866 107.692 18.6469V15.6845H109.87ZM53.1929 17.6449C56.721 17.6449 59.6402 20.564 59.6402 24.0922C59.6402 27.6648 56.721 30.5402 53.1929 30.5402C49.6641 30.5402 46.7449 27.6648 46.7449 24.0922C46.7449 20.5634 49.6641 17.6449 53.1929 17.6449ZM86.4317 24.5278H71.3589C71.5767 27.882 74.4089 30.5396 77.8062 30.5396C80.4212 30.5396 82.6425 28.9711 83.6446 26.7491H85.9967C84.9076 30.2341 81.6411 32.7171 77.8062 32.7171C73.0582 32.7171 69.1807 28.8403 69.1807 24.0916C69.1807 19.3435 73.0582 15.4661 77.8062 15.4661C82.5555 15.4661 86.4317 19.3435 86.4317 24.0916V24.5278ZM84.0358 22.6113H71.5335C72.2301 19.7798 74.8 17.6449 77.8056 17.6449C80.8112 17.6449 83.383 19.7792 84.0358 22.6113Z" fill="#0C1018"/>
<path fill-rule="evenodd" clip-rule="evenodd" d="M87.3457 9.28212V13.4644H88.4347C89.0875 13.4644 89.6108 13.2904 89.9594 12.8986C90.308 12.5499 90.4826 12.0267 90.4826 11.3301C90.4826 10.9814 90.4388 10.6766 90.308 10.415C90.1772 10.1102 90.0038 9.84856 89.7848 9.67456C89.6114 9.54375 89.4361 9.41356 89.219 9.36975C89.0011 9.28275 88.697 9.28275 88.3045 9.28275L87.3457 9.28212ZM86.8662 8.7595H88.3465C88.7389 8.7595 89.0875 8.80331 89.3491 8.89031C89.6546 8.97731 89.8724 9.10812 90.0902 9.28212C90.3944 9.54312 90.6135 9.84856 90.7868 10.1972C90.9615 10.5458 91.0485 10.9376 91.0485 11.3301C91.0485 11.8095 90.9614 12.2451 90.7443 12.5937C90.5835 12.9595 90.3276 13.2755 90.0032 13.5088C89.7841 13.6828 89.5238 13.7698 89.3053 13.8574C89.045 13.9006 88.6525 13.9444 88.1293 13.9444H86.8662V8.7595ZM92.2245 11.1116H94.4026V11.5911H92.2245V13.4644H94.4026V13.9438H91.7451V8.7595H94.4026V9.28212H92.2245V11.1116ZM95.0993 12.4623H95.6225C95.6225 12.8109 95.7095 13.0287 95.8841 13.2465C96.0575 13.4205 96.2753 13.5082 96.5369 13.5082C96.8424 13.5082 97.104 13.4205 97.278 13.2465C97.4526 13.0287 97.5396 12.8109 97.5396 12.4623C97.5396 11.9829 97.191 11.6349 96.4506 11.4171C96.4067 11.3732 96.3636 11.3732 96.3197 11.3732C95.9273 11.2424 95.6669 11.0684 95.4923 10.8506C95.3177 10.6766 95.2307 10.415 95.2307 10.0664C95.2307 9.67456 95.3615 9.32531 95.6231 9.06431C95.8847 8.80331 96.2334 8.6725 96.6258 8.6725C97.017 8.6725 97.3224 8.80331 97.5402 9.02112C97.8019 9.28212 97.9327 9.58756 97.9327 10.0232H97.4532C97.4532 9.76218 97.365 9.54375 97.1916 9.36975C97.0608 9.23956 96.8862 9.15194 96.6258 9.15194C96.3642 9.15194 96.1896 9.23956 96.0156 9.41356C95.9295 9.49877 95.8619 9.60073 95.8169 9.71313C95.7719 9.82553 95.7505 9.94597 95.7539 10.067C95.7539 10.1978 95.7965 10.2848 95.8409 10.4156C95.8848 10.5032 95.9717 10.5896 96.0587 10.6772C96.1896 10.7642 96.4074 10.8512 96.7128 10.9382C96.8862 10.9821 97.017 11.0252 97.1052 11.0684C97.4539 11.1992 97.6711 11.3732 97.8451 11.5911C97.9759 11.7657 98.0641 12.0267 98.0641 12.3753C98.0641 12.8979 97.9333 13.2897 97.6279 13.5952C97.3662 13.9 97.0176 14.0746 96.5388 14.0746C96.1476 14.0746 95.7978 13.9006 95.5374 13.639C95.2521 13.3137 95.0962 12.895 95.0993 12.4623ZM99.2815 13.9432H98.7595V8.75887H99.2815V13.9432ZM102.07 11.4609H105.293C105.258 12.1659 104.963 12.8331 104.466 13.3342C103.943 13.8136 103.334 14.0746 102.636 14.0746C101.852 14.0746 101.242 13.8136 100.719 13.2904C100.24 12.7677 99.9794 12.1143 99.9794 11.3301C99.9794 10.9814 100.066 10.6328 100.197 10.2842C100.328 9.97937 100.546 9.67456 100.807 9.41293C101.043 9.17092 101.324 8.97835 101.635 8.8465C101.939 8.71569 102.288 8.67188 102.68 8.67188C103.203 8.67188 103.638 8.80269 104.031 9.0205C104.422 9.2815 104.772 9.63012 104.989 10.0657H104.379C104.151 9.79794 103.887 9.56326 103.594 9.3685C103.29 9.23831 102.984 9.15069 102.636 9.15069C102.07 9.15069 101.547 9.3685 101.155 9.80412C100.719 10.2397 100.501 10.7192 100.501 11.3294C100.501 11.9829 100.719 12.5055 101.155 12.9411C101.547 13.3329 102.07 13.5514 102.68 13.5514C103.138 13.5535 103.584 13.3999 103.943 13.1157C104.302 12.8068 104.561 12.3971 104.684 11.9397H102.07V11.4609H102.07ZM109.433 13.3335L109.346 8.75887H109.868V13.9432H109.258L106.427 9.36912L106.469 13.9432H105.99V8.75887H106.6L109.433 13.3335Z" fill="#0C1018"/>
<path fill-rule="evenodd" clip-rule="evenodd" d="M30.4088 5.31511C29.9365 5.31368 29.4721 5.19381 29.0581 4.96649C28.6224 4.70549 28.3176 4.40005 28.0998 3.96442C27.8388 3.57261 27.708 3.13636 27.708 2.65755C27.708 2.17874 27.8388 1.74312 28.0998 1.30687C28.3176 0.915061 28.6224 0.566433 29.0581 0.348621C29.4499 0.0876226 29.8861 0 30.4088 0C30.8882 0 31.3238 0.0869967 31.7156 0.348621C32.1512 0.566433 32.4567 0.915061 32.6739 1.30687C32.9355 1.7425 33.0657 2.17812 33.0657 2.65755C33.0657 3.13699 32.9355 3.57261 32.6739 3.96442C32.4561 4.40005 32.1512 4.70486 31.7156 4.96649C31.3153 5.18836 30.8664 5.3081 30.4088 5.31511ZM30.3656 4.87949C30.6704 4.87949 30.9752 4.83567 31.2368 4.70549C31.4984 4.61849 31.7162 4.44449 31.9341 4.22605C32.1519 4.00761 32.2827 3.79043 32.4135 3.5288C32.5005 3.22399 32.5875 2.96237 32.5875 2.65755C32.5875 2.26574 32.5005 1.87331 32.2827 1.52468C32.1081 1.17606 31.8032 0.914436 31.4984 0.740437C31.1498 0.522625 30.8012 0.435621 30.3656 0.435621C29.9805 0.428327 29.6018 0.534324 29.2765 0.740437C28.9717 0.914436 28.6663 1.17606 28.4923 1.52468C28.3183 1.87331 28.1874 2.26512 28.1874 2.65755C28.1874 3.04999 28.3183 3.4418 28.4923 3.79042C28.7101 4.09524 28.9717 4.40068 29.2765 4.57468C29.6018 4.78086 29.9805 4.88686 30.3656 4.87949ZM29.4505 4.09524V1.17606H30.1909C30.5827 1.17606 30.8444 1.21987 31.019 1.30687C31.1936 1.39387 31.28 1.48087 31.3676 1.6555C31.4546 1.78631 31.4984 1.96031 31.4984 2.09112C31.4984 2.35212 31.4114 2.57055 31.2368 2.74455C31.1066 2.87537 30.8882 2.96236 30.6272 3.00618L31.4546 4.09524H30.9752L29.9731 2.78837H30.4519C30.6259 2.78837 30.7567 2.70137 30.8876 2.57055C31.0184 2.43974 31.1054 2.30956 31.1054 2.13493C31.1085 2.00617 31.0616 1.88121 30.9746 1.78631C30.9314 1.6555 30.8006 1.61231 30.6698 1.52531C30.5166 1.46716 30.3541 1.43767 30.1903 1.43831H29.8417V4.09587H29.4505V4.09524Z" fill="#0C1018"/>
<path fill-rule="evenodd" clip-rule="evenodd" d="M18.0362 17.3398C21.6082 17.3398 24.4836 20.2584 24.4836 23.7872C24.4856 24.6345 24.3202 25.4738 23.9969 26.2569C23.6736 27.0401 23.1987 27.7517 22.5996 28.3508C22.0006 28.9499 21.289 29.4248 20.5059 29.7482C19.7228 30.0716 18.8835 30.2371 18.0362 30.2352C14.5074 30.2352 11.5889 27.3598 11.5889 23.7872C11.5889 20.2584 14.5074 17.3398 18.0362 17.3398Z" fill="#0C1018"/>
<path fill-rule="evenodd" clip-rule="evenodd" d="M21.8256 31.543H36.071L18.1228 0.65625L0 31.543H14.2454C11.4138 30.1053 9.40972 27.1867 9.40972 23.7881C9.40972 19.0401 13.2865 15.1626 18.0352 15.1626C22.7839 15.1626 26.6607 19.0401 26.6607 23.7881C26.6613 27.1867 24.701 30.1059 21.8256 31.543ZM0.784248 40.6917L2.48293 36.7279H2.91855L4.61724 40.6917H4.18161L3.61518 39.3416H1.78568L1.17606 40.6917H0.784248ZM2.70074 37.2505V37.1197L2.65693 37.2505L1.91649 38.993H3.44118L2.70074 37.2505ZM8.05904 40.6917V36.7279H9.1481C9.80153 36.7279 10.3242 36.9013 10.6728 37.2073C10.8474 37.2943 10.9776 37.4683 11.0646 37.5991C11.1954 37.7731 11.2824 37.9478 11.3262 38.1218C11.3694 38.3396 11.4132 38.5142 11.4132 38.6882C11.4132 38.993 11.37 39.254 11.2392 39.5156C11.109 39.7773 10.9782 39.9951 10.7598 40.1691C10.6331 40.2949 10.4858 40.398 10.3242 40.4739C10.1933 40.5615 10.0193 40.6047 9.80153 40.6479C9.62753 40.6479 9.40972 40.6911 9.1481 40.6911H8.05904V40.6917ZM8.45148 40.3431H8.9741C9.2351 40.3431 9.40972 40.2999 9.58435 40.2999C9.75835 40.2567 9.93297 40.2123 10.02 40.1691C10.1508 40.1259 10.281 40.0383 10.4118 39.9513C10.5858 39.8205 10.7604 39.6026 10.8474 39.3848C10.9776 39.167 11.0214 38.9492 11.0214 38.6882C11.0214 38.1656 10.8036 37.7731 10.4112 37.4683C10.2372 37.3381 10.1063 37.2505 9.93172 37.2073C9.80091 37.1635 9.6701 37.1197 9.53991 37.1197C9.40972 37.1197 9.2351 37.0765 8.97347 37.0765H8.45085L8.45148 40.3431ZM16.3365 40.6917L14.7248 36.7279H15.1605L16.5105 40.2123L17.905 36.7279H18.3406L16.729 40.6917H16.3365ZM21.8256 40.6917V36.7279H24.0037V37.0765H22.2174V38.4704H23.9167V38.819H22.2174V40.3443H24.0037V40.693H21.8256V40.6917ZM27.7065 40.6917V36.7279H28.6648C28.9264 36.7279 29.1442 36.7279 29.3182 36.7711C29.4929 36.8143 29.623 36.8581 29.7539 36.9451C29.9717 37.0321 30.1025 37.1629 30.2333 37.3801C30.3203 37.5547 30.3641 37.7725 30.3641 37.9903C30.3641 38.339 30.2765 38.6444 30.0593 38.8622C29.9285 38.9492 29.8415 38.993 29.7545 39.0362C29.6675 39.0794 29.5805 39.1238 29.4935 39.1238C29.4497 39.167 29.3189 39.167 29.1887 39.167L30.3215 40.6917H29.8421L28.4914 38.9054H28.6222C28.84 38.9054 28.9709 38.9054 29.1017 38.8622C29.2319 38.8622 29.3627 38.8622 29.4935 38.7746C29.6237 38.7314 29.7545 38.6006 29.8421 38.4698C29.9297 38.339 29.9729 38.1656 29.9729 37.9903C29.9729 37.8595 29.9729 37.7293 29.8859 37.5985C29.8421 37.4677 29.7113 37.3801 29.6243 37.2937C29.5373 37.2073 29.4065 37.1629 29.2757 37.1197C29.1449 37.1197 28.9709 37.0765 28.7092 37.0765H28.099V40.6917H27.7065ZM34.5025 40.6917V37.0765H33.5881V36.7279H35.81V37.0765H34.895V40.6917H34.5025ZM39.2512 40.6917V36.7279H39.643V40.6917H39.2512ZM43.1724 39.5588H43.6081C43.6081 39.8205 43.6951 39.9944 43.8691 40.1691C43.9999 40.2999 44.1739 40.3869 44.3917 40.3869C44.5657 40.3869 44.6965 40.3437 44.8273 40.2567C44.889 40.2378 44.9451 40.2041 44.9907 40.1585C45.0363 40.1129 45.0701 40.0568 45.0889 39.9951C45.1759 39.8643 45.2191 39.7335 45.2191 39.6033C45.2191 39.3848 45.1321 39.1676 44.9581 39.0368C44.8273 38.9492 44.6095 38.8628 44.3479 38.7752C44.3047 38.7752 44.2609 38.732 44.2177 38.732H44.1739C44.055 38.6959 43.9386 38.6522 43.8253 38.6012C43.6667 38.5209 43.5317 38.4008 43.4334 38.2526C43.3495 38.091 43.3047 37.912 43.3026 37.73C43.3026 37.5115 43.3464 37.3381 43.4334 37.2073C43.5636 37.0327 43.6944 36.9019 43.8691 36.8149C43.9999 36.7279 44.2177 36.6841 44.4355 36.6841C44.6101 36.6841 44.8273 36.7279 44.9581 36.8149C45.1321 36.9019 45.2629 37.0327 45.3499 37.1635C45.4369 37.3381 45.5239 37.5121 45.5239 37.73H45.0883C45.0883 37.5115 45.0013 37.3381 44.8705 37.2505C44.7397 37.1197 44.6095 37.0321 44.3911 37.0321C44.2603 37.0321 44.1301 37.0759 44.0424 37.1197L43.7814 37.3807C43.7383 37.5115 43.6944 37.5991 43.6944 37.73C43.6944 37.9478 43.7814 38.0786 43.9123 38.1656C43.9993 38.2964 44.2171 38.3834 44.5225 38.4698C44.7403 38.5136 44.8711 38.5574 44.9581 38.6006C45.0451 38.6444 45.1759 38.6882 45.2629 38.7746C45.4807 38.993 45.6116 39.254 45.6116 39.6026C45.6116 39.8205 45.5684 39.9944 45.4376 40.1684C45.3506 40.3424 45.1766 40.4733 45.0019 40.6041C44.811 40.6932 44.6024 40.738 44.3917 40.7349C44.2177 40.7349 44.0869 40.7349 43.9123 40.6473C43.7528 40.6138 43.6125 40.5201 43.5204 40.3856C43.3896 40.2986 43.3464 40.1678 43.2594 40.037C43.2156 39.9075 43.2156 39.7773 43.1724 39.5588ZM49.1404 40.6917V36.7279H49.5322V40.6917H49.1404ZM53.3664 40.6917V36.7279H53.889L56.0678 39.9513L56.1103 40.0383V36.7279H56.5028V40.6917H56.1103L53.7582 37.2505V37.1629V40.6917H53.3664ZM61.6871 38.8622H64.3446C64.3446 39.0362 64.3008 39.167 64.3008 39.254C64.257 39.3416 64.2138 39.4725 64.17 39.5588C64.083 39.7328 63.9966 39.9075 63.8658 40.0383C63.7379 40.2038 63.574 40.3381 63.3864 40.4307C63.2239 40.5291 63.0475 40.6025 62.8631 40.6485C62.6885 40.7361 62.4707 40.7361 62.2973 40.7361C61.9919 40.7361 61.7303 40.6923 61.4699 40.6053C61.2083 40.4745 60.9905 40.3437 60.772 40.1259C60.5986 39.9519 60.4234 39.7335 60.337 39.4725C60.2062 39.254 60.1624 38.993 60.1624 38.6882C60.1624 38.339 60.2506 37.991 60.424 37.6861C60.6431 37.3807 60.9035 37.1197 61.2089 36.9451C61.5575 36.7711 61.9055 36.6835 62.2541 36.6835C62.6891 36.6835 63.0816 36.7711 63.4302 36.9883C63.6493 37.1191 63.8226 37.2931 63.9534 37.5109C64.0404 37.5547 64.0843 37.6855 64.1281 37.7725H63.6918C63.561 37.6417 63.474 37.5109 63.3876 37.4239C63.2324 37.3027 63.0545 37.2137 62.8644 37.1623C62.6735 37.0732 62.4648 37.0284 62.2541 37.0315C61.95 37.0315 61.6883 37.1191 61.4267 37.2499C61.1788 37.4185 60.9582 37.6241 60.7726 37.8595C60.6431 38.1211 60.5548 38.426 60.5548 38.6876C60.5548 38.9924 60.6431 39.2972 60.7726 39.5588C60.9473 39.7773 61.1651 39.9944 61.4267 40.1691C61.6883 40.2999 61.95 40.3869 62.2986 40.3869C62.5164 40.3869 62.778 40.3437 62.9952 40.2129C63.2179 40.1186 63.4127 39.9689 63.561 39.7779C63.6493 39.6903 63.6918 39.6039 63.7356 39.5595C63.7782 39.4725 63.8226 39.3855 63.909 39.2108H61.6877V38.8622H61.6871ZM72.0989 40.6917L73.7982 36.7279H74.2332L75.9325 40.6917H75.4975L74.9304 39.3416H73.1015L72.5345 40.6917H72.0989ZM74.0598 37.2505L74.016 37.1197L73.9722 37.2505L73.2311 38.993H74.757L74.0598 37.2505ZM80.7688 38.8622H83.4263C83.4263 39.0362 83.3825 39.167 83.3825 39.254C83.3387 39.3416 83.2955 39.4725 83.2517 39.5588C83.1608 39.7356 83.0432 39.8973 82.9031 40.0383C82.7723 40.2123 82.6415 40.3431 82.4681 40.4307C82.2935 40.5177 82.1182 40.6047 81.9448 40.6485C81.727 40.7361 81.5524 40.7361 81.3346 40.7361C81.073 40.7361 80.8113 40.6923 80.551 40.6053C80.2893 40.4745 80.0715 40.3437 79.8531 40.1259C79.6797 39.9519 79.5045 39.7335 79.4181 39.4725C79.2873 39.254 79.2435 38.993 79.2435 38.6882C79.2435 38.339 79.3317 37.991 79.5051 37.6861C79.7242 37.3807 79.9413 37.1197 80.29 36.9451C80.5941 36.7711 80.9428 36.6835 81.3352 36.6835C81.7702 36.6835 82.1626 36.7711 82.5113 36.9883C82.6859 37.1191 82.8599 37.2931 83.0345 37.5109C83.0771 37.5547 83.1653 37.6855 83.2079 37.7725H82.7284C82.6414 37.6417 82.5551 37.5109 82.4243 37.4239C82.2905 37.2956 82.125 37.2053 81.9448 37.1623C81.727 37.0753 81.5524 37.0315 81.3346 37.0315C81.0304 37.0315 80.7243 37.1191 80.4627 37.2499C80.2023 37.4239 80.0277 37.6417 79.8525 37.8595C79.7229 38.1211 79.6346 38.426 79.6346 38.6876C79.6346 38.9924 79.7229 39.2972 79.8525 39.5588C80.0271 39.7773 80.2449 39.9944 80.5065 40.1691C80.7682 40.2999 81.0298 40.3869 81.334 40.3869C81.5956 40.3869 81.8572 40.3437 82.075 40.2129C82.2977 40.1186 82.4925 39.9689 82.6408 39.7779C82.7278 39.6903 82.7716 39.6039 82.8155 39.5595C82.858 39.4725 82.9025 39.3855 82.9463 39.2108H80.7682L80.7688 38.8622ZM87.0853 40.6917V36.7279H89.2196V37.0765H87.4778V38.4704H89.1771V38.819H87.4778V40.3443H89.2196V40.693H87.0853V40.6917ZM92.9224 40.6917V36.7279H93.4895L95.6676 39.9513L95.7102 40.0383V36.7279H96.1026V40.6917H95.7102L93.358 37.2505V37.1629V40.6917H92.9224ZM103.596 37.7293H103.161C103.074 37.5985 102.943 37.4677 102.857 37.4245C102.698 37.2977 102.522 37.195 102.333 37.1197C102.159 37.0765 101.985 37.0321 101.81 37.0321C101.506 37.0321 101.244 37.1197 100.983 37.2937C100.719 37.4265 100.505 37.6404 100.372 37.904C100.199 38.1218 100.155 38.4266 100.155 38.6882C100.155 38.993 100.198 39.254 100.372 39.5156C100.505 39.7792 100.719 39.9931 100.983 40.1259C101.244 40.2999 101.506 40.3869 101.81 40.3869C102.072 40.3869 102.333 40.2999 102.551 40.1691C102.682 40.1259 102.813 40.0383 102.9 39.9951C102.944 39.9075 103.074 39.8211 103.161 39.6465H103.596C103.554 39.8205 103.466 39.9075 103.423 39.9951C103.336 40.0383 103.248 40.1259 103.161 40.2129C102.791 40.5478 102.31 40.7342 101.811 40.7361C101.42 40.7361 101.07 40.6485 100.766 40.4745C100.461 40.3005 100.2 40.0389 100.024 39.7335C99.8511 39.4286 99.7203 39.08 99.7203 38.6882C99.7203 38.339 99.8511 37.991 100.024 37.6861C100.199 37.3807 100.461 37.1197 100.766 36.9451C101.07 36.7705 101.42 36.6835 101.768 36.6835C102.203 36.6835 102.596 36.7711 102.9 36.9883C103.118 37.1191 103.293 37.2931 103.424 37.4677C103.509 37.5115 103.553 37.6423 103.596 37.7293ZM108.258 40.6917V39.3416L106.863 36.7279H107.299L108.432 38.9492L109.565 36.7279H110L108.649 39.3416V40.6917H108.258Z" fill="#0C1018"/>
</svg>
