<svg width="630" height="402" viewBox="0 0 630 402" fill="none" xmlns="http://www.w3.org/2000/svg">
<mask id="mask0_339_3881" style="mask-type:alpha" maskUnits="userSpaceOnUse" x="0" y="0" width="630" height="402">
<rect width="630" height="402" rx="10" fill="#050D20"/>
</mask>
<g mask="url(#mask0_339_3881)">
<mask id="mask1_339_3881" style="mask-type:luminance" maskUnits="userSpaceOnUse" x="-150" y="-50" width="949" height="570">
<path d="M798.043 519.102L-149.044 519.102L-149.044 -49.8967L798.043 -49.8967L798.043 519.102Z" fill="white"/>
</mask>
<g mask="url(#mask1_339_3881)">
<path d="M923.891 23.3531C902.733 83.2876 880.874 145.271 842.138 197.903C800.391 254.632 741.217 292.129 675.527 303.49C658.782 306.392 641.451 307.833 623.475 307.833C574.321 307.833 520.299 296.984 459.761 275.078C422.844 261.707 386.968 244.523 352.286 227.908C324.764 214.726 296.294 201.07 267.484 189.425C251.876 183.109 231.57 175.902 212.515 175.902C212.326 175.902 212.136 175.902 211.947 175.902C202.438 175.977 193.744 177.874 186.091 181.554C177.605 185.631 170.029 192.061 163.589 200.691C150.67 217.988 142.071 238.586 133.755 258.52C132.429 261.688 131.066 264.969 129.702 268.155C118.412 294.727 105.608 324.846 90.2272 353.126C57.2118 413.781 10.1984 450.671 -67.0271 476.446C-139.536 500.648 -256.994 497.025 -328.859 468.348C-456.204 417.536 -477.741 381.708 -498.577 347.075C-504.505 337.213 -510.112 327.881 -518.125 318.341C-534.718 298.559 -529.035 276.88 -523.012 253.93C-520.663 244.959 -518.219 235.665 -517.007 226.163L-517.196 226.144C-518.409 235.646 -520.852 244.921 -523.201 253.892C-526.269 265.595 -529.168 276.652 -529.262 287.425C-529.357 299.545 -525.872 309.408 -518.276 318.474C-510.283 327.995 -504.676 337.326 -498.747 347.189C-488.519 364.202 -477.949 381.784 -453.969 401.528C-440.994 412.188 -425.424 422.449 -406.33 432.899C-384.794 444.696 -359.469 456.342 -328.934 468.537C-311.546 475.479 -291.146 481.074 -268.283 485.19C-246.159 489.173 -222.728 491.582 -198.653 492.34C-174.503 493.118 -150.958 492.208 -128.682 489.628C-105.536 486.954 -84.7755 482.573 -66.9892 476.636C-28.8216 463.891 0.367615 449.343 24.8403 430.832C51.4535 410.708 72.8955 385.331 90.3598 353.22C105.759 324.941 118.545 294.803 129.853 268.231C131.198 265.045 132.581 261.763 133.907 258.596C142.222 238.681 150.803 218.083 163.721 200.824C190.505 164.977 229.392 174.251 267.408 189.633C296.219 201.279 324.688 214.916 352.21 228.098C386.893 244.712 422.768 261.915 459.705 275.287C498.062 289.17 532.839 298.407 566.006 303.509C584.796 306.392 603.226 307.928 620.766 308.061C639.613 308.213 658.044 306.733 675.565 303.718C708.959 297.952 740.459 285.661 769.194 267.226C797.133 249.302 821.738 226.03 842.309 198.055C859.565 174.612 875.021 147.072 889.587 113.881C902.752 83.8756 913.606 53.1496 924.08 23.4479L923.891 23.3531Z" fill="url(#paint0_linear_339_3881)" fill-opacity="0.2"/>
<path d="M923.817 33.5575C896.654 94.042 870.912 143.886 833.616 190.468C792.266 242.228 732.789 278.435 666.114 292.452C596.655 307.056 524.108 301.309 450.463 275.363C411.518 261.479 373.824 242.778 337.38 224.722C312.169 212.223 286.105 199.288 259.833 188.059C244.339 181.44 224.109 173.759 205.129 173.228C195.772 172.962 187.173 174.479 179.596 177.704C171.186 181.288 163.666 187.13 157.207 195.096C144.914 210.269 136.352 228.401 128.055 245.946C126.237 249.796 124.362 253.76 122.487 257.629C118.66 265.481 114.91 273.39 110.932 281.736C101.537 301.499 91.8198 321.926 81.1177 341.879C47.6856 403.918 1.54352 441.909 -73.1437 468.955C-143.664 494.484 -258.261 492.056 -328.573 463.568C-451.808 413.629 -473.061 378.351 -493.612 344.249C-499.409 334.633 -504.883 325.529 -512.611 316.179C-529.223 296.055 -524.203 274.016 -518.9 250.687C-516.854 241.678 -514.732 232.365 -513.785 222.844L-514.013 222.825C-514.979 232.327 -517.081 241.64 -519.127 250.649C-524.431 274.016 -529.45 296.112 -512.781 316.331C-505.072 325.662 -499.598 334.747 -493.802 344.363C-483.687 361.149 -473.231 378.503 -449.876 397.925C-437.261 408.413 -422.126 418.504 -403.62 428.765C-382.746 440.353 -358.217 451.809 -328.649 463.777C-290.917 479.083 -240.456 486.859 -190.905 486.859C-148.02 486.859 -105.799 481.037 -73.049 469.182C-54.9597 462.639 -39.1054 455.697 -24.5582 447.997C-9.19641 439.86 4.34692 431.022 16.8674 421.007C42.7797 400.258 63.8618 374.425 81.3261 342.011C92.0282 322.04 101.745 301.613 111.14 281.849C115.118 273.485 118.869 265.595 122.695 257.743C124.57 253.874 126.445 249.91 128.264 246.059C136.541 228.534 145.103 210.402 157.377 195.248C184.218 162.132 222.442 172.317 259.738 188.268C285.992 199.496 312.055 212.413 337.267 224.912C373.711 242.987 411.405 261.669 450.368 275.571C524.051 301.518 596.655 307.284 666.152 292.66C699.622 285.624 731.084 273.22 759.649 255.808C788.156 238.435 813.083 216.49 833.787 190.601C851.876 168.012 868.45 143.014 884.456 114.166C900.31 85.6018 913.929 56.1277 924.025 33.6523L923.817 33.5575Z" fill="url(#paint1_linear_339_3881)" fill-opacity="0.2"/>
<path d="M923.759 43.7632C894.229 95.58 862.899 139.848 825.11 183.035C783.988 230.281 725.742 264.288 656.699 281.415C578.622 300.78 508.12 298.883 441.142 275.649C400.228 261.462 360.867 241.168 322.813 221.575C299.818 209.721 276.046 197.488 252.18 186.696C236.932 179.811 217.043 171.769 198.328 170.574C196.699 170.479 195.089 170.422 193.517 170.422C176.204 170.422 162.206 176.7 150.841 189.541C139.097 202.798 130.593 218.73 122.353 234.131C120.061 238.417 117.693 242.856 115.288 247.161C107.408 261.291 99.585 276.787 91.2886 293.212C85.0946 305.502 78.6733 318.191 72.0248 330.709C38.4032 394.057 -6.82965 433.186 -79.206 461.503C-147.756 488.34 -259.475 487.127 -328.252 458.809C-447.414 409.743 -468.383 374.996 -488.67 341.406C-494.333 332.037 -499.675 323.179 -507.1 314.018C-523.712 293.534 -519.393 271.135 -514.828 247.408C-513.085 238.361 -511.286 229.01 -510.566 219.489L-510.812 219.47C-511.513 228.991 -513.313 238.342 -515.055 247.37C-519.639 271.154 -523.977 293.61 -507.289 314.189C-499.883 323.312 -494.541 332.169 -488.878 341.539C-478.877 358.116 -468.534 375.243 -445.804 394.342C-433.53 404.66 -418.85 414.56 -400.912 424.651C-380.683 436.012 -356.949 447.278 -328.347 459.056C-311.489 465.998 -291.865 471.441 -269.987 475.254C-248.867 478.933 -226.554 480.906 -203.672 481.171C-180.791 481.418 -158.496 479.919 -137.395 476.714C-115.536 473.395 -95.9316 468.369 -79.1113 461.768C-61.4955 454.864 -45.9633 447.562 -31.6244 439.407C-16.6415 430.872 -3.38226 421.673 8.92987 411.241C34.1792 389.866 54.9015 363.559 72.29 330.823C78.9385 318.305 85.3408 305.597 91.5537 293.326C99.8312 276.92 107.673 261.405 115.534 247.294C117.94 242.988 120.307 238.55 122.599 234.264C130.82 218.863 139.344 202.95 151.05 189.73C177.947 159.346 215.508 170.441 252.085 186.961C275.933 197.734 299.704 209.987 322.7 221.822C360.773 241.433 400.134 261.708 441.067 275.914C458.664 282.022 476.772 286.706 494.861 289.855C512.401 292.909 530.491 294.597 548.637 294.881C566.139 295.166 584.285 294.141 602.545 291.865C620.066 289.684 638.307 286.251 656.756 281.68C690.453 273.316 721.878 260.798 750.139 244.487C779.271 227.663 804.54 207.047 825.281 183.225C863.07 140.019 894.418 95.7506 923.948 43.9149L923.759 43.7632Z" fill="url(#paint2_linear_339_3881)" fill-opacity="0.2"/>
<path d="M923.684 53.9674C893.794 95.1629 859.301 131.105 819.353 172.717L816.587 175.6C776.298 217.877 719.34 249.76 647.286 270.376C609.743 281.13 567.787 290.69 523.085 290.69C493.706 290.69 463.153 286.555 431.842 275.915C389.299 261.462 348.594 239.688 309.214 218.617C288.132 207.35 266.348 195.686 244.565 185.311C229.583 178.18 210.035 169.759 191.547 167.9C172.322 165.965 156.941 171.2 144.515 183.946C133.264 195.496 124.797 209.418 116.614 222.903C113.867 227.417 111.045 232.083 108.128 236.635C96.5926 254.615 85.1518 276.73 73.0291 300.154C69.7521 306.47 66.3805 313.013 62.9899 319.462C29.4442 383.379 -16.2812 424.897 -85.286 454.049C-151.885 482.177 -260.743 482.177 -327.93 454.049C-443.02 405.874 -463.704 371.658 -483.706 338.58C-489.219 329.457 -494.446 320.828 -501.569 311.894C-518.199 291.069 -514.563 268.29 -510.717 244.184C-509.278 235.099 -507.781 225.729 -507.327 216.189L-507.611 216.17C-508.066 225.691 -509.562 235.08 -511.002 244.146C-514.866 268.309 -518.502 291.126 -501.796 312.065C-494.674 320.998 -489.465 329.609 -483.953 338.732C-474.065 355.1 -463.837 372 -441.732 390.776C-429.798 400.905 -415.554 410.635 -398.185 420.554C-378.618 431.706 -355.679 442.764 -328.043 454.334C-295.331 468.027 -252.163 475.576 -206.456 475.576C-206.362 475.576 -206.286 475.576 -206.191 475.576C-183.953 475.557 -162.265 473.774 -141.751 470.228C-120.555 466.586 -101.519 461.237 -85.1723 454.334C-50.7362 439.786 -22.5699 422.489 0.974731 401.436C25.5232 379.472 45.8856 352.729 63.2552 319.633C66.6458 313.184 70.0173 306.641 73.2943 300.325C85.417 276.901 96.8578 254.786 108.374 236.824C111.291 232.273 114.133 227.607 116.86 223.093C125.403 209 133.491 195.705 144.724 184.173C171.678 156.539 208.576 168.526 244.433 185.615C266.216 195.989 287.999 207.635 309.081 218.92C348.461 239.992 389.186 261.766 431.748 276.237C466.279 287.958 501.662 292.662 539.962 290.614C571.727 288.907 605.86 282.572 647.362 270.699C681.589 260.912 712.976 248.28 740.612 233.164C770.445 216.853 796.073 197.583 816.776 175.847L819.542 172.964C859.49 131.351 894.002 95.4095 923.892 54.195L923.684 53.9674Z" fill="url(#paint3_linear_339_3881)" fill-opacity="0.2"/>
<path d="M923.646 64.1501C904.439 84.7099 883.092 102.785 860.494 121.922C843.503 136.318 825.944 151.188 808.082 168.125C769.384 204.844 713.696 234.679 637.872 259.297C589.343 275.059 543.675 288.146 496.832 288.146C472.568 288.146 447.981 284.637 422.523 276.159C378.541 261.517 336.642 238.245 296.144 215.75C276.805 205.015 256.821 193.901 236.913 183.905C222.215 176.527 202.989 167.746 184.748 165.204C181.168 164.711 177.72 164.464 174.406 164.464C160.18 164.464 148.266 169.035 138.189 178.329C127.335 188.324 119.285 199.951 110.78 212.241C107.636 216.793 104.359 221.497 100.968 226.106C86.0803 246.211 71.552 274.262 56.1523 303.964L53.9362 308.231C20.0115 373.609 -24.7857 416.284 -91.347 446.574C-157.094 476.503 -260.876 477.679 -327.607 449.286C-438.625 402.04 -459.025 368.318 -478.762 335.733C-483.896 327.236 -489.218 318.473 -496.056 309.749C-512.687 288.563 -509.751 265.424 -506.663 240.919C-505.508 231.815 -504.315 222.388 -504.106 212.848H-504.409C-504.618 222.388 -505.811 231.796 -506.967 240.9C-510.073 265.462 -513.028 288.658 -496.302 309.957C-489.464 318.663 -484.161 327.445 -479.027 335.923C-459.271 368.564 -438.833 402.325 -327.759 449.608C-295.558 463.321 -253.28 470.548 -208.71 469.979C-187.097 469.694 -166.053 467.608 -146.126 463.758C-125.575 459.793 -107.125 454.122 -91.2523 446.896C-57.858 431.704 -30.2977 413.61 -7.01834 391.609C16.8104 369.095 36.8128 341.897 54.1824 308.421L56.3986 304.153C71.7792 274.471 86.3265 246.438 101.177 226.352C104.586 221.763 107.844 217.04 110.989 212.488C119.494 200.198 127.525 188.609 138.359 178.633C150.709 167.253 165.863 162.985 184.691 165.602C202.894 168.125 222.082 176.907 236.762 184.266C256.67 194.261 276.653 205.356 295.993 216.092C336.509 238.605 378.427 261.877 422.429 276.519C440.632 282.57 458.721 286.249 477.682 287.747C494.9 289.113 512.44 288.62 531.287 286.287C568.204 281.697 605.709 270.127 637.986 259.658C673.729 248.05 704.187 235.646 731.084 221.763C745.953 214.081 759.819 205.85 772.302 197.315C785.542 188.249 797.664 178.519 808.31 168.409C826.153 151.472 843.712 136.602 860.703 122.207C883.3 103.07 904.647 84.9754 923.873 64.4156L923.646 64.1501Z" fill="url(#paint4_linear_339_3881)" fill-opacity="0.2"/>
<path d="M923.59 74.3547C906.845 87.9727 888.604 99.4475 869.284 111.605C846.364 126.039 822.649 140.946 799.578 160.691C754.345 199.402 690.606 225.67 628.478 248.278C624.935 249.568 621.412 250.858 617.908 252.148C570.156 269.616 524.26 286.401 475.712 286.401C455.464 286.401 434.741 283.481 413.243 276.482C367.953 261.726 325.05 236.955 283.549 213.001C265.819 202.759 247.483 192.194 229.28 182.578C214.847 174.954 195.962 165.812 177.948 162.587C173.327 161.772 168.913 161.355 164.727 161.355C152.017 161.355 141.182 165.129 131.844 172.772C121.294 181.402 113.262 191.492 104.776 202.171C101.272 206.59 97.6354 211.161 93.7902 215.618C77.3488 234.755 61.2672 265.045 44.8636 297.023C10.5413 363.918 -33.3278 407.75 -97.4267 439.121C-131.408 455.754 -175.959 464.194 -219.98 464.194C-258.621 464.194 -296.864 457.689 -327.285 444.526C-434.211 398.229 -454.346 364.999 -473.818 332.87C-478.819 324.619 -483.99 316.084 -490.543 307.587C-507.174 286.041 -504.958 262.522 -502.609 237.638C-501.738 228.496 -500.848 219.051 -500.886 209.492H-501.227C-501.189 219.032 -502.079 228.477 -502.95 237.6C-505.318 262.56 -507.553 286.117 -490.828 307.777C-484.274 316.274 -479.103 324.79 -474.121 333.021C-454.63 365.189 -434.457 398.475 -327.474 444.81C-295.86 458.504 -254.567 465.427 -211.229 464.289C-190.26 463.739 -169.822 461.349 -150.482 457.196C-130.594 452.909 -112.694 446.916 -97.332 439.405C-33.1573 407.996 10.7685 364.127 45.1288 297.155C61.5134 265.197 77.595 234.926 93.9985 215.808C97.8437 211.332 101.48 206.761 104.985 202.341C113.471 191.663 121.483 181.592 132.015 173C144.365 162.91 159.366 159.61 177.854 162.891C195.829 166.096 214.676 175.238 229.091 182.844C247.294 192.441 265.611 203.024 283.34 213.266C324.86 237.221 367.782 262.01 413.091 276.766C430.726 282.513 448.152 285.7 466.393 286.534C482.74 287.274 499.427 286.079 517.403 282.893C550.949 276.956 583.51 265.045 617.984 252.432C621.488 251.142 625.03 249.853 628.553 248.563C655.129 238.89 689.716 225.803 721.5 210.345C753.512 194.774 779.121 178.595 799.768 160.937C822.82 141.212 846.516 126.304 869.417 111.871C888.737 99.713 906.997 88.2193 923.76 74.5823L923.59 74.3547Z" fill="url(#paint5_linear_339_3881)" fill-opacity="0.2"/>
<path d="M923.551 84.5397C907.602 94.042 890.328 101.553 872.049 109.481C844.981 121.24 816.966 133.398 791.092 153.237C749.875 184.816 695.171 206.723 637.266 229.919C631.318 232.309 625.162 234.774 619.082 237.221C609.971 240.9 600.879 244.713 592.071 248.411C547.368 267.188 504.446 285.225 457.963 285.225C440.537 285.225 422.637 282.703 403.923 276.728C357.459 261.896 313.646 235.628 271.293 210.231C255.041 200.483 238.258 190.411 221.627 181.194C207.459 173.341 188.934 163.82 171.11 159.932C152.831 155.93 137.905 158.301 125.479 167.158C115.137 174.536 107.068 183.28 98.525 192.517C94.7177 196.632 90.7778 200.9 86.5917 205.091C69.0327 222.598 51.7958 254.215 35.7711 285.794C1.03189 354.283 -41.928 399.272 -103.545 431.648C-165.409 464.156 -263.565 467.722 -327.001 439.746C-429.798 394.435 -449.668 361.68 -468.875 329.987C-473.724 321.983 -478.743 313.713 -485.032 305.425C-501.682 283.499 -500.166 259.639 -498.556 234.357C-497.969 225.196 -497.382 215.713 -497.647 206.154L-498.026 206.173C-497.761 215.713 -498.348 225.196 -498.935 234.338C-500.545 259.677 -502.061 283.613 -485.335 305.652C-479.065 313.922 -474.046 322.172 -469.197 330.176C-459.631 345.956 -449.744 362.268 -429.495 380.096C-418.584 389.693 -405.685 398.911 -390.02 408.262C-372.423 418.769 -351.853 429.182 -327.153 440.069C-296.107 453.744 -255.837 460.363 -213.711 458.675C-193.386 457.859 -173.573 455.166 -154.802 450.69C-135.557 446.1 -118.244 439.784 -103.356 431.951C-41.6817 399.537 1.33496 354.51 36.112 285.946C52.1178 254.405 69.3358 222.806 86.8569 205.338C91.062 201.146 95.0018 196.879 98.8091 192.763C107.333 183.526 115.383 174.821 125.706 167.462C138.037 158.661 152.869 156.309 171.053 160.292C188.82 164.18 207.326 173.683 221.476 181.516C238.088 190.734 254.889 200.805 271.122 210.554C313.495 235.969 357.307 262.257 403.828 277.089C472.586 299.033 530.7 274.623 592.222 248.772C601.011 245.073 610.122 241.261 619.214 237.581C625.295 235.135 631.451 232.669 637.399 230.279C695.322 207.083 750.045 185.158 791.319 153.54C817.174 133.739 845.151 121.582 872.2 109.822C890.498 101.875 907.773 94.3644 923.741 84.8432L923.551 84.5397Z" fill="url(#paint6_linear_339_3881)" fill-opacity="0.2"/>
<path d="M923.513 94.7238C907.716 101.191 890.668 105.705 872.598 110.466C842.007 118.546 810.374 126.891 782.568 145.801C749.685 168.163 708.183 185.176 664.258 203.194C646.396 210.515 627.946 218.083 609.649 226.2C596.977 231.814 584.456 237.865 572.371 243.725C529.373 264.513 488.156 284.447 442.374 284.447C427.031 284.447 411.196 282.209 394.603 277.031C347.04 262.161 302.451 234.375 259.34 207.499C244.49 198.244 229.128 188.665 213.975 179.846C200.09 171.766 181.906 161.904 164.272 157.314C146.296 152.648 131.521 154.051 119.114 161.6C108.829 167.859 100.646 175.389 91.9899 183.355C87.9742 187.053 83.826 190.866 79.3747 194.621C60.1488 210.856 41.9269 244.181 26.6599 274.622C-8.53391 344.78 -50.5845 390.906 -109.664 424.231C-169.595 458.029 -264.948 462.771 -326.736 435.023C-425.422 390.717 -445.027 358.398 -463.988 327.141C-468.685 319.383 -473.553 311.36 -479.558 303.319C-496.189 281.014 -495.412 256.775 -494.56 231.132C-494.257 221.952 -493.954 212.45 -494.465 202.871L-494.863 202.89C-494.351 212.45 -494.673 221.933 -494.958 231.113C-495.791 256.85 -496.587 281.147 -479.861 303.565C-473.875 311.588 -469.007 319.611 -464.31 327.349C-454.839 342.959 -445.065 359.08 -425.441 376.606C-414.872 386.032 -402.408 395.079 -387.331 404.259C-370.378 414.558 -350.622 424.743 -326.888 435.402C-296.429 449.077 -257.144 455.355 -216.249 453.117C-196.568 452.036 -177.38 449.039 -159.196 444.24C-140.615 439.328 -123.87 432.709 -109.455 424.591C-50.3004 391.248 -8.21188 345.045 27.0198 274.812C42.2678 244.408 60.4519 211.141 79.6399 194.943C84.0912 191.188 88.2394 187.376 92.2551 183.677C100.893 175.73 109.075 168.219 119.323 161.979C131.635 154.488 146.296 153.084 164.158 157.731C181.736 162.302 199.901 172.146 213.766 180.225C228.92 189.045 244.263 198.623 259.113 207.879C302.243 234.773 346.851 262.578 394.47 277.448C411.101 282.645 426.993 284.883 442.374 284.883C488.232 284.883 529.487 264.93 572.523 244.124C584.626 238.282 597.128 232.232 609.8 226.599C628.079 218.481 646.547 210.913 664.409 203.592C708.354 185.574 749.874 168.542 782.795 146.161C810.545 127.308 842.139 118.963 872.692 110.883C890.763 106.104 907.829 101.609 923.646 95.1221L923.513 94.7238Z" fill="url(#paint7_linear_339_3881)" fill-opacity="0.2"/>
<path d="M923.476 104.93C907.527 108.894 890.309 110.885 872.106 112.971C838.295 116.859 803.348 120.899 774.064 138.349C747.204 154.357 714.7 167.292 680.302 180.986C654.106 191.398 627.019 202.171 600.236 215.144C585.12 222.466 570.345 230.621 556.063 238.511C514.145 261.67 474.008 283.86 428.264 283.86C414.512 283.86 400.268 281.869 385.304 277.279C336.737 262.409 291.466 233.087 247.673 204.713C234.13 195.931 220.132 186.865 206.342 178.444C186.15 166.097 171.054 158.757 157.435 154.641C139.762 149.292 125.158 149.729 112.789 155.988C102.409 161.241 93.9799 167.69 85.0583 174.518C80.9669 177.647 76.7429 180.872 72.2158 184.077C63.067 190.545 53.7476 201.109 43.7274 216.396C35.8098 228.459 27.5133 243.386 17.5879 263.377C-18.0984 335.279 -59.2209 382.582 -115.743 416.741C-173.78 451.81 -266.311 457.727 -326.413 430.245C-420.989 386.982 -440.347 355.08 -459.043 324.24C-463.589 316.73 -468.305 308.972 -474.026 301.177C-490.657 278.493 -490.6 253.893 -490.524 227.852C-490.505 218.634 -490.467 209.113 -491.225 199.535L-491.661 199.573C-490.922 209.132 -490.941 218.653 -490.979 227.852C-491.036 253.969 -491.111 278.645 -474.386 301.443C-468.684 309.219 -463.987 316.976 -459.422 324.468C-450.065 339.907 -440.385 355.858 -421.387 373.079C-411.158 382.354 -399.13 391.211 -384.621 400.202C-368.331 410.292 -349.351 420.249 -326.602 430.643C-296.731 444.299 -258.45 450.274 -218.767 447.447C-179.993 444.697 -143.341 433.924 -115.535 417.12C-86.1181 399.348 -61.0582 378.106 -38.9153 352.178C-18.1741 327.882 0.445587 298.901 17.9667 263.585C33.3284 232.632 51.8156 199.023 72.4431 184.456C76.9702 181.251 81.1942 178.027 85.2856 174.878C94.1882 168.069 102.598 161.621 112.94 156.405C125.215 150.203 139.705 149.767 157.264 155.096C170.864 159.212 185.904 166.533 206.077 178.861C219.848 187.283 233.846 196.349 247.389 205.13C291.201 233.523 336.491 262.864 385.133 277.753C450.065 297.63 501.644 269.123 556.234 238.948C570.516 231.057 585.291 222.902 600.387 215.581C627.171 202.626 654.238 191.853 680.416 181.441C714.852 167.747 747.356 154.812 774.253 138.785C803.443 121.374 838.352 117.353 872.125 113.465C890.347 111.359 907.565 109.387 923.552 105.404L923.476 104.93Z" fill="url(#paint8_linear_339_3881)" fill-opacity="0.2"/>
<path d="M923.456 115.114C907.166 116.859 889.626 116.593 871.044 116.309C864.15 116.195 857.217 116.1 850.284 116.1C820.205 116.1 790.39 118.111 765.577 130.894C743.453 142.293 717.597 151.909 690.226 162.075C657.647 174.176 623.949 186.694 590.82 204.086C573.943 212.944 557.615 223.167 541.818 233.048C489.482 265.804 440.025 296.738 375.983 277.544C326.469 262.712 280.573 231.796 236.193 201.905C223.9 193.617 211.171 185.063 198.688 177.059C178.913 164.389 164.063 156.651 150.557 151.966C133.188 145.935 118.754 145.423 106.442 150.373C95.6832 154.697 86.8184 160.198 77.4233 166.039C73.4835 168.486 69.392 171.027 65.0544 173.55C55.3184 179.202 45.5633 189.33 35.2401 204.56C27.0383 216.642 18.5524 231.759 8.53223 252.148C-27.6844 325.909 -67.8977 374.368 -121.825 409.267C-178.896 446.195 -266.71 453.156 -326.093 425.465C-416.558 383.245 -435.652 351.741 -454.12 321.281C-458.514 314.036 -463.06 306.525 -468.496 298.995C-485.127 275.932 -485.79 250.953 -486.51 224.513C-486.756 215.277 -487.022 205.736 -487.988 196.158L-488.442 196.196C-487.476 205.755 -487.211 215.296 -486.965 224.513C-486.245 251.029 -485.582 276.065 -468.856 299.242C-463.439 306.771 -458.893 314.263 -454.499 321.49C-445.236 336.777 -435.67 352.576 -417.278 369.494C-407.39 378.598 -395.798 387.304 -381.857 396.085C-366.211 405.948 -348.027 415.678 -326.263 425.825C-311.28 432.824 -294.346 437.717 -275.935 440.391C-258.357 442.933 -239.964 443.388 -221.25 441.738C-183.878 438.438 -148.476 427.02 -121.56 409.608C-93.1092 391.192 -68.6743 369.153 -46.8534 342.22C-26.9267 317.639 -8.68582 288.222 8.94894 252.299C18.9502 231.929 27.4171 216.832 35.6189 204.769C45.9232 189.615 55.6214 179.506 65.2817 173.91C69.6383 171.388 73.7108 168.846 77.6696 166.4C87.0457 160.577 95.8915 155.096 106.613 150.771C118.83 145.859 133.15 146.39 150.406 152.383C163.892 157.049 178.705 164.787 198.442 177.419C210.925 185.423 223.635 193.977 235.947 202.265C280.346 232.176 326.28 263.091 375.85 277.961C391.307 282.589 406.271 284.467 421.595 283.708C435.29 283.025 449.003 280.218 463.513 275.135C490.505 265.671 515.546 250.004 542.064 233.409C557.843 223.527 574.17 213.323 591.029 204.466C624.139 187.092 657.817 174.574 690.378 162.474C717.768 152.288 743.642 142.691 765.785 131.273C796.187 115.588 834.24 116.176 871.025 116.745C889.626 117.03 907.185 117.295 923.494 115.55L923.456 115.114Z" fill="url(#paint9_linear_339_3881)" fill-opacity="0.2"/>
<path d="M807.155 114.676C789.085 114.676 772.018 116.914 757.073 123.457C738.87 131.423 718.243 138.346 696.384 145.686C660.338 157.787 619.5 171.481 581.408 193.065C563.224 203.364 545.797 215.597 528.939 227.432C478.289 262.976 430.461 296.547 366.684 277.846C316.28 263.052 269.835 230.543 224.943 199.115C213.824 191.339 202.327 183.278 191.075 175.729C166.262 159.077 138.398 142.898 113.907 142.898C109.171 142.898 104.568 143.505 100.136 144.833C88.5247 148.304 78.8265 153.007 68.5412 157.977C65.1317 159.627 61.6085 161.334 57.8959 163.06C47.5727 167.858 37.3631 177.569 26.6989 192.742C18.2509 204.767 9.59451 220.073 -0.539307 240.956C-37.8545 317.732 -75.9464 365.832 -127.904 401.83C-183.062 440.029 -268.129 448.147 -325.769 420.721C-412.143 379.62 -430.157 349.862 -449.212 318.377C-453.436 311.398 -457.812 304.171 -462.964 296.888C-479.576 273.426 -480.996 248.087 -482.493 221.249C-483.004 211.994 -483.554 202.434 -484.728 192.875L-485.22 192.932C-484.027 202.491 -483.497 212.05 -482.985 221.287C-481.489 248.182 -480.068 273.597 -463.362 297.173C-458.228 304.437 -453.853 311.644 -449.629 318.624C-440.461 333.759 -430.99 349.407 -413.223 366.04C-403.676 374.955 -392.52 383.49 -379.147 392.1C-364.164 401.754 -346.775 411.238 -325.977 421.138C-311.26 428.137 -294.704 432.955 -276.786 435.458C-259.719 437.829 -241.876 438.057 -223.749 436.122C-187.778 432.272 -153.626 420.228 -127.6 402.21C-100.097 383.167 -76.2873 360.312 -54.8074 332.375C-35.4868 307.244 -18.0983 278.263 -0.0657654 241.145C10.0681 220.301 18.7055 204.995 27.1345 193.008C37.7419 177.911 47.8758 168.238 58.1232 163.496C61.8358 161.77 65.359 160.063 68.7685 158.413C79.0349 153.444 88.7142 148.74 100.288 145.288C127.469 137.189 161.299 156.327 190.81 176.128C202.08 183.695 213.559 191.737 224.678 199.514C269.608 230.979 316.091 263.507 366.57 278.32C381.97 282.834 396.801 284.484 411.917 283.327C425.422 282.303 438.871 279.041 453.039 273.37C479.406 262.824 503.614 245.83 529.223 227.85C546.062 216.033 563.489 203.8 581.654 193.501C619.708 171.955 660.527 158.242 696.554 146.16C718.413 138.82 739.06 131.898 757.282 123.913C788.744 110.143 829.828 115.51 869.568 120.688C888.661 123.173 906.675 125.544 923.42 125.809V125.316C906.694 125.032 888.681 122.68 869.625 120.195C848.638 117.464 827.29 114.676 807.155 114.676Z" fill="url(#paint10_linear_339_3881)" fill-opacity="0.2"/>
<path d="M782.851 110.714C770.539 110.714 758.966 112.231 748.586 116.005C733.773 121.373 717.408 126.172 700.076 131.236C659.768 143.033 614.099 156.385 571.992 182.028C552.804 193.712 534.601 207.918 516.985 221.668C467.718 260.133 421.197 296.454 357.382 278.113C306.126 263.395 259.207 229.236 213.823 196.215C203.84 188.951 193.517 181.44 183.421 174.347C164.763 161.241 149.951 152.44 136.805 146.674C120.004 139.296 105.93 136.85 93.7888 139.221C80.3212 141.838 69.4108 145.783 56.7767 150.354C54.8067 151.075 52.78 151.795 50.7153 152.535C39.767 156.442 29.1217 165.717 18.1355 180.871C9.49808 192.801 0.671234 208.316 -9.61414 229.729C-47.5734 308.649 -84.775 357.887 -134.005 394.359C-187.25 433.791 -269.552 443.085 -325.449 415.924C-407.713 375.962 -425.499 346.526 -444.327 315.363C-448.38 308.649 -452.586 301.708 -457.454 294.709C-474.047 270.849 -476.225 245.13 -478.517 217.913C-479.293 208.657 -480.108 199.079 -481.51 189.52L-482.021 189.596C-480.619 199.155 -479.805 208.714 -479.028 217.97C-476.717 245.263 -474.558 271.057 -457.87 295.031C-453.002 302.011 -448.816 308.953 -444.763 315.667C-435.69 330.67 -426.313 346.184 -409.152 362.552C-399.928 371.353 -389.206 379.717 -376.421 388.119C-362.082 397.546 -345.489 406.802 -325.676 416.437C-311.223 423.454 -295.066 428.196 -277.64 430.529C-261.085 432.748 -243.81 432.729 -226.27 430.51C-191.701 426.128 -158.818 413.44 -133.683 394.815C-107.126 375.146 -83.9604 351.495 -62.8214 322.514C-44.429 297.307 -27.3815 267.909 -9.14059 229.995C1.14478 208.619 9.9527 193.124 18.5712 181.213C29.4816 166.153 40.0701 156.935 50.9047 153.066C52.9694 152.327 54.9962 151.606 56.9661 150.885C69.5812 146.333 80.4917 142.388 93.9025 139.771C105.949 137.419 119.909 139.846 136.616 147.187C149.724 152.952 164.498 161.734 183.137 174.821C193.233 181.914 203.556 189.425 213.52 196.689C258.942 229.748 305.898 263.926 357.23 278.663C372.649 283.101 387.424 284.505 402.406 282.95C415.798 281.565 429.076 277.848 442.98 271.589C468.873 259.924 492.38 241.564 517.288 222.124C534.885 208.373 553.088 194.167 572.257 182.521C614.308 156.935 659.957 143.583 700.227 131.786C717.559 126.722 733.925 121.923 748.756 116.556C781.184 104.796 825.243 115.057 867.843 124.996C887.504 129.586 906.067 133.91 923.323 136.11L923.38 135.598C906.162 133.398 887.599 129.073 867.956 124.503C838.9 117.656 809.161 110.714 782.851 110.714Z" fill="url(#paint11_linear_339_3881)" fill-opacity="0.2"/>
<path d="M763.853 105.516C755.386 105.516 747.43 106.446 740.1 108.57C728.28 111.984 715.57 115.094 702.103 118.395C658.025 129.168 608.057 141.382 562.597 170.989C542.651 183.981 523.861 200.16 505.715 215.807C465.88 250.137 427.845 282.892 379.563 282.892C369.543 282.892 359.087 281.488 348.082 278.397C296.011 263.755 248.656 227.927 202.855 193.256C193.972 186.523 184.785 179.581 175.788 172.98C157.528 159.552 142.962 150.353 129.911 143.98C115.42 136.906 102.938 133.435 91.9704 133.435C90.4361 133.435 88.9397 133.511 87.4622 133.644C71.1534 135.142 57.9321 138.328 43.5554 142.027C31.9819 145.005 20.8631 153.824 9.55493 168.978C0.747009 180.795 -8.23141 196.537 -18.7062 218.519C-47.365 278.719 -81.9147 340.778 -140.104 386.905C-184.882 422.391 -262.808 442.136 -325.165 411.182C-403.299 372.395 -420.877 343.244 -439.478 312.385C-443.361 305.955 -447.377 299.298 -451.961 292.584C-468.553 268.307 -471.47 242.209 -474.577 214.593C-475.619 205.337 -476.698 195.759 -478.327 186.181L-478.877 186.276C-477.248 195.816 -476.168 205.394 -475.145 214.65C-472.039 242.341 -469.103 268.496 -452.434 292.887C-447.869 299.583 -443.853 306.24 -439.97 312.669C-430.575 328.241 -421.711 342.959 -405.155 359.043C-396.253 367.692 -385.986 375.885 -373.75 384.117C-360.055 393.315 -344.258 402.344 -325.43 411.694C-311.242 418.731 -295.464 423.397 -278.549 425.559C-262.505 427.607 -245.799 427.361 -228.846 424.838C-195.679 419.907 -164.065 406.592 -139.782 387.36C-114.173 367.066 -91.6318 342.599 -70.8528 312.594C-53.4453 287.463 -36.7387 257.647 -18.2326 218.785C-7.77679 196.84 1.18265 181.136 9.97162 169.339C21.2041 154.298 32.2281 145.555 43.6689 142.596C58.0268 138.897 71.2292 135.711 87.5002 134.213C99.4335 133.113 113.223 136.489 129.646 144.512C142.659 150.865 157.206 160.064 175.428 173.455C184.406 180.055 193.593 187.016 202.477 193.73C248.315 228.42 295.708 264.286 347.873 278.947C363.368 283.309 378.142 284.485 393.049 282.551C406.365 280.825 419.511 276.652 433.244 269.767C458.758 256.965 481.716 237.182 506.018 216.243C524.164 200.615 542.916 184.436 562.843 171.463C608.227 141.913 658.139 129.699 702.178 118.945C715.646 115.644 728.375 112.534 740.213 109.12C773.551 99.4658 820.526 114.715 865.949 129.471C886.235 136.052 905.404 142.273 923.21 146.313L923.323 145.782C905.556 141.761 886.406 135.54 866.119 128.959C830.603 117.37 794.084 105.516 763.853 105.516Z" fill="url(#paint12_linear_339_3881)" fill-opacity="0.2"/>
<path d="M747.621 99.503C741.995 99.503 736.635 100.015 731.615 101.115C722.542 103.107 713.015 104.946 702.919 106.881C680.151 111.262 654.352 116.232 628.781 124.179C599.44 133.301 574.721 145.004 553.203 159.95C532.651 174.212 513.482 192.326 494.957 209.851C447.83 254.384 403.336 296.433 338.802 278.681C285.954 264.133 238.202 226.56 192.022 190.239C184.18 184.075 176.092 177.702 168.193 171.633C154.896 161.41 138.341 148.702 122.979 139.959C108.584 131.784 96.4042 127.763 85.9673 127.763C84.3194 127.763 82.7283 127.858 81.1561 128.067C73.9772 128.977 67.2339 129.243 60.718 129.508C52.9897 129.812 45.0153 130.115 36.4347 131.538C24.2362 133.548 12.6439 141.912 1.01364 157.067C-8.0784 168.921 -16.9621 184.416 -27.7399 207.309C-61.5509 279.041 -94.6232 335.77 -146.164 379.469C-189.294 416.056 -264.512 437.052 -324.822 406.44C-398.846 368.848 -416.216 339.962 -434.608 309.368C-438.302 303.223 -442.128 296.869 -446.409 290.459C-462.983 265.764 -466.677 239.287 -470.598 211.254C-471.886 201.999 -473.231 192.42 -475.068 182.861L-475.636 182.975C-473.799 192.496 -472.473 202.074 -471.166 211.33C-467.245 239.42 -463.532 265.973 -446.883 290.781C-442.602 297.173 -438.776 303.527 -435.082 309.653C-425.782 325.13 -417.012 339.734 -401.044 355.571C-392.463 364.068 -382.632 372.11 -370.964 380.152C-357.913 389.142 -342.893 397.905 -325.049 406.971C-311.127 414.045 -295.747 418.616 -279.324 420.608C-263.792 422.485 -247.635 421.992 -231.288 419.185C-199.541 413.723 -169.178 399.782 -145.766 379.924C-121.104 359.004 -99.1882 333.741 -78.7879 302.673C-57.5921 270.392 -40.0899 234.906 -27.2096 207.594C-10.806 172.79 9.61319 136.602 36.5294 132.145C45.0532 130.741 53.0276 130.419 60.7369 130.115C67.2719 129.869 74.0151 129.603 81.2319 128.674C107.012 125.392 139.326 150.22 167.833 172.126C175.732 178.195 183.839 184.568 191.662 190.732C237.88 227.091 285.67 264.702 338.631 279.287C354.239 283.574 369.052 284.541 383.94 282.227C397.237 280.16 410.288 275.494 423.869 267.983C449.099 254.024 471.564 232.8 495.336 210.325C513.861 192.819 533.011 174.725 553.525 160.481C601.732 127.005 655.564 116.649 703.032 107.507C713.128 105.572 722.675 103.733 731.748 101.741C765.938 94.2492 815.811 114.543 864.056 134.174C885.006 142.709 904.8 150.77 923.192 156.555L923.363 156.004C905.008 150.22 885.214 142.159 864.283 133.643C822.99 116.782 780.542 99.503 747.621 99.503Z" fill="url(#paint13_linear_339_3881)" fill-opacity="0.2"/>
<path d="M733.113 92.9611C729.647 92.9611 726.313 93.1887 723.112 93.6818C716.615 94.6681 709.928 95.5785 702.844 96.5458C678.712 99.8649 651.379 103.601 624.065 111.169C592.641 119.875 566.369 132.222 543.752 148.913C522.727 164.427 503.312 184.456 484.503 203.802C438.247 251.465 394.548 296.473 329.446 278.948C275.841 264.514 227.729 225.158 181.227 187.092C174.426 181.516 167.38 175.75 160.504 170.25C134.838 149.633 101.918 125.584 74.8308 122.454C71.0614 122.018 67.3678 121.43 63.7878 120.88C52.025 119.021 40.9062 117.276 29.1623 121.013C16.4903 125.053 4.27286 133.929 -7.14902 147.414C-17.5101 159.648 -27.5114 176.016 -36.8686 196.064C-66.0199 258.54 -98.9596 323.576 -152.299 371.979C-193.801 409.647 -266.291 431.932 -324.537 401.643C-394.451 365.303 -411.631 336.606 -429.815 306.241C-433.319 300.399 -436.918 294.368 -440.934 288.279C-457.489 263.148 -461.959 236.273 -466.694 207.842C-468.229 198.586 -469.839 189.027 -471.866 179.506L-472.472 179.638C-470.426 189.141 -468.835 198.7 -467.301 207.956C-462.546 236.462 -458.057 263.395 -441.445 288.621C-437.448 294.69 -433.831 300.721 -430.345 306.563C-421.14 321.945 -412.445 336.473 -397.065 352.064C-388.806 360.428 -379.411 368.318 -368.311 376.152C-355.904 384.914 -341.679 393.449 -324.821 402.193C-311.164 409.286 -296.181 413.8 -280.251 415.602C-265.249 417.309 -249.641 416.588 -233.901 413.478C-203.575 407.484 -174.442 392.899 -151.902 372.434C-128.187 350.907 -106.915 324.828 -86.8748 292.679C-67.3458 261.347 -50.3551 226.391 -36.3382 196.329C-16.7714 154.394 5.33359 129.263 29.3138 121.601C40.9062 117.902 51.9492 119.647 63.6552 121.487C67.2352 122.056 70.9478 122.644 74.7172 123.08C101.652 126.172 134.478 150.183 160.069 170.743C166.926 176.262 173.972 182.028 180.772 187.585C227.331 225.689 275.481 265.083 329.218 279.555C344.959 283.803 359.847 284.543 374.735 281.831C388.032 279.422 401.026 274.282 414.494 266.126C439.497 250.972 461.545 228.288 484.863 204.257C503.634 184.911 523.049 164.92 544.037 149.425C594.725 112.004 654.675 103.791 702.844 97.1716C709.928 96.2043 716.615 95.275 723.131 94.3077C758.154 89.016 810.888 114.412 861.917 138.974C883.567 149.406 904.024 159.249 923.004 166.76L923.231 166.191C904.271 158.68 883.832 148.837 862.182 138.424C815.794 116.024 767.89 92.9611 733.113 92.9611Z" fill="url(#paint14_linear_339_3881)" fill-opacity="0.2"/>
<path d="M719.796 85.9992C718.034 85.9992 716.31 86.0751 714.644 86.2078C710.59 86.5492 706.499 86.8716 702.161 87.213C651.018 91.2908 587.355 96.3549 534.337 137.835C512.952 154.563 493.366 176.47 474.406 197.656C428.908 248.505 385.929 296.529 320.163 279.193C265.8 264.873 217.385 223.659 170.58 183.829C164.765 178.879 158.76 173.758 152.888 168.845C127.715 147.717 95.3624 122.7 68.5409 116.839C64.6389 115.985 60.8126 114.961 57.119 113.994C48.4626 111.699 40.1472 109.48 31.5477 109.48C28.4223 109.48 25.259 109.764 22.0389 110.447C15.1062 111.908 8.34402 114.847 1.90384 119.153C-4.17645 123.212 -10.162 128.655 -15.9014 135.293C-26.2625 147.318 -36.0743 163.497 -45.9051 184.796C-78.2386 254.745 -109.019 316.557 -158.362 364.467C-197.022 402.021 -265.402 428.157 -324.197 396.824C-390.02 361.793 -407.01 333.267 -425.005 303.072C-428.301 297.553 -431.691 291.844 -435.385 286.116C-451.902 260.53 -457.168 233.275 -462.756 204.408C-464.536 195.171 -466.393 185.631 -468.628 176.147L-469.253 176.299C-467.018 185.764 -465.18 195.304 -463.381 204.54C-457.793 233.465 -452.508 260.776 -435.915 286.476C-432.222 292.204 -428.831 297.894 -425.535 303.413C-407.484 333.703 -390.455 362.305 -324.481 397.45C-298.398 411.333 -267.94 414.918 -236.383 407.806C-207.478 401.281 -179.596 386.07 -157.889 364.979C-145.804 353.239 -134.628 340.531 -123.718 326.116C-113.811 313.029 -104.359 298.823 -94.8316 282.721C-76.2687 251.331 -60.1872 217.305 -45.3179 185.119C-24.4441 139.978 -3.00204 116.46 22.1905 111.13C34.1616 108.588 45.2425 111.547 56.9675 114.658C60.6801 115.644 64.5063 116.649 68.4272 117.522C95.1161 123.363 127.374 148.304 152.491 169.395C158.344 174.308 164.367 179.429 170.163 184.379C193.291 204.066 217.196 224.417 242.047 241.544C270.1 260.909 295.596 273.446 320.011 279.876C335.922 284.067 350.905 284.599 365.831 281.507C379.148 278.738 392.123 273.124 405.477 264.323C430.309 247.974 452.982 222.654 474.898 198.168C493.84 177.001 513.425 155.132 534.754 138.423C587.62 97.0378 651.17 91.9926 702.237 87.9337C706.574 87.5923 710.647 87.2699 714.719 86.9285C750.538 83.8939 806.151 114.411 859.927 143.942C882.297 156.233 903.436 167.821 923.041 177.02L923.306 176.432C903.72 167.252 882.6 155.645 860.23 143.373C808.841 115.113 755.823 85.9992 719.796 85.9992Z" fill="url(#paint15_linear_339_3881)" fill-opacity="0.2"/>
<path d="M707.333 78.7553C706.935 78.7553 706.556 78.7553 706.158 78.7743C704.454 78.8122 702.749 78.8501 701.006 78.8691C674.45 79.4002 644.37 79.9882 613.817 86.1523C578.434 93.2838 549.34 106.598 524.924 126.817C503.273 144.74 483.574 168.505 464.538 191.474C419.721 245.548 377.387 296.625 310.844 279.479C255.743 265.273 207.062 222.162 159.973 180.473C155.143 176.187 150.124 171.749 145.256 167.481C120.518 145.783 88.7145 119.799 62.234 111.264C58.2941 109.993 54.4489 108.571 50.7174 107.186C40.3563 103.336 30.4876 99.6755 19.8424 99.6755C18.2134 99.6755 16.5655 99.7703 14.8986 99.941C0.559723 101.515 -12.3775 109.102 -24.6517 123.137C-34.8803 134.84 -44.8058 151.341 -54.9775 173.588C-86.2503 241.906 -115.78 306.412 -164.442 357.033C-201.568 395.63 -267.276 423.056 -323.893 392.103C-385.587 358.361 -402.426 329.93 -420.25 299.849C-423.318 294.69 -426.482 289.342 -429.872 283.974C-446.371 257.914 -452.451 230.242 -458.872 200.957C-460.88 191.758 -462.982 182.256 -465.407 172.811L-466.051 172.981C-463.626 182.408 -461.543 191.91 -459.516 201.09C-453.076 230.45 -446.996 258.179 -430.441 284.334C-427.05 289.683 -423.887 295.032 -420.818 300.19C-402.937 330.366 -386.06 358.854 -324.196 392.691C-298.739 406.612 -269.246 409.874 -238.959 402.117C-211.474 395.08 -184.842 379.243 -163.968 357.527C-152.3 345.388 -141.465 332.225 -130.858 317.317C-121.349 303.927 -112.181 289.342 -102.862 272.765C-85.2463 241.394 -69.5437 207.083 -54.3524 173.911C-44.1996 151.72 -34.312 135.276 -24.1214 123.63C-11.9797 109.728 0.824921 102.217 14.9933 100.662C27.4191 99.2962 38.6326 103.45 50.5091 107.85C54.2406 109.235 58.1047 110.676 62.0635 111.947C88.4304 120.444 120.158 146.371 144.839 168.031C149.707 172.299 154.727 176.737 159.557 181.023C182.779 201.583 206.778 222.826 231.838 240.692C260.175 260.892 285.974 273.808 310.712 280.181C326.812 284.334 341.928 284.638 356.892 281.148C370.245 278.019 383.202 271.911 396.499 262.447C421.199 244.884 443.493 217.97 465.068 191.948C484.085 168.998 503.766 145.271 525.359 127.386C580.196 81.9986 647.193 80.6709 701.025 79.5898C702.768 79.5519 704.472 79.514 706.177 79.495C706.556 79.495 706.954 79.4761 707.333 79.4761C743.985 79.4761 801.833 114.792 857.768 148.951C880.877 163.062 902.679 176.376 922.927 187.225L923.25 186.637C903.02 175.807 881.218 162.493 858.128 148.382C802.098 114.128 744.174 78.7553 707.333 78.7553Z" fill="url(#paint16_linear_339_3881)" fill-opacity="0.2"/>
<path d="M661.302 70.3705C644.16 70.3705 625.805 71.2619 607.356 74.3156C570.533 80.4038 540.473 93.984 515.508 115.796C493.649 134.895 473.931 160.481 454.856 185.213C433.622 212.753 411.669 241.241 387.158 259.98C359.769 280.919 331.773 287.386 301.542 279.762C245.702 265.689 196.775 220.605 149.44 177.001C145.557 173.416 141.541 169.718 137.62 166.133C120.913 150.846 107.522 139.428 95.4936 130.229C80.2834 118.603 67.3462 110.58 55.9243 105.705C54.8068 105.231 53.6892 104.757 52.5717 104.283C37.6455 97.8911 23.534 91.8597 7.7934 89.4699C5.91815 89.1854 4.04291 89.0337 2.20557 89.0337C-10.2581 89.0337 -21.9073 95.5961 -33.2344 108.968C-45.8496 123.837 -56.3434 145.327 -64.0716 162.397C-65.9279 166.474 -67.7652 170.533 -69.5836 174.592C-98.8675 239.344 -126.522 300.53 -170.562 349.597C-207.309 390.546 -268.889 418.104 -323.592 387.341C-381.194 354.946 -397.882 326.571 -415.573 296.528C-418.396 291.749 -421.313 286.78 -424.381 281.829C-440.861 255.295 -447.755 227.186 -455.029 197.428C-457.264 188.286 -459.575 178.841 -462.189 169.471L-462.871 169.661C-460.257 179.011 -457.946 188.457 -455.711 197.599C-448.418 227.414 -441.505 255.561 -424.968 282.19C-421.9 287.14 -418.983 292.09 -416.161 296.87C-398.431 327.008 -381.687 355.458 -323.933 387.947C-299.082 401.926 -270.593 404.866 -241.556 396.444C-215.511 388.896 -190.11 372.433 -170.051 350.052C-125.935 300.891 -98.2614 239.685 -68.9585 174.858C-67.1212 170.799 -65.2838 166.74 -63.4465 162.662C-55.7372 145.649 -45.2624 124.217 -32.704 109.404C-19.8616 94.2495 -6.65918 87.9526 7.67972 90.1337C23.3256 92.5235 37.3804 98.5359 52.2875 104.909C53.4051 105.383 54.5037 105.857 55.6402 106.331C81.382 117.313 111.291 142.975 137.128 166.626C141.049 170.211 145.064 173.909 148.947 177.494C172.227 198.945 196.302 221.136 221.57 239.723C250.191 260.795 276.273 274.091 301.333 280.407C309.592 282.493 317.775 283.536 325.655 283.555C325.674 283.555 325.693 283.555 325.711 283.555C333.212 283.555 340.694 282.607 347.949 280.729C361.36 277.239 374.335 270.639 387.575 260.511C412.161 241.715 434.153 213.189 455.406 185.612C474.461 160.898 494.16 135.331 515.962 116.289C572.579 66.8427 644.861 69.8205 697.632 72.0016C734.986 73.5379 796.3 114.43 855.607 153.994C879.454 169.888 901.957 184.91 922.85 197.371L923.21 196.764C902.355 184.303 879.833 169.3 856.004 153.406C796.622 113.804 735.213 72.8551 697.67 71.2999C686.552 70.8636 674.277 70.3705 661.302 70.3705Z" fill="url(#paint17_linear_339_3881)" fill-opacity="0.2"/>
<path d="M635.314 60.5848C623.04 60.5848 610.481 61.2676 597.904 63.0505C580.743 65.4782 564.775 69.8405 550.455 76.0047C534.127 83.0413 519.201 92.7143 506.093 104.758C484.083 124.995 464.384 152.383 445.347 178.88C424.417 207.993 402.747 238.093 378.331 258.084C351.036 280.408 322.87 287.596 292.241 280.047C235.662 266.107 186.508 218.956 138.984 173.379C135.972 170.496 132.979 167.613 130.005 164.768C104.396 140.301 74.8091 113.502 49.6355 100.149C48.2149 99.3905 46.8132 98.6508 45.4115 97.8922C30.5233 89.9451 16.4496 82.4533 0.671112 78.9635C-7.20865 77.2185 -14.9179 78.0341 -22.2484 81.3912C-28.9538 84.4638 -35.3182 89.5279 -41.7205 96.9059C-54.6388 111.776 -65.284 133.72 -73.1259 151.188C-76.8005 159.363 -80.4563 167.632 -84.0173 175.617C-111.142 236.747 -136.751 294.481 -176.642 342.163C-209.222 381.12 -267.184 415.09 -323.251 382.6C-376.762 351.608 -393.336 323.196 -410.895 293.096C-413.452 288.734 -416.085 284.201 -418.831 279.706C-435.311 252.622 -443.039 224.058 -451.203 193.825C-453.646 184.759 -456.185 175.39 -458.95 166.134L-459.651 166.343C-456.885 175.598 -454.347 184.968 -451.904 194.015C-443.721 224.305 -435.993 252.906 -419.457 280.066C-416.71 284.58 -414.077 289.095 -411.539 293.457C-393.923 323.633 -377.292 352.121 -323.63 383.226C-311.072 390.49 -297.661 394.739 -283.758 395.839C-270.821 396.863 -257.486 395.175 -244.132 390.812C-219.527 382.771 -195.357 365.663 -176.093 342.637C-136.145 294.879 -110.498 237.107 -83.3544 175.921C-79.8123 167.936 -76.1376 159.666 -72.4629 151.492C-64.64 134.08 -54.0136 112.193 -41.1711 97.399C-27.9877 82.2068 -14.3497 76.422 0.500641 79.7032C16.1655 83.1741 30.2013 90.6469 45.0516 98.556C46.4533 99.2957 47.855 100.054 49.2756 100.813C74.3734 114.128 103.904 140.889 129.475 165.318C132.449 168.163 135.442 171.027 138.453 173.91C161.79 196.291 185.921 219.43 211.379 238.814C240.265 260.796 266.651 274.509 292.033 280.768C300.405 282.836 308.683 283.822 316.638 283.708C324.234 283.594 331.792 282.494 339.103 280.408C352.59 276.558 365.565 269.445 378.767 258.653C403.278 238.624 424.947 208.467 445.915 179.316C464.952 152.857 484.613 125.508 506.567 105.308C560.058 56.0898 628.836 58.5175 689.108 64.6437C727.2 68.5129 791.375 114.64 853.428 159.23C878.014 176.907 901.237 193.579 922.755 207.652L923.152 207.026C901.635 192.972 878.431 176.281 853.845 158.623C791.716 113.976 727.465 67.7921 689.165 63.904C672.572 62.197 654.275 60.5848 635.314 60.5848Z" fill="url(#paint18_linear_339_3881)" fill-opacity="0.2"/>
<path d="M615.256 50.2855C606.354 50.2855 597.375 50.7218 588.435 51.7839C571.217 53.8134 555.192 57.986 540.815 64.188C524.507 71.2247 509.656 81.1632 496.681 93.7191C474.576 115.094 454.934 144.265 435.954 172.468C415.289 203.175 393.903 234.925 369.544 256.149C342.306 279.895 313.969 287.785 282.924 280.313C225.587 266.505 174.028 215.011 128.53 169.567C126.465 167.499 124.4 165.451 122.355 163.402C97.4083 138.537 68.6736 110.675 43.3107 94.5726C41.8521 93.6432 40.3936 92.7139 38.9541 91.8035C23.8575 82.1684 9.61328 73.0645 -6.48718 68.4745C-14.6511 66.1416 -22.6066 66.5209 -30.1644 69.6315C-36.9834 72.4196 -43.7266 77.5405 -50.2047 84.8427C-63.4449 99.7504 -74.2607 122.15 -82.1973 139.979C-87.501 151.89 -92.71 163.933 -97.7674 175.598C-122.884 233.56 -146.599 288.316 -182.721 334.709C-213.88 374.634 -269.285 409.911 -322.947 377.801C-372.385 348.232 -388.883 319.687 -406.366 289.454C-408.62 285.566 -410.95 281.526 -413.337 277.524C-429.797 249.909 -438.378 220.852 -447.451 190.088C-450.084 181.155 -452.811 171.899 -455.747 162.777L-456.467 163.004C-453.55 172.127 -450.822 181.364 -448.189 190.297C-439.097 221.099 -430.517 250.194 -414 277.904C-411.613 281.906 -409.283 285.927 -407.029 289.834C-389.508 320.142 -372.953 348.782 -323.345 378.446C-311.089 385.786 -298.076 389.977 -284.665 390.888C-272.24 391.741 -259.473 389.807 -246.725 385.122C-234.83 380.741 -223.067 374.046 -211.816 365.188C-201.113 356.767 -191.131 346.658 -182.153 335.145C-165.674 313.978 -150.785 289.967 -135.348 259.563C-121.71 232.725 -109.758 205.11 -97.0855 175.863C-92.028 164.199 -86.8191 152.155 -81.5154 140.244C-73.5977 122.453 -62.8199 100.13 -49.6554 85.2979C-36.112 70.0488 -22.0762 64.776 -6.71448 69.1573C9.27234 73.7283 23.4787 82.7943 38.5184 92.3914C39.958 93.3208 41.4165 94.2502 42.875 95.1606C68.1812 111.225 96.8779 139.049 121.786 163.896C123.832 165.944 125.897 167.992 127.961 170.06C151.316 193.389 175.486 217.514 201.152 237.714C230.303 260.644 256.974 274.812 282.715 280.995C291.201 283.044 299.573 283.954 307.624 283.727C315.295 283.518 322.91 282.247 330.278 279.971C343.84 275.761 356.853 268.136 370.018 256.661C394.453 235.362 415.857 203.574 436.56 172.829C455.521 144.663 475.144 115.531 497.193 94.2122C548.998 44.1214 615.957 46.7957 680.587 57.1514C719.417 63.3725 786.452 114.734 851.252 164.408C876.577 183.829 900.519 202.151 922.681 217.799L923.116 217.173C900.955 201.544 877.031 183.204 851.706 163.801C786.812 114.07 719.72 62.6518 680.681 56.3928C660.792 53.2633 638.29 50.2855 615.256 50.2855Z" fill="url(#paint19_linear_339_3881)" fill-opacity="0.2"/>
<path d="M598.075 39.6461C591.729 39.6461 585.346 39.9117 578.982 40.5186C561.688 42.1497 545.606 46.1327 531.192 52.3727C514.902 59.4283 500.127 69.6323 487.247 82.6814C465.085 105.157 445.556 136.072 426.652 165.983C406.233 198.283 385.132 231.683 360.811 254.196C333.61 279.365 305.084 287.995 273.603 280.598C215.509 266.923 163.779 213.096 118.129 165.603L114.701 162.038C87.3868 133.645 60.8684 106.674 36.9829 88.9973C35.638 88.011 34.2932 87.0058 32.9673 86.0195C17.5297 74.5637 2.96356 63.7337 -13.6483 57.9679C-22.0774 55.047 -30.2792 54.9901 -38.0832 57.8351C-45.1106 60.3956 -52.0432 65.4028 -58.6918 72.7429C-72.292 87.7075 -83.2592 110.543 -91.2905 128.751C-98.0527 144.095 -104.625 159.705 -110.971 174.802C-134.194 229.976 -156.128 282.096 -188.84 327.256C-219.962 370.196 -271.445 404.791 -322.626 373.06C-368.01 344.933 -384.49 316.122 -401.916 285.624C-403.829 282.286 -405.799 278.815 -407.807 275.401C-424.286 247.16 -433.757 217.553 -443.777 186.22C-446.581 177.458 -449.479 168.391 -452.509 159.458L-453.267 159.724C-450.236 168.657 -447.338 177.723 -444.535 186.467C-434.496 217.837 -425.025 247.482 -408.508 275.799C-406.5 279.232 -404.53 282.684 -402.617 286.022C-385.134 316.616 -368.616 345.502 -323.043 373.743C-311.072 381.159 -298.475 385.294 -285.595 386.052C-273.68 386.754 -261.501 384.554 -249.359 379.528C-238.108 374.881 -226.97 367.844 -216.268 358.608C-206.21 349.94 -196.777 339.546 -188.196 327.711C-173.479 307.398 -159.519 283.557 -145.502 254.803C-132.962 229.104 -121.427 201.659 -110.251 175.106C-103.906 160.008 -97.3329 144.399 -90.5707 129.055C-82.5584 110.904 -71.6479 88.1437 -58.1235 73.2739C-44.2203 57.9679 -29.7678 53.2073 -13.9325 58.7076C2.5658 64.4355 17.0941 75.2275 32.4748 86.6454C33.8196 87.6316 35.1455 88.6369 36.5093 89.6232C60.357 107.262 86.8375 134.195 114.133 162.569L117.561 166.134C140.935 190.45 165.105 215.599 190.979 236.671C220.396 260.607 247.369 275.23 273.433 281.357C282.032 283.386 290.537 284.24 298.663 283.898C306.41 283.576 314.1 282.153 321.507 279.669C335.164 275.098 348.196 266.942 361.36 254.784C385.757 232.214 406.896 198.757 427.334 166.419C446.2 136.566 465.729 105.688 487.815 83.2504C540.359 29.9352 610.444 36.4218 672.061 49.7933C711.631 58.3852 781.507 115.019 849.091 169.776C875.173 190.924 899.817 210.877 922.623 228.079L923.096 227.435C900.29 210.251 875.666 190.279 849.583 169.15C781.942 114.318 711.99 57.6265 672.232 49.0156C651.301 44.4637 625.067 39.6461 598.075 39.6461Z" fill="url(#paint20_linear_339_3881)" fill-opacity="0.2"/>
<path d="M582.6 28.7964C545.493 28.7964 508.348 39.1901 477.833 71.642C455.652 95.2175 436.237 127.859 417.466 159.419C397.293 193.332 376.438 228.42 352.136 252.204C324.954 278.814 296.22 288.184 264.284 280.844C205.413 267.32 153.532 211.047 107.749 161.392L104.529 157.902C79.7346 131.007 54.0875 103.202 30.6566 83.4202C29.5201 82.4719 28.4025 81.5236 27.2849 80.5563C11.4307 67.1279 -3.55222 54.4392 -20.8081 47.4406C-25.9603 45.3542 -30.8662 44.387 -35.5448 44.387C-64.1279 44.387 -84.225 80.5563 -100.363 117.503C-108.47 136.072 -116.218 155.076 -123.7 173.455C-145.142 226.106 -165.371 275.817 -194.939 319.763C-206.854 337.478 -226.496 361.129 -252.352 373.135C-276.408 384.306 -299.952 382.675 -322.304 368.261C-363.691 341.613 -380.19 312.385 -397.654 281.432C-399.169 278.757 -400.722 275.988 -402.295 273.238C-418.831 244.276 -429.23 214.043 -440.235 182.047C-443.152 173.55 -446.183 164.768 -449.289 156.1L-450.066 156.385C-446.959 165.034 -443.929 173.815 -441.012 182.312C-429.987 214.366 -419.588 244.617 -403.014 273.655C-401.461 276.386 -399.889 279.156 -398.374 281.83C-380.853 312.878 -364.298 342.201 -322.758 368.981C-311.09 376.492 -298.911 380.608 -286.542 381.177C-275.158 381.708 -263.527 379.261 -251.992 373.913C-241.385 368.981 -230.853 361.603 -220.719 352.006C-211.305 343.092 -202.402 332.395 -194.22 320.256C-180.923 300.493 -168.213 277.468 -155.332 249.871C-143.835 225.215 -133.189 199.079 -122.904 173.796C-115.422 155.417 -107.675 136.413 -99.5868 117.864C-80.9671 75.2267 -57.0815 33.6329 -21.0923 48.2372C-3.94998 55.1979 10.9761 67.8297 26.7735 81.2201C27.8911 82.1685 29.0276 83.1357 30.1451 84.084C53.5382 103.828 79.1663 131.614 103.942 158.49L107.162 161.98C130.536 187.319 154.687 213.531 180.751 235.494C210.433 260.511 237.709 275.609 264.113 281.678C272.846 283.689 281.445 284.466 289.685 284.011C297.527 283.575 305.293 281.982 312.756 279.307C326.507 274.357 339.596 265.689 352.742 252.811C377.12 228.951 397.994 193.825 418.204 159.856C436.957 128.333 456.334 95.7296 478.458 72.2299C531.703 15.6146 605.349 26.5394 663.557 42.3955C703.846 53.3582 776.582 115.284 846.932 175.181C873.753 198.016 899.097 219.6 922.566 238.32L923.077 237.676C899.627 218.956 874.284 197.391 847.462 174.555C777.056 114.601 704.244 52.6184 663.765 41.5988C638.629 34.7329 610.615 28.7964 582.6 28.7964Z" fill="url(#paint21_linear_339_3881)" fill-opacity="0.2"/>
<path d="M568.072 17.8512C565.401 17.8512 562.73 17.9081 560.06 18.0409C542.614 18.8754 526.419 22.4791 511.948 28.776C495.677 35.8505 481.035 46.5667 468.42 60.6209C446.258 85.2775 426.994 119.607 408.374 152.818C388.429 188.361 367.801 225.137 343.537 250.23C316.374 278.301 287.412 288.429 255.003 281.165C195.355 267.793 142.186 207.65 99.4534 159.323C95.665 155.037 91.8388 150.693 88.1262 146.464C66.9114 122.357 44.977 97.4351 24.3683 77.8805C23.5349 77.0839 22.7014 76.2874 21.8491 75.4908C6.22214 60.6399 -9.93515 45.2769 -27.9487 36.9695C-37.95 32.3607 -47.6861 31.7917 -56.8728 35.3195C-67.0824 39.2266 -76.7048 47.9891 -86.2893 62.0813C-93.7523 73.063 -101.102 87.1172 -109.417 106.33C-118.774 127.952 -127.525 150.257 -135.992 171.86C-154.858 219.94 -174.368 269.652 -201 312.384C-222.556 346.96 -248.165 368.942 -273.112 374.272C-289.724 377.818 -306.146 374.215 -321.962 363.575C-359.429 338.292 -376.06 308.382 -393.657 276.707C-394.699 274.849 -395.74 272.971 -396.782 271.093C-413.432 241.278 -425.365 208.807 -436.901 177.417C-439.875 169.338 -442.943 160.992 -446.069 152.761L-446.864 153.064C-443.739 161.277 -440.67 169.641 -437.715 177.721C-426.161 209.148 -414.209 241.638 -397.54 271.511C-396.498 273.388 -395.456 275.247 -394.415 277.125C-385.531 293.114 -377.14 308.211 -366.04 322.91C-353.463 339.563 -339.616 352.707 -322.493 364.238C-306.487 375.03 -289.818 378.672 -272.979 375.068C-259.625 372.204 -246.233 364.826 -233.182 353.124C-221.552 342.673 -210.49 329.112 -200.319 312.801C-188.347 293.588 -176.793 271.359 -165.011 244.844C-154.499 221.173 -144.706 196.251 -135.254 172.126C-126.787 150.542 -118.036 128.237 -108.678 106.634C-96.461 78.3926 -79.4892 44.8407 -56.6076 36.0971C-47.6482 32.6641 -38.1394 33.2142 -28.3465 37.7282C-10.4466 45.9787 5.65387 61.2848 21.224 76.0977C22.0574 76.8943 22.8909 77.6908 23.7433 78.4874C44.314 98.023 65.2635 121.826 87.4443 147.014C91.1569 151.224 95.0021 155.587 98.7715 159.873C119.361 183.164 144.989 212.145 171.64 235.209C201.152 260.738 228.333 276.044 254.776 281.98C263.64 283.972 272.372 284.692 280.688 284.104C288.625 283.554 296.466 281.809 303.986 278.908C317.852 273.578 330.978 264.379 344.105 250.799C368.464 225.63 389.11 188.816 409.075 153.216C427.676 120.062 446.921 85.7706 469.026 61.1899C522.385 1.8244 596.428 15.9925 654.977 34.9591C695.986 48.4064 771.639 115.662 844.83 180.717C872.371 205.184 898.378 228.305 922.453 248.542L923.002 247.878C898.927 227.66 872.939 204.559 845.398 180.073C772.15 114.96 696.421 47.6478 655.242 34.1436C633.232 26.9931 600.974 17.8512 568.072 17.8512Z" fill="url(#paint22_linear_339_3881)" fill-opacity="0.2"/>
<path d="M554.472 6.72064C553.184 6.72064 551.896 6.73962 550.608 6.75858C533.068 7.19479 516.835 10.6278 502.345 16.9626C486.093 24.0561 471.507 35.0378 459.006 49.5662C436.882 75.2849 417.789 111.284 399.32 146.087C379.602 183.281 359.202 221.745 334.937 248.147C307.775 277.716 278.567 288.583 245.684 281.376C185.317 268.175 131.276 204.429 91.8202 157.903C85.2095 150.108 78.5421 142.142 72.1019 134.423C53.4632 112.099 35.8473 91.0273 18.0421 72.2693L16.5647 70.714C0.445251 53.7199 -16.2235 36.1378 -35.1084 26.4269C-45.5453 21.0594 -55.6981 20.0921 -65.2826 23.563C-75.6816 27.3184 -85.4745 36.062 -95.1916 50.3059C-102.825 61.4773 -110.231 75.6832 -118.509 95.0482C-129.173 119.819 -138.928 145.689 -148.342 170.706C-165.56 216.397 -183.347 263.623 -207.118 304.857C-222.007 330.689 -246.119 362.857 -276.426 369.514C-291.655 372.852 -306.866 369.229 -321.659 358.741C-355.3 334.919 -372.991 302.486 -390.096 271.096L-391.27 268.953C-408.147 237.999 -421.293 204.41 -433.984 171.939C-436.863 164.561 -439.856 156.936 -442.848 149.425L-443.663 149.748C-440.67 157.259 -437.696 164.883 -434.798 172.242C-422.088 204.751 -408.943 238.36 -392.028 269.37L-390.853 271.513C-382.273 287.256 -373.408 303.529 -362.649 318.513C-350.583 335.317 -337.343 348.727 -322.171 359.481C-307.169 370.121 -291.712 373.8 -276.218 370.405C-263.337 367.579 -250.419 359.879 -237.823 347.494C-226.818 336.664 -216.21 322.477 -206.323 305.331C-182.513 264.022 -164.708 216.757 -147.49 171.047C-138.076 146.049 -128.321 120.198 -117.676 95.4275C-109.417 76.1195 -102.049 61.9514 -94.4529 50.837C-84.8305 36.7638 -75.1892 28.115 -64.9606 24.4355C-55.6034 21.0594 -45.6968 22.0078 -35.4872 27.2615C-16.7349 36.8965 -0.123016 54.4217 15.9396 71.3589L17.4171 72.9141C35.1844 91.6531 52.8002 112.725 71.4389 135.03C77.8791 142.749 84.5465 150.734 91.1572 158.529C114.645 186.24 137.83 212.964 162.984 235.268C192.155 261.139 219.147 276.521 245.513 282.287C254.53 284.259 263.357 284.904 271.786 284.202C279.817 283.538 287.735 281.623 295.311 278.512C309.29 272.784 322.474 263.073 335.6 248.773C359.94 222.276 380.379 183.774 400.116 146.524C418.546 111.758 437.621 75.797 459.688 50.1542C513.861 -12.796 592.242 7.08099 646.491 27.527C688.201 43.3641 766.752 115.968 842.709 186.183C870.989 212.319 897.697 237.013 922.416 258.749L923.003 258.085C898.284 236.368 871.576 211.674 843.315 185.538C767.302 115.267 688.693 42.5865 646.813 26.7114C629.709 20.2628 614.404 15.5401 600.027 12.2779C583.832 8.57938 568.546 6.72064 554.472 6.72064Z" fill="url(#paint23_linear_339_3881)" fill-opacity="0.2"/>
<path d="M541.536 -4.50916C541.403 -4.50916 541.289 -4.50916 541.176 -4.50916C523.56 -4.47123 507.27 -1.20899 492.742 5.14482C476.49 12.2573 461.98 23.5045 449.573 38.5261C427.506 65.2879 408.621 102.918 390.343 139.296C370.833 178.12 350.66 218.292 326.395 246.021C299.214 277.088 269.779 288.734 236.384 281.678C179.976 269.558 130.273 213.228 84.1874 156.574C75.0386 145.327 65.8518 133.701 56.9871 122.453C42.1936 103.695 26.8697 84.2925 11.7163 66.7294L11.3943 66.3501C-5.2365 47.08 -22.4356 27.1461 -42.2676 15.9558C-53.1023 9.84854 -63.6528 8.46401 -73.6162 11.859C-84.2046 15.4627 -94.149 24.2063 -104.037 38.602C-111.803 49.925 -119.285 64.3017 -127.581 83.8563C-139.287 111.358 -149.762 140.377 -159.877 168.447C-175.636 212.184 -191.945 257.401 -213.217 297.42C-222.782 315.42 -232.878 330.214 -243.183 341.347C-255.192 354.301 -267.466 362.248 -279.664 364.96C-293.568 368.052 -307.585 364.353 -321.336 353.998C-351.34 331.371 -369.619 297.079 -385.738 266.808C-403.165 234.091 -417.806 198.718 -431.975 164.502C-434.475 158.471 -437.051 152.231 -439.627 146.086L-440.48 146.446C-437.923 152.591 -435.328 158.831 -432.827 164.863C-418.659 199.097 -403.998 234.489 -386.553 267.244C-377.328 284.561 -368.88 300.095 -358.784 314.794C-347.173 331.731 -335.107 344.799 -321.904 354.737C-307.925 365.264 -293.662 369.019 -279.494 365.871C-267.106 363.121 -254.661 355.079 -242.539 341.992C-232.177 330.802 -222.044 315.951 -212.44 297.875C-191.131 257.799 -174.822 212.545 -159.043 168.77C-148.929 140.699 -138.473 111.699 -126.767 84.2166C-118.489 64.719 -111.045 50.3802 -103.298 39.133C-93.5429 24.908 -83.7311 16.2782 -73.351 12.7505C-63.6339 9.4313 -53.3296 10.7969 -42.7411 16.7714C-23.0417 27.8858 -5.89947 47.7628 10.6745 66.976L10.9965 67.3553C26.131 84.8994 41.4359 104.302 56.2294 123.041C65.0942 134.288 74.2809 145.915 83.4298 157.181C104.228 182.748 128.549 211.976 154.234 235.305C183.082 261.498 209.866 276.974 236.138 282.607C245.287 284.542 254.265 285.111 262.789 284.276C270.915 283.48 278.927 281.393 286.561 278.074C300.654 271.948 313.894 261.687 327.039 246.666C351.38 218.842 371.59 178.632 391.119 139.751C409.379 103.411 428.245 65.838 450.236 39.152C473.592 10.8159 503.747 -3.31426 541.327 -3.31426C569.304 -3.31426 601.391 4.51895 637.892 20.1474C680.322 38.3743 761.733 116.346 840.474 191.757C869.493 219.543 896.902 245.793 922.265 269.008L922.89 268.326C897.527 245.129 870.137 218.88 841.118 191.093C762.321 115.625 680.833 37.5967 638.252 19.2939C600.975 3.26715 569.304 -4.50916 541.536 -4.50916Z" fill="url(#paint24_linear_339_3881)" fill-opacity="0.2"/>
<path d="M529.053 -15.7925C512.384 -15.7925 496.947 -12.7199 483.138 -6.65063C466.905 0.480835 452.434 11.9746 440.16 27.5083C418.187 55.2943 399.473 94.5552 381.402 132.507C362.101 173.02 342.136 214.936 317.853 244.012C290.653 276.597 260.952 289.001 227.065 281.945C170.164 270.11 121.503 212.85 76.5541 155.191C65.2837 140.739 54.0513 125.622 43.2166 111.018C30.9424 94.4793 18.2514 77.3904 5.40891 61.155C-10.5211 41.0314 -28.5536 18.1956 -49.4084 5.45007C-60.6409 -1.41583 -71.5892 -3.21768 -81.9503 0.120453C-87.5192 1.92227 -93.0691 5.24142 -98.4107 10.021C-103.26 14.3643 -108.128 20.0354 -112.863 26.8824C-120.667 38.1865 -128.452 53.1511 -136.654 72.6298C-149.383 102.825 -160.483 135.125 -171.204 166.363C-185.562 208.127 -200.393 251.314 -219.297 289.987C-228.597 308.992 -238.22 324.487 -247.899 336C-259.434 349.713 -271.216 357.982 -282.922 360.562C-295.556 363.35 -308.361 359.538 -321.014 349.258C-345.411 329.4 -364.372 295.184 -380.226 264.667C-399.13 228.27 -416.234 189.009 -432.789 151.038C-434.001 148.269 -435.195 145.5 -436.407 142.73L-437.278 143.11C-436.066 145.879 -434.873 148.648 -433.66 151.417C-417.105 189.407 -400.001 228.668 -381.078 265.103C-365.186 295.696 -346.169 330.026 -321.639 349.998C-308.759 360.467 -295.67 364.336 -282.752 361.491C-270.837 358.874 -258.885 350.491 -247.217 336.607C-237.481 325.037 -227.821 309.485 -218.482 290.404C-199.541 251.675 -184.69 208.45 -170.332 166.666C-159.611 135.447 -148.512 103.166 -135.802 73.0091C-124.399 45.9248 -106.366 8.99683 -81.6852 1.03085C-71.6082 -2.21243 -60.925 -0.467499 -49.9199 6.26566C-29.2165 18.9354 -11.222 41.6763 4.65125 61.743C17.4748 77.9594 30.1657 95.0483 42.44 111.587C53.2936 126.21 64.5071 141.327 75.7964 155.779C95.9315 181.593 119.59 211.162 145.578 235.325C174.104 261.879 200.698 277.412 226.876 282.856C236.176 284.79 245.249 285.283 253.887 284.335C262.107 283.425 270.195 281.187 277.924 277.659C292.13 271.153 305.427 260.342 318.573 244.6C342.932 215.429 362.915 173.475 382.255 132.906C400.325 94.9915 419.002 55.7875 440.898 28.0773C481.661 -23.474 543.316 -28.5002 629.425 12.6574C672.575 33.2931 756.884 116.651 838.41 197.278C868.167 226.696 896.258 254.482 922.265 279.157L922.909 278.474C896.921 253.818 868.83 226.032 839.073 196.615C757.49 115.931 673.124 32.5154 629.842 11.8039C592.167 -6.21439 560.08 -15.2425 531.743 -15.7925C530.834 -15.7925 529.943 -15.7925 529.053 -15.7925Z" fill="url(#paint25_linear_339_3881)" fill-opacity="0.2"/>
</g>
</g>
<defs>
<linearGradient id="paint0_linear_339_3881" x1="197.408" y1="492.609" x2="197.408" y2="23.3531" gradientUnits="userSpaceOnUse">
<stop stop-color="#07122F" stop-opacity="0.3"/>
<stop offset="1" stop-color="#050D20" stop-opacity="0.3"/>
</linearGradient>
<linearGradient id="paint1_linear_339_3881" x1="199.912" y1="486.859" x2="199.912" y2="33.5574" gradientUnits="userSpaceOnUse">
<stop stop-color="#07122F" stop-opacity="0.3"/>
<stop offset="1" stop-color="#050D20" stop-opacity="0.3"/>
</linearGradient>
<linearGradient id="paint2_linear_339_3881" x1="202.373" y1="481.197" x2="202.373" y2="43.7632" gradientUnits="userSpaceOnUse">
<stop stop-color="#07122F" stop-opacity="0.3"/>
<stop offset="1" stop-color="#050D20" stop-opacity="0.3"/>
</linearGradient>
<linearGradient id="paint3_linear_339_3881" x1="204.815" y1="475.576" x2="204.815" y2="53.9674" gradientUnits="userSpaceOnUse">
<stop stop-color="#07122F" stop-opacity="0.3"/>
<stop offset="1" stop-color="#050D20" stop-opacity="0.3"/>
</linearGradient>
<linearGradient id="paint4_linear_339_3881" x1="207.25" y1="470.01" x2="207.25" y2="64.1501" gradientUnits="userSpaceOnUse">
<stop stop-color="#07122F" stop-opacity="0.3"/>
<stop offset="1" stop-color="#050D20" stop-opacity="0.3"/>
</linearGradient>
<linearGradient id="paint5_linear_339_3881" x1="209.59" y1="464.41" x2="209.59" y2="74.3547" gradientUnits="userSpaceOnUse">
<stop stop-color="#07122F" stop-opacity="0.3"/>
<stop offset="1" stop-color="#050D20" stop-opacity="0.3"/>
</linearGradient>
<linearGradient id="paint6_linear_339_3881" x1="211.936" y1="458.934" x2="211.936" y2="84.5397" gradientUnits="userSpaceOnUse">
<stop stop-color="#07122F" stop-opacity="0.3"/>
<stop offset="1" stop-color="#050D20" stop-opacity="0.3"/>
</linearGradient>
<linearGradient id="paint7_linear_339_3881" x1="214.165" y1="453.561" x2="214.165" y2="94.7238" gradientUnits="userSpaceOnUse">
<stop stop-color="#07122F" stop-opacity="0.3"/>
<stop offset="1" stop-color="#050D20" stop-opacity="0.3"/>
</linearGradient>
<linearGradient id="paint8_linear_339_3881" x1="215.946" y1="448.133" x2="215.946" y2="104.93" gradientUnits="userSpaceOnUse">
<stop stop-color="#07122F" stop-opacity="0.3"/>
<stop offset="1" stop-color="#050D20" stop-opacity="0.3"/>
</linearGradient>
<linearGradient id="paint9_linear_339_3881" x1="217.526" y1="442.709" x2="217.526" y2="115.114" gradientUnits="userSpaceOnUse">
<stop stop-color="#07122F" stop-opacity="0.3"/>
<stop offset="1" stop-color="#050D20" stop-opacity="0.3"/>
</linearGradient>
<linearGradient id="paint10_linear_339_3881" x1="219.1" y1="437.422" x2="219.1" y2="114.676" gradientUnits="userSpaceOnUse">
<stop stop-color="#07122F" stop-opacity="0.3"/>
<stop offset="1" stop-color="#050D20" stop-opacity="0.3"/>
</linearGradient>
<linearGradient id="paint11_linear_339_3881" x1="220.68" y1="432.184" x2="220.68" y2="110.714" gradientUnits="userSpaceOnUse">
<stop stop-color="#07122F" stop-opacity="0.3"/>
<stop offset="1" stop-color="#050D20" stop-opacity="0.3"/>
</linearGradient>
<linearGradient id="paint12_linear_339_3881" x1="222.223" y1="426.932" x2="222.223" y2="105.516" gradientUnits="userSpaceOnUse">
<stop stop-color="#07122F" stop-opacity="0.3"/>
<stop offset="1" stop-color="#050D20" stop-opacity="0.3"/>
</linearGradient>
<linearGradient id="paint13_linear_339_3881" x1="223.863" y1="421.727" x2="223.863" y2="99.503" gradientUnits="userSpaceOnUse">
<stop stop-color="#07122F" stop-opacity="0.3"/>
<stop offset="1" stop-color="#050D20" stop-opacity="0.3"/>
</linearGradient>
<linearGradient id="paint14_linear_339_3881" x1="225.38" y1="416.504" x2="225.38" y2="92.9611" gradientUnits="userSpaceOnUse">
<stop stop-color="#07122F" stop-opacity="0.3"/>
<stop offset="1" stop-color="#050D20" stop-opacity="0.3"/>
</linearGradient>
<linearGradient id="paint15_linear_339_3881" x1="227.026" y1="411.367" x2="227.026" y2="85.9992" gradientUnits="userSpaceOnUse">
<stop stop-color="#07122F" stop-opacity="0.3"/>
<stop offset="1" stop-color="#050D20" stop-opacity="0.3"/>
</linearGradient>
<linearGradient id="paint16_linear_339_3881" x1="228.599" y1="406.229" x2="228.599" y2="78.7553" gradientUnits="userSpaceOnUse">
<stop stop-color="#07122F" stop-opacity="0.3"/>
<stop offset="1" stop-color="#050D20" stop-opacity="0.3"/>
</linearGradient>
<linearGradient id="paint17_linear_339_3881" x1="230.169" y1="401.143" x2="230.169" y2="70.3705" gradientUnits="userSpaceOnUse">
<stop stop-color="#07122F" stop-opacity="0.3"/>
<stop offset="1" stop-color="#050D20" stop-opacity="0.3"/>
</linearGradient>
<linearGradient id="paint18_linear_339_3881" x1="231.751" y1="396.129" x2="231.751" y2="60.5848" gradientUnits="userSpaceOnUse">
<stop stop-color="#07122F" stop-opacity="0.3"/>
<stop offset="1" stop-color="#050D20" stop-opacity="0.3"/>
</linearGradient>
<linearGradient id="paint19_linear_339_3881" x1="233.325" y1="391.084" x2="233.325" y2="50.2855" gradientUnits="userSpaceOnUse">
<stop stop-color="#07122F" stop-opacity="0.3"/>
<stop offset="1" stop-color="#050D20" stop-opacity="0.3"/>
</linearGradient>
<linearGradient id="paint20_linear_339_3881" x1="234.915" y1="386.18" x2="234.915" y2="39.6461" gradientUnits="userSpaceOnUse">
<stop stop-color="#07122F" stop-opacity="0.3"/>
<stop offset="1" stop-color="#050D20" stop-opacity="0.3"/>
</linearGradient>
<linearGradient id="paint21_linear_339_3881" x1="236.506" y1="381.248" x2="236.506" y2="28.7964" gradientUnits="userSpaceOnUse">
<stop stop-color="#07122F" stop-opacity="0.3"/>
<stop offset="1" stop-color="#050D20" stop-opacity="0.3"/>
</linearGradient>
<linearGradient id="paint22_linear_339_3881" x1="238.069" y1="376.414" x2="238.069" y2="17.8512" gradientUnits="userSpaceOnUse">
<stop stop-color="#07122F" stop-opacity="0.3"/>
<stop offset="1" stop-color="#050D20" stop-opacity="0.3"/>
</linearGradient>
<linearGradient id="paint23_linear_339_3881" x1="239.67" y1="371.629" x2="239.67" y2="6.72064" gradientUnits="userSpaceOnUse">
<stop stop-color="#07122F" stop-opacity="0.3"/>
<stop offset="1" stop-color="#050D20" stop-opacity="0.3"/>
</linearGradient>
<linearGradient id="paint24_linear_339_3881" x1="241.205" y1="366.949" x2="241.205" y2="-4.50916" gradientUnits="userSpaceOnUse">
<stop stop-color="#07122F" stop-opacity="0.3"/>
<stop offset="1" stop-color="#050D20" stop-opacity="0.3"/>
</linearGradient>
<linearGradient id="paint25_linear_339_3881" x1="242.815" y1="362.396" x2="242.815" y2="-15.7925" gradientUnits="userSpaceOnUse">
<stop stop-color="#07122F" stop-opacity="0.3"/>
<stop offset="1" stop-color="#050D20" stop-opacity="0.3"/>
</linearGradient>
</defs>
</svg>
