<svg width="60" height="60" viewBox="0 0 60 60" fill="none" xmlns="http://www.w3.org/2000/svg">
<g clip-path="url(#clip0_676_6970)">
<path d="M19.547 25.6594C19.6865 25.8516 19.8939 25.9837 20.127 26.0289C20.3602 26.0741 20.6019 26.0292 20.8032 25.9031C20.998 25.7633 21.1318 25.5542 21.1771 25.3188C21.2224 25.0834 21.1759 24.8396 21.047 24.6375C20.6748 24.0686 20.1935 23.5792 19.6308 23.1978C19.0682 22.8163 18.4354 22.5502 17.7692 22.4151C17.103 22.2799 16.4166 22.2783 15.7497 22.4104C15.0829 22.5424 14.4489 22.8055 13.8845 23.1844C13.7451 23.3395 13.6615 23.5367 13.6469 23.7448C13.6322 23.9528 13.6873 24.1598 13.8035 24.333C13.9197 24.5062 14.0903 24.6357 14.2883 24.701C14.4864 24.7664 14.7006 24.7638 14.897 24.6937C15.2652 24.4503 15.678 24.2822 16.1115 24.199C16.545 24.1158 16.9907 24.1191 17.4229 24.2089C17.8551 24.2986 18.2653 24.473 18.6299 24.7219C18.9944 24.9709 19.3061 25.2895 19.547 25.6594Z" fill="#615EFC"/>
<path d="M15.6183 38.9554C15.1861 38.8662 14.7758 38.6924 14.4111 38.444C14.0463 38.1957 13.7343 37.8776 13.4929 37.5082C13.2516 37.1387 13.0856 36.7252 13.0047 36.2914C12.9238 35.8576 12.9295 35.412 13.0214 34.9804C12.9954 34.7806 12.9056 34.5945 12.7655 34.4497C12.6254 34.3049 12.4423 34.209 12.2435 34.1764C12.0446 34.1438 11.8406 34.1761 11.6615 34.2686C11.4825 34.3611 11.338 34.5088 11.2495 34.6898C11.1102 35.3556 11.1045 36.0424 11.2327 36.7103C11.3609 37.3783 11.6205 38.0142 11.9964 38.5811C12.3723 39.1479 12.857 39.6345 13.4224 40.0126C13.9878 40.3907 14.6227 40.6527 15.2901 40.7836H15.4683C15.6705 40.7478 15.8553 40.6467 15.9945 40.4957C16.1337 40.3448 16.2194 40.1523 16.2386 39.9479C16.2577 39.7434 16.2093 39.5384 16.1006 39.3642C15.9919 39.1899 15.829 39.0562 15.637 38.9836L15.6183 38.9554Z" fill="#615EFC"/>
<path d="M20.6251 35.0648C20.641 34.9219 20.6239 34.7773 20.575 34.642C20.526 34.5068 20.4467 34.3847 20.343 34.285C20.2393 34.1854 20.1141 34.1109 19.9771 34.0674C19.84 34.0239 19.6948 34.0125 19.5526 34.0341C19.4105 34.0556 19.2752 34.1096 19.1572 34.1919C19.0393 34.2741 18.9418 34.3824 18.8724 34.5083C18.8029 34.6342 18.7634 34.7744 18.7568 34.9181C18.7503 35.0617 18.7768 35.205 18.8345 35.3367C18.9953 36.5681 19.5968 37.6995 20.5275 38.5216C21.4582 39.3437 22.6552 39.8009 23.897 39.8086C24.1478 39.8117 24.3985 39.796 24.647 39.7617C24.8824 39.7203 25.0932 39.5904 25.2361 39.3987C25.379 39.207 25.4432 38.968 25.4157 38.7305C25.3743 38.495 25.2444 38.2842 25.0527 38.1413C24.861 37.9984 24.622 37.9342 24.3845 37.9617C23.5018 38.076 22.6099 37.835 21.9049 37.2918C21.1999 36.7485 20.7395 35.9475 20.6251 35.0648Z" fill="#615EFC"/>
<path d="M56.5782 36.5001C55.8306 36.5019 55.1041 36.7485 54.5098 37.2023C53.9156 37.656 53.4863 38.2919 53.2876 39.0126H50.147L45.3845 33.547C45.2979 33.451 45.1924 33.374 45.0746 33.3208C44.9568 33.2676 44.8293 33.2392 44.7001 33.2376H32.0157V31.4845V26.797H44.7001C44.8293 26.7954 44.9568 26.7671 45.0746 26.7138C45.1924 26.6606 45.2979 26.5836 45.3845 26.4876L50.147 21.022H53.2876C53.5077 21.8229 54.0108 22.5167 54.7036 22.9748C55.3964 23.4329 56.2319 23.6241 57.055 23.5131C57.878 23.402 58.6329 22.9962 59.1795 22.3709C59.7261 21.7455 60.0274 20.9432 60.0274 20.1126C60.0274 19.2821 59.7261 18.4797 59.1795 17.8544C58.6329 17.2291 57.878 16.8232 57.055 16.7122C56.2319 16.6011 55.3964 16.7924 54.7036 17.2505C54.0108 17.7086 53.5077 18.4024 53.2876 19.2033H49.7345C49.6052 19.2049 49.4777 19.2332 49.3599 19.2864C49.2422 19.3397 49.1367 19.4167 49.0501 19.5126L44.2876 24.9783H32.0157V21.5658H43.9032C44.0338 21.5666 44.1629 21.5385 44.2813 21.4834C44.3996 21.4283 44.5043 21.3475 44.5876 21.247L47.9063 17.347C48.0484 17.1833 48.1252 16.9731 48.122 16.7564V13.1283C48.9151 12.9083 49.6017 12.4084 50.0545 11.721C50.5073 11.0337 50.6956 10.2056 50.5846 9.39C50.4737 8.57444 50.0709 7.82674 49.4509 7.2854C48.8309 6.74406 48.0357 6.44576 47.2126 6.44576C46.3895 6.44576 45.5943 6.74406 44.9743 7.2854C44.3543 7.82674 43.9515 8.57444 43.8406 9.39C43.7296 10.2056 43.9179 11.0337 44.3707 11.721C44.8235 12.4084 45.5101 12.9083 46.3032 13.1283V16.447L43.4907 19.747H32.0157V15.397H36.1688C36.3192 15.3978 36.4675 15.3625 36.6013 15.2939C36.7351 15.2254 36.8504 15.1257 36.9376 15.0033L38.1001 13.1283C38.4044 13.2204 38.7198 13.2709 39.0376 13.2783C39.7158 13.2819 40.3799 13.0845 40.946 12.711C41.5121 12.3375 41.9548 11.8045 42.2182 11.1795C42.4816 10.5545 42.5538 9.86549 42.4258 9.19945C42.2978 8.53341 41.9753 7.92025 41.499 7.4374C41.0227 6.95456 40.414 6.6237 39.7497 6.48662C39.0855 6.34954 38.3955 6.41238 37.767 6.66722C37.1385 6.92205 36.5996 7.35743 36.2183 7.91838C35.8371 8.47933 35.6307 9.14067 35.6251 9.81888C35.6289 10.6824 35.9646 11.5115 36.5626 12.1345L35.6251 13.5783H32.0157V6.66888C32.0157 6.62201 32.0157 6.59388 32.0157 6.55638C32.0248 6.49107 32.0248 6.42482 32.0157 6.35951C31.4741 4.80473 30.4599 3.45821 29.1151 2.50843C27.7703 1.55864 26.1621 1.05312 24.5157 1.06263C22.9918 1.07383 21.503 1.52123 20.2254 2.35193C18.9478 3.18263 17.9349 4.36185 17.3063 5.75013C16.1238 5.38132 14.8712 5.29562 13.6495 5.49996C12.4278 5.70431 11.2712 6.19296 10.273 6.92651C9.27491 7.66005 8.46318 8.61794 7.90334 9.7229C7.3435 10.8279 7.05122 12.0489 7.0501 13.2876C7.04561 14.014 7.14666 14.7372 7.3501 15.4345C6.23504 15.792 5.21285 16.3916 4.35673 17.1905C3.50062 17.9894 2.83179 18.9677 2.39814 20.0554C1.9645 21.1431 1.77678 22.3132 1.84843 23.482C1.92008 24.6507 2.24933 25.7892 2.8126 26.8158C1.81416 27.5918 1.03742 28.6169 0.560333 29.788C0.0832484 30.9591 -0.0773954 32.2351 0.0945255 33.488C0.266446 34.7408 0.764883 35.9264 1.53981 36.9257C2.31474 37.925 3.33889 38.703 4.50947 39.1814C3.79284 40.3154 3.37595 41.6129 3.29787 42.9522C3.2198 44.2914 3.4831 45.6285 4.0631 46.8382C4.6431 48.0478 5.52079 49.0904 6.61388 49.8681C7.70696 50.6458 8.97965 51.1332 10.3126 51.2845C10.3597 52.4937 10.7105 53.6717 11.3326 54.7097C11.9546 55.7477 12.828 56.6125 13.8722 57.2242C14.9163 57.8359 16.0976 58.175 17.3073 58.2101C18.5169 58.2452 19.716 57.9753 20.7938 57.4251C22.0602 58.4137 23.6217 58.9486 25.2282 58.9439C26.6879 58.937 28.1117 58.4906 29.314 57.6628C30.5164 56.8351 31.4415 55.6644 31.9688 54.3033C31.9771 54.2316 31.9771 54.1593 31.9688 54.0876C31.9734 54.0503 31.9734 54.0125 31.9688 53.9751V46.4751H35.6251L36.5626 47.9189C35.9646 48.5419 35.6289 49.3709 35.6251 50.2345C35.6232 50.9135 35.8229 51.5779 36.1988 52.1434C36.5747 52.7089 37.1099 53.1501 37.7368 53.4112C38.3636 53.6724 39.0538 53.7417 39.72 53.6103C40.3862 53.479 40.9985 53.153 41.4793 52.6735C41.9601 52.194 42.2878 51.5826 42.421 50.9167C42.5541 50.2509 42.4867 49.5605 42.2273 48.933C41.9679 48.3055 41.5281 47.769 40.9636 47.3916C40.3992 47.0141 39.7354 46.8126 39.0563 46.8126C38.7385 46.82 38.4231 46.8705 38.1188 46.9626L36.9376 45.0033C36.8546 44.8739 36.7411 44.7668 36.6071 44.6916C36.473 44.6164 36.3225 44.5754 36.1688 44.572H32.0157V40.3158H43.4813L46.2938 43.6158V46.8783C45.4879 47.0985 44.7892 47.6037 44.3276 48.3002C43.866 48.9966 43.6728 49.8369 43.7839 50.665C43.895 51.4931 44.3028 52.2528 44.9317 52.8029C45.5605 53.353 46.3677 53.6562 47.2032 53.6562C48.0388 53.6562 48.8459 53.353 49.4748 52.8029C50.1036 52.2528 50.5115 51.4931 50.6226 50.665C50.7337 49.8369 50.5405 48.9966 50.0789 48.3002C49.6173 47.6037 48.9186 47.0985 48.1126 46.8783V43.222C48.1158 43.0053 48.039 42.795 47.897 42.6314L44.5782 38.7501C44.4949 38.6496 44.3903 38.5689 44.2719 38.5138C44.1535 38.4586 44.0244 38.4305 43.8938 38.4314H32.0157V35.0564H44.2876L49.0501 40.522C49.1367 40.618 49.2422 40.695 49.3599 40.7482C49.4777 40.8015 49.6052 40.8298 49.7345 40.8314H53.2876C53.4571 41.4464 53.7953 42.0018 54.2638 42.4349C54.7323 42.8679 55.3125 43.1613 55.939 43.2821C56.5654 43.4028 57.2132 43.3459 57.809 43.118C58.4049 42.8901 58.9252 42.5001 59.3111 41.9921C59.6971 41.4841 59.9333 40.8783 59.9932 40.2431C60.0531 39.6079 59.9342 38.9687 59.6499 38.3975C59.3657 37.8263 58.9275 37.346 58.3847 37.0107C57.8419 36.6755 57.2162 36.4986 56.5782 36.5001ZM56.5782 18.472C56.8971 18.472 57.2089 18.5666 57.4741 18.7438C57.7393 18.9209 57.9459 19.1728 58.068 19.4674C58.19 19.7621 58.222 20.0863 58.1597 20.3991C58.0975 20.7119 57.9439 20.9992 57.7184 21.2247C57.4929 21.4502 57.2056 21.6038 56.8928 21.666C56.58 21.7282 56.2558 21.6963 55.9611 21.5743C55.6665 21.4522 55.4147 21.2455 55.2375 20.9804C55.0603 20.7152 54.9657 20.4034 54.9657 20.0845C54.9657 19.6568 55.1356 19.2467 55.438 18.9443C55.7404 18.6419 56.1506 18.472 56.5782 18.472ZM45.6095 9.81888C45.6076 9.49917 45.7009 9.18612 45.8773 8.91951C46.0538 8.65291 46.3055 8.44478 46.6006 8.32157C46.8956 8.19837 47.2206 8.16564 47.5342 8.22756C47.8479 8.28948 48.1361 8.44325 48.3622 8.66932C48.5882 8.8954 48.742 9.18358 48.8039 9.49724C48.8658 9.81091 48.8331 10.1359 48.7099 10.4309C48.5867 10.726 48.3786 10.9777 48.112 11.1542C47.8454 11.3306 47.5323 11.4239 47.2126 11.422C46.7882 11.4195 46.3818 11.2499 46.0817 10.9497C45.7816 10.6496 45.6119 10.2433 45.6095 9.81888ZM39.047 8.20638C39.3659 8.20638 39.6777 8.30095 39.9428 8.47814C40.208 8.65532 40.4147 8.90716 40.5367 9.2018C40.6588 9.49645 40.6907 9.82067 40.6285 10.1335C40.5663 10.4463 40.4127 10.7336 40.1872 10.9591C39.9617 11.1846 39.6743 11.3382 39.3616 11.4004C39.0488 11.4626 38.7245 11.4307 38.4299 11.3086C38.1352 11.1866 37.8834 10.9799 37.7062 10.7147C37.529 10.4496 37.4345 10.1378 37.4345 9.81888C37.4345 9.60633 37.4765 9.39588 37.5581 9.19963C37.6397 9.00338 37.7593 8.8252 37.9101 8.67534C38.0608 8.52549 38.2397 8.40691 38.4364 8.32643C38.6331 8.24594 38.8438 8.20515 39.0563 8.20638H39.047ZM30.1876 14.4876V18.7533C29.3852 18.3553 28.492 18.1761 27.5982 18.2337C26.7044 18.2913 25.8416 18.5837 25.097 19.0814C24.9022 19.2212 24.7684 19.4303 24.7231 19.6657C24.6778 19.9011 24.7243 20.1449 24.8532 20.347C24.9928 20.5392 25.2001 20.6713 25.4333 20.7166C25.6665 20.7618 25.9082 20.7168 26.1095 20.5908C26.7266 20.1724 27.4691 19.9794 28.2118 20.0443C28.9546 20.1092 29.6523 20.428 30.1876 20.947V25.8408V29.5908C29.3862 29.1875 28.4915 29.0061 27.5963 29.0654C26.7011 29.1248 25.8381 29.4227 25.097 29.9283C24.9552 30.0838 24.8699 30.2825 24.8548 30.4923C24.8397 30.7022 24.8956 30.9111 25.0136 31.0853C25.1315 31.2596 25.3047 31.3891 25.5052 31.453C25.7057 31.5169 25.9218 31.5115 26.1188 31.4376C26.7319 31.0159 27.4719 30.8191 28.2134 30.8806C28.955 30.9421 29.6524 31.2581 30.1876 31.7751V34.0814V39.3783V45.5189V53.7595C29.8938 54.4858 29.445 55.1393 28.8725 55.6741C28.3 56.209 27.6176 56.6124 26.873 56.8561C26.1284 57.0999 25.3395 57.1781 24.5615 57.0853C23.7836 56.9925 23.0352 56.7309 22.3688 56.3189C23.202 55.5759 23.7673 54.5793 23.9774 53.483C24.1875 52.3866 24.0308 51.2516 23.5313 50.2533C23.5028 50.1123 23.4423 49.9799 23.3543 49.8661C23.2664 49.7523 23.1535 49.6603 23.0244 49.5971C22.8952 49.5339 22.7532 49.5013 22.6095 49.5018C22.4657 49.5023 22.3239 49.5358 22.1952 49.5998C22.0664 49.6638 21.9541 49.7566 21.8669 49.8709C21.7798 49.9852 21.7201 50.1181 21.6924 50.2592C21.6648 50.4003 21.67 50.5459 21.7077 50.6847C21.7453 50.8234 21.8144 50.9517 21.9095 51.0595C22.1014 51.4568 22.2127 51.8881 22.2368 52.3287C22.261 52.7692 22.1975 53.2101 22.0502 53.626C21.9029 54.0418 21.6745 54.4244 21.3784 54.7514C21.0823 55.0785 20.7243 55.3436 20.3251 55.5314C20.2537 55.5769 20.1876 55.6304 20.1282 55.6908C19.3202 56.15 18.4068 56.3918 17.4774 56.3925C16.5479 56.3931 15.6342 56.1526 14.8256 55.6944C14.0169 55.2362 13.3409 54.5761 12.8638 53.7785C12.3866 52.9808 12.1246 52.0731 12.1032 51.1439C13.697 50.6845 16.7063 49.5314 17.147 47.2626C17.1863 47.026 17.1333 46.7832 16.999 46.5844C16.8647 46.3856 16.6593 46.2458 16.4251 46.1939C16.1965 46.1583 15.9628 46.2085 15.7689 46.3348C15.5751 46.4612 15.4348 46.6547 15.3751 46.8783C15.1032 48.2283 12.272 49.2314 11.147 49.4751C9.976 49.459 8.83447 49.1059 7.85898 48.4579C6.8835 47.8099 6.11538 46.8946 5.64656 45.8215C5.17774 44.7483 5.02807 43.5628 5.21547 42.4068C5.40286 41.2508 5.91939 40.1733 6.70322 39.3033C6.8173 39.1791 6.89579 39.0265 6.93044 38.8616C6.96509 38.6966 6.95461 38.5253 6.9001 38.3658C6.84554 38.2147 6.75309 38.0802 6.63161 37.9751C6.51013 37.8701 6.3637 37.798 6.20635 37.7658C5.13594 37.5558 4.15442 37.026 3.39144 36.2465C2.62846 35.4669 2.11993 34.4742 1.93303 33.3996C1.74613 32.3249 1.88965 31.2188 2.34464 30.2274C2.79963 29.236 3.54468 28.406 4.48135 27.847C4.84678 27.6013 5.25734 27.4305 5.68925 27.3446C6.12115 27.2587 6.5658 27.2594 6.99745 27.3466C7.42909 27.4338 7.83913 27.6058 8.20382 27.8526C8.56851 28.0995 8.88059 28.4162 9.12197 28.7845C9.20731 28.9044 9.31967 29.0025 9.44997 29.0709C9.58026 29.1393 9.72483 29.1761 9.87197 29.1783C10.0558 29.1768 10.2351 29.1214 10.3876 29.0189C10.5808 28.8777 10.7127 28.668 10.7563 28.4326C10.7999 28.1973 10.7518 27.9543 10.622 27.7533C9.95412 26.7487 8.95463 26.0106 7.79801 25.6679C6.6414 25.3252 5.40116 25.3997 4.29385 25.8783C3.86277 25.0744 3.61852 24.1838 3.57928 23.2725C3.54004 22.3612 3.70682 21.4528 4.06721 20.6149C4.42759 19.7771 4.9723 19.0312 5.6608 18.433C6.3493 17.8347 7.16386 17.3994 8.04385 17.1595C8.40097 17.7483 8.90298 18.2358 9.502 18.5756C10.101 18.9153 10.7771 19.0959 11.4657 19.1001C11.936 19.1022 12.4028 19.0197 12.8438 18.8564C12.9864 18.8429 13.1239 18.797 13.2459 18.7221C13.368 18.6473 13.4712 18.5454 13.5478 18.4245C13.6244 18.3035 13.6722 18.1666 13.6877 18.0243C13.7032 17.882 13.6858 17.738 13.637 17.6034C13.5882 17.4688 13.5092 17.3472 13.4061 17.2479C13.303 17.1486 13.1786 17.0742 13.0423 17.0304C12.906 16.9866 12.7614 16.9747 12.6198 16.9954C12.4781 17.0162 12.3431 17.0691 12.2251 17.1501C11.6729 17.3397 11.0684 17.3044 10.5421 17.0518C10.0158 16.7991 9.61004 16.3495 9.4126 15.8001C9.41613 15.7721 9.41613 15.7438 9.4126 15.7158C8.92648 14.5882 8.79292 13.3398 9.02947 12.1349C9.26603 10.93 9.86162 9.82484 10.738 8.96472C11.6143 8.1046 12.7304 7.52977 13.9396 7.31577C15.1487 7.10178 16.3943 7.25865 17.5126 7.76576H17.6063H17.7001C20.297 8.27201 21.0657 10.6533 20.6626 12.7814C20.6259 13.0166 20.6801 13.257 20.8142 13.4537C20.9482 13.6505 21.1521 13.7888 21.3845 13.8408H21.5532C21.7712 13.8456 21.9841 13.7743 22.1552 13.6391C22.3263 13.5039 22.445 13.3133 22.4907 13.1001C23.0813 9.93138 21.722 7.26888 19.1345 6.26576C19.6365 5.24226 20.4138 4.37898 21.3793 3.77286C22.3448 3.16674 23.4601 2.84179 24.6001 2.83451C25.8395 2.83244 27.0497 3.21067 28.0673 3.91814C29.0849 4.62561 29.861 5.62827 30.2907 6.79076L30.1876 14.4876ZM39.047 48.5845C39.3663 48.5845 39.6784 48.6793 39.9438 48.8569C40.2092 49.0345 40.4158 49.2869 40.5376 49.5821C40.6594 49.8773 40.6908 50.202 40.6278 50.5151C40.5648 50.8281 40.4103 51.1154 40.1838 51.3405C39.9574 51.5657 39.6692 51.7185 39.3558 51.7797C39.0424 51.8408 38.7178 51.8075 38.4234 51.6841C38.1289 51.5606 37.8777 51.3524 37.7017 51.086C37.5256 50.8196 37.4326 50.5069 37.4345 50.1876C37.4357 49.9759 37.4786 49.7664 37.5608 49.5713C37.643 49.3761 37.7628 49.199 37.9134 49.0502C38.064 48.9013 38.2424 48.7836 38.4386 48.7037C38.6347 48.6238 38.8446 48.5833 39.0563 48.5845H39.047ZM48.8157 50.1876C48.8176 50.5069 48.7246 50.8196 48.5485 51.086C48.3725 51.3524 48.1213 51.5606 47.8268 51.6841C47.5323 51.8075 47.2078 51.8408 46.8944 51.7797C46.581 51.7185 46.2928 51.5657 46.0664 51.3405C45.8399 51.1154 45.6854 50.8281 45.6224 50.5151C45.5594 50.202 45.5908 49.8773 45.7126 49.5821C45.8344 49.2869 46.041 49.0345 46.3064 48.8569C46.5718 48.6793 46.8839 48.5845 47.2032 48.5845C47.415 48.5833 47.6249 48.6238 47.821 48.7037C48.0171 48.7836 48.1956 48.9013 48.3462 49.0502C48.4968 49.199 48.6166 49.3761 48.6988 49.5713C48.7809 49.7664 48.8239 49.9759 48.8251 50.1876H48.8157ZM56.5688 41.5345C56.2495 41.5364 55.9369 41.4434 55.6704 41.2673C55.404 41.0913 55.1959 40.8401 55.0724 40.5456C54.9489 40.2511 54.9157 39.9266 54.9768 39.6132C55.038 39.2998 55.1908 39.0116 55.4159 38.7852C55.6411 38.5587 55.9284 38.4042 56.2414 38.3412C56.5545 38.2782 56.8792 38.3096 57.1744 38.4314C57.4696 38.5531 57.722 38.7598 57.8996 39.0252C58.0772 39.2906 58.172 39.6027 58.172 39.922C58.172 40.3464 58.0047 40.7538 57.7063 41.0556C57.408 41.3575 57.0026 41.5296 56.5782 41.5345H56.5688Z" fill="#615EFC"/>
</g>
<defs>
<clipPath id="clip0_676_6970">
<rect width="60" height="60" fill="white"/>
</clipPath>
</defs>
</svg>
