<svg width="1920" height="736" viewBox="0 0 1920 736" fill="none" xmlns="http://www.w3.org/2000/svg">
<rect width="1920" height="728" fill="#F9FAFF"/>
<mask id="mask0_1312_36391" style="mask-type:alpha" maskUnits="userSpaceOnUse" x="0" y="0" width="1920" height="728">
<rect width="1920" height="728" fill="#F9FAFF"/>
</mask>
<g mask="url(#mask0_1312_36391)">
<path d="M57.92 698.141H0V699.421H57.12L89.28 755.421L57.12 811.421H0V812.701H57.92L90.72 755.421L57.92 698.141Z" fill="#EAEAFF" fill-opacity="0.3"/>
<path d="M254.24 812.7H188.64L155.68 755.42L188.64 697.5H254.24L287.04 754.78L254.24 812.7ZM189.28 811.42H253.28L285.28 755.42L253.28 699.42H189.28L157.28 755.42L189.28 811.42Z" fill="#EAEAFF" fill-opacity="0.3"/>
<path d="M450.72 812.701H384.96L352.96 755.421L384.96 698.141H450.72L482.72 755.421L450.72 812.701ZM385.6 811.421H449.6L481.6 755.421L449.6 699.421H385.6L353.6 755.421L385.6 811.421Z" fill="#EAEAFF" fill-opacity="0.3"/>
<path d="M1629.12 812.701H1563.36L1531.36 755.421L1563.36 698.461H1629.12L1661.92 755.741L1629.12 812.701ZM1564.16 811.421H1628.16L1660.16 755.421L1628.16 699.421H1564.16L1532.16 755.421L1564.16 811.421Z" fill="#EAEAFF" fill-opacity="0.3"/>
<path d="M1825.6 812.7H1760L1728 755.42L1760 697.5H1825.76L1858.56 754.78L1825.6 812.7ZM1760 811.42H1824L1856 755.42L1824 699.42H1760L1728 755.42L1760 811.42Z" fill="#EAEAFF" fill-opacity="0.3"/>
<path d="M156 756.06H90.4002L57.4402 698.78L90.4002 641.5H156L188.96 698.78L156 756.06ZM91.0402 754.78H155.04L187.04 698.78L155.04 642.78H91.0402L59.0402 698.78L91.0402 754.78Z" fill="#EAEAFF" fill-opacity="0.3"/>
<path d="M352 756.06H286.72L253.92 698.78L286.72 641.5H352L384 698.78L352 756.06ZM288 754.78H352L384 698.78L352 642.78H288L256 698.78L288 754.78Z" fill="#EAEAFF" fill-opacity="0.3"/>
<path d="M548.96 756.06H483.2L450.4 698.78L483.2 641.5H548.96L580.96 698.78L548.96 756.06ZM483.84 754.78H547.84L579.84 698.78L547.84 642.78H483.84L451.84 698.78L483.84 754.78Z" fill="#EAEAFF" fill-opacity="0.3"/>
<path d="M1728 756.06H1662.24L1630.24 698.78L1662.24 641.82H1728L1760 698.78L1728 756.06ZM1663.04 754.78H1727.04L1759.04 698.78L1727.04 642.78H1663.04L1631.04 698.78L1663.04 754.78Z" fill="#EAEAFF" fill-opacity="0.3"/>
<path d="M1920 754.78H1858.72L1826.56 698.78L1858.72 642.78H1920V641.5H1858.08L1825.28 698.46L1825.12 698.78L1858.08 756.06H1920V754.78Z" fill="#EAEAFF" fill-opacity="0.3"/>
<path d="M57.92 584.859H0V586.139H57.12L89.28 642.139L57.12 698.139H0V699.259H57.92L90.72 642.139L57.92 584.859Z" fill="#EAEAFF" fill-opacity="0.3"/>
<path d="M254.24 699.26H188.64L155.68 642.14L188.64 585.5H254.24L287.04 642.78L254.24 699.26ZM189.28 697.5H253.28L285.28 641.5L253.28 585.5H189.28L157.28 641.5L189.28 697.5Z" fill="#EAEAFF" fill-opacity="0.3"/>
<path d="M450.72 699.259H384.96L352.96 642.139L384.96 584.859H450.72L482.72 642.139L450.72 699.259ZM385.6 697.499H449.6L481.6 641.499L449.6 585.499H385.6L353.6 641.499L385.6 697.499Z" fill="#EAEAFF" fill-opacity="0.3"/>
<path d="M1629.12 699.26H1563.36L1531.36 642.14L1563.36 585.18H1629.12L1661.92 642.46L1629.12 699.26ZM1564.16 697.5H1628.16L1660.16 641.5L1628.16 585.5H1564.16L1532.16 641.5L1564.16 697.5Z" fill="#EAEAFF" fill-opacity="0.3"/>
<path d="M1825.6 699.26H1760L1728 642.14L1760 585.5H1825.76L1858.56 642.78L1825.6 699.26ZM1760 697.5H1824L1856 641.5L1824 585.5H1760L1728 641.5L1760 697.5Z" fill="#EAEAFF" fill-opacity="0.3"/>
<path d="M156 642.621H90.4002L57.4402 585.501L90.4002 528.221H156L188.96 585.501L156 642.621ZM91.0402 641.501H155.04L187.04 585.501L155.04 529.501H91.0402L59.0402 585.501L91.0402 641.501Z" fill="#EAEAFF" fill-opacity="0.3"/>
<path d="M352 642.621H286.72L253.92 585.501L286.72 528.221H352L384 585.501L352 642.621ZM288 641.501H352L384 585.501L352 529.501H288L256 585.501L288 641.501Z" fill="#EAEAFF" fill-opacity="0.3"/>
<path d="M548.96 642.621H483.2L450.4 585.501L483.2 528.221H548.96L580.96 585.501L548.96 642.621ZM483.84 641.501H547.84L579.84 585.501L547.84 529.501H483.84L451.84 585.501L483.84 641.501Z" fill="#EAEAFF" fill-opacity="0.3"/>
<path d="M1530.88 642.619H1465.28L1432.32 585.499L1464.32 528.539H1529.92L1563.84 585.499L1530.88 642.619ZM1465.92 641.499H1529.92L1561.92 585.499L1529.92 529.499H1465.92L1433.92 585.499L1465.92 641.499Z" fill="#EAEAFF" fill-opacity="0.3"/>
<path d="M1728 642.619H1662.24L1630.24 585.499L1662.24 528.539H1728L1760 585.499L1728 642.619ZM1663.04 641.499H1727.04L1759.04 585.499L1727.04 529.499H1663.04L1631.04 585.499L1663.04 641.499Z" fill="#EAEAFF" fill-opacity="0.3"/>
<path d="M1920 641.501H1858.72L1826.56 585.501L1858.72 529.501H1920V528.221H1858.08L1825.28 585.181L1825.12 585.501L1858.08 642.621H1920V641.501Z" fill="#EAEAFF" fill-opacity="0.3"/>
<path d="M57.92 471.58H0V472.7H57.12L89.28 528.86L57.12 584.86H0V585.98H57.92L90.72 528.86L57.92 471.58Z" fill="#EAEAFF" fill-opacity="0.3"/>
<path d="M254.24 585.5H188.64L155.68 528.86L188.64 471.58H254.24L287.04 528.86L254.24 585.5ZM189.28 585.5H253.28L285.28 529.5L253.28 473.5H189.28L157.28 529.5L189.28 585.5Z" fill="#EAEAFF" fill-opacity="0.3"/>
<path d="M450.72 585.5H384.96L352.96 528.38L384.96 471.1H450.72L482.72 528.38L450.72 585.5ZM385.6 585.5H449.6L481.6 529.5L449.6 473.5H385.6L353.6 529.5L385.6 585.5Z" fill="#EAEAFF" fill-opacity="0.3"/>
<path d="M1432.64 585.5H1367.04L1335.04 528.38L1367.04 471.42H1432.64L1465.6 528.7L1432.64 585.5ZM1367.68 585.5H1431.68L1463.68 529.5L1431.68 473.5H1367.68L1335.68 529.5L1367.68 585.5Z" fill="#EAEAFF" fill-opacity="0.3"/>
<path d="M1629.12 585.5H1563.36L1531.36 528.38L1563.36 471.42H1629.12L1661.92 528.7L1629.12 585.5ZM1564.16 585.5H1628.16L1660.16 529.5L1628.16 473.5H1564.16L1532.16 529.5L1564.16 585.5Z" fill="#EAEAFF" fill-opacity="0.3"/>
<path d="M1825.6 585.5H1760L1728 528.38L1760 471.42H1825.76L1858.56 528.7L1825.6 585.5ZM1760 585.5H1824L1856 529.5L1824 473.5H1760L1728 529.5L1760 585.5Z" fill="#EAEAFF" fill-opacity="0.3"/>
<path d="M156 529.339H90.4002L57.4402 472.219L90.4002 414.939H156L188.96 472.219L156 529.339ZM91.0402 528.219H155.04L187.04 472.219L155.04 416.059H91.0402L59.0402 472.219L91.0402 528.219Z" fill="#EAEAFF" fill-opacity="0.3"/>
<path d="M352 529.339H286.72L253.92 472.219L286.72 414.939H352L384 472.219L352 529.339ZM288 528.219H352L384 472.219L352 416.059H288L256 472.219L288 528.219Z" fill="#EAEAFF" fill-opacity="0.3"/>
<path d="M548.96 529.339H483.2L450.4 472.219L483.2 414.939H548.96L580.96 472.219L548.96 529.339ZM483.84 528.219H547.84L579.84 472.219L547.84 416.059H483.84L451.84 472.219L483.84 528.219Z" fill="#EAEAFF" fill-opacity="0.3"/>
<path d="M1530.88 529.34H1465.28L1432.32 472.22L1464.32 415.26H1529.92L1562.88 472.54L1530.88 529.34ZM1465.92 528.22H1529.92L1561.92 472.22L1529.92 416.06H1465.92L1433.92 472.22L1465.92 528.22Z" fill="#EAEAFF" fill-opacity="0.3"/>
<path d="M1728 529.34H1662.24L1630.24 472.22L1662.24 415.26H1728L1760 472.22L1728 529.34ZM1663.04 528.22H1727.04L1759.04 472.22L1727.04 416.06H1663.04L1631.04 472.22L1663.04 528.22Z" fill="#EAEAFF" fill-opacity="0.3"/>
<path d="M1920 528.219H1858.72L1826.56 472.059L1858.72 416.059H1920V414.939H1858.08L1825.28 471.899L1825.12 472.059L1858.08 529.339H1920V528.219Z" fill="#EAEAFF" fill-opacity="0.3"/>
<path d="M57.92 358.301H0V359.421H57.12L89.28 415.421L57.12 471.581H0V472.701H57.92L90.72 415.421L57.92 358.301Z" fill="#EAEAFF" fill-opacity="0.3"/>
<path d="M254.24 473.501H188.64L155.68 415.421L188.64 358.301H254.24L287.04 415.421L254.24 473.501ZM189.28 472.381H253.28L285.28 416.221L253.28 360.221H189.28L157.28 416.221L189.28 472.381Z" fill="#EAEAFF" fill-opacity="0.3"/>
<path d="M450.72 473.5H384.96L352.96 416.22L384.96 359.1H450.72L482.72 416.22L450.72 473.5ZM385.6 472.38H449.6L481.6 416.22L449.6 360.22H385.6L353.6 416.22L385.6 472.38Z" fill="#EAEAFF" fill-opacity="0.3"/>
<path d="M1432.64 473.5H1367.04L1335.04 416.22L1367.04 359.26H1432.64L1465.6 416.38L1432.64 473.5ZM1367.68 472.38H1431.68L1463.68 416.22L1431.68 360.22H1367.68L1335.68 416.22L1367.68 472.38Z" fill="#EAEAFF" fill-opacity="0.3"/>
<path d="M1629.12 473.5H1563.36L1531.36 416.22L1563.36 359.26H1629.12L1661.92 416.38L1629.12 473.5ZM1564.16 472.38H1628.16L1660.16 416.22L1628.16 360.22H1564.16L1532.16 416.22L1564.16 472.38Z" fill="#EAEAFF" fill-opacity="0.3"/>
<path d="M1825.6 473.5H1760L1728 416.22L1760 359.26H1825.76L1858.56 416.38L1825.6 473.5ZM1760 471.58H1824L1856 415.42L1824 359.42H1760L1728 415.42L1760 471.58Z" fill="#EAEAFF" fill-opacity="0.3"/>
<path d="M156 416.06H90.4002L57.4402 358.78L90.4002 301.66H156L188.96 358.78L156 416.06ZM91.0402 414.78H155.04L187.04 358.78L155.04 302.78H91.0402L59.0402 358.78L91.0402 414.78Z" fill="#EAEAFF" fill-opacity="0.3"/>
<path d="M352 416.06H286.72L253.92 358.78L286.72 301.66H352L384 358.78L352 416.06ZM288 414.78H352L384 358.78L352 302.78H288L256 358.78L288 414.78Z" fill="#EAEAFF" fill-opacity="0.3"/>
<path d="M548.96 416.06H483.2L450.4 358.78L483.2 301.66H548.96L580.96 358.78L548.96 416.06ZM483.84 414.78H547.84L579.84 358.78L547.84 302.78H483.84L451.84 358.78L483.84 414.78Z" fill="#EAEAFF" fill-opacity="0.3"/>
<path d="M1530.88 416.06H1465.28L1432.32 358.78L1464.32 301.98H1529.92L1562.88 359.1L1530.88 416.06ZM1465.92 414.78H1529.92L1561.92 358.78L1529.92 302.78H1465.92L1433.92 358.78L1465.92 414.78Z" fill="#EAEAFF" fill-opacity="0.3"/>
<path d="M1728 416.06H1662.24L1630.24 358.78L1662.24 301.98H1728L1760 358.78L1728 416.06ZM1663.04 414.78H1727.04L1759.04 358.78L1727.04 302.78H1663.04L1631.04 358.78L1663.04 414.78Z" fill="#EAEAFF" fill-opacity="0.3"/>
<path d="M1920 414.78H1858.72L1826.56 358.78L1858.72 302.78H1920V301.66H1858.08L1825.28 358.62L1825.12 358.78L1858.08 416.06H1920V414.78Z" fill="#EAEAFF" fill-opacity="0.3"/>
<path d="M57.92 245.02H0V246.14H57.12L89.28 302.14L57.12 358.14H0V359.42H57.92L90.72 302.14L57.92 245.02Z" fill="#EAEAFF" fill-opacity="0.3"/>
<path d="M254.24 359.42H188.64L155.68 302.14L188.64 245.02H254.24L287.04 302.14L254.24 359.42ZM189.28 358.14H253.28L285.28 302.14L253.28 246.14H189.28L157.28 302.14L189.28 358.14Z" fill="#EAEAFF" fill-opacity="0.3"/>
<path d="M450.72 359.42H384.96L352.96 302.14L384.96 245.02H450.72L482.72 302.14L450.72 359.42ZM385.6 358.14H449.6L481.6 302.14L449.6 246.14H385.6L353.6 302.14L385.6 358.14Z" fill="#EAEAFF" fill-opacity="0.3"/>
<path d="M1432.64 359.42H1367.04L1335.04 302.14L1367.04 245.34H1432.64L1465.6 302.46L1432.64 359.42ZM1367.68 358.14H1431.68L1463.68 302.14L1431.68 246.14H1367.68L1335.68 302.14L1367.68 358.14Z" fill="#EAEAFF" fill-opacity="0.3"/>
<path d="M1629.12 359.42H1563.36L1531.36 302.14L1563.36 245.34H1629.12L1661.92 302.46L1629.12 359.42ZM1564.16 358.14H1628.16L1660.16 302.14L1628.16 246.14H1564.16L1532.16 302.14L1564.16 358.14Z" fill="#EAEAFF" fill-opacity="0.3"/>
<path d="M1825.6 359.42H1760L1728 302.14L1760 245.34H1825.76L1858.56 302.46L1825.6 359.42ZM1760 358.14H1824L1856 302.14L1824 246.14H1760L1728 302.14L1760 358.14Z" fill="#EAEAFF" fill-opacity="0.3"/>
<path d="M156 302.781H90.4002L57.4402 245.501L90.4002 188.381H156L188.96 245.501L156 302.781ZM91.0402 301.501H155.04L187.04 245.501L155.04 189.501H91.0402L59.0402 245.501L91.0402 301.501Z" fill="#EAEAFF" fill-opacity="0.3"/>
<path d="M352 302.781H286.72L253.92 245.501L286.72 188.381H352L384 245.501L352 302.781ZM288 301.501H352L384 245.501L352 189.501H288L256 245.501L288 301.501Z" fill="#EAEAFF" fill-opacity="0.3"/>
<path d="M548.96 302.781H483.2L450.4 245.501L483.2 188.381H548.96L580.96 245.501L548.96 302.781ZM483.84 301.501H547.84L579.84 245.501L547.84 189.501H483.84L451.84 245.501L483.84 301.501Z" fill="#EAEAFF" fill-opacity="0.3"/>
<path d="M1530.88 302.779H1465.28L1432.32 245.499L1464.32 188.699H1529.92L1562.88 245.819L1530.88 302.779ZM1465.92 301.499H1529.92L1561.92 245.499L1529.92 189.499H1465.92L1433.92 245.499L1465.92 301.499Z" fill="#EAEAFF" fill-opacity="0.3"/>
<path d="M1728 302.779H1662.24L1630.24 245.499L1662.24 188.699H1728L1760 245.499L1728 302.779ZM1663.04 301.499H1727.04L1759.04 245.499L1727.04 189.499H1663.04L1631.04 245.499L1663.04 301.499Z" fill="#EAEAFF" fill-opacity="0.3"/>
<path d="M1920 301.501H1858.72L1826.56 245.501L1858.72 189.501H1920V188.381H1858.08L1825.28 245.181L1825.12 245.501L1858.08 302.781H1920V301.501Z" fill="#EAEAFF" fill-opacity="0.3"/>
<path d="M57.92 131.58H0V132.86H57.12L89.28 188.86L57.12 244.86H0V246.14H57.92L90.72 188.86L57.92 131.58Z" fill="#EAEAFF" fill-opacity="0.3"/>
<path d="M254.24 246.14H188.64L155.68 188.86L188.64 131.58H254.24L287.04 188.86L254.24 246.14ZM189.28 244.86H253.28L285.28 188.86L253.28 132.86H189.28L157.28 188.86L189.28 244.86Z" fill="#EAEAFF" fill-opacity="0.3"/>
<path d="M450.72 246.14H384.96L352.96 188.86L384.96 131.58H450.72L482.72 188.86L450.72 246.14ZM385.6 244.86H449.6L481.6 188.86L449.6 132.86H385.6L353.6 188.86L385.6 244.86Z" fill="#EAEAFF" fill-opacity="0.3"/>
<path d="M1432.64 246.14H1367.04L1335.04 188.86L1367.04 131.9H1432.64L1465.6 189.18L1432.64 246.14ZM1367.68 244.86H1431.68L1463.68 188.86L1431.68 132.86H1367.68L1335.68 188.86L1367.68 244.86Z" fill="#EAEAFF" fill-opacity="0.3"/>
<path d="M1825.6 246.14H1760L1728 188.86L1760 131.9H1825.76L1858.56 189.18L1825.6 246.14ZM1760 244.86H1824L1856 188.86L1824 132.86H1760L1728 188.86L1760 244.86Z" fill="#EAEAFF" fill-opacity="0.3"/>
<path d="M548.96 189.499H483.2L450.4 132.219L483.2 74.9395H548.96L580.96 132.219L548.96 189.499ZM483.84 188.219H547.84L579.84 132.219L547.84 76.2195H483.84L451.84 132.219L483.84 188.219Z" fill="#EAEAFF" fill-opacity="0.3"/>
<path d="M1920 188.219H1858.72L1826.56 132.219L1858.72 76.2195H1920V74.9395H1858.08L1825.28 131.899L1825.12 132.219L1858.08 189.499H1920V188.219Z" fill="#EAEAFF" fill-opacity="0.3"/>
<path d="M57.92 18.3008H0V19.5808H57.12L89.28 75.5808L57.12 131.581H0V132.861H57.92L90.72 75.5808L57.92 18.3008Z" fill="#EAEAFF" fill-opacity="0.3"/>
<path d="M1432.64 132.859H1367.04L1335.04 75.5791L1367.04 18.6191H1432.64L1465.6 75.5791L1432.64 132.859ZM1367.68 131.579H1431.68L1463.68 75.5791L1431.68 19.5791H1367.68L1335.68 75.5791L1367.68 131.579Z" fill="#EAEAFF" fill-opacity="0.3"/>
<path d="M1825.6 132.859H1760L1728 75.5791L1760 18.6191H1825.76L1858.56 75.8991L1825.6 132.859ZM1760 131.579H1824L1856 75.5791L1824 19.5791H1760L1728 75.5791L1760 131.579Z" fill="#EAEAFF" fill-opacity="0.3"/>
<path d="M548.96 76.06H483.2L450.4 18.94L483.2 -38.5H548.96L580.96 18.78L548.96 76.06ZM483.84 74.94H547.84L579.84 18.94L547.84 -37.06H483.84L451.84 18.94L483.84 74.94Z" fill="#EAEAFF" fill-opacity="0.3"/>
<path d="M1920 74.9402H1858.72L1826.56 18.9402L1858.72 -37.0598H1920V-38.3398H1858.08L1825.28 18.6202L1825.12 18.9402L1858.08 76.2202H1920V74.9402Z" fill="#EAEAFF" fill-opacity="0.3"/>
<path d="M90.24 -38.5H88.8L89.28 -37.7L57.12 18.3H0V19.42H57.92L90.72 -37.7L90.24 -38.5Z" fill="#EAEAFF" fill-opacity="0.3"/>
<path d="M1463.68 -38.5L1464.16 -37.7L1432 18.3H1367.68L1335.52 -37.7L1336 -38.5H1334.56L1334.4 -38.02L1334.24 -37.7L1367.04 19.42H1432.8L1465.44 -37.38L1465.6 -37.7L1465.12 -38.5H1463.68Z" fill="#EAEAFF" fill-opacity="0.3"/>
<path d="M1856.48 -38.5L1856.96 -37.7L1824.8 18.3H1760.48L1728.32 -37.7L1728.8 -38.5H1727.36L1727.2 -38.02L1727.04 -37.7L1759.84 19.42H1825.6L1858.24 -37.38L1858.4 -37.7L1857.92 -38.5H1856.48Z" fill="#EAEAFF" fill-opacity="0.3"/>
<path opacity="0.64" d="M516.8 812.38H451.2L418.24 755.26L451.2 697.5H516.8L549.76 754.78L516.8 812.38ZM451.84 811.26H515.84L547.84 755.26L515.84 699.26H451.84L419.84 755.26L451.84 811.26Z" fill="#614CE1" fill-opacity="0.05"/>
<path opacity="0.29" d="M1696 812.381H1630.24L1598.24 755.261L1630.24 698.301H1696L1728 755.261L1696 812.381ZM1630.88 811.261H1694.88L1726.88 755.261L1694.88 699.261H1630.88L1598.88 755.261L1630.88 811.261Z" fill="#614CE1" fill-opacity="0.05"/>
<path opacity="0.65" d="M1920 760.701L1891.04 811.26H1826.72L1794.56 755.26L1826.72 699.26H1891.04L1920 749.82V747.26L1891.68 697.98H1826.08L1793.28 754.94L1793.12 755.26L1826.08 812.54H1891.68L1920 763.1V760.701Z" fill="#614CE1" fill-opacity="0.05"/>
<path opacity="0.22" d="M25.76 641.34H0V642.62H25.12L57.28 698.62L25.12 754.62H0V755.74H25.76L58.72 698.62L25.76 641.34Z" fill="#614CE1" fill-opacity="0.05"/>
<path opacity="0.86" d="M222.24 755.74H156.48L124.48 698.62L156.48 641.34H222.24L254.24 698.62L222.24 755.74ZM157.28 754.62H221.28L253.28 698.62L221.28 642.62H157.28L125.28 698.62L157.28 754.62Z" fill="#614CE1" fill-opacity="0.05"/>
<path opacity="0.96" d="M418.56 755.74H352.96L320.96 698.62L352.96 641.34H418.56L451.52 698.62L418.56 755.74ZM353.6 754.62H417.6L449.6 698.62L417.6 642.62H353.6L321.6 698.62L353.6 754.62Z" fill="#614CE1" fill-opacity="0.05"/>
<path opacity="0.99" d="M1597.12 755.74H1531.36L1499.36 698.62L1531.36 641.66H1597.12L1629.92 698.94L1597.12 755.74ZM1532 754.62H1596L1628 698.62L1596 642.62H1532L1500 698.62L1532 754.62Z" fill="#614CE1" fill-opacity="0.05"/>
<path opacity="0.4" d="M1793.44 755.74H1728L1695.04 698.62L1727.04 641.66H1792.64L1825.6 698.94L1793.44 755.74ZM1728 754.62H1792L1824 698.62L1792 642.62H1728L1696 698.62L1728 754.62Z" fill="#614CE1" fill-opacity="0.05"/>
<path opacity="0.38" d="M124 699.1H58.3999L25.4399 641.98L58.3999 585.5H124L156.8 641.98L124 699.1ZM59.0399 697.5H123.04L155.04 641.5L123.04 585.5H59.0399L27.0399 641.5L59.0399 697.5Z" fill="#614CE1" fill-opacity="0.05"/>
<path opacity="0.7" d="M320 699.1H254.72L221.92 641.98L254.72 585.5H320L352 642.78L320 699.1ZM256 697.5H320L352 641.5L320 585.5H256L224 641.5L256 697.5Z" fill="#614CE1" fill-opacity="0.05"/>
<path opacity="0.95" d="M516.8 699.1H451.2L418.24 641.98L451.2 585.5H516.8L549.76 642.78L516.8 699.1ZM451.84 697.5H515.84L547.84 641.5L515.84 585.5H451.84L419.84 641.5L451.84 697.5Z" fill="#614CE1" fill-opacity="0.05"/>
<path opacity="0.32" d="M1696 699.099H1630.24L1598.24 641.979L1630.24 585.02H1696L1728 641.979L1696 699.099ZM1630.24 697.5H1694.24L1726.24 641.5L1694.24 585.5H1630.24L1598.24 641.5L1630.24 697.5Z" fill="#614CE1" fill-opacity="0.05"/>
<path opacity="0.95" d="M1920 647.419L1891.04 697.979H1826.72L1794.56 641.979L1826.72 585.979H1891.04L1920 636.379V633.979L1891.68 584.699H1826.08L1793.28 641.659L1793.12 641.979L1826.08 699.099H1891.68L1920 649.819V647.419Z" fill="#614CE1" fill-opacity="0.05"/>
<path opacity="0.45" d="M25.76 528.061H0V529.181H25.12L57.28 585.181L25.12 641.341H0V642.461H25.76L58.72 585.181L25.76 528.061Z" fill="#614CE1" fill-opacity="0.05"/>
<path opacity="0.73" d="M222.24 642.461H156.48L123.68 585.501L155.68 528.221H221.44L253.44 585.501L222.24 642.461ZM157.28 641.341H221.28L253.28 585.341L221.28 529.341H157.28L125.28 585.341L157.28 641.341Z" fill="#614CE1" fill-opacity="0.05"/>
<path opacity="0.81" d="M418.56 642.461H352.96L320 585.501L352 528.221H417.6L451.52 585.501L418.56 642.461ZM353.6 641.341H417.6L449.6 585.341L417.6 529.341H353.6L321.6 585.341L353.6 641.341Z" fill="#614CE1" fill-opacity="0.05"/>
<path opacity="0.24" d="M615.04 642.461H549.28L517.28 585.341L549.28 528.061H615.04L647.84 585.501L615.04 642.461ZM550.08 641.341H614.08L646.08 585.341L614.08 529.341H550.08L518.08 585.341L550.08 641.341Z" fill="#614CE1" fill-opacity="0.05"/>
<path opacity="0.74" d="M1400.64 642.459H1335.04L1302.08 585.499L1334.08 528.539H1399.68L1433.6 585.499L1400.64 642.459ZM1335.68 641.339H1399.68L1431.68 585.339L1399.68 529.339H1335.68L1303.68 585.339L1335.68 641.339Z" fill="#614CE1" fill-opacity="0.05"/>
<path opacity="0.49" d="M1597.12 642.461H1531.36L1499.36 585.341L1531.36 528.381H1597.12L1629.92 585.501L1597.12 642.461ZM1532 641.341H1596L1628 585.341L1596 529.341H1532L1500 585.341L1532 641.341Z" fill="#614CE1" fill-opacity="0.05"/>
<path opacity="0.99" d="M1793.44 642.459H1728L1694.88 585.499L1726.88 528.539H1792.48L1826.4 585.499L1793.44 642.459ZM1728 641.339H1792L1824 585.339L1792 529.339H1728L1696 585.499L1728 641.339Z" fill="#614CE1" fill-opacity="0.05"/>
<path opacity="0.25" d="M124 585.5H58.3999L25.4399 528.54L58.3999 471.42H124L156.8 528.54L124 585.5ZM59.0399 585.5H123.04L155.04 529.34L123.04 473.34H59.0399L27.0399 529.34L59.0399 585.5Z" fill="#614CE1" fill-opacity="0.05"/>
<path opacity="0.95" d="M320 585.5H254.72L221.92 528.22L254.72 471.1H320L352 528.22L320 585.5ZM256 585.5H320L352 529.34L320 473.34H256L224 529.34L256 585.5Z" fill="#614CE1" fill-opacity="0.05"/>
<path opacity="0.37" d="M516.8 585.5H451.2L418.24 528.22L451.2 471.1H516.8L549.76 528.22L516.8 585.5ZM451.84 585.5H515.84L547.84 529.34L515.84 473.34H451.84L419.84 529.34L451.84 585.5Z" fill="#614CE1" fill-opacity="0.05"/>
<path opacity="0.74" d="M1498.88 585.5H1433.12L1401.12 528.22L1433.12 471.26H1498.88L1530.88 528.38L1498.88 585.5ZM1433.92 585.5H1497.92L1529.92 529.34L1497.92 473.34H1433.92L1401.92 529.34L1433.92 585.5Z" fill="#614CE1" fill-opacity="0.05"/>
<path opacity="0.98" d="M1696 585.5H1630.24L1598.24 528.22L1630.24 471.26H1696L1728 528.54L1696 585.5ZM1630.24 585.5H1694.24L1726.24 529.34L1694.24 473.34H1630.24L1598.24 529.34L1630.24 585.5Z" fill="#614CE1" fill-opacity="0.05"/>
<path opacity="0.41" d="M1920 534.14L1891.04 584.7H1826.72L1794.56 528.54L1826.72 472.54H1891.04L1920 523.1V520.7L1891.68 471.42H1826.08L1793.28 528.38L1793.12 528.54L1826.08 585.82H1891.68L1920 536.54V534.14Z" fill="#614CE1" fill-opacity="0.05"/>
<path opacity="0.95" d="M25.76 414.779H0V415.899H25.12L57.28 471.899L25.12 527.899H0V529.179H25.76L58.72 471.899L25.76 414.779Z" fill="#614CE1" fill-opacity="0.05"/>
<path opacity="0.95" d="M222.24 529.179H156.48L124.48 471.899L156.48 414.779H222.24L254.24 471.899L222.24 529.179ZM157.28 527.899H221.28L253.28 471.899L221.28 415.899H157.28L125.28 471.899L157.28 527.899Z" fill="#614CE1" fill-opacity="0.05"/>
<path opacity="0.53" d="M418.56 529.179H352.96L320 471.899L352 414.779H417.6L450.56 471.899L418.56 529.179ZM353.6 527.899H417.6L449.6 471.899L417.6 415.899H353.6L321.6 471.899L353.6 527.899Z" fill="#614CE1" fill-opacity="0.05"/>
<path opacity="0.94" d="M615.04 529.179H549.28L517.28 471.899L549.28 414.779H615.04L647.84 471.899L615.04 529.179ZM550.08 527.899H614.08L646.08 471.899L614.08 415.899H550.08L518.08 471.899L550.08 527.899Z" fill="#614CE1" fill-opacity="0.05"/>
<path opacity="0.24" d="M1400.64 529.18H1335.04L1302.08 471.9L1334.08 415.1H1399.68L1433.6 471.9L1400.64 529.18ZM1335.68 527.9H1399.68L1431.68 471.9L1399.68 415.9H1335.68L1303.68 471.9L1335.68 527.9Z" fill="#614CE1" fill-opacity="0.05"/>
<path opacity="0.24" d="M1597.12 529.18H1531.36L1499.36 471.9L1531.36 415.1H1597.12L1629.92 472.22L1597.12 529.18ZM1532 527.9H1596L1628 471.9L1596 415.9H1532L1500 471.9L1532 527.9Z" fill="#614CE1" fill-opacity="0.05"/>
<path opacity="0.98" d="M1793.44 529.18H1728L1695.04 471.9L1727.04 415.1H1792.64L1825.6 472.22L1793.44 529.18ZM1728 527.9H1792L1824 471.9L1792 415.9H1728L1696 471.9L1728 527.9Z" fill="#614CE1" fill-opacity="0.05"/>
<path opacity="0.5" d="M124 472.541H58.3999L25.4399 415.261L58.3999 358.141H124L156.8 415.261L124 472.541ZM59.0399 471.261H123.04L155.04 415.261L123.04 359.261H59.0399L27.0399 415.261L59.0399 471.261Z" fill="#614CE1" fill-opacity="0.05"/>
<path opacity="0.28" d="M320 472.541H254.72L221.92 415.261L254.72 358.141H320L352 415.261L320 472.541ZM256 471.261H320L352 415.261L320 359.261H256L224 415.261L256 471.261Z" fill="#614CE1" fill-opacity="0.05"/>
<path opacity="0.46" d="M516.8 472.541H451.2L418.24 415.261L451.2 358.141H516.8L549.76 415.261L516.8 472.541ZM451.84 471.261H515.84L547.84 415.261L515.84 359.261H451.84L419.84 415.261L451.84 471.261Z" fill="#614CE1" fill-opacity="0.05"/>
<path opacity="0.74" d="M1498.88 472.541H1433.12L1401.12 415.261L1433.12 358.461H1498.88L1530.88 415.581L1498.88 472.541ZM1433.92 471.261H1497.92L1529.92 415.261L1497.92 359.261H1433.92L1401.92 415.261L1433.92 471.261Z" fill="#614CE1" fill-opacity="0.05"/>
<path opacity="0.64" d="M1696 472.541H1630.24L1598.24 415.261L1630.24 358.461H1696L1728 415.261L1696 472.541ZM1630.88 471.261H1694.88L1726.88 415.261L1694.88 359.261H1630.88L1598.88 415.261L1630.88 471.261Z" fill="#614CE1" fill-opacity="0.05"/>
<path opacity="0.63" d="M1920 420.861L1891.04 471.261H1826.72L1794.56 415.261L1826.72 359.261H1891.04L1920 409.821V407.421L1891.68 358.141H1826.08L1793.28 414.941L1793.12 415.261L1826.08 472.541H1891.68L1920 423.261V420.861Z" fill="#614CE1" fill-opacity="0.05"/>
<path opacity="0.4" d="M25.76 301.5H0V302.62H25.12L57.28 358.62L25.12 414.62H0V415.9H25.76L58.72 358.62L25.76 301.5Z" fill="#614CE1" fill-opacity="0.05"/>
<path opacity="0.23" d="M222.24 415.9H156.48L124.48 358.62L156.48 301.5H222.24L254.24 358.62L222.24 415.9ZM157.28 414.62H221.28L253.28 358.62L221.28 302.62H157.28L125.28 358.62L157.28 414.62Z" fill="#614CE1" fill-opacity="0.05"/>
<path opacity="0.56" d="M418.56 415.9H352.96L320.96 358.62L352.96 301.5H418.56L451.52 358.62L418.56 415.9ZM353.6 414.62H417.6L449.6 358.62L417.6 302.62H353.6L321.6 358.62L353.6 414.62Z" fill="#614CE1" fill-opacity="0.05"/>
<path opacity="0.82" d="M1597.12 415.9H1531.36L1499.36 358.62L1531.36 301.82H1597.12L1629.92 358.94L1597.12 415.9ZM1532 414.62H1596L1628 358.62L1596 302.62H1532L1500 358.62L1532 414.62Z" fill="#614CE1" fill-opacity="0.05"/>
<path opacity="0.66" d="M1793.44 415.9H1728L1695.04 358.62L1727.04 301.82H1792.64L1825.6 358.94L1793.44 415.9ZM1728 414.62H1792L1824 358.62L1792 302.62H1728L1696 358.62L1728 414.62Z" fill="#614CE1" fill-opacity="0.05"/>
<path opacity="0.23" d="M124 359.259H58.3999L25.4399 301.979L58.3999 244.859H124L156.8 301.979L124 359.259ZM59.0399 357.979H123.04L155.04 301.979L123.04 245.979H59.0399L27.0399 301.979L59.0399 357.979Z" fill="#614CE1" fill-opacity="0.05"/>
<path opacity="0.92" d="M320 359.259H254.72L221.92 301.979L254.72 244.859H320L352 301.979L320 359.259ZM256 357.979H320L352 301.979L320 245.979H256L224 301.979L256 357.979Z" fill="#614CE1" fill-opacity="0.05"/>
<path opacity="0.47" d="M516.8 359.259H451.2L418.24 301.979L451.2 244.859H516.8L549.76 301.979L516.8 359.259ZM451.84 357.979H515.84L547.84 301.979L515.84 245.979H451.84L419.84 301.979L451.84 357.979Z" fill="#614CE1" fill-opacity="0.05"/>
<path opacity="0.46" d="M713.28 359.259H647.52L615.52 301.979L647.52 244.859H713.28L746.08 301.979L713.28 359.259ZM648.32 357.979H712.32L744.32 301.979L712.32 245.979H648.32L616.32 301.979L648.32 357.979Z" fill="#614CE1" fill-opacity="0.05"/>
<path opacity="0.91" d="M1498.88 359.26H1433.12L1401.12 301.98L1433.12 245.18H1498.88L1530.88 302.3L1498.88 359.26ZM1433.92 357.98H1497.92L1529.92 301.98L1497.92 245.98H1433.92L1401.92 301.98L1433.92 357.98Z" fill="#614CE1" fill-opacity="0.05"/>
<path opacity="0.33" d="M1696 359.26H1630.24L1598.24 301.98L1630.24 245.18H1696L1728 301.98L1696 359.26ZM1630.88 357.98H1694.88L1726.88 301.98L1694.88 245.98H1630.88L1598.88 301.98L1630.88 357.98Z" fill="#614CE1" fill-opacity="0.05"/>
<path opacity="0.83" d="M1920 307.579L1891.04 357.979H1826.72L1794.56 301.979L1826.72 245.979H1891.04L1920 296.539V294.139L1891.68 244.699H1826.08L1793.28 301.659L1793.12 301.979L1826.08 359.259H1891.68L1920 309.979V307.579Z" fill="#614CE1" fill-opacity="0.05"/>
<path opacity="0.66" d="M25.76 188.061H0V189.341H25.12L57.28 245.341L25.12 301.341H0V302.621H25.76L58.72 245.341L25.76 188.061Z" fill="#614CE1" fill-opacity="0.05"/>
<path opacity="0.88" d="M222.24 302.621H156.48L124.48 245.341L156.48 188.061H222.24L254.24 245.341L222.24 302.621ZM157.28 301.341H221.28L253.28 245.341L221.28 189.341H157.28L125.28 245.341L157.28 301.341Z" fill="#614CE1" fill-opacity="0.05"/>
<path opacity="0.74" d="M418.56 302.621H352.96L320.96 245.341L352.96 188.061H418.56L451.52 245.341L418.56 302.621ZM353.6 301.341H417.6L449.6 245.341L417.6 189.341H353.6L321.6 245.341L353.6 301.341Z" fill="#614CE1" fill-opacity="0.05"/>
<path opacity="0.35" d="M615.04 302.621H549.28L517.28 245.341L549.28 188.061H615.04L647.84 245.341L615.04 302.621ZM550.08 301.341H614.08L646.08 245.341L614.08 189.341H550.08L518.08 245.341L550.08 301.341Z" fill="#614CE1" fill-opacity="0.05"/>
<path opacity="0.93" d="M1400.64 302.621H1335.04L1302.08 245.341L1334.08 188.381H1399.68L1432.64 245.661L1400.64 302.621ZM1335.68 301.341H1399.68L1431.68 245.341L1399.68 189.341H1335.68L1303.68 245.341L1335.68 301.341Z" fill="#614CE1" fill-opacity="0.05"/>
<path opacity="0.88" d="M1597.12 302.621H1531.36L1499.36 245.341L1531.36 188.381H1597.12L1629.92 245.661L1597.12 302.621ZM1532 301.341H1596L1628 245.341L1596 189.341H1532L1500 245.341L1532 301.341Z" fill="#614CE1" fill-opacity="0.05"/>
<path opacity="0.37" d="M1793.44 302.621H1728L1695.04 245.341L1727.04 188.381H1792.64L1825.6 245.661L1793.44 302.621ZM1728 301.341H1792L1824 245.341L1792 189.341H1728L1696 245.341L1728 301.341Z" fill="#614CE1" fill-opacity="0.05"/>
<path opacity="0.82" d="M124 245.98H58.3999L25.4399 188.7L58.3999 131.42H124L156.8 188.7L124 245.98ZM59.0399 244.7H123.04L155.04 188.7L123.04 132.7H59.0399L27.0399 188.7L59.0399 244.7Z" fill="#614CE1" fill-opacity="0.05"/>
<path opacity="0.82" d="M320 245.98H254.72L221.92 188.7L254.72 131.42H320L352 188.7L320 245.98ZM256 244.7H320L352 188.7L320 132.7H256L224 188.7L256 244.7Z" fill="#614CE1" fill-opacity="0.05"/>
<path opacity="0.75" d="M516.8 245.98H451.2L418.24 188.7L451.2 131.42H516.8L549.76 188.7L516.8 245.98ZM451.84 244.7H515.84L547.84 188.7L515.84 132.7H451.84L419.84 188.7L451.84 244.7Z" fill="#614CE1" fill-opacity="0.05"/>
<path opacity="0.81" d="M1498.88 245.98H1433.12L1401.12 188.7L1433.12 131.74H1498.88L1530.88 189.02L1498.88 245.98ZM1433.92 244.7H1497.92L1529.92 188.7L1497.92 132.7H1433.92L1401.92 188.7L1433.92 244.7Z" fill="#614CE1" fill-opacity="0.05"/>
<path opacity="0.59" d="M1696 245.98H1630.24L1598.24 188.7L1630.24 131.74H1696L1728 188.7L1696 245.98ZM1630.88 244.7H1694.88L1726.88 188.7L1694.88 132.7H1630.88L1598.88 188.7L1630.88 244.7Z" fill="#614CE1" fill-opacity="0.05"/>
<path opacity="0.52" d="M1920 194.14L1891.04 244.7H1826.72L1794.56 188.7L1826.72 132.7H1891.04L1920 183.26V180.7L1891.68 131.42H1826.08L1793.28 188.38L1793.12 188.7L1826.08 245.98H1891.68L1920 196.7V194.14Z" fill="#614CE1" fill-opacity="0.05"/>
<path opacity="0.61" d="M25.76 74.7793H0V76.0593H25.12L57.28 132.059L25.12 188.059H0V189.179H25.76L58.72 132.059L25.76 74.7793Z" fill="#614CE1" fill-opacity="0.05"/>
<path opacity="0.98" d="M222.24 189.179H156.48L124.48 132.059L156.48 74.7793H222.24L254.24 132.059L222.24 189.179ZM157.28 188.059H221.28L253.28 132.059L221.28 76.0593H157.28L125.28 132.059L157.28 188.059Z" fill="#614CE1" fill-opacity="0.05"/>
<path opacity="0.64" d="M418.56 189.179H352.96L320.96 132.059L352.96 74.7793H418.56L451.52 132.059L418.56 189.179ZM353.6 188.059H417.6L449.6 132.059L417.6 76.0593H353.6L321.6 132.059L353.6 188.059Z" fill="#614CE1" fill-opacity="0.05"/>
<path opacity="0.4" d="M615.04 189.179H549.28L517.28 132.059L549.28 74.7793H615.04L647.84 132.059L615.04 189.179ZM550.08 188.059H614.08L646.08 132.059L614.08 76.0593H550.08L518.08 132.059L550.08 188.059Z" fill="#614CE1" fill-opacity="0.05"/>
<path opacity="0.31" d="M1597.12 189.18H1531.36L1499.36 132.06L1531.36 75.0996H1597.12L1629.92 132.38L1597.12 189.18ZM1532 188.06H1596L1628 132.06L1596 76.0596H1532L1500 132.06L1532 188.06Z" fill="#614CE1" fill-opacity="0.05"/>
<path opacity="0.7" d="M1793.44 189.18H1728L1695.04 132.06L1727.04 75.0996H1792.64L1825.6 132.38L1793.44 189.18ZM1728 188.06H1792L1824 132.06L1792 76.0596H1728L1696 132.06L1728 188.06Z" fill="#614CE1" fill-opacity="0.05"/>
<path opacity="0.56" d="M124 132.541H58.3999L25.4399 75.4206L58.3999 18.1406H124L156.8 75.4206L124 132.541ZM59.0399 131.421H123.04L155.04 75.4206L123.04 19.4206H59.0399L27.0399 75.4206L59.0399 131.421Z" fill="#614CE1" fill-opacity="0.05"/>
<path opacity="0.51" d="M320 132.541H254.72L221.92 75.4206L254.72 18.1406H320L352 75.4206L320 132.541ZM256 131.421H320L352 75.4206L320 19.4206H256L224 75.4206L256 131.421Z" fill="#614CE1" fill-opacity="0.05"/>
<path opacity="0.89" d="M516.8 132.541H451.2L418.24 75.4206L451.2 18.1406H516.8L549.76 75.4206L516.8 132.541ZM451.84 131.421H515.84L547.84 75.4206L515.84 19.4206H451.84L419.84 75.4206L451.84 131.421Z" fill="#614CE1" fill-opacity="0.05"/>
<path opacity="0.29" d="M713.28 132.541H647.52L615.52 75.4206L647.52 18.1406H713.28L746.08 75.4206L713.28 132.541ZM648.32 131.421H712.32L744.32 75.4206L712.32 19.4206H648.32L616.32 75.4206L648.32 131.421Z" fill="#614CE1" fill-opacity="0.05"/>
<path d="M1498.88 132.541H1433.12L1401.12 75.4209L1433.12 18.4609H1498.88L1530.88 75.7409L1498.88 132.541ZM1433.92 131.421H1497.92L1529.92 75.4209L1497.92 19.4209H1433.92L1401.92 75.4209L1433.92 131.421Z" fill="#614CE1" fill-opacity="0.05"/>
<path opacity="0.36" d="M1696 132.541H1630.24L1598.24 75.4209L1630.24 18.4609H1696L1728 75.4209L1696 132.541ZM1630.88 131.421H1694.88L1726.88 75.4209L1694.88 19.4209H1630.88L1598.88 75.4209L1630.88 131.421Z" fill="#614CE1" fill-opacity="0.05"/>
<path opacity="0.46" d="M1920 80.8606L1891.04 131.421H1826.72L1794.56 75.4206L1826.72 19.4206H1891.04L1920 69.8206V67.4206L1891.68 18.1406H1826.08L1793.28 75.1006L1793.12 75.4206L1826.08 132.541H1891.68L1920 83.2606V80.8606Z" fill="#614CE1" fill-opacity="0.05"/>
<path opacity="0.47" d="M25.76 -38.5H0V-37.22H25.12L57.28 18.78L25.12 74.78H0V75.9H25.76L58.72 18.78L25.76 -38.5Z" fill="#614CE1" fill-opacity="0.05"/>
<path opacity="0.6" d="M222.24 75.9H156.48L124.48 18.78L156.48 -38.5H222.24L254.24 18.78L222.24 75.9ZM157.28 74.78H221.28L253.28 18.78L221.28 -37.22H157.28L125.28 18.78L157.28 74.78Z" fill="#614CE1" fill-opacity="0.05"/>
<path opacity="0.49" d="M418.56 75.9H352.96L320 18.78L352 -38.5H417.6L450.56 18.78L418.56 75.9ZM353.6 74.78H417.6L449.6 18.78L417.6 -37.22H353.6L321.6 18.78L353.6 74.78Z" fill="#614CE1" fill-opacity="0.05"/>
<path opacity="0.58" d="M615.04 75.9H549.28L517.28 18.78L549.28 -38.5H615.04L647.84 18.78L615.04 75.9ZM550.08 74.78H614.08L646.08 18.78L614.08 -37.22H550.08L518.08 18.78L550.08 74.78Z" fill="#614CE1" fill-opacity="0.05"/>
<path opacity="0.56" d="M1400.64 75.9003H1335.04L1302.08 18.7803L1334.08 -38.1797H1399.68L1433.6 18.7803L1400.64 75.9003ZM1335.68 74.7803H1399.68L1431.68 18.7803L1399.68 -37.2197H1335.68L1303.68 18.7803L1335.68 74.7803Z" fill="#614CE1" fill-opacity="0.05"/>
<path opacity="0.45" d="M1597.12 75.9003H1531.36L1499.36 18.7803L1531.36 -38.1797H1597.12L1629.92 19.1003L1597.12 75.9003ZM1532 74.7803H1596L1628 18.7803L1596 -37.2197H1532L1500 18.7803L1532 74.7803Z" fill="#614CE1" fill-opacity="0.05"/>
<path opacity="0.89" d="M1793.44 75.9H1728L1695.04 18.78L1728 -38.5H1793.6L1826.56 18.78L1793.44 75.9ZM1728 74.78H1792L1824 18.78L1792 -37.22H1728L1696 18.78L1728 74.78Z" fill="#614CE1" fill-opacity="0.05"/>
<path opacity="0.62" d="M155.2 -38.5L155.52 -37.86L123.36 18.14H59.0399L26.8799 -37.86L27.1999 -38.5H25.7599L25.4399 -37.86L58.3999 19.26H124L156.8 -37.86L156.48 -38.5H155.2Z" fill="#614CE1" fill-opacity="0.05"/>
<path opacity="0.6" d="M351.52 -38.5L351.84 -37.86L319.68 18.14H255.36L223.2 -37.86L223.52 -38.5H222.24L221.92 -37.86L254.72 19.26H320.48L353.28 -37.86L352.96 -38.5H351.52Z" fill="#614CE1" fill-opacity="0.05"/>
<path opacity="0.54" d="M548 -38.5L548.32 -37.86L516.16 18.14H451.84L419.68 -37.86L420 -38.5H418.56L418.24 -37.86L451.2 19.26H516.8L549.6 -37.86L549.44 -38.5H548Z" fill="#614CE1" fill-opacity="0.05"/>
<path opacity="0.57" d="M744.32 -38.5L744.64 -37.86L712.48 18.14H648.32L616.16 -37.86L616.48 -38.5H615.04L614.72 -37.86L647.52 19.26H713.28L746.08 -37.86L745.76 -38.5H744.32Z" fill="#614CE1" fill-opacity="0.05"/>
<path opacity="0.55" d="M1333.6 -38.5L1333.92 -37.86L1301.76 18.14H1237.44L1205.28 -37.86L1205.6 -38.5H1204.32L1204.16 -38.18L1204 -37.86L1236.8 19.26H1302.4L1335.2 -37.54L1335.36 -37.86L1335.04 -38.5H1333.6Z" fill="#614CE1" fill-opacity="0.05"/>
<path opacity="0.84" d="M1530.08 -38.5L1530.4 -37.86L1498.24 18.14H1433.92L1401.76 -37.86L1402.08 -38.5H1400.64L1400.48 -38.18L1400.32 -37.86L1433.12 19.26H1498.88L1531.52 -37.54L1531.68 -37.86L1531.36 -38.5H1530.08Z" fill="#614CE1" fill-opacity="0.05"/>
<path opacity="0.55" d="M1726.4 -38.5L1726.72 -37.86L1694.56 18.14H1630.24L1598.08 -37.86L1598.4 -38.5H1597.12L1596.96 -38.18L1596.8 -37.86L1629.6 19.26H1695.36L1728 -37.54L1728.16 -37.86L1727.84 -38.5H1726.4Z" fill="#614CE1" fill-opacity="0.05"/>
<path opacity="0.4" d="M1920 -32.42L1891.04 18.14H1826.72L1794.56 -37.86L1794.88 -38.5H1793.44L1793.28 -38.18L1793.12 -37.86L1826.08 19.26H1891.68L1920 -30.02V-32.42Z" fill="#614CE1" fill-opacity="0.05"/>
<path opacity="0.51" d="M1506.24 698.621C1506.26 699.643 1506.08 700.659 1505.7 701.609C1505.33 702.559 1504.76 703.425 1504.05 704.155C1503.33 704.885 1502.48 705.465 1501.54 705.861C1500.59 706.257 1499.58 706.461 1498.56 706.461C1496.44 706.461 1494.4 705.618 1492.9 704.118C1491.4 702.618 1490.56 700.583 1490.56 698.461C1490.56 696.339 1491.4 694.304 1492.9 692.804C1494.4 691.304 1496.44 690.461 1498.56 690.461C1499.61 690.459 1500.65 690.672 1501.61 691.088C1502.58 691.504 1503.45 692.113 1504.17 692.877C1504.89 693.642 1505.44 694.546 1505.8 695.534C1506.16 696.522 1506.31 697.573 1506.24 698.621Z" fill="#614CE1" fill-opacity="0.05"/>
<path opacity="0.95" d="M228.96 641.979C228.96 643.847 228.218 645.637 226.898 646.957C225.578 648.278 223.787 649.019 221.92 649.019C220.053 649.019 218.262 648.278 216.942 646.957C215.622 645.637 214.88 643.847 214.88 641.979C214.858 641.049 215.025 640.124 215.371 639.26C215.717 638.396 216.235 637.611 216.893 636.953C217.551 636.294 218.336 635.777 219.2 635.431C220.064 635.085 220.989 634.918 221.92 634.939C223.787 634.939 225.578 635.681 226.898 637.001C228.218 638.322 228.96 640.112 228.96 641.979Z" fill="#614CE1" fill-opacity="0.05"/>
<path opacity="0.32" d="M425.6 641.979C425.559 643.918 424.771 645.767 423.399 647.138C422.028 648.51 420.179 649.298 418.24 649.339C416.288 649.339 414.416 648.564 413.036 647.183C411.656 645.803 410.88 643.931 410.88 641.979C410.88 640.027 411.656 638.155 413.036 636.775C414.416 635.395 416.288 634.619 418.24 634.619C420.179 634.66 422.028 635.448 423.399 636.82C424.771 638.192 425.559 640.04 425.6 641.979Z" fill="#614CE1" fill-opacity="0.05"/>
<path opacity="0.62" d="M1831.2 698.619C1831.2 700.105 1830.61 701.529 1829.56 702.579C1828.51 703.629 1827.08 704.219 1825.6 704.219C1824.26 703.993 1823.04 703.299 1822.16 702.259C1821.28 701.219 1820.8 699.901 1820.8 698.539C1820.8 697.178 1821.28 695.86 1822.16 694.82C1823.04 693.78 1824.26 693.086 1825.6 692.859C1826.35 692.859 1827.09 693.009 1827.78 693.3C1828.47 693.592 1829.1 694.019 1829.62 694.556C1830.14 695.093 1830.55 695.729 1830.82 696.427C1831.09 697.125 1831.22 697.871 1831.2 698.619Z" fill="#614CE1" fill-opacity="0.05"/>
<path opacity="0.69" d="M1734.24 641.98C1734.24 643.183 1733.88 644.358 1733.21 645.358C1732.55 646.358 1731.6 647.137 1730.49 647.598C1729.38 648.058 1728.15 648.178 1726.97 647.944C1725.79 647.709 1724.71 647.13 1723.86 646.28C1723.01 645.429 1722.43 644.346 1722.2 643.167C1721.96 641.987 1722.08 640.765 1722.54 639.654C1723 638.543 1723.78 637.593 1724.78 636.925C1725.78 636.257 1726.96 635.9 1728.16 635.9C1729.77 635.9 1731.32 636.541 1732.46 637.681C1733.6 638.821 1734.24 640.368 1734.24 641.98Z" fill="#614CE1" fill-opacity="0.05"/>
<path opacity="0.96" d="M129.76 698.621C129.729 699.816 129.346 700.975 128.659 701.954C127.972 702.933 127.012 703.687 125.898 704.123C124.785 704.558 123.568 704.656 122.399 704.404C121.23 704.152 120.162 703.56 119.328 702.704C118.493 701.848 117.93 700.764 117.708 699.589C117.486 698.415 117.615 697.2 118.08 696.099C118.544 694.997 119.323 694.057 120.32 693.395C121.316 692.734 122.485 692.381 123.68 692.381C124.492 692.381 125.296 692.543 126.044 692.858C126.793 693.174 127.47 693.636 128.037 694.218C128.604 694.799 129.048 695.489 129.344 696.245C129.64 697.001 129.782 697.809 129.76 698.621Z" fill="#614CE1" fill-opacity="0.05"/>
<path opacity="0.44" d="M325.6 698.619C325.377 699.922 324.701 701.104 323.691 701.956C322.681 702.809 321.402 703.276 320.08 703.276C318.758 703.276 317.479 702.809 316.469 701.956C315.459 701.104 314.783 699.922 314.56 698.619C314.423 697.816 314.462 696.992 314.677 696.205C314.891 695.419 315.274 694.688 315.8 694.065C316.325 693.442 316.981 692.941 317.72 692.598C318.459 692.254 319.265 692.076 320.08 692.076C320.895 692.076 321.701 692.254 322.44 692.598C323.179 692.941 323.835 693.442 324.36 694.065C324.886 694.688 325.269 695.419 325.483 696.205C325.697 696.992 325.737 697.816 325.6 698.619Z" fill="#614CE1" fill-opacity="0.05"/>
<path opacity="0.6" d="M260.64 698.62C260.598 700.077 259.99 701.46 258.944 702.476C257.899 703.492 256.498 704.06 255.04 704.06C253.737 703.837 252.555 703.161 251.703 702.15C250.851 701.14 250.383 699.861 250.383 698.539C250.383 697.218 250.851 695.939 251.703 694.929C252.555 693.918 253.737 693.242 255.04 693.02C256.525 693.02 257.95 693.61 259 694.66C260.05 695.71 260.64 697.134 260.64 698.62Z" fill="#614CE1" fill-opacity="0.05"/>
<path opacity="0.58" d="M653.12 585.501C653.12 586.187 652.983 586.866 652.715 587.498C652.448 588.13 652.057 588.701 651.564 589.179C651.072 589.656 650.488 590.03 649.848 590.278C649.209 590.526 648.526 590.642 647.84 590.621C646.482 590.621 645.18 590.081 644.219 589.121C643.259 588.161 642.72 586.859 642.72 585.501C642.698 584.815 642.815 584.132 643.063 583.492C643.31 582.852 643.684 582.269 644.162 581.776C644.639 581.284 645.211 580.892 645.843 580.625C646.475 580.358 647.154 580.22 647.84 580.221C649.24 580.221 650.583 580.777 651.573 581.767C652.564 582.757 653.12 584.1 653.12 585.501Z" fill="#614CE1" fill-opacity="0.05"/>
<path opacity="0.56" d="M1799.68 641.98C1799.45 643.363 1798.74 644.619 1797.67 645.526C1796.6 646.432 1795.24 646.93 1793.84 646.93C1792.44 646.93 1791.08 646.432 1790.01 645.526C1788.94 644.619 1788.23 643.363 1788 641.98C1787.86 641.132 1787.91 640.264 1788.13 639.435C1788.36 638.607 1788.77 637.838 1789.32 637.182C1789.88 636.526 1790.57 636 1791.35 635.638C1792.13 635.277 1792.98 635.09 1793.84 635.09C1794.7 635.09 1795.55 635.277 1796.33 635.638C1797.11 636 1797.8 636.526 1798.36 637.182C1798.91 637.838 1799.32 638.607 1799.55 639.435C1799.78 640.264 1799.82 641.132 1799.68 641.98Z" fill="#614CE1" fill-opacity="0.05"/>
<path opacity="0.64" d="M227.04 528.7C227.04 530.058 226.501 531.36 225.541 532.32C224.58 533.28 223.278 533.82 221.92 533.82C221.234 533.841 220.551 533.725 219.912 533.477C219.272 533.229 218.688 532.856 218.196 532.378C217.703 531.901 217.312 531.329 217.045 530.697C216.777 530.065 216.64 529.386 216.64 528.7C216.64 527.3 217.196 525.957 218.187 524.966C219.177 523.976 220.52 523.42 221.92 523.42C222.606 523.42 223.285 523.557 223.917 523.824C224.549 524.092 225.121 524.483 225.598 524.976C226.076 525.468 226.45 526.052 226.697 526.691C226.945 527.331 227.062 528.014 227.04 528.7Z" fill="#614CE1" fill-opacity="0.05"/>
<path opacity="0.99" d="M425.44 641.819C425.594 642.844 425.525 643.889 425.238 644.885C424.951 645.88 424.452 646.802 423.776 647.587C423.1 648.372 422.263 649.002 421.321 649.434C420.38 649.866 419.356 650.089 418.32 650.089C417.284 650.089 416.26 649.866 415.318 649.434C414.377 649.002 413.539 648.372 412.863 647.587C412.187 646.802 411.689 645.88 411.402 644.885C411.115 643.889 411.046 642.844 411.2 641.819C411.046 640.795 411.115 639.749 411.402 638.754C411.689 637.758 412.187 636.836 412.863 636.051C413.539 635.266 414.377 634.636 415.318 634.204C416.26 633.772 417.284 633.549 418.32 633.549C419.356 633.549 420.38 633.772 421.321 634.204C422.263 634.636 423.1 635.266 423.776 636.051C424.452 636.836 424.951 637.758 425.238 638.754C425.525 639.749 425.594 640.795 425.44 641.819Z" fill="#614CE1" fill-opacity="0.05"/>
<path opacity="0.22" d="M457.28 585.5C457.28 586.797 456.895 588.065 456.174 589.144C455.454 590.223 454.429 591.064 453.23 591.56C452.032 592.057 450.713 592.187 449.44 591.934C448.168 591.68 446.999 591.056 446.081 590.138C445.164 589.221 444.539 588.052 444.286 586.779C444.033 585.507 444.163 584.188 444.659 582.989C445.156 581.79 445.997 580.766 447.075 580.045C448.154 579.324 449.422 578.94 450.72 578.94C451.587 578.918 452.45 579.072 453.256 579.394C454.062 579.716 454.794 580.198 455.407 580.812C456.021 581.426 456.503 582.158 456.825 582.963C457.147 583.769 457.302 584.632 457.28 585.5Z" fill="#614CE1" fill-opacity="0.05"/>
<path opacity="0.49" d="M424.32 528.699C424.32 529.902 423.964 531.077 423.296 532.077C422.627 533.077 421.678 533.856 420.567 534.316C419.456 534.777 418.233 534.897 417.054 534.662C415.875 534.428 414.791 533.849 413.941 532.998C413.091 532.148 412.512 531.065 412.277 529.885C412.042 528.706 412.163 527.483 412.623 526.372C413.083 525.261 413.862 524.312 414.862 523.644C415.862 522.976 417.038 522.619 418.24 522.619C419.853 522.619 421.399 523.26 422.539 524.4C423.68 525.54 424.32 527.087 424.32 528.699Z" fill="#614CE1" fill-opacity="0.05"/>
<path opacity="0.99" d="M359.36 641.82C359.36 643.023 359.003 644.198 358.335 645.198C357.667 646.198 356.718 646.977 355.607 647.437C354.496 647.898 353.273 648.018 352.094 647.783C350.914 647.549 349.831 646.97 348.981 646.119C348.13 645.269 347.551 644.186 347.317 643.006C347.082 641.827 347.203 640.605 347.663 639.494C348.123 638.383 348.902 637.433 349.902 636.765C350.902 636.097 352.077 635.74 353.28 635.74C354.892 635.74 356.439 636.381 357.579 637.521C358.719 638.661 359.36 640.208 359.36 641.82Z" fill="#614CE1" fill-opacity="0.05"/>
<path opacity="0.88" d="M1636 585.499C1636 586.382 1635.83 587.255 1635.49 588.071C1635.15 588.886 1634.66 589.627 1634.03 590.251C1633.41 590.875 1632.67 591.37 1631.85 591.708C1631.04 592.045 1630.16 592.219 1629.28 592.219C1627.66 591.969 1626.17 591.146 1625.1 589.899C1624.03 588.652 1623.45 587.063 1623.45 585.419C1623.45 583.776 1624.03 582.187 1625.1 580.939C1626.17 579.692 1627.66 578.869 1629.28 578.619C1630.18 578.619 1631.06 578.798 1631.89 579.146C1632.71 579.493 1633.46 580.003 1634.09 580.644C1634.72 581.285 1635.21 582.044 1635.54 582.878C1635.86 583.712 1636.02 584.603 1636 585.499Z" fill="#614CE1" fill-opacity="0.05"/>
<path opacity="0.45" d="M357.76 528.54C357.781 529.226 357.665 529.909 357.417 530.548C357.169 531.188 356.796 531.772 356.318 532.264C355.841 532.757 355.269 533.148 354.637 533.415C354.005 533.683 353.326 533.82 352.64 533.82C351.881 533.954 351.101 533.919 350.357 533.72C349.612 533.52 348.92 533.16 348.33 532.664C347.739 532.169 347.265 531.55 346.939 530.851C346.613 530.152 346.444 529.391 346.444 528.62C346.444 527.849 346.613 527.087 346.939 526.389C347.265 525.69 347.739 525.071 348.33 524.576C348.92 524.08 349.612 523.72 350.357 523.52C351.101 523.32 351.881 523.286 352.64 523.42C353.998 523.42 355.3 523.959 356.26 524.919C357.221 525.88 357.76 527.182 357.76 528.54Z" fill="#614CE1" fill-opacity="0.05"/>
<path opacity="0.22" d="M457.76 472.06C457.72 473.702 457.049 475.266 455.888 476.428C454.726 477.589 453.162 478.26 451.52 478.3C450.017 478.06 448.648 477.292 447.66 476.134C446.672 474.975 446.129 473.503 446.129 471.98C446.129 470.458 446.672 468.985 447.66 467.827C448.648 466.668 450.017 465.9 451.52 465.66C453.19 465.702 454.777 466.395 455.943 467.59C457.108 468.786 457.761 470.39 457.76 472.06Z" fill="#614CE1" fill-opacity="0.05"/>
<path opacity="0.38" d="M1340.8 528.541C1340.94 529.433 1340.89 530.346 1340.65 531.216C1340.41 532.086 1339.98 532.894 1339.39 533.582C1338.81 534.27 1338.08 534.823 1337.26 535.202C1336.44 535.581 1335.54 535.777 1334.64 535.777C1333.74 535.777 1332.84 535.581 1332.02 535.202C1331.2 534.823 1330.47 534.27 1329.89 533.582C1329.3 532.894 1328.87 532.086 1328.63 531.216C1328.39 530.346 1328.34 529.433 1328.48 528.541C1328.72 527.078 1329.47 525.746 1330.59 524.785C1331.72 523.825 1333.16 523.297 1334.64 523.297C1336.12 523.297 1337.56 523.825 1338.68 524.785C1339.81 525.746 1340.56 527.078 1340.8 528.541Z" fill="#614CE1" fill-opacity="0.05"/>
<path opacity="0.33" d="M1406.88 528.54C1407.02 529.388 1406.98 530.256 1406.75 531.085C1406.52 531.913 1406.11 532.682 1405.56 533.338C1405 533.993 1404.31 534.52 1403.53 534.881C1402.75 535.243 1401.9 535.43 1401.04 535.43C1400.18 535.43 1399.33 535.243 1398.55 534.881C1397.77 534.52 1397.08 533.993 1396.52 533.338C1395.97 532.682 1395.56 531.913 1395.33 531.085C1395.1 530.256 1395.06 529.388 1395.2 528.54C1395.43 527.157 1396.14 525.9 1397.21 524.994C1398.28 524.087 1399.64 523.59 1401.04 523.59C1402.44 523.59 1403.8 524.087 1404.87 524.994C1405.94 525.9 1406.65 527.157 1406.88 528.54Z" fill="#614CE1" fill-opacity="0.05"/>
<path opacity="0.66" d="M1699.52 585.499C1699.52 586.73 1699.03 587.91 1698.16 588.78C1697.29 589.651 1696.11 590.139 1694.88 590.139C1693.65 590.139 1692.47 589.651 1691.6 588.78C1690.73 587.91 1690.24 586.73 1690.24 585.499C1690.24 584.269 1690.73 583.089 1691.6 582.218C1692.47 581.348 1693.65 580.859 1694.88 580.859C1696.11 580.859 1697.29 581.348 1698.16 582.218C1699.03 583.089 1699.52 584.269 1699.52 585.499Z" fill="#614CE1" fill-opacity="0.05"/>
<path opacity="0.62" d="M1637.28 472.059C1637.28 474.011 1636.5 475.883 1635.12 477.263C1633.74 478.644 1631.87 479.419 1629.92 479.419C1627.97 479.419 1626.1 478.644 1624.72 477.263C1623.34 475.883 1622.56 474.011 1622.56 472.059C1622.56 470.107 1623.34 468.235 1624.72 466.855C1626.1 465.475 1627.97 464.699 1629.92 464.699C1631.87 464.699 1633.74 465.475 1635.12 466.855C1636.5 468.235 1637.28 470.107 1637.28 472.059Z" fill="#614CE1" fill-opacity="0.05"/>
<path opacity="0.75" d="M1604.64 528.54C1604.67 529.97 1604.28 531.378 1603.51 532.583C1602.73 533.788 1601.62 534.735 1600.31 535.305C1599 535.874 1597.54 536.04 1596.14 535.781C1594.73 535.521 1593.43 534.848 1592.41 533.848C1591.39 532.848 1590.68 531.565 1590.39 530.165C1590.1 528.764 1590.23 527.308 1590.77 525.983C1591.31 524.658 1592.24 523.524 1593.42 522.725C1594.61 521.927 1596.01 521.5 1597.44 521.5C1599.32 521.5 1601.13 522.236 1602.48 523.552C1603.82 524.868 1604.6 526.658 1604.64 528.54Z" fill="#614CE1" fill-opacity="0.05"/>
<path opacity="0.3" d="M228.64 415.42C228.39 417.045 227.567 418.526 226.32 419.596C225.073 420.666 223.484 421.254 221.84 421.254C220.197 421.254 218.608 420.666 217.36 419.596C216.113 418.526 215.29 417.045 215.04 415.42C214.889 414.44 214.952 413.438 215.225 412.485C215.497 411.531 215.973 410.647 216.619 409.894C217.264 409.141 218.065 408.537 218.967 408.123C219.868 407.709 220.848 407.494 221.84 407.494C222.832 407.494 223.812 407.709 224.714 408.123C225.615 408.537 226.416 409.141 227.062 409.894C227.708 410.647 228.183 411.531 228.456 412.485C228.728 413.438 228.791 414.44 228.64 415.42Z" fill="#614CE1" fill-opacity="0.05"/>
<path opacity="0.65" d="M424.48 528.541C424.624 529.433 424.573 530.346 424.33 531.216C424.087 532.086 423.657 532.894 423.072 533.582C422.486 534.27 421.757 534.823 420.937 535.202C420.117 535.581 419.224 535.777 418.32 535.777C417.416 535.777 416.523 535.581 415.703 535.202C414.883 534.823 414.154 534.27 413.569 533.582C412.983 532.894 412.553 532.086 412.31 531.216C412.067 530.346 412.016 529.433 412.16 528.541C412.397 527.078 413.146 525.746 414.275 524.785C415.404 523.825 416.838 523.297 418.32 523.297C419.802 523.297 421.236 523.825 422.365 524.785C423.494 525.746 424.243 527.078 424.48 528.541Z" fill="#614CE1" fill-opacity="0.05"/>
<path opacity="0.36" d="M327.04 471.9C327.04 473.555 326.383 475.142 325.212 476.312C324.042 477.483 322.455 478.14 320.8 478.14C319.975 478.162 319.153 478.016 318.386 477.71C317.619 477.404 316.923 476.945 316.339 476.362C315.755 475.778 315.296 475.081 314.99 474.314C314.684 473.547 314.538 472.726 314.56 471.9C314.56 470.245 315.217 468.658 316.388 467.488C317.558 466.318 319.145 465.66 320.8 465.66C322.442 465.701 324.006 466.371 325.167 467.533C326.329 468.694 326.999 470.258 327.04 471.9Z" fill="#614CE1" fill-opacity="0.05"/>
<path opacity="0.44" d="M1635.36 471.9C1635.36 473.103 1635 474.278 1634.34 475.278C1633.67 476.278 1632.72 477.057 1631.61 477.518C1630.5 477.978 1629.27 478.098 1628.09 477.863C1626.91 477.629 1625.83 477.05 1624.98 476.2C1624.13 475.349 1623.55 474.266 1623.32 473.086C1623.08 471.907 1623.2 470.685 1623.66 469.574C1624.12 468.463 1624.9 467.513 1625.9 466.845C1626.9 466.177 1628.08 465.82 1629.28 465.82C1630.89 465.82 1632.44 466.461 1633.58 467.601C1634.72 468.741 1635.36 470.288 1635.36 471.9Z" fill="#614CE1" fill-opacity="0.05"/>
<path opacity="0.2" d="M1798.72 415.42C1798.68 416.878 1798.07 418.261 1797.02 419.277C1795.98 420.293 1794.58 420.861 1793.12 420.86C1791.82 420.638 1790.64 419.961 1789.78 418.951C1788.93 417.941 1788.46 416.662 1788.46 415.34C1788.46 414.019 1788.93 412.74 1789.78 411.729C1790.64 410.719 1791.82 410.043 1793.12 409.82C1794.61 409.82 1796.03 410.41 1797.08 411.461C1798.13 412.511 1798.72 413.935 1798.72 415.42Z" fill="#614CE1" fill-opacity="0.05"/>
<path opacity="0.68" d="M325.92 358.62C325.952 359.803 325.627 360.97 324.989 361.967C324.351 362.965 323.428 363.748 322.34 364.216C321.252 364.684 320.049 364.815 318.886 364.591C317.723 364.368 316.653 363.801 315.816 362.964C314.979 362.126 314.412 361.057 314.188 359.894C313.965 358.731 314.096 357.527 314.563 356.439C315.031 355.351 315.814 354.428 316.812 353.79C317.81 353.152 318.976 352.828 320.16 352.86C321.688 352.86 323.153 353.466 324.233 354.547C325.313 355.627 325.92 357.092 325.92 358.62Z" fill="#614CE1" fill-opacity="0.05"/>
<path opacity="0.74" d="M555.52 415.259C555.667 416.195 555.61 417.153 555.352 418.065C555.095 418.977 554.642 419.822 554.026 420.543C553.411 421.263 552.646 421.842 551.785 422.238C550.924 422.635 549.988 422.84 549.04 422.84C548.092 422.84 547.155 422.635 546.294 422.238C545.434 421.842 544.669 421.263 544.053 420.543C543.437 419.822 542.985 418.977 542.727 418.065C542.469 417.153 542.412 416.195 542.56 415.259C542.412 414.323 542.469 413.366 542.727 412.454C542.985 411.541 543.437 410.696 544.053 409.975C544.669 409.255 545.434 408.676 546.294 408.28C547.155 407.883 548.092 407.678 549.04 407.678C549.988 407.678 550.924 407.883 551.785 408.28C552.646 408.676 553.411 409.255 554.026 409.975C554.642 410.696 555.095 411.541 555.352 412.454C555.61 413.366 555.667 414.323 555.52 415.259Z" fill="#614CE1" fill-opacity="0.05"/>
<path opacity="0.4" d="M656 471.901C656 473.388 655.559 474.842 654.733 476.079C653.906 477.315 652.732 478.279 651.358 478.848C649.984 479.418 648.472 479.567 647.013 479.276C645.554 478.986 644.214 478.27 643.163 477.218C642.111 476.167 641.395 474.827 641.104 473.368C640.814 471.909 640.963 470.397 641.532 469.023C642.102 467.649 643.065 466.475 644.302 465.648C645.539 464.822 646.993 464.381 648.48 464.381C650.474 464.381 652.387 465.173 653.797 466.583C655.208 467.994 656 469.906 656 471.901Z" fill="#614CE1" fill-opacity="0.05"/>
<path opacity="0.85" d="M1832.96 471.9C1832.96 473.655 1832.27 475.34 1831.05 476.596C1829.82 477.852 1828.15 478.578 1826.4 478.62C1825.52 478.62 1824.66 478.445 1823.85 478.106C1823.05 477.766 1822.32 477.268 1821.7 476.642C1821.09 476.016 1820.61 475.274 1820.29 474.459C1819.97 473.645 1819.82 472.775 1819.84 471.9C1819.84 470.16 1820.53 468.491 1821.76 467.261C1822.99 466.031 1824.66 465.34 1826.4 465.34C1828.14 465.34 1829.81 466.031 1831.04 467.261C1832.27 468.491 1832.96 470.16 1832.96 471.9Z" fill="#614CE1" fill-opacity="0.05"/>
<path opacity="0.49" d="M228.16 415.26C228.16 416.915 227.503 418.502 226.332 419.672C225.162 420.842 223.575 421.5 221.92 421.5C221.095 421.522 220.273 421.375 219.506 421.069C218.739 420.764 218.043 420.305 217.459 419.721C216.875 419.137 216.416 418.44 216.11 417.673C215.804 416.906 215.658 416.085 215.68 415.26C215.68 414.44 215.842 413.629 216.155 412.872C216.469 412.115 216.928 411.427 217.508 410.847C218.087 410.268 218.775 409.808 219.532 409.495C220.289 409.181 221.101 409.02 221.92 409.02C223.562 409.06 225.126 409.731 226.288 410.892C227.449 412.054 228.12 413.617 228.16 415.26Z" fill="#614CE1" fill-opacity="0.05"/>
<path opacity="0.94" d="M555.2 415.26C555.2 416.375 554.867 417.464 554.244 418.388C553.621 419.312 552.737 420.029 551.704 420.448C550.672 420.866 549.538 420.968 548.447 420.738C547.357 420.509 546.36 419.959 545.583 419.16C544.807 418.361 544.286 417.348 544.089 416.252C543.891 415.155 544.025 414.024 544.474 413.004C544.922 411.984 545.665 411.121 546.606 410.525C547.548 409.93 548.646 409.629 549.76 409.66C551.217 409.702 552.601 410.31 553.617 411.356C554.633 412.402 555.201 413.803 555.2 415.26Z" fill="#614CE1" fill-opacity="0.05"/>
<path opacity="0.43" d="M720 358.621C720.021 359.454 719.876 360.282 719.572 361.058C719.268 361.833 718.812 362.54 718.23 363.137C717.648 363.733 716.953 364.207 716.186 364.531C715.418 364.854 714.593 365.021 713.76 365.021C712.063 365.021 710.435 364.346 709.235 363.146C708.034 361.946 707.36 360.318 707.36 358.621C707.36 356.923 708.034 355.295 709.235 354.095C710.435 352.895 712.063 352.221 713.76 352.221C714.593 352.22 715.418 352.387 716.186 352.711C716.953 353.034 717.648 353.508 718.23 354.105C718.812 354.701 719.268 355.408 719.572 356.184C719.876 356.959 720.021 357.788 720 358.621Z" fill="#614CE1" fill-opacity="0.05"/>
<path opacity="0.43" d="M1635.2 358.619C1635.2 360.204 1634.58 361.727 1633.48 362.863C1632.37 363.999 1630.86 364.658 1629.28 364.699C1627.86 364.466 1626.56 363.735 1625.63 362.636C1624.7 361.536 1624.18 360.141 1624.18 358.699C1624.18 357.257 1624.7 355.862 1625.63 354.763C1626.56 353.664 1627.86 352.932 1629.28 352.699C1630.84 352.74 1632.32 353.376 1633.42 354.478C1634.52 355.58 1635.16 357.062 1635.2 358.619Z" fill="#614CE1" fill-opacity="0.05"/>
<path opacity="0.58" d="M1537.28 415.26C1537.3 416.002 1537.17 416.74 1536.9 417.429C1536.62 418.119 1536.21 418.745 1535.69 419.269C1535.16 419.794 1534.54 420.205 1533.85 420.479C1533.16 420.753 1532.42 420.882 1531.68 420.86C1530.94 420.86 1530.22 420.715 1529.54 420.434C1528.86 420.152 1528.24 419.74 1527.72 419.22C1527.2 418.7 1526.79 418.083 1526.51 417.403C1526.22 416.724 1526.08 415.996 1526.08 415.26C1526.08 413.775 1526.67 412.351 1527.72 411.3C1528.77 410.25 1530.19 409.66 1531.68 409.66C1533.16 409.66 1534.59 410.25 1535.64 411.3C1536.69 412.351 1537.28 413.775 1537.28 415.26Z" fill="#614CE1" fill-opacity="0.05"/>
<path opacity="0.64" d="M1728.16 308.7C1731.87 308.7 1734.88 305.691 1734.88 301.98C1734.88 298.268 1731.87 295.26 1728.16 295.26C1724.45 295.26 1721.44 298.268 1721.44 301.98C1721.44 305.691 1724.45 308.7 1728.16 308.7Z" fill="#614CE1" fill-opacity="0.05"/>
<path opacity="0.51" d="M64.9602 245.34C65.1062 246.255 65.052 247.19 64.8015 248.081C64.551 248.972 64.1101 249.798 63.5093 250.503C62.9085 251.207 62.162 251.773 61.3214 252.161C60.4808 252.548 59.566 252.749 58.6402 252.749C57.7145 252.749 56.7997 252.548 55.9591 252.161C55.1184 251.773 54.372 251.207 53.7711 250.503C53.1703 249.798 52.7295 248.972 52.479 248.081C52.2285 247.19 52.1743 246.255 52.3202 245.34C52.5602 243.837 53.3283 242.468 54.4867 241.48C55.645 240.492 57.1177 239.949 58.6402 239.949C60.1628 239.949 61.6354 240.492 62.7938 241.48C63.9521 242.468 64.7203 243.837 64.9602 245.34Z" fill="#614CE1" fill-opacity="0.05"/>
<path opacity="0.67" d="M327.04 245.341C327.04 246.733 326.627 248.094 325.854 249.252C325.08 250.41 323.981 251.312 322.694 251.845C321.408 252.378 319.992 252.517 318.627 252.246C317.261 251.974 316.007 251.303 315.022 250.319C314.038 249.334 313.367 248.08 313.095 246.714C312.824 245.349 312.963 243.933 313.496 242.647C314.029 241.36 314.931 240.261 316.089 239.487C317.247 238.714 318.608 238.301 320 238.301C321.867 238.301 323.658 239.043 324.978 240.363C326.298 241.683 327.04 243.474 327.04 245.341Z" fill="#614CE1" fill-opacity="0.05"/>
<path opacity="0.57" d="M521.12 358.62C521.089 359.531 520.79 360.411 520.261 361.153C519.733 361.895 518.998 362.465 518.148 362.791C517.297 363.118 516.37 363.188 515.481 362.991C514.591 362.794 513.78 362.34 513.147 361.685C512.514 361.03 512.087 360.204 511.921 359.308C511.754 358.413 511.855 357.488 512.211 356.65C512.566 355.811 513.16 355.096 513.92 354.593C514.679 354.089 515.569 353.821 516.48 353.82C517.725 353.862 518.905 354.386 519.771 355.282C520.637 356.177 521.121 357.375 521.12 358.62Z" fill="#614CE1" fill-opacity="0.05"/>
<path opacity="0.83" d="M1433.6 364.06C1436.61 364.06 1439.04 361.624 1439.04 358.62C1439.04 355.615 1436.61 353.18 1433.6 353.18C1430.6 353.18 1428.16 355.615 1428.16 358.62C1428.16 361.624 1430.6 364.06 1433.6 364.06Z" fill="#614CE1" fill-opacity="0.05"/>
<path opacity="0.53" d="M1701.6 358.62C1701.6 359.949 1701.21 361.249 1700.47 362.354C1699.73 363.459 1698.68 364.32 1697.45 364.829C1696.22 365.337 1694.87 365.471 1693.57 365.211C1692.27 364.952 1691.07 364.312 1690.13 363.372C1689.19 362.432 1688.55 361.235 1688.29 359.931C1688.03 358.628 1688.16 357.277 1688.67 356.049C1689.18 354.821 1690.04 353.771 1691.15 353.033C1692.25 352.295 1693.55 351.9 1694.88 351.9C1695.76 351.9 1696.64 352.074 1697.45 352.412C1698.27 352.75 1699.01 353.245 1699.63 353.869C1700.26 354.493 1700.75 355.233 1701.09 356.049C1701.43 356.864 1701.6 357.738 1701.6 358.62Z" fill="#614CE1" fill-opacity="0.05"/>
<path opacity="0.33" d="M1897.28 358.62C1897.28 359.79 1896.93 360.935 1896.28 361.909C1895.63 362.882 1894.71 363.641 1893.63 364.089C1892.54 364.537 1891.35 364.654 1890.21 364.426C1889.06 364.197 1888 363.634 1887.17 362.806C1886.35 361.978 1885.78 360.923 1885.55 359.774C1885.33 358.626 1885.44 357.436 1885.89 356.354C1886.34 355.272 1887.1 354.348 1888.07 353.697C1889.04 353.047 1890.19 352.7 1891.36 352.7C1892.14 352.677 1892.92 352.815 1893.65 353.105C1894.38 353.395 1895.04 353.83 1895.6 354.384C1896.15 354.938 1896.58 355.6 1896.87 356.328C1897.16 357.056 1897.3 357.836 1897.28 358.62Z" fill="#614CE1" fill-opacity="0.05"/>
<path opacity="0.41" d="M1800.8 301.98C1800.95 302.982 1800.89 304.006 1800.61 304.98C1800.33 305.955 1799.84 306.858 1799.18 307.627C1798.52 308.396 1797.7 309.013 1796.78 309.436C1795.86 309.859 1794.85 310.078 1793.84 310.078C1792.83 310.078 1791.82 309.859 1790.9 309.436C1789.98 309.013 1789.16 308.396 1788.5 307.627C1787.84 306.858 1787.35 305.955 1787.07 304.98C1786.79 304.006 1786.73 302.982 1786.88 301.98C1787.13 300.315 1787.97 298.796 1789.25 297.699C1790.53 296.601 1792.16 295.998 1793.84 295.998C1795.52 295.998 1797.15 296.601 1798.43 297.699C1799.71 298.796 1800.55 300.315 1800.8 301.98Z" fill="#614CE1" fill-opacity="0.05"/>
<path opacity="0.55" d="M325.92 245.341C325.92 246.353 325.619 247.343 325.057 248.185C324.494 249.027 323.695 249.683 322.759 250.071C321.823 250.458 320.794 250.56 319.801 250.362C318.808 250.165 317.895 249.677 317.179 248.961C316.463 248.245 315.976 247.333 315.778 246.34C315.581 245.346 315.682 244.317 316.069 243.381C316.457 242.446 317.113 241.646 317.955 241.084C318.797 240.521 319.787 240.221 320.8 240.221C322.158 240.221 323.46 240.76 324.42 241.72C325.38 242.68 325.92 243.983 325.92 245.341Z" fill="#614CE1" fill-opacity="0.05"/>
<path opacity="0.4" d="M359.36 301.98C359.36 303.593 358.719 305.139 357.579 306.28C356.439 307.42 354.892 308.06 353.28 308.06C351.667 308.06 350.121 307.42 348.981 306.28C347.841 305.139 347.2 303.593 347.2 301.98C347.2 300.368 347.841 298.821 348.981 297.681C350.121 296.541 351.667 295.9 353.28 295.9C354.892 295.9 356.439 296.541 357.579 297.681C358.719 298.821 359.36 300.368 359.36 301.98Z" fill="#614CE1" fill-opacity="0.05"/>
<path opacity="0.45" d="M1440 245.339C1440 246.668 1439.61 247.967 1438.87 249.073C1438.13 250.178 1437.08 251.039 1435.85 251.548C1434.62 252.056 1433.27 252.189 1431.97 251.93C1430.67 251.671 1429.47 251.031 1428.53 250.091C1427.59 249.151 1426.95 247.954 1426.69 246.65C1426.43 245.347 1426.56 243.995 1427.07 242.768C1427.58 241.54 1428.44 240.49 1429.55 239.752C1430.65 239.013 1431.95 238.619 1433.28 238.619C1434.16 238.619 1435.04 238.793 1435.85 239.131C1436.67 239.468 1437.41 239.963 1438.03 240.587C1438.66 241.211 1439.15 241.952 1439.49 242.768C1439.83 243.583 1440 244.457 1440 245.339Z" fill="#614CE1" fill-opacity="0.05"/>
<path opacity="0.31" d="M1405.28 188.7C1405.28 189.681 1404.99 190.64 1404.44 191.456C1403.9 192.272 1403.12 192.907 1402.22 193.283C1401.31 193.658 1400.31 193.756 1399.35 193.565C1398.39 193.374 1397.51 192.901 1396.81 192.207C1396.12 191.514 1395.65 190.63 1395.46 189.668C1395.26 188.706 1395.36 187.708 1395.74 186.802C1396.11 185.896 1396.75 185.121 1397.56 184.576C1398.38 184.031 1399.34 183.74 1400.32 183.74C1401.64 183.74 1402.9 184.263 1403.83 185.193C1404.76 186.123 1405.28 187.385 1405.28 188.7Z" fill="#614CE1" fill-opacity="0.05"/>
<path opacity="0.29" d="M1308.96 245.34C1308.96 246.952 1308.32 248.499 1307.18 249.639C1306.04 250.779 1304.49 251.42 1302.88 251.42C1301.27 251.42 1299.72 250.779 1298.58 249.639C1297.44 248.499 1296.8 246.952 1296.8 245.34C1296.8 243.727 1297.44 242.181 1298.58 241.041C1299.72 239.9 1301.27 239.26 1302.88 239.26C1303.68 239.26 1304.47 239.417 1305.21 239.723C1305.94 240.028 1306.61 240.476 1307.18 241.041C1307.74 241.605 1308.19 242.275 1308.5 243.013C1308.8 243.751 1308.96 244.541 1308.96 245.34Z" fill="#614CE1" fill-opacity="0.05"/>
<path opacity="0.95" d="M1601.44 188.7C1601.57 189.393 1601.54 190.105 1601.36 190.786C1601.19 191.468 1600.86 192.101 1600.41 192.643C1599.96 193.184 1599.4 193.62 1598.76 193.919C1598.12 194.218 1597.42 194.373 1596.72 194.373C1596.02 194.373 1595.32 194.218 1594.68 193.919C1594.04 193.62 1593.48 193.184 1593.03 192.643C1592.58 192.101 1592.25 191.468 1592.08 190.786C1591.9 190.105 1591.87 189.393 1592 188.7C1591.87 188.008 1591.9 187.295 1592.08 186.614C1592.25 185.932 1592.58 185.299 1593.03 184.757C1593.48 184.216 1594.04 183.78 1594.68 183.481C1595.32 183.182 1596.02 183.027 1596.72 183.027C1597.42 183.027 1598.12 183.182 1598.76 183.481C1599.4 183.78 1599.96 184.216 1600.41 184.757C1600.86 185.299 1601.19 185.932 1601.36 186.614C1601.54 187.295 1601.57 188.008 1601.44 188.7Z" fill="#614CE1" fill-opacity="0.05"/>
<path opacity="0.41" d="M1799.04 301.98C1799.06 302.764 1798.92 303.544 1798.63 304.272C1798.34 305 1797.91 305.661 1797.35 306.216C1796.8 306.77 1796.14 307.205 1795.41 307.495C1794.68 307.784 1793.9 307.922 1793.12 307.9C1791.55 307.9 1790.04 307.277 1788.93 306.166C1787.82 305.056 1787.2 303.55 1787.2 301.98C1787.2 300.395 1787.82 298.873 1788.92 297.737C1790.03 296.601 1791.53 295.942 1793.12 295.9C1793.91 295.9 1794.69 296.058 1795.42 296.366C1796.15 296.673 1796.81 297.124 1797.36 297.69C1797.92 298.257 1798.35 298.929 1798.64 299.666C1798.92 300.403 1799.06 301.19 1799.04 301.98Z" fill="#614CE1" fill-opacity="0.05"/>
<path opacity="0.64" d="M1734.88 188.7C1734.88 190.03 1734.49 191.329 1733.75 192.434C1733.01 193.539 1731.96 194.4 1730.73 194.909C1729.5 195.418 1728.15 195.551 1726.85 195.291C1725.54 195.032 1724.35 194.392 1723.41 193.452C1722.47 192.512 1721.83 191.315 1721.57 190.011C1721.31 188.708 1721.44 187.357 1721.95 186.129C1722.46 184.901 1723.32 183.851 1724.43 183.113C1725.53 182.375 1726.83 181.98 1728.16 181.98C1729.94 181.98 1731.65 182.688 1732.91 183.949C1734.17 185.209 1734.88 186.918 1734.88 188.7Z" fill="#614CE1" fill-opacity="0.05"/>
<path opacity="0.48" d="M1728.16 307.581C1731.25 307.581 1733.76 305.074 1733.76 301.981C1733.76 298.888 1731.25 296.381 1728.16 296.381C1725.07 296.381 1722.56 298.888 1722.56 301.981C1722.56 305.074 1725.07 307.581 1728.16 307.581Z" fill="#614CE1" fill-opacity="0.05"/>
<path opacity="0.48" d="M130.24 245.339C130.24 246.637 129.855 247.905 129.134 248.984C128.413 250.063 127.389 250.903 126.19 251.4C124.991 251.896 123.672 252.026 122.4 251.773C121.127 251.52 119.958 250.895 119.041 249.978C118.124 249.06 117.499 247.892 117.246 246.619C116.993 245.347 117.122 244.028 117.619 242.829C118.115 241.63 118.956 240.606 120.035 239.885C121.114 239.164 122.382 238.779 123.68 238.779C125.419 238.779 127.088 239.47 128.318 240.701C129.548 241.931 130.24 243.599 130.24 245.339Z" fill="#614CE1" fill-opacity="0.05"/>
<path opacity="0.76" d="M161.12 188.7C161.12 189.681 160.829 190.64 160.284 191.456C159.739 192.272 158.964 192.907 158.058 193.283C157.152 193.658 156.154 193.756 155.192 193.565C154.23 193.374 153.346 192.901 152.653 192.207C151.959 191.514 151.487 190.63 151.295 189.668C151.104 188.706 151.202 187.708 151.578 186.802C151.953 185.896 152.589 185.121 153.404 184.576C154.22 184.031 155.179 183.74 156.16 183.74C157.475 183.74 158.737 184.263 159.667 185.193C160.597 186.123 161.12 187.385 161.12 188.7Z" fill="#614CE1" fill-opacity="0.05"/>
<path opacity="0.38" d="M64 245.34C64 246.479 63.6622 247.593 63.0293 248.54C62.3963 249.487 61.4967 250.226 60.4442 250.662C59.3917 251.098 58.2336 251.212 57.1163 250.989C55.9989 250.767 54.9726 250.219 54.167 249.413C53.3615 248.607 52.8129 247.581 52.5907 246.464C52.3684 245.346 52.4825 244.188 52.9184 243.136C53.3544 242.083 54.0927 241.184 55.0399 240.551C55.9871 239.918 57.1008 239.58 58.24 239.58C59.7676 239.58 61.2327 240.187 62.3129 241.267C63.3931 242.347 64 243.812 64 245.34Z" fill="#614CE1" fill-opacity="0.05"/>
<path opacity="0.85" d="M326.72 132.06C326.72 133.8 326.029 135.468 324.798 136.699C323.568 137.929 321.9 138.62 320.16 138.62C318.42 138.62 316.751 137.929 315.521 136.699C314.291 135.468 313.6 133.8 313.6 132.06C313.6 130.32 314.291 128.652 315.521 127.421C316.751 126.191 318.42 125.5 320.16 125.5C321.9 125.5 323.568 126.191 324.798 127.421C326.029 128.652 326.72 130.32 326.72 132.06Z" fill="#614CE1" fill-opacity="0.05"/>
<path opacity="0.78" d="M522.72 132.061C522.742 132.886 522.596 133.707 522.29 134.474C521.984 135.241 521.525 135.938 520.942 136.522C520.358 137.106 519.661 137.565 518.894 137.87C518.127 138.176 517.306 138.323 516.48 138.301C514.825 138.301 513.238 137.643 512.068 136.473C510.898 135.303 510.24 133.715 510.24 132.061C510.24 130.406 510.898 128.818 512.068 127.648C513.238 126.478 514.825 125.821 516.48 125.821C517.306 125.798 518.127 125.945 518.894 126.251C519.661 126.556 520.358 127.015 520.942 127.599C521.525 128.183 521.984 128.88 522.29 129.647C522.596 130.414 522.742 131.235 522.72 132.061Z" fill="#614CE1" fill-opacity="0.05"/>
<path opacity="0.36" d="M654.4 245.339C654.547 246.275 654.49 247.233 654.233 248.145C653.975 249.057 653.522 249.902 652.907 250.623C652.291 251.343 651.526 251.922 650.665 252.318C649.804 252.715 648.868 252.921 647.92 252.921C646.972 252.921 646.035 252.715 645.175 252.318C644.314 251.922 643.549 251.343 642.933 250.623C642.317 249.902 641.865 249.057 641.607 248.145C641.349 247.233 641.292 246.275 641.44 245.339C641.292 244.403 641.349 243.446 641.607 242.534C641.865 241.622 642.317 240.776 642.933 240.056C643.549 239.335 644.314 238.757 645.175 238.36C646.035 237.963 646.972 237.758 647.92 237.758C648.868 237.758 649.804 237.963 650.665 238.36C651.526 238.757 652.291 239.335 652.907 240.056C653.522 240.776 653.975 241.622 654.233 242.534C654.49 243.446 654.547 244.403 654.4 245.339Z" fill="#614CE1" fill-opacity="0.05"/>
<path opacity="0.32" d="M1307.84 245.34C1307.84 246.479 1307.5 247.593 1306.87 248.54C1306.24 249.487 1305.34 250.226 1304.28 250.662C1303.23 251.098 1302.07 251.212 1300.96 250.989C1299.84 250.767 1298.81 250.219 1298.01 249.413C1297.2 248.607 1296.65 247.581 1296.43 246.464C1296.21 245.346 1296.32 244.188 1296.76 243.136C1297.19 242.083 1297.93 241.184 1298.88 240.551C1299.83 239.918 1300.94 239.58 1302.08 239.58C1303.61 239.58 1305.07 240.187 1306.15 241.267C1307.23 242.347 1307.84 243.812 1307.84 245.34Z" fill="#614CE1" fill-opacity="0.05"/>
<path opacity="0.44" d="M1637.12 245.341C1637.12 247.25 1636.36 249.082 1635.01 250.432C1633.66 251.782 1631.83 252.541 1629.92 252.541C1628.01 252.541 1626.18 251.782 1624.83 250.432C1623.48 249.082 1622.72 247.25 1622.72 245.341C1622.72 243.431 1623.48 241.6 1624.83 240.249C1626.18 238.899 1628.01 238.141 1629.92 238.141C1631.83 238.141 1633.66 238.899 1635.01 240.249C1636.36 241.6 1637.12 243.431 1637.12 245.341Z" fill="#614CE1" fill-opacity="0.05"/>
<path opacity="0.69" d="M31.04 188.7C30.9984 190.157 30.39 191.541 29.3443 192.556C28.2986 193.572 26.8979 194.14 25.44 194.14C24.1372 193.917 22.9551 193.241 22.1029 192.231C21.2507 191.22 20.7832 189.941 20.7832 188.62C20.7832 187.298 21.2507 186.019 22.1029 185.009C22.9551 183.998 24.1372 183.322 25.44 183.1C26.9252 183.1 28.3496 183.69 29.3998 184.74C30.45 185.79 31.04 187.214 31.04 188.7Z" fill="#614CE1" fill-opacity="0.05"/>
<path opacity="0.55" d="M64.0001 132.06C64.1443 132.952 64.0931 133.865 63.8499 134.735C63.6067 135.606 63.1773 136.413 62.5916 137.101C62.0058 137.789 61.2775 138.342 60.4571 138.721C59.6367 139.1 58.7438 139.296 57.8401 139.296C56.9364 139.296 56.0435 139.1 55.2231 138.721C54.4027 138.342 53.6744 137.789 53.0886 137.101C52.5028 136.413 52.0735 135.606 51.8303 134.735C51.5871 133.865 51.5359 132.952 51.6801 132.06C51.5359 131.168 51.5871 130.255 51.8303 129.385C52.0735 128.515 52.5028 127.707 53.0886 127.019C53.6744 126.331 54.4027 125.779 55.2231 125.4C56.0435 125.021 56.9364 124.824 57.8401 124.824C58.7438 124.824 59.6367 125.021 60.4571 125.4C61.2775 125.779 62.0058 126.331 62.5916 127.019C63.1773 127.707 63.6067 128.515 63.8499 129.385C64.0931 130.255 64.1443 131.168 64.0001 132.06Z" fill="#614CE1" fill-opacity="0.05"/>
<path opacity="0.42" d="M1537.12 188.7C1537.12 189.776 1536.8 190.827 1536.2 191.722C1535.61 192.617 1534.76 193.314 1533.76 193.726C1532.77 194.137 1531.67 194.245 1530.62 194.035C1529.56 193.825 1528.59 193.307 1527.83 192.546C1527.07 191.786 1526.55 190.816 1526.34 189.761C1526.13 188.706 1526.24 187.612 1526.65 186.618C1527.07 185.624 1527.76 184.774 1528.66 184.177C1529.55 183.579 1530.6 183.26 1531.68 183.26C1533.12 183.26 1534.51 183.833 1535.53 184.853C1536.55 185.873 1537.12 187.257 1537.12 188.7Z" fill="#614CE1" fill-opacity="0.05"/>
<path opacity="0.78" d="M1800.16 188.7C1800.12 190.539 1799.36 192.289 1798.04 193.575C1796.73 194.861 1794.96 195.581 1793.12 195.58C1791.3 195.58 1789.55 194.855 1788.26 193.565C1786.97 192.275 1786.24 190.525 1786.24 188.7C1786.24 186.86 1786.96 185.094 1788.25 183.778C1789.53 182.462 1791.28 181.702 1793.12 181.66C1794.99 181.66 1796.78 182.402 1798.1 183.722C1799.42 185.042 1800.16 186.833 1800.16 188.7Z" fill="#614CE1" fill-opacity="0.05"/>
<path opacity="0.55" d="M1830.88 132.059C1830.88 133.46 1830.32 134.803 1829.33 135.793C1828.34 136.783 1827 137.339 1825.6 137.339C1824.2 137.339 1822.86 136.783 1821.87 135.793C1820.88 134.803 1820.32 133.46 1820.32 132.059C1820.32 130.659 1820.88 129.316 1821.87 128.326C1822.86 127.336 1824.2 126.779 1825.6 126.779C1827 126.779 1828.34 127.336 1829.33 128.326C1830.32 129.316 1830.88 130.659 1830.88 132.059Z" fill="#614CE1" fill-opacity="0.05"/>
<path opacity="0.73" d="M63.9998 18.7803C63.9998 19.7613 63.7089 20.7203 63.1639 21.5359C62.6189 22.3516 61.8443 22.9873 60.9379 23.3628C60.0316 23.7382 59.0343 23.8364 58.0722 23.645C57.11 23.4536 56.2263 22.9812 55.5326 22.2876C54.8389 21.5939 54.3665 20.7101 54.1751 19.748C53.9838 18.7858 54.082 17.7885 54.4574 16.8822C54.8328 15.9759 55.4685 15.2012 56.2842 14.6562C57.0999 14.1112 58.0588 13.8203 59.0398 13.8203C60.3553 13.8203 61.6169 14.3429 62.5471 15.2731C63.4773 16.2032 63.9998 17.4648 63.9998 18.7803Z" fill="#614CE1" fill-opacity="0.05"/>
<path opacity="0.3" d="M228.96 75.4194C228.929 76.6779 228.527 77.8992 227.805 78.9304C227.083 79.9616 226.072 80.7569 224.9 81.2169C223.729 81.6769 222.447 81.781 221.216 81.5163C219.986 81.2516 218.86 80.6297 217.981 79.7286C217.102 78.8275 216.508 77.6872 216.274 76.4503C216.04 75.2134 216.175 73.9348 216.664 72.7747C217.153 71.6145 217.973 70.6243 219.022 69.9278C220.07 69.2314 221.301 68.8598 222.56 68.8594C223.414 68.8591 224.26 69.0298 225.047 69.3614C225.834 69.693 226.547 70.1788 227.143 70.7901C227.74 71.4014 228.208 72.126 228.52 72.921C228.832 73.7161 228.981 74.5655 228.96 75.4194Z" fill="#614CE1" fill-opacity="0.05"/>
<path opacity="0.57" d="M457.76 18.7809C457.781 19.6137 457.636 20.4423 457.332 21.218C457.028 21.9936 456.571 22.7005 455.99 23.297C455.408 23.8935 454.713 24.3675 453.945 24.691C453.178 25.0146 452.353 25.1811 451.52 25.1809C449.822 25.1809 448.195 24.5066 446.994 23.3063C445.794 22.1061 445.12 20.4782 445.12 18.7809C445.12 17.0835 445.794 15.4556 446.994 14.2554C448.195 13.0551 449.822 12.3809 451.52 12.3809C452.353 12.3806 453.178 12.5471 453.945 12.8707C454.713 13.1942 455.408 13.6682 455.99 14.2647C456.571 14.8612 457.028 15.5681 457.332 16.3438C457.636 17.1194 457.781 17.948 457.76 18.7809Z" fill="#614CE1" fill-opacity="0.05"/>
<path opacity="0.58" d="M719.04 18.7792C719.04 19.9817 718.683 21.1572 718.015 22.1571C717.347 23.1569 716.398 23.9362 715.287 24.3964C714.176 24.8566 712.953 24.977 711.774 24.7424C710.594 24.5078 709.511 23.9287 708.661 23.0784C707.81 22.2281 707.231 21.1448 706.997 19.9654C706.762 18.786 706.883 17.5635 707.343 16.4525C707.803 15.3415 708.582 14.392 709.582 13.7239C710.582 13.0558 711.757 12.6992 712.96 12.6992C713.758 12.6992 714.549 12.8565 715.287 13.162C716.024 13.4676 716.695 13.9154 717.259 14.48C717.824 15.0446 718.272 15.7148 718.577 16.4525C718.883 17.1902 719.04 17.9808 719.04 18.7792Z" fill="#614CE1" fill-opacity="0.05"/>
<path opacity="0.51" d="M654.24 132.06C654.24 133.758 653.566 135.385 652.365 136.586C651.165 137.786 649.537 138.46 647.84 138.46C646.143 138.46 644.515 137.786 643.314 136.586C642.114 135.385 641.44 133.758 641.44 132.06C641.44 130.363 642.114 128.735 643.314 127.535C644.515 126.334 646.143 125.66 647.84 125.66C649.537 125.66 651.165 126.334 652.365 127.535C653.566 128.735 654.24 130.363 654.24 132.06Z" fill="#614CE1" fill-opacity="0.05"/>
<path opacity="0.37" d="M1833.92 18.7798C1833.92 20.2671 1833.48 21.721 1832.65 22.9577C1831.83 24.1943 1830.65 25.1582 1829.28 25.7273C1827.9 26.2965 1826.39 26.4454 1824.93 26.1553C1823.47 25.8651 1822.14 25.1489 1821.08 24.0972C1820.03 23.0455 1819.32 21.7056 1819.03 20.2468C1818.74 18.7881 1818.88 17.2761 1819.45 15.902C1820.02 14.5279 1820.99 13.3534 1822.22 12.5271C1823.46 11.7008 1824.91 11.2598 1826.4 11.2598C1828.4 11.2598 1830.31 12.0521 1831.72 13.4623C1833.13 14.8726 1833.92 16.7853 1833.92 18.7798Z" fill="#614CE1" fill-opacity="0.05"/>
<path opacity="0.71" d="M64 18.7806C64.0077 20.4573 63.3882 22.0763 62.2632 23.3196C61.1383 24.563 59.5892 25.3409 57.92 25.5006C56.5298 25.6631 55.1231 25.3978 53.8876 24.74C52.6521 24.0822 51.6466 23.0632 51.0054 21.819C50.3642 20.5748 50.1177 19.1647 50.2988 17.7767C50.48 16.3888 51.0801 15.0892 52.0192 14.0512C52.9583 13.0133 54.1916 12.2865 55.5545 11.9678C56.9175 11.6491 58.3452 11.7537 59.6471 12.2677C60.949 12.7816 62.0632 13.6804 62.841 14.8441C63.6188 16.0078 64.0231 17.381 64 18.7806Z" fill="#614CE1" fill-opacity="0.05"/>
<path opacity="0.29" d="M130.4 18.7792C130.4 19.9817 130.043 21.1572 129.375 22.1571C128.707 23.1569 127.758 23.9362 126.647 24.3964C125.536 24.8566 124.313 24.977 123.134 24.7424C121.954 24.5078 120.871 23.9287 120.021 23.0784C119.17 22.2281 118.591 21.1448 118.357 19.9654C118.122 18.786 118.243 17.5635 118.703 16.4525C119.163 15.3415 119.942 14.392 120.942 13.7239C121.942 13.0558 123.117 12.6992 124.32 12.6992C125.933 12.6992 127.479 13.3398 128.619 14.48C129.759 15.6202 130.4 17.1667 130.4 18.7792Z" fill="#614CE1" fill-opacity="0.05"/>
</g>
</svg>
