<svg width="165" height="92" viewBox="0 0 165 92" fill="none" xmlns="http://www.w3.org/2000/svg">
<path d="M46 5.61867e-06C58.2 5.08539e-06 69.9002 4.84642 78.5269 13.4731C87.1536 22.0998 92 33.8 92 46C92 58.2 87.1536 69.9002 78.5269 78.5269C69.9002 87.1536 58.2 92 46 92L46 46L46 5.61867e-06Z" fill="#615EFC"/>
<path d="M97 9C106.813 9 116.224 12.8982 123.163 19.837C130.102 26.7759 134 36.187 134 46C134 55.813 130.102 65.2241 123.163 72.1629C116.224 79.1018 106.813 83 97 83L97 46L97 9Z" fill="#0C1018"/>
<path d="M139 20C145.896 20 152.509 22.7393 157.385 27.6152C162.261 32.4912 165 39.1044 165 46C165 52.8956 162.261 59.5088 157.385 64.3848C152.509 69.2607 145.896 72 139 72L139 46L139 20Z" fill="#615EFC"/>
</svg>
