<svg width="1920" height="930" viewBox="0 0 1920 930" fill="none" xmlns="http://www.w3.org/2000/svg">
<path d="M0 65.6H1920" stroke="white" stroke-opacity="0.08" stroke-miterlimit="10"/>
<path d="M0 129.28H1920" stroke="white" stroke-opacity="0.08" stroke-miterlimit="10"/>
<path d="M0 192.96H1920" stroke="white" stroke-opacity="0.08" stroke-miterlimit="10"/>
<path d="M0 256.96H1920" stroke="white" stroke-opacity="0.08" stroke-miterlimit="10"/>
<path d="M0 320.64H1920" stroke="white" stroke-opacity="0.08" stroke-miterlimit="10"/>
<path d="M0 384.32H1920" stroke="white" stroke-opacity="0.08" stroke-miterlimit="10"/>
<path d="M0 448H1920" stroke="white" stroke-opacity="0.08" stroke-miterlimit="10"/>
<path d="M0 512H1920" stroke="white" stroke-opacity="0.08" stroke-miterlimit="10"/>
<path d="M0 575.68H1920" stroke="white" stroke-opacity="0.08" stroke-miterlimit="10"/>
<path d="M0 639.36H1920" stroke="white" stroke-opacity="0.08" stroke-miterlimit="10"/>
<path d="M0 703.04H1920" stroke="white" stroke-opacity="0.08" stroke-miterlimit="10"/>
<path d="M0 767.04H1920" stroke="white" stroke-opacity="0.08" stroke-miterlimit="10"/>
<path d="M0 830.72H1920" stroke="white" stroke-opacity="0.08" stroke-miterlimit="10"/>
<path d="M0 894.4H1920" stroke="white" stroke-opacity="0.08" stroke-miterlimit="10"/>
<path d="M74.8789 0V960" stroke="white" stroke-opacity="0.08" stroke-width="0.75" stroke-miterlimit="10"/>
<path d="M142.719 0V960" stroke="white" stroke-opacity="0.08" stroke-width="0.75" stroke-miterlimit="10"/>
<path d="M210.879 0V960" stroke="white" stroke-opacity="0.08" stroke-width="0.75" stroke-miterlimit="10"/>
<path d="M279.039 0V960" stroke="white" stroke-opacity="0.08" stroke-width="0.75" stroke-miterlimit="10"/>
<path d="M347.199 0V960" stroke="white" stroke-opacity="0.08" stroke-width="0.75" stroke-miterlimit="10"/>
<path d="M415.359 0V960" stroke="white" stroke-opacity="0.08" stroke-width="0.75" stroke-miterlimit="10"/>
<path d="M483.199 0V960" stroke="white" stroke-opacity="0.08" stroke-width="0.75" stroke-miterlimit="10"/>
<path d="M551.359 0V960" stroke="white" stroke-opacity="0.08" stroke-width="0.75" stroke-miterlimit="10"/>
<path d="M619.52 0V960" stroke="white" stroke-opacity="0.08" stroke-width="0.75" stroke-miterlimit="10"/>
<path d="M687.68 0V960" stroke="white" stroke-opacity="0.08" stroke-width="0.75" stroke-miterlimit="10"/>
<path d="M755.84 0V960" stroke="white" stroke-opacity="0.08" stroke-width="0.75" stroke-miterlimit="10"/>
<path d="M823.68 0V960" stroke="white" stroke-opacity="0.08" stroke-width="0.75" stroke-miterlimit="10"/>
<path d="M891.84 0V960" stroke="white" stroke-opacity="0.08" stroke-width="0.75" stroke-miterlimit="10"/>
<path d="M959.998 0V960" stroke="white" stroke-opacity="0.08" stroke-width="0.75" stroke-miterlimit="10"/>
<path d="M1028.16 0V960" stroke="white" stroke-opacity="0.08" stroke-width="0.75" stroke-miterlimit="10"/>
<path d="M1096.32 0V960" stroke="white" stroke-opacity="0.08" stroke-width="0.75" stroke-miterlimit="10"/>
<path d="M1164.16 0V960" stroke="white" stroke-opacity="0.08" stroke-width="0.75" stroke-miterlimit="10"/>
<path d="M1232.32 0V960" stroke="white" stroke-opacity="0.08" stroke-width="0.75" stroke-miterlimit="10"/>
<path d="M1300.48 0V960" stroke="white" stroke-opacity="0.08" stroke-width="0.75" stroke-miterlimit="10"/>
<path d="M1368.64 0V960" stroke="white" stroke-opacity="0.08" stroke-width="0.75" stroke-miterlimit="10"/>
<path d="M1436.8 0V960" stroke="white" stroke-opacity="0.08" stroke-width="0.75" stroke-miterlimit="10"/>
<path d="M1504.64 0V960" stroke="white" stroke-opacity="0.08" stroke-width="0.75" stroke-miterlimit="10"/>
<path d="M1572.8 0V960" stroke="white" stroke-opacity="0.08" stroke-width="0.75" stroke-miterlimit="10"/>
<path d="M1640.96 0V960" stroke="white" stroke-opacity="0.08" stroke-width="0.75" stroke-miterlimit="10"/>
<path d="M1709.12 0V960" stroke="white" stroke-opacity="0.08" stroke-width="0.75" stroke-miterlimit="10"/>
<path d="M1777.28 0V960" stroke="white" stroke-opacity="0.08" stroke-width="0.75" stroke-miterlimit="10"/>
<path d="M1845.12 0V960" stroke="white" stroke-opacity="0.08" stroke-width="0.75" stroke-miterlimit="10"/>
</svg>
