<svg width="54" height="54" viewBox="0 0 54 54" fill="none" xmlns="http://www.w3.org/2000/svg">
<path d="M20.25 36.0001C20.0511 36.0001 19.8603 35.921 19.7197 35.7804C19.579 35.6397 19.5 35.449 19.5 35.2501V18.7501C19.5 18.6197 19.5339 18.4916 19.5985 18.3784C19.6631 18.2652 19.7561 18.1708 19.8682 18.1044C19.9804 18.0381 20.108 18.0021 20.2383 18.0001C20.3686 17.9981 20.4972 18.03 20.6114 18.0928L35.6114 26.3428C35.7291 26.4075 35.8273 26.5027 35.8956 26.6183C35.964 26.7339 36 26.8657 36 27C36 27.1343 35.964 27.2662 35.8956 27.3818C35.8273 27.4974 35.7291 27.5925 35.6114 27.6572L20.6114 35.9072C20.5007 35.9681 20.3764 36 20.25 36.0001ZM21 20.0182V33.9817L33.6936 27.0001L21 20.0182Z" fill="#615EFC"/>
<circle cx="27" cy="27" r="26.5" stroke="#0C1018"/>
<mask id="path-3-inside-1_690_8209" fill="white">
<path d="M37.7017 51.7886C32.327 54.1089 26.3437 54.6196 20.6536 53.2435C14.9634 51.8675 9.87464 48.6793 6.1541 44.1595C2.43355 39.6397 0.282815 34.033 0.025994 28.1845C-0.230827 22.3359 1.42018 16.5624 4.73022 11.7338C8.04026 6.90524 12.83 3.2833 18.3776 1.41378C23.9253 -0.455735 29.9302 -0.471532 35.4876 1.36877C41.045 3.20907 45.8538 6.80576 49.1892 11.6168C52.5246 16.4279 54.2059 22.1927 53.9799 28.0425L52.7336 27.9944C52.9492 22.4148 51.3455 16.9163 48.1642 12.3275C44.9828 7.73862 40.3962 4.30807 35.0956 2.55278C29.7949 0.797486 24.0673 0.812553 18.7759 2.59571C13.4846 4.37886 8.91608 7.83349 5.75895 12.439C2.60181 17.0445 1.02707 22.5514 1.27203 28.1298C1.51699 33.7081 3.56837 39.0558 7.11705 43.3668C10.6657 47.6779 15.5194 50.7188 20.9467 52.0312C26.3741 53.3437 32.0809 52.8567 37.2073 50.6435L37.7017 51.7886Z"/>
</mask>
<path d="M37.7017 51.7886C32.327 54.1089 26.3437 54.6196 20.6536 53.2435C14.9634 51.8675 9.87464 48.6793 6.1541 44.1595C2.43355 39.6397 0.282815 34.033 0.025994 28.1845C-0.230827 22.3359 1.42018 16.5624 4.73022 11.7338C8.04026 6.90524 12.83 3.2833 18.3776 1.41378C23.9253 -0.455735 29.9302 -0.471532 35.4876 1.36877C41.045 3.20907 45.8538 6.80576 49.1892 11.6168C52.5246 16.4279 54.2059 22.1927 53.9799 28.0425L52.7336 27.9944C52.9492 22.4148 51.3455 16.9163 48.1642 12.3275C44.9828 7.73862 40.3962 4.30807 35.0956 2.55278C29.7949 0.797486 24.0673 0.812553 18.7759 2.59571C13.4846 4.37886 8.91608 7.83349 5.75895 12.439C2.60181 17.0445 1.02707 22.5514 1.27203 28.1298C1.51699 33.7081 3.56837 39.0558 7.11705 43.3668C10.6657 47.6779 15.5194 50.7188 20.9467 52.0312C26.3741 53.3437 32.0809 52.8567 37.2073 50.6435L37.7017 51.7886Z" stroke="#615EFC" stroke-width="2" mask="url(#path-3-inside-1_690_8209)"/>
</svg>
