<svg width="60" height="60" viewBox="0 0 60 60" fill="none" xmlns="http://www.w3.org/2000/svg">
<path d="M50.7272 40.091C49.2727 39.5455 47.6363 39.7274 46.1818 40.6365L37.4545 45.9092C37.0908 45.6365 36.7272 45.3637 36.3636 45.2728L23.1818 40.5455C22.1818 40.1819 21.0908 40.1819 20.1818 40.6365C20.1818 40.6365 20.0908 40.6365 20.0908 40.7274L14.8181 43.9092V43.6365C14.8181 42.6365 13.9999 41.8183 12.9999 41.8183H8.6363C7.6363 41.8183 6.81812 42.6365 6.81812 43.6365V57.2728C6.81812 58.2728 7.6363 59.091 8.6363 59.091H12.909C13.909 59.091 14.7272 58.2728 14.7272 57.2728V56.8183C16.7272 55.7274 17.5454 54.7274 18.909 54.9092L33.4545 58.091C34.6363 58.4546 35.909 58.1819 36.9999 57.4546L51.8181 45.7274C53.8181 44.3637 53.6363 41.1819 50.7272 40.091ZM8.6363 57.2728V43.6365H12.909V57.2728H8.6363ZM50.7272 44.2728C35.6363 55.7274 35.9999 56.9092 33.909 56.2728L19.2727 53.091H19.1818C17.0908 52.7274 15.6363 54.1819 14.7272 54.6365V45.9092L20.909 42.1819C21.4545 42.0001 21.9999 42.0001 22.5454 42.1819L35.7272 46.9092C36.909 47.3637 37.3636 48.8183 36.6363 49.8183C36.0908 50.5455 35.1818 50.8183 34.2727 50.4546L26.4545 47.4546C25.9999 47.2728 25.4545 47.5455 25.2727 48.0001C25.0908 48.4546 25.3636 49.0001 25.8181 49.1819L33.6363 52.1819C35.2727 52.9092 37.0908 52.3637 38.0908 51.0001C38.8181 50.0001 39.0908 48.8183 38.5454 47.4546L47.1818 42.2728C48.0908 41.7274 49.1818 41.5455 50.1818 41.9092C51.5454 42.3637 51.6363 43.6365 50.7272 44.2728Z" fill="#0F62FE"/>
<path d="M28.4546 30.9996C29.2728 31.5451 29.8182 32.4542 30 33.3633C29.1819 33.8178 28.7273 34.7269 28.7273 35.636C28.7273 36.9087 29.6364 37.9996 30.9091 38.2724L31.2728 41.1814C31.3637 41.636 31.7273 41.9996 32.1819 41.9996H39.2728C39.7273 41.9996 40.091 41.636 40.1819 41.1814L40.5455 38.1814C41.6364 37.8178 42.5455 36.8178 42.5455 35.636C42.5455 34.636 42 33.8178 41.2728 33.3633C41.3637 32.4542 41.9091 31.5451 42.8182 30.9087C46.1819 28.5451 48.2728 24.7269 48.2728 20.636C48.2728 13.5451 42.3637 7.81781 35.1819 8.18145C28.7273 8.45418 23.3637 13.9996 23.2728 20.4542C23 24.7269 25 28.636 28.4546 30.9996ZM32.9091 40.2724L32.7273 38.4542H38.6364L38.4546 40.2724H32.9091ZM39.6364 36.636H31.3637C30.9091 36.636 30.4546 36.2724 30.4546 35.7269C30.4546 35.2724 30.8182 34.8178 31.3637 34.8178H39.6364C40.091 34.8178 40.5455 35.1814 40.5455 35.7269C40.5455 36.1814 40.1819 36.636 39.6364 36.636ZM35 10.0905C41.091 9.81781 46.1819 14.7269 46.1819 20.7269C46.1819 24.2724 44.4546 27.5451 41.5455 29.5451C40.2728 30.3633 39.4546 31.636 39.2728 33.0905H31.8182C31.6364 31.7269 30.8182 30.4542 29.5455 29.5451C26.6364 27.5451 24.9091 24.1814 24.9091 20.636C25 15.0905 29.5455 10.3633 35 10.0905Z" fill="#0F62FE"/>
<path d="M35.2722 14.6362C38.7268 14.4544 41.6359 17.2726 41.6359 20.7271C41.6359 21.2726 41.9995 21.6362 42.5449 21.6362C43.0904 21.6362 43.454 21.2726 43.454 20.7271C43.454 16.2726 39.7268 12.6362 35.1813 12.8181C34.6359 12.8181 34.2722 13.2726 34.2722 13.7271C34.2722 14.2726 34.7268 14.6362 35.2722 14.6362Z" fill="#0F62FE"/>
<path d="M35.5453 6.27282C36.0908 6.27282 36.4544 5.90918 36.4544 5.36373V1.81827C36.4544 1.27282 36.0908 0.90918 35.5453 0.90918C34.9999 0.90918 34.6362 1.27282 34.6362 1.81827V5.36373C34.6362 5.90918 34.9999 6.27282 35.5453 6.27282Z" fill="#0F62FE"/>
<path d="M29.0904 6.72742C29.2722 7.09106 29.5449 7.27287 29.9086 7.27287C29.9995 7.27287 30.1813 7.27287 30.2722 7.18197C30.7267 7.00015 30.9995 6.45469 30.7267 6.00015L29.3631 2.72742C29.1813 2.27288 28.6358 2.00015 28.1813 2.27288C27.7267 2.45469 27.454 3.00015 27.7267 3.45469L29.0904 6.72742Z" fill="#0F62FE"/>
<path d="M24.5455 10.1817C24.9091 10.5454 25.4546 10.5454 25.8182 10.1817C26.1818 9.81809 26.1818 9.27264 25.8182 8.909L23.2727 6.36355C22.9091 5.99991 22.3637 5.99991 22 6.36355C21.6364 6.72718 21.6364 7.27264 22 7.63627L24.5455 10.1817Z" fill="#0F62FE"/>
<path d="M46.4544 10.4542L48.9998 7.90874C49.3635 7.5451 49.3635 6.99964 48.9998 6.63601C48.6362 6.27237 48.0908 6.27237 47.7271 6.63601L45.1817 9.09055C44.818 9.45419 44.818 9.99964 45.1817 10.3633C45.4544 10.7269 46.0908 10.7269 46.4544 10.4542Z" fill="#0F62FE"/>
<path d="M40.7271 7.36353C40.818 7.45444 40.9998 7.45444 41.0907 7.45444C41.4544 7.45444 41.818 7.27262 41.9089 6.90898L43.2726 3.63626C43.4544 3.18171 43.2726 2.63626 42.818 2.45444C42.3635 2.27262 41.818 2.45444 41.6362 2.90898L40.2726 6.18171C40.0907 6.63626 40.2726 7.18171 40.7271 7.36353Z" fill="#0F62FE"/>
</svg>
