<svg width="60" height="60" viewBox="0 0 60 60" fill="none" xmlns="http://www.w3.org/2000/svg">
<path d="M30 45.9375C28.5166 45.9375 27.0666 45.4976 25.8332 44.6735C24.5999 43.8494 23.6386 42.6781 23.0709 41.3076C22.5032 39.9372 22.3547 38.4292 22.6441 36.9743C22.9335 35.5195 23.6478 34.1831 24.6967 33.1342C25.7456 32.0853 27.082 31.371 28.5368 31.0816C29.9917 30.7922 31.4997 30.9407 32.8701 31.5084C34.2406 32.0761 35.4119 33.0374 36.236 34.2707C37.0601 35.5041 37.5 36.9541 37.5 38.4375C37.4978 40.4259 36.7069 42.3323 35.3008 43.7383C33.8948 45.1444 31.9884 45.9353 30 45.9375ZM30 32.8125C28.8875 32.8125 27.7999 33.1424 26.8749 33.7605C25.9499 34.3786 25.2289 35.2571 24.8032 36.2849C24.3774 37.3127 24.266 38.4437 24.4831 39.5349C24.7001 40.626 25.2359 41.6283 26.0225 42.415C26.8092 43.2017 27.8115 43.7374 28.9026 43.9544C29.9938 44.1715 31.1248 44.0601 32.1526 43.6343C33.1804 43.2086 34.0589 42.4876 34.677 41.5626C35.2951 40.6376 35.625 39.55 35.625 38.4375C35.6235 36.9461 35.0304 35.5162 33.9758 34.4617C32.9213 33.4071 31.4914 32.814 30 32.8125Z" fill="#0F62FE"/>
<path d="M41.25 58.125C41.0014 58.125 40.7629 58.0262 40.5871 57.8504C40.4113 57.6746 40.3125 57.4361 40.3125 57.1875V51.5625C40.3125 50.6081 36.6722 48.75 30 48.75C23.3278 48.75 19.6875 50.6081 19.6875 51.5625V57.1875C19.6875 57.4361 19.5887 57.6746 19.4129 57.8504C19.2371 58.0262 18.9986 58.125 18.75 58.125C18.5014 58.125 18.2629 58.0262 18.0871 57.8504C17.9113 57.6746 17.8125 57.4361 17.8125 57.1875V51.5625C17.8125 48.4847 23.9437 46.875 30 46.875C36.0562 46.875 42.1875 48.4847 42.1875 51.5625V57.1875C42.1875 57.4361 42.0887 57.6746 41.9129 57.8504C41.7371 58.0262 41.4986 58.125 41.25 58.125Z" fill="#0F62FE"/>
<path d="M45.9375 41.25C44.4541 41.25 43.0041 40.8101 41.7707 39.986C40.5374 39.1619 39.5761 37.9906 39.0084 36.6201C38.4407 35.2497 38.2922 33.7417 38.5816 32.2868C38.871 30.832 39.5853 29.4956 40.6342 28.4467C41.6831 27.3978 43.0195 26.6835 44.4743 26.3941C45.9292 26.1047 47.4372 26.2532 48.8076 26.8209C50.1781 27.3886 51.3494 28.3499 52.1735 29.5832C52.9976 30.8166 53.4375 32.2666 53.4375 33.75C53.4353 35.7384 52.6444 37.6448 51.2383 39.0508C49.8323 40.4569 47.9259 41.2478 45.9375 41.25ZM45.9375 28.125C44.825 28.125 43.7374 28.4549 42.8124 29.073C41.8874 29.6911 41.1664 30.5696 40.7407 31.5974C40.3149 32.6252 40.2035 33.7562 40.4206 34.8474C40.6376 35.9385 41.1734 36.9408 41.96 37.7275C42.7467 38.5142 43.749 39.0499 44.8401 39.2669C45.9313 39.484 47.0623 39.3726 48.0901 38.9468C49.1179 38.5211 49.9964 37.8001 50.6145 36.8751C51.2326 35.9501 51.5625 34.8625 51.5625 33.75C51.561 32.2586 50.9679 30.8287 49.9133 29.7742C48.8588 28.7196 47.4289 28.1265 45.9375 28.125Z" fill="#0F62FE"/>
<path d="M57.1875 53.4375C56.9389 53.4375 56.7004 53.3387 56.5246 53.1629C56.3488 52.9871 56.25 52.7486 56.25 52.5V46.875C56.25 45.9206 52.6097 44.0625 45.9375 44.0625C42.0938 44.0625 38.5313 44.7328 36.6563 45.8119C36.5496 45.8744 36.4316 45.9152 36.3091 45.932C36.1866 45.9487 36.062 45.9411 35.9425 45.9095C35.823 45.8779 35.7109 45.8229 35.6127 45.7478C35.5144 45.6727 35.4321 45.5789 35.3702 45.4719C35.3084 45.3648 35.2684 45.2466 35.2524 45.1239C35.2365 45.0013 35.245 44.8768 35.2774 44.7575C35.3098 44.6382 35.3655 44.5264 35.4412 44.4287C35.517 44.331 35.6113 44.2492 35.7188 44.1881C37.8985 42.9375 41.7188 42.1875 45.9375 42.1875C51.9938 42.1875 58.125 43.7972 58.125 46.875V52.5C58.125 52.7486 58.0262 52.9871 57.8504 53.1629C57.6746 53.3387 57.4362 53.4375 57.1875 53.4375Z" fill="#0F62FE"/>
<path d="M14.0625 41.25C12.5791 41.25 11.1291 40.8101 9.89573 39.986C8.66236 39.1619 7.70106 37.9906 7.13341 36.6201C6.56575 35.2497 6.41722 33.7417 6.70661 32.2868C6.996 30.832 7.71031 29.4956 8.7592 28.4467C9.8081 27.3978 11.1445 26.6835 12.5993 26.3941C14.0542 26.1047 15.5622 26.2532 16.9326 26.8209C18.3031 27.3886 19.4744 28.3499 20.2985 29.5832C21.1226 30.8166 21.5625 32.2666 21.5625 33.75C21.5603 35.7384 20.7694 37.6448 19.3633 39.0508C17.9573 40.4569 16.0509 41.2478 14.0625 41.25ZM14.0625 28.125C12.95 28.125 11.8624 28.4549 10.9374 29.073C10.0124 29.6911 9.29142 30.5696 8.86568 31.5974C8.43994 32.6252 8.32854 33.7562 8.54559 34.8474C8.76263 35.9385 9.29836 36.9408 10.085 37.7275C10.8717 38.5142 11.874 39.0499 12.9651 39.2669C14.0563 39.484 15.1873 39.3726 16.2151 38.9468C17.2429 38.5211 18.1214 37.8001 18.7395 36.8751C19.3576 35.9501 19.6875 34.8625 19.6875 33.75C19.686 32.2586 19.0929 30.8287 18.0383 29.7742C16.9838 28.7196 15.5539 28.1265 14.0625 28.125Z" fill="#0F62FE"/>
<path d="M2.8125 53.4375C2.56386 53.4375 2.3254 53.3387 2.14959 53.1629C1.97377 52.9871 1.875 52.7486 1.875 52.5V46.875C1.875 43.7972 8.00625 42.1875 14.0625 42.1875C18.2812 42.1875 22.1016 42.9375 24.2756 44.1881C24.3831 44.2492 24.4774 44.331 24.5532 44.4287C24.6289 44.5264 24.6846 44.6382 24.717 44.7575C24.7494 44.8768 24.7579 45.0013 24.7419 45.1239C24.726 45.2466 24.686 45.3648 24.6242 45.4719C24.5623 45.5789 24.4799 45.6727 24.3817 45.7478C24.2835 45.8229 24.1714 45.8779 24.0519 45.9095C23.9324 45.9411 23.8078 45.9487 23.6853 45.932C23.5628 45.9152 23.4448 45.8744 23.3381 45.8119C21.4688 44.7328 17.9109 44.0625 14.0625 44.0625C7.39031 44.0625 3.75 45.9206 3.75 46.875V52.5C3.75 52.7486 3.65123 52.9871 3.47541 53.1629C3.2996 53.3387 3.06114 53.4375 2.8125 53.4375Z" fill="#0F62FE"/>
<path d="M15.0834 25.3125C14.893 25.3123 14.7071 25.2542 14.5505 25.1459C14.3939 25.0375 14.2741 24.8841 14.2068 24.7059C12.6272 20.5173 12.7762 15.8728 14.621 11.794C16.4659 7.71528 19.8554 4.53645 24.044 2.95683C28.2326 1.37722 32.8772 1.52622 36.9559 3.37105C41.0346 5.21588 44.2135 8.60542 45.7931 12.794C45.8387 12.9096 45.8609 13.0332 45.8584 13.1575C45.8558 13.2818 45.8286 13.4043 45.7783 13.518C45.7279 13.6316 45.6555 13.7341 45.5651 13.8195C45.4748 13.9049 45.3684 13.9715 45.2521 14.0154C45.1357 14.0593 45.0119 14.0796 44.8876 14.0752C44.7634 14.0708 44.6413 14.0417 44.5284 13.9896C44.4155 13.9375 44.3141 13.8635 44.2301 13.7719C44.1461 13.6803 44.0811 13.5729 44.039 13.4559C42.6349 9.73251 39.8093 6.71938 36.1836 5.07938C32.5579 3.43937 28.4293 3.30682 24.7059 4.7109C20.9825 6.11497 17.9694 8.94065 16.3294 12.5663C14.6894 16.192 14.5568 20.3206 15.9609 24.044C16.0044 24.1593 16.0248 24.2819 16.0208 24.405C16.0169 24.5281 15.9888 24.6493 15.938 24.7615C15.8873 24.8737 15.8149 24.9748 15.725 25.0591C15.6352 25.1433 15.5296 25.209 15.4143 25.2525C15.3085 25.292 15.1964 25.3123 15.0834 25.3125Z" fill="#0F62FE"/>
<path d="M30 30C27.775 30 25.5999 29.3402 23.7498 28.104C21.8998 26.8679 20.4578 25.1109 19.6064 23.0552C18.7549 20.9995 18.5321 18.7375 18.9662 16.5552C19.4003 14.373 20.4717 12.3684 22.0451 10.7951C23.6184 9.22171 25.623 8.15025 27.8052 7.71617C29.9875 7.28209 32.2495 7.50487 34.3052 8.35636C36.3609 9.20785 38.1179 10.6498 39.354 12.4998C40.5902 14.3499 41.25 16.525 41.25 18.75C41.2468 21.7327 40.0605 24.5923 37.9514 26.7014C35.8423 28.8105 32.9827 29.9968 30 30ZM30 9.37501C28.1458 9.37501 26.3332 9.92484 24.7915 10.955C23.2498 11.9851 22.0482 13.4493 21.3386 15.1623C20.6291 16.8754 20.4434 18.7604 20.8051 20.579C21.1669 22.3975 22.0598 24.068 23.3709 25.3791C24.682 26.6902 26.3525 27.5831 28.171 27.9449C29.9896 28.3066 31.8746 28.1209 33.5877 27.4114C35.3007 26.7018 36.7649 25.5002 37.795 23.9585C38.8252 22.4168 39.375 20.6042 39.375 18.75C39.3723 16.2644 38.3837 13.8815 36.6261 12.1239C34.8686 10.3663 32.4856 9.37773 30 9.37501Z" fill="#0F62FE"/>
<path d="M30 24.375C28.8875 24.375 27.7999 24.0451 26.8749 23.427C25.9499 22.8089 25.2289 21.9304 24.8032 20.9026C24.3774 19.8748 24.266 18.7438 24.4831 17.6526C24.7001 16.5615 25.2359 15.5592 26.0225 14.7725C26.8092 13.9859 27.8115 13.4501 28.9026 13.2331C29.9938 13.016 31.1248 13.1274 32.1526 13.5532C33.1804 13.9789 34.0589 14.6999 34.677 15.6249C35.2951 16.5499 35.625 17.6375 35.625 18.75C35.6235 20.2414 35.0304 21.6713 33.9758 22.7258C32.9213 23.7804 31.4914 24.3735 30 24.375ZM30 15C29.2583 15 28.5333 15.2199 27.9166 15.632C27.2999 16.044 26.8193 16.6297 26.5355 17.3149C26.2516 18.0002 26.1774 18.7542 26.3221 19.4816C26.4668 20.209 26.8239 20.8772 27.3484 21.4017C27.8728 21.9261 28.541 22.2833 29.2684 22.4279C29.9958 22.5726 30.7498 22.4984 31.4351 22.2146C32.1203 21.9307 32.706 21.4501 33.118 20.8334C33.5301 20.2167 33.75 19.4917 33.75 18.75C33.75 17.7554 33.3549 16.8016 32.6517 16.0984C31.9484 15.3951 30.9946 15 30 15Z" fill="#0F62FE"/>
<path d="M54.375 23.4375H46.5863C46.3442 23.437 46.1118 23.343 45.9375 23.175L42.3141 19.6875H30C29.7514 19.6875 29.5129 19.5887 29.3371 19.4129C29.1613 19.2371 29.0625 18.9986 29.0625 18.75C29.0625 18.5014 29.1613 18.2629 29.3371 18.0871C29.5129 17.9113 29.7514 17.8125 30 17.8125H42.3141L45.9375 14.325C46.112 14.1568 46.3448 14.0627 46.5872 14.0625H54.375C54.5619 14.0625 54.7445 14.1183 54.8994 14.2229C55.0544 14.3274 55.1745 14.4759 55.2444 14.6492C55.3144 14.8225 55.3309 15.0128 55.2919 15.1956C55.2529 15.3783 55.1602 15.5453 55.0256 15.675L51.8325 18.75L55.0256 21.825C55.1602 21.9547 55.2529 22.1217 55.2919 22.3044C55.3309 22.4872 55.3144 22.6775 55.2444 22.8508C55.1745 23.0241 55.0544 23.1726 54.8994 23.2771C54.7445 23.3816 54.5619 23.4375 54.375 23.4375ZM46.9687 21.5625H52.05L50.1028 19.6875H45.0178L46.9687 21.5625ZM45.0216 17.8125H50.1066L52.0537 15.9375H46.9687L45.0216 17.8125Z" fill="#0F62FE"/>
</svg>
