<svg width="291" height="137" viewBox="0 0 291 137" fill="none" xmlns="http://www.w3.org/2000/svg">
<path d="M189.932 123.308C188.538 125.691 185.463 126.508 183.187 124.943C172.045 117.281 163.386 106.467 158.357 93.8341C152.71 79.6481 151.965 63.982 156.239 49.3238C160.513 34.6656 169.562 21.8557 181.949 12.9284C194.336 4.00115 209.351 -0.531729 224.608 0.0496796C239.866 0.631088 254.492 6.29345 266.164 16.1375C277.835 25.9816 285.883 39.443 289.03 54.384C292.176 69.3249 290.241 84.8888 283.53 98.604C277.555 110.818 268.098 120.942 256.405 127.733C254.017 129.12 251.013 128.072 249.804 125.589L239.186 103.788C237.977 101.305 239.036 98.3407 241.316 96.7833C246.19 93.4545 250.146 88.9046 252.765 83.552C256.12 76.6944 257.088 68.9125 255.515 61.442C253.942 53.9715 249.918 47.2408 244.082 42.3188C238.246 37.3967 230.933 34.5655 223.304 34.2748C215.675 33.9841 208.168 36.2506 201.975 40.7142C195.781 45.1779 191.257 51.5828 189.119 58.9119C186.982 66.241 187.355 74.074 190.178 81.1671C192.382 86.7034 195.981 91.5412 200.587 95.2313C202.743 96.9577 203.573 99.994 202.179 102.377L189.932 123.308Z" fill="#DEECFF"/>
<circle cx="222" cy="68.5004" r="28.6322" stroke="white" stroke-opacity="0.1" stroke-dasharray="5 5"/>
<path d="M189.932 123.308C188.538 125.691 185.463 126.508 183.188 124.943C175.735 119.819 169.357 113.259 164.436 105.63C158.611 96.5987 154.992 86.3229 153.872 75.6339C152.753 64.9448 154.165 54.1423 157.993 44.0998C161.821 34.0572 167.959 25.0564 175.91 17.825C183.861 10.5935 193.402 5.3344 203.761 2.47277C214.121 -0.388868 225.008 -0.772718 235.544 1.35225C246.079 3.47722 255.966 8.05137 264.407 14.7049C271.536 20.3247 277.463 27.2946 281.86 35.1985C283.203 37.6116 282.099 40.5954 279.595 41.7584L257.6 51.9707C255.095 53.1336 252.151 52.0196 250.636 49.7108C248.618 46.6343 246.11 43.8939 243.203 41.6025C238.983 38.2757 234.039 35.9886 228.772 34.9261C223.504 33.8636 218.06 34.0556 212.881 35.4864C207.701 36.9172 202.93 39.5468 198.955 43.1625C194.98 46.7782 191.911 51.2786 189.997 56.2999C188.082 61.3212 187.377 66.7224 187.936 72.0669C188.496 77.4115 190.305 82.5493 193.218 87.0652C195.224 90.1756 197.715 92.9308 200.587 95.2313C202.743 96.9577 203.573 99.994 202.179 102.377L189.932 123.308Z" fill="#0F62FE"/>
<path d="M189.932 123.308C188.538 125.691 185.463 126.508 183.187 124.943C171.696 117.042 162.854 105.793 157.906 92.6694C152.957 79.5461 152.17 65.26 155.582 51.738C156.258 49.0605 159.107 47.6433 161.728 48.5125L184.745 56.1455C187.366 57.0147 188.747 59.8435 188.268 62.5631C187.209 68.5827 187.775 74.809 189.953 80.5847C192.131 86.3604 195.817 91.41 200.587 95.2313C202.742 96.9577 203.573 99.994 202.179 102.377L189.932 123.308Z" fill="#5E7DFF"/>
<path d="M202.709 21.5557V20.2959L206.418 14.4424H207.461V16.2354H206.822L204.326 20.1846V20.2549H209.5V21.5557H202.709ZM206.869 23.1729V21.1748L206.892 20.6064V14.4424H208.381V23.1729H206.869ZM213.642 23.29C212.935 23.29 212.33 23.1143 211.826 22.7627C211.326 22.4072 210.943 21.8975 210.677 21.2334C210.412 20.5654 210.279 19.7588 210.279 18.8135C210.279 17.8682 210.412 17.0615 210.677 16.3936C210.943 15.7217 211.326 15.21 211.826 14.8584C212.33 14.5029 212.935 14.3252 213.642 14.3252C214.345 14.3252 214.949 14.5029 215.453 14.8584C215.957 15.2139 216.342 15.7256 216.607 16.3936C216.873 17.0615 217.006 17.8682 217.006 18.8135C217.006 19.7588 216.873 20.5654 216.607 21.2334C216.342 21.8975 215.959 22.4072 215.459 22.7627C214.959 23.1143 214.353 23.29 213.642 23.29ZM213.642 21.9658C214.021 21.9658 214.342 21.8428 214.603 21.5967C214.869 21.3506 215.07 20.9932 215.207 20.5244C215.347 20.0518 215.418 19.4814 215.418 18.8135C215.418 18.1416 215.347 17.5693 215.207 17.0967C215.07 16.624 214.869 16.2646 214.603 16.0186C214.342 15.7686 214.021 15.6436 213.642 15.6436C213.072 15.6436 212.633 15.9209 212.324 16.4756C212.019 17.0264 211.867 17.8057 211.867 18.8135C211.867 19.4814 211.935 20.0518 212.072 20.5244C212.209 20.9932 212.41 21.3506 212.676 21.5967C212.941 21.8428 213.263 21.9658 213.642 21.9658ZM222.642 21.5322V21.0752C222.642 20.7354 222.713 20.4229 222.853 20.1377C222.994 19.8525 223.203 19.624 223.48 19.4521C223.758 19.2803 224.094 19.1943 224.488 19.1943C224.89 19.1943 225.228 19.2803 225.502 19.4521C225.775 19.624 225.98 19.8525 226.117 20.1377C226.258 20.4189 226.328 20.7314 226.328 21.0752V21.5322C226.328 21.8721 226.258 22.1846 226.117 22.4697C225.976 22.7549 225.769 22.9834 225.496 23.1553C225.222 23.3271 224.886 23.4131 224.488 23.4131C224.09 23.4131 223.752 23.3271 223.474 23.1553C223.197 22.9834 222.988 22.7549 222.847 22.4697C222.711 22.1846 222.642 21.8721 222.642 21.5322ZM223.75 21.0752V21.5322C223.75 21.7588 223.804 21.9658 223.914 22.1533C224.023 22.3408 224.215 22.4346 224.488 22.4346C224.758 22.4346 224.945 22.3408 225.051 22.1533C225.156 21.9658 225.209 21.7588 225.209 21.5322V21.0752C225.209 20.8486 225.158 20.6416 225.056 20.4541C224.959 20.2666 224.769 20.1729 224.488 20.1729C224.219 20.1729 224.027 20.2666 223.914 20.4541C223.804 20.6416 223.75 20.8486 223.75 21.0752ZM218.207 16.54V16.083C218.207 15.7393 218.279 15.4268 218.424 15.1455C218.568 14.8604 218.777 14.6318 219.051 14.46C219.324 14.2881 219.656 14.2021 220.047 14.2021C220.453 14.2021 220.793 14.2881 221.066 14.46C221.34 14.6318 221.547 14.8604 221.687 15.1455C221.828 15.4268 221.896 15.7393 221.892 16.083V16.54C221.896 16.8799 221.826 17.1924 221.681 17.4775C221.537 17.7627 221.328 17.9912 221.054 18.1631C220.781 18.3311 220.445 18.415 220.047 18.415C219.648 18.415 219.312 18.3291 219.039 18.1572C218.765 17.9854 218.558 17.7568 218.418 17.4717C218.277 17.1865 218.207 16.876 218.207 16.54ZM219.326 16.083V16.54C219.326 16.7666 219.379 16.9736 219.484 17.1611C219.59 17.3486 219.777 17.4404 220.047 17.4365C220.324 17.4404 220.513 17.3486 220.615 17.1611C220.72 16.9736 220.773 16.7666 220.773 16.54V16.083C220.773 15.8564 220.722 15.6494 220.621 15.4619C220.523 15.2705 220.332 15.1748 220.047 15.1748C219.781 15.1748 219.594 15.2705 219.484 15.4619C219.379 15.6533 219.326 15.8604 219.326 16.083ZM218.687 23.1729L224.687 14.4424H225.76L219.76 23.1729H218.687Z" fill="white"/>
<path d="M161.131 83.7988V82.6621L164.166 79.6855C164.451 79.3926 164.69 79.1328 164.881 78.9062C165.076 78.6797 165.223 78.4609 165.321 78.25C165.418 78.0352 165.467 77.8066 165.467 77.5645C165.467 77.291 165.405 77.0547 165.28 76.8555C165.155 76.6562 164.983 76.5039 164.764 76.3984C164.549 76.293 164.303 76.2402 164.026 76.2402C163.737 76.2402 163.485 76.2988 163.27 76.416C163.055 76.5332 162.887 76.6992 162.766 76.9141C162.649 77.1289 162.59 77.3848 162.59 77.6816H161.09C161.09 77.1309 161.215 76.6523 161.465 76.2461C161.719 75.8359 162.069 75.5176 162.514 75.291C162.959 75.0645 163.469 74.9512 164.043 74.9512C164.633 74.9512 165.149 75.0605 165.59 75.2793C166.031 75.498 166.375 75.7988 166.621 76.1816C166.867 76.5605 166.99 76.9941 166.99 77.4824C166.99 77.8105 166.928 78.1328 166.803 78.4492C166.678 78.7617 166.457 79.1113 166.141 79.498C165.828 79.8809 165.389 80.3438 164.823 80.8867L163.323 82.416V82.4805H167.119V83.7988H161.131ZM171.192 83.916C170.621 83.916 170.112 83.8105 169.662 83.5996C169.217 83.3848 168.862 83.0898 168.596 82.7148C168.334 82.3398 168.196 81.9102 168.18 81.4258H169.715C169.739 81.7812 169.891 82.0723 170.172 82.2988C170.457 82.5254 170.797 82.6387 171.192 82.6387C171.504 82.6387 171.78 82.5684 172.018 82.4277C172.256 82.2832 172.444 82.0859 172.58 81.8359C172.721 81.582 172.791 81.293 172.791 80.9688C172.791 80.6367 172.721 80.3438 172.58 80.0898C172.44 79.832 172.246 79.6309 172 79.4863C171.754 79.3379 171.471 79.2637 171.151 79.2637C170.885 79.2637 170.627 79.3145 170.377 79.416C170.127 79.5137 169.928 79.6426 169.78 79.8027L168.344 79.5684L168.801 75.0684H173.869V76.3926H170.114L169.862 78.707H169.908C170.073 78.5117 170.301 78.3535 170.594 78.2324C170.891 78.1074 171.217 78.0449 171.573 78.0449C172.104 78.0449 172.574 78.1699 172.985 78.4199C173.399 78.666 173.725 79.0059 173.963 79.4395C174.201 79.873 174.321 80.3711 174.321 80.9336C174.321 81.5078 174.188 82.0215 173.922 82.4746C173.656 82.9238 173.289 83.2773 172.821 83.5352C172.352 83.7891 171.809 83.916 171.192 83.916ZM179.963 82.1582V81.7012C179.963 81.3613 180.033 81.0488 180.174 80.7637C180.315 80.4785 180.524 80.25 180.801 80.0781C181.078 79.9062 181.414 79.8203 181.809 79.8203C182.211 79.8203 182.549 79.9062 182.823 80.0781C183.096 80.25 183.301 80.4785 183.438 80.7637C183.578 81.0449 183.649 81.3574 183.649 81.7012V82.1582C183.649 82.498 183.578 82.8105 183.438 83.0957C183.297 83.3809 183.09 83.6094 182.817 83.7812C182.543 83.9531 182.207 84.0391 181.809 84.0391C181.41 84.0391 181.073 83.9531 180.795 83.7812C180.518 83.6094 180.309 83.3809 180.168 83.0957C180.031 82.8105 179.963 82.498 179.963 82.1582ZM181.071 81.7012V82.1582C181.071 82.3848 181.125 82.5918 181.235 82.7793C181.344 82.9668 181.535 83.0605 181.809 83.0605C182.078 83.0605 182.266 82.9668 182.371 82.7793C182.477 82.5918 182.53 82.3848 182.53 82.1582V81.7012C182.53 81.4746 182.479 81.2676 182.377 81.0801C182.28 80.8926 182.09 80.7988 181.809 80.7988C181.539 80.7988 181.348 80.8926 181.235 81.0801C181.125 81.2676 181.071 81.4746 181.071 81.7012ZM175.528 77.166V76.709C175.528 76.3652 175.6 76.0527 175.744 75.7715C175.889 75.4863 176.098 75.2578 176.371 75.0859C176.645 74.9141 176.977 74.8281 177.367 74.8281C177.774 74.8281 178.114 74.9141 178.387 75.0859C178.66 75.2578 178.867 75.4863 179.008 75.7715C179.149 76.0527 179.217 76.3652 179.213 76.709V77.166C179.217 77.5059 179.147 77.8184 179.002 78.1035C178.858 78.3887 178.649 78.6172 178.375 78.7891C178.102 78.957 177.766 79.041 177.367 79.041C176.969 79.041 176.633 78.9551 176.36 78.7832C176.086 78.6113 175.879 78.3828 175.739 78.0977C175.598 77.8125 175.528 77.502 175.528 77.166ZM176.647 76.709V77.166C176.647 77.3926 176.699 77.5996 176.805 77.7871C176.91 77.9746 177.098 78.0664 177.367 78.0625C177.645 78.0664 177.834 77.9746 177.936 77.7871C178.041 77.5996 178.094 77.3926 178.094 77.166V76.709C178.094 76.4824 178.043 76.2754 177.942 76.0879C177.844 75.8965 177.653 75.8008 177.367 75.8008C177.102 75.8008 176.914 75.8965 176.805 76.0879C176.699 76.2793 176.647 76.4863 176.647 76.709ZM176.008 83.7988L182.008 75.0684H183.08L177.08 83.7988H176.008Z" fill="white"/>
<path d="M265.048 77.6172C264.434 77.6172 263.889 77.5137 263.413 77.3066C262.936 77.0957 262.559 76.8027 262.282 76.4277C262.009 76.0527 261.866 75.6191 261.854 75.127H263.448C263.46 75.3652 263.536 75.5723 263.677 75.748C263.821 75.9199 264.012 76.0547 264.251 76.1523C264.489 76.2461 264.755 76.293 265.048 76.293C265.36 76.293 265.635 76.2383 265.874 76.1289C266.116 76.0156 266.305 75.8633 266.442 75.6719C266.579 75.4766 266.647 75.252 266.647 74.998C266.647 74.7324 266.577 74.498 266.436 74.2949C266.3 74.0918 266.1 73.9336 265.839 73.8203C265.577 73.707 265.262 73.6504 264.895 73.6504H264.116V72.4316H264.895C265.192 72.4316 265.456 72.3789 265.686 72.2734C265.917 72.168 266.096 72.0215 266.225 71.834C266.354 71.6426 266.419 71.4199 266.419 71.166C266.419 70.9199 266.362 70.7051 266.249 70.5215C266.139 70.3379 265.983 70.1953 265.78 70.0938C265.577 69.9922 265.339 69.9414 265.065 69.9414C264.8 69.9414 264.552 69.9902 264.321 70.0879C264.094 70.1816 263.911 70.3164 263.77 70.4922C263.634 70.668 263.561 70.8789 263.553 71.125H262.036C262.044 70.6367 262.182 70.207 262.452 69.8359C262.725 69.4648 263.091 69.1758 263.548 68.9688C264.005 68.7578 264.516 68.6523 265.083 68.6523C265.661 68.6523 266.165 68.7617 266.594 68.9805C267.028 69.1953 267.362 69.4863 267.596 69.8535C267.835 70.2207 267.954 70.625 267.954 71.0664C267.954 71.5586 267.809 71.9707 267.52 72.3027C267.231 72.6348 266.85 72.8535 266.378 72.959V73.0234C266.987 73.1094 267.454 73.3359 267.778 73.7031C268.106 74.0703 268.27 74.5273 268.27 75.0742C268.27 75.5625 268.132 76 267.854 76.3867C267.577 76.7695 267.196 77.0703 266.712 77.2891C266.227 77.5078 265.673 77.6172 265.048 77.6172ZM272.325 77.6172C271.755 77.6172 271.245 77.5117 270.796 77.3008C270.35 77.0859 269.995 76.791 269.729 76.416C269.468 76.041 269.329 75.6113 269.313 75.127H270.848C270.872 75.4824 271.024 75.7734 271.305 76C271.591 76.2266 271.93 76.3398 272.325 76.3398C272.637 76.3398 272.913 76.2695 273.151 76.1289C273.389 75.9844 273.577 75.7871 273.714 75.5371C273.854 75.2832 273.925 74.9941 273.925 74.6699C273.925 74.3379 273.854 74.0449 273.714 73.791C273.573 73.5332 273.38 73.332 273.134 73.1875C272.887 73.0391 272.604 72.9648 272.284 72.9648C272.018 72.9648 271.76 73.0156 271.51 73.1172C271.26 73.2148 271.061 73.3438 270.913 73.5039L269.477 73.2695L269.934 68.7695H275.003V70.0938H271.247L270.995 72.4082H271.042C271.206 72.2129 271.434 72.0547 271.727 71.9336C272.024 71.8086 272.35 71.7461 272.706 71.7461C273.237 71.7461 273.708 71.8711 274.118 72.1211C274.532 72.3672 274.858 72.707 275.096 73.1406C275.335 73.5742 275.454 74.0723 275.454 74.6348C275.454 75.209 275.321 75.7227 275.055 76.1758C274.79 76.625 274.423 76.9785 273.954 77.2363C273.485 77.4902 272.942 77.6172 272.325 77.6172ZM281.096 75.8594V75.4023C281.096 75.0625 281.167 74.75 281.307 74.4648C281.448 74.1797 281.657 73.9512 281.934 73.7793C282.212 73.6074 282.548 73.5215 282.942 73.5215C283.344 73.5215 283.682 73.6074 283.956 73.7793C284.229 73.9512 284.434 74.1797 284.571 74.4648C284.712 74.7461 284.782 75.0586 284.782 75.4023V75.8594C284.782 76.1992 284.712 76.5117 284.571 76.7969C284.43 77.082 284.223 77.3105 283.95 77.4824C283.677 77.6543 283.341 77.7402 282.942 77.7402C282.544 77.7402 282.206 77.6543 281.928 77.4824C281.651 77.3105 281.442 77.082 281.302 76.7969C281.165 76.5117 281.096 76.1992 281.096 75.8594ZM282.204 75.4023V75.8594C282.204 76.0859 282.259 76.293 282.368 76.4805C282.477 76.668 282.669 76.7617 282.942 76.7617C283.212 76.7617 283.399 76.668 283.505 76.4805C283.61 76.293 283.663 76.0859 283.663 75.8594V75.4023C283.663 75.1758 283.612 74.9688 283.51 74.7812C283.413 74.5938 283.223 74.5 282.942 74.5C282.673 74.5 282.481 74.5938 282.368 74.7812C282.259 74.9688 282.204 75.1758 282.204 75.4023ZM276.661 70.8672V70.4102C276.661 70.0664 276.733 69.7539 276.878 69.4727C277.022 69.1875 277.231 68.959 277.505 68.7871C277.778 68.6152 278.11 68.5293 278.501 68.5293C278.907 68.5293 279.247 68.6152 279.52 68.7871C279.794 68.959 280.001 69.1875 280.141 69.4727C280.282 69.7539 280.35 70.0664 280.346 70.4102V70.8672C280.35 71.207 280.28 71.5195 280.135 71.8047C279.991 72.0898 279.782 72.3184 279.509 72.4902C279.235 72.6582 278.899 72.7422 278.501 72.7422C278.102 72.7422 277.766 72.6562 277.493 72.4844C277.219 72.3125 277.012 72.084 276.872 71.7988C276.731 71.5137 276.661 71.2031 276.661 70.8672ZM277.78 70.4102V70.8672C277.78 71.0938 277.833 71.3008 277.938 71.4883C278.044 71.6758 278.231 71.7676 278.501 71.7637C278.778 71.7676 278.968 71.6758 279.069 71.4883C279.175 71.3008 279.227 71.0938 279.227 70.8672V70.4102C279.227 70.1836 279.177 69.9766 279.075 69.7891C278.977 69.5977 278.786 69.502 278.501 69.502C278.235 69.502 278.048 69.5977 277.938 69.7891C277.833 69.9805 277.78 70.1875 277.78 70.4102ZM277.141 77.5L283.141 68.7695H284.214L278.214 77.5H277.141Z" fill="#0F62FE"/>
<path d="M0.84375 12V0.359375H5.21094C6.10677 0.359375 6.85677 0.515625 7.46094 0.828125C8.07031 1.14062 8.53125 1.57812 8.84375 2.14062C9.15625 2.69792 9.3125 3.34635 9.3125 4.08594C9.3125 4.83073 9.15365 5.47656 8.83594 6.02344C8.52344 6.57031 8.0599 6.99219 7.44531 7.28906C6.83073 7.58594 6.07552 7.73438 5.17969 7.73438H2.07812V5.99219H4.89062C5.41667 5.99219 5.84635 5.91927 6.17969 5.77344C6.51823 5.6276 6.76562 5.41406 6.92188 5.13281C7.08333 4.84635 7.16406 4.4974 7.16406 4.08594C7.16406 3.67448 7.08333 3.32292 6.92188 3.03125C6.76042 2.73438 6.51302 2.51042 6.17969 2.35938C5.84635 2.20312 5.41406 2.125 4.88281 2.125H2.95312V12H0.84375ZM7.38281 12L4.5625 6.71875H6.85938L9.74219 12H7.38281ZM14.3125 12.1719C13.4375 12.1719 12.6823 11.9896 12.0469 11.625C11.4115 11.2552 10.9219 10.7344 10.5781 10.0625C10.2396 9.39062 10.0703 8.59896 10.0703 7.6875C10.0703 6.78646 10.2396 5.9974 10.5781 5.32031C10.9167 4.63802 11.3932 4.10677 12.0078 3.72656C12.6224 3.34635 13.3464 3.15625 14.1797 3.15625C14.7161 3.15625 15.224 3.24219 15.7031 3.41406C16.1875 3.58594 16.6146 3.85156 16.9844 4.21094C17.3594 4.57031 17.6536 5.02865 17.8672 5.58594C18.0807 6.13802 18.1875 6.79688 18.1875 7.5625V8.20312H11.0312V6.82031H17.1641L16.2031 7.22656C16.2031 6.73177 16.1276 6.30208 15.9766 5.9375C15.8255 5.56771 15.6016 5.27865 15.3047 5.07031C15.0078 4.86198 14.638 4.75781 14.1953 4.75781C13.7526 4.75781 13.375 4.86198 13.0625 5.07031C12.75 5.27865 12.513 5.5599 12.3516 5.91406C12.1901 6.26302 12.1094 6.65365 12.1094 7.08594V8.04688C12.1094 8.57812 12.2005 9.03385 12.3828 9.41406C12.5703 9.78906 12.8307 10.0755 13.1641 10.2734C13.5026 10.4714 13.8958 10.5703 14.3438 10.5703C14.6354 10.5703 14.901 10.5286 15.1406 10.4453C15.3854 10.362 15.5938 10.237 15.7656 10.0703C15.9427 9.89844 16.0781 9.6875 16.1719 9.4375L18.0938 9.66406C17.9688 10.1693 17.737 10.612 17.3984 10.9922C17.0651 11.3672 16.6354 11.6589 16.1094 11.8672C15.5885 12.0703 14.9896 12.1719 14.3125 12.1719ZM26.8047 3.26562L23.6953 12H21.4141L18.3125 3.26562H20.5078L22.5312 9.75781H22.625L24.6328 3.26562H26.8047ZM31.2031 12.1719C30.3281 12.1719 29.5729 11.9896 28.9375 11.625C28.3021 11.2552 27.8125 10.7344 27.4688 10.0625C27.1302 9.39062 26.9609 8.59896 26.9609 7.6875C26.9609 6.78646 27.1302 5.9974 27.4688 5.32031C27.8073 4.63802 28.2839 4.10677 28.8984 3.72656C29.513 3.34635 30.237 3.15625 31.0703 3.15625C31.6068 3.15625 32.1146 3.24219 32.5938 3.41406C33.0781 3.58594 33.5052 3.85156 33.875 4.21094C34.25 4.57031 34.5443 5.02865 34.7578 5.58594C34.9714 6.13802 35.0781 6.79688 35.0781 7.5625V8.20312H27.9219V6.82031H34.0547L33.0938 7.22656C33.0938 6.73177 33.0182 6.30208 32.8672 5.9375C32.7161 5.56771 32.4922 5.27865 32.1953 5.07031C31.8984 4.86198 31.5286 4.75781 31.0859 4.75781C30.6432 4.75781 30.2656 4.86198 29.9531 5.07031C29.6406 5.27865 29.4036 5.5599 29.2422 5.91406C29.0807 6.26302 29 6.65365 29 7.08594V8.04688C29 8.57812 29.0911 9.03385 29.2734 9.41406C29.4609 9.78906 29.7214 10.0755 30.0547 10.2734C30.3932 10.4714 30.7865 10.5703 31.2344 10.5703C31.526 10.5703 31.7917 10.5286 32.0312 10.4453C32.276 10.362 32.4844 10.237 32.6562 10.0703C32.8333 9.89844 32.9688 9.6875 33.0625 9.4375L34.9844 9.66406C34.8594 10.1693 34.6276 10.612 34.2891 10.9922C33.9557 11.3672 33.526 11.6589 33 11.8672C32.4792 12.0703 31.8802 12.1719 31.2031 12.1719ZM38.25 6.89062V12H36.1953V3.26562H38.2109V4.75781H38.3125C38.5104 4.26823 38.8203 3.88021 39.2422 3.59375C39.6693 3.30208 40.2109 3.15625 40.8672 3.15625C41.4714 3.15625 41.9974 3.28385 42.4453 3.53906C42.8932 3.79427 43.2396 4.16927 43.4844 4.66406C43.7344 5.15365 43.8594 5.7474 43.8594 6.44531V12H41.8047V6.76562C41.8047 6.18229 41.6536 5.72656 41.3516 5.39844C41.0495 5.0651 40.6328 4.89844 40.1016 4.89844C39.7422 4.89844 39.4219 4.97656 39.1406 5.13281C38.8646 5.28906 38.6458 5.51562 38.4844 5.8125C38.3281 6.10417 38.25 6.46354 38.25 6.89062ZM50.9453 8.33594V3.26562H53V12H51.0078V10.4453H50.9141C50.7161 10.9349 50.3932 11.3359 49.9453 11.6484C49.4974 11.9609 48.9453 12.1146 48.2891 12.1094C47.7161 12.1094 47.2109 11.9844 46.7734 11.7344C46.3411 11.4792 46 11.1068 45.75 10.6172C45.5052 10.1224 45.3828 9.52604 45.3828 8.82812V3.26562H47.4375V8.51562C47.4375 9.0625 47.5885 9.5 47.8906 9.82812C48.1979 10.1562 48.599 10.3177 49.0938 10.3125C49.3958 10.3125 49.6875 10.2396 49.9688 10.0938C50.2552 9.94792 50.4896 9.72917 50.6719 9.4375C50.8542 9.14583 50.9453 8.77865 50.9453 8.33594ZM58.3906 12.1719C57.5156 12.1719 56.7604 11.9896 56.125 11.625C55.4896 11.2552 55 10.7344 54.6562 10.0625C54.3177 9.39062 54.1484 8.59896 54.1484 7.6875C54.1484 6.78646 54.3177 5.9974 54.6562 5.32031C54.9948 4.63802 55.4714 4.10677 56.0859 3.72656C56.7005 3.34635 57.4245 3.15625 58.2578 3.15625C58.7943 3.15625 59.3021 3.24219 59.7812 3.41406C60.2656 3.58594 60.6927 3.85156 61.0625 4.21094C61.4375 4.57031 61.7318 5.02865 61.9453 5.58594C62.1589 6.13802 62.2656 6.79688 62.2656 7.5625V8.20312H55.1094V6.82031H61.2422L60.2812 7.22656C60.2812 6.73177 60.2057 6.30208 60.0547 5.9375C59.9036 5.56771 59.6797 5.27865 59.3828 5.07031C59.0859 4.86198 58.7161 4.75781 58.2734 4.75781C57.8307 4.75781 57.4531 4.86198 57.1406 5.07031C56.8281 5.27865 56.5911 5.5599 56.4297 5.91406C56.2682 6.26302 56.1875 6.65365 56.1875 7.08594V8.04688C56.1875 8.57812 56.2786 9.03385 56.4609 9.41406C56.6484 9.78906 56.9089 10.0755 57.2422 10.2734C57.5807 10.4714 57.974 10.5703 58.4219 10.5703C58.7135 10.5703 58.9792 10.5286 59.2188 10.4453C59.4635 10.362 59.6719 10.237 59.8438 10.0703C60.0208 9.89844 60.1562 9.6875 60.25 9.4375L62.1719 9.66406C62.0469 10.1693 61.8151 10.612 61.4766 10.9922C61.1432 11.3672 60.7135 11.6589 60.1875 11.8672C59.6667 12.0703 59.0677 12.1719 58.3906 12.1719ZM71.9453 12.1562C70.8776 12.1562 69.9375 11.9141 69.125 11.4297C68.3177 10.9453 67.6875 10.2578 67.2344 9.36719C66.7812 8.47656 66.5547 7.41927 66.5547 6.19531C66.5547 4.94531 66.7865 3.8724 67.25 2.97656C67.7188 2.08073 68.3542 1.39583 69.1562 0.921875C69.9583 0.442708 70.8672 0.203125 71.8828 0.203125C72.5286 0.203125 73.1276 0.296875 73.6797 0.484375C74.237 0.671875 74.7318 0.940104 75.1641 1.28906C75.5964 1.63281 75.9505 2.04167 76.2266 2.51562C76.5078 2.98958 76.6953 3.51042 76.7891 4.07812H74.6406C74.5469 3.77083 74.4167 3.49479 74.25 3.25C74.0885 3.00521 73.8906 2.79688 73.6562 2.625C73.4271 2.44792 73.1667 2.3151 72.875 2.22656C72.5833 2.13802 72.2604 2.09375 71.9062 2.09375C71.2865 2.09375 70.7318 2.2526 70.2422 2.57031C69.7526 2.88281 69.3672 3.34375 69.0859 3.95312C68.8099 4.55729 68.6719 5.29688 68.6719 6.17188C68.6719 7.05208 68.8099 7.79688 69.0859 8.40625C69.362 9.01562 69.7474 9.47917 70.2422 9.79688C70.737 10.1094 71.3099 10.2656 71.9609 10.2656C72.5495 10.2656 73.0599 10.1536 73.4922 9.92969C73.9245 9.70052 74.2578 9.3776 74.4922 8.96094C74.7266 8.54427 74.8438 8.05208 74.8438 7.48438L75.3281 7.5625H72.1641V5.91406H76.8906V7.30469C76.8906 8.30469 76.6797 9.16667 76.2578 9.89062C75.8359 10.6146 75.25 11.1745 74.5 11.5703C73.7552 11.9609 72.9036 12.1562 71.9453 12.1562ZM78.2422 12V3.26562H80.2344V4.73438H80.3281C80.4844 4.22396 80.7578 3.83333 81.1484 3.5625C81.5391 3.28646 81.9844 3.14844 82.4844 3.14844C82.5938 3.14844 82.7188 3.15365 82.8594 3.16406C83.0052 3.17448 83.125 3.1875 83.2188 3.20312V5.09375C83.1302 5.0625 82.9922 5.03646 82.8047 5.01562C82.6172 4.99479 82.4375 4.98438 82.2656 4.98438C81.8854 4.98438 81.5469 5.0651 81.25 5.22656C80.9531 5.38802 80.7188 5.60938 80.5469 5.89062C80.3802 6.17188 80.2969 6.5 80.2969 6.875V12H78.2422ZM87.4375 12.1719C86.5833 12.1719 85.8438 11.9844 85.2188 11.6094C84.5938 11.2344 84.1094 10.7083 83.7656 10.0312C83.4271 9.35417 83.2578 8.56771 83.2578 7.67188C83.2578 6.77083 83.4271 5.98177 83.7656 5.30469C84.1094 4.6224 84.5938 4.09375 85.2188 3.71875C85.8438 3.34375 86.5833 3.15625 87.4375 3.15625C88.2917 3.15625 89.0312 3.34375 89.6562 3.71875C90.2812 4.09375 90.7656 4.6224 91.1094 5.30469C91.4531 5.98177 91.625 6.77083 91.625 7.67188C91.625 8.56771 91.4531 9.35417 91.1094 10.0312C90.7656 10.7083 90.2812 11.2344 89.6562 11.6094C89.0312 11.9844 88.2917 12.1719 87.4375 12.1719ZM87.4375 10.5156C87.9115 10.5156 88.3021 10.3906 88.6094 10.1406C88.9167 9.88542 89.1458 9.54167 89.2969 9.10938C89.4531 8.67708 89.5312 8.19792 89.5312 7.67188C89.5312 7.13542 89.4531 6.65104 89.2969 6.21875C89.1458 5.78646 88.9167 5.44531 88.6094 5.19531C88.3021 4.9401 87.9115 4.8125 87.4375 4.8125C86.974 4.8125 86.5859 4.9401 86.2734 5.19531C85.9609 5.44531 85.7266 5.78646 85.5703 6.21875C85.4193 6.65104 85.3438 7.13542 85.3438 7.67188C85.3438 8.19792 85.4193 8.67708 85.5703 9.10938C85.7266 9.54167 85.9609 9.88542 86.2734 10.1406C86.5859 10.3906 86.974 10.5156 87.4375 10.5156ZM94.3281 12L91.8594 3.26562H93.9531L95.4922 9.40625H95.5703L97.1406 3.26562H99.2109L100.781 9.38281H100.859L102.375 3.26562H104.477L102.008 12H99.8594L98.2188 6.10156H98.1094L96.4688 12H94.3281ZM109.672 3.26562V4.85938H104.664V3.26562H109.672ZM105.891 1.1875H107.945V9.375C107.945 9.71875 108.021 9.97396 108.172 10.1406C108.323 10.3021 108.562 10.3828 108.891 10.3828C108.979 10.3828 109.078 10.375 109.188 10.3594C109.297 10.3438 109.396 10.3255 109.484 10.3047L109.836 11.9141C109.617 11.9818 109.396 12.0312 109.172 12.0625C108.948 12.099 108.724 12.1172 108.5 12.1172C107.688 12.1172 107.049 11.9036 106.586 11.4766C106.122 11.0443 105.891 10.4557 105.891 9.71094V1.1875ZM113.047 6.89062V12H110.992V0.359375H113V4.75781H113.109C113.312 4.26302 113.628 3.8724 114.055 3.58594C114.482 3.29948 115.031 3.15625 115.703 3.15625C116.307 3.15625 116.833 3.28385 117.281 3.53906C117.734 3.79427 118.086 4.16667 118.336 4.65625C118.586 5.14583 118.711 5.74219 118.711 6.44531V12H116.648V6.76562C116.648 6.17188 116.497 5.71354 116.195 5.39062C115.893 5.0625 115.471 4.89844 114.93 4.89844C114.565 4.89844 114.24 4.97656 113.953 5.13281C113.672 5.28906 113.451 5.51562 113.289 5.8125C113.128 6.10417 113.047 6.46354 113.047 6.89062Z" fill="white"/>
<rect y="65" width="16" height="16" fill="#3E64FF"/>
<path d="M22.4785 76.0107V74.7734L26.874 67.8145H27.8516V69.6465H27.2227L24.0781 74.623V74.7051H30.1143V76.0107H22.4785ZM27.291 78V75.6348L27.3047 75.0674V67.8145H28.7676V78H27.291ZM34.7832 78.1367C33.9993 78.1367 33.3271 77.9316 32.7666 77.5215C32.2106 77.1113 31.7845 76.5189 31.4883 75.7441C31.1966 74.9648 31.0508 74.0215 31.0508 72.9141C31.0508 71.8112 31.1989 70.8701 31.4951 70.0908C31.7913 69.307 32.2174 68.71 32.7734 68.2998C33.334 67.8851 34.0039 67.6777 34.7832 67.6777C35.5671 67.6777 36.237 67.8851 36.793 68.2998C37.3535 68.71 37.7796 69.307 38.0713 70.0908C38.3675 70.8701 38.5156 71.8112 38.5156 72.9141C38.5156 74.0215 38.3698 74.9648 38.0781 75.7441C37.7865 76.5189 37.3626 77.1113 36.8066 77.5215C36.2507 77.9316 35.5762 78.1367 34.7832 78.1367ZM34.7832 76.8242C35.2617 76.8242 35.665 76.6715 35.9932 76.3662C36.3213 76.0609 36.5719 75.6165 36.7451 75.0332C36.9183 74.4453 37.0049 73.7389 37.0049 72.9141C37.0049 72.0846 36.9183 71.3783 36.7451 70.7949C36.5719 70.207 36.3213 69.7604 35.9932 69.4551C35.665 69.1452 35.2617 68.9902 34.7832 68.9902C34.0768 68.9902 33.5299 69.3343 33.1426 70.0225C32.7598 70.7061 32.5684 71.6699 32.5684 72.9141C32.5684 73.7389 32.6549 74.4453 32.8281 75.0332C33.0013 75.6165 33.252 76.0609 33.5801 76.3662C33.9128 76.6715 34.3138 76.8242 34.7832 76.8242ZM45.0234 76.0859V75.5527C45.0234 75.1654 45.1032 74.8122 45.2627 74.4932C45.4222 74.1742 45.6569 73.9189 45.9668 73.7275C46.2767 73.5316 46.6527 73.4336 47.0947 73.4336C47.5459 73.4336 47.9242 73.5293 48.2295 73.7207C48.5348 73.9121 48.765 74.1696 48.9199 74.4932C49.0749 74.8122 49.1523 75.1654 49.1523 75.5527V76.0859C49.1523 76.4733 49.0726 76.8288 48.9131 77.1523C48.7581 77.4714 48.528 77.7266 48.2227 77.918C47.9173 78.1094 47.5413 78.2051 47.0947 78.2051C46.6481 78.2051 46.2699 78.1094 45.96 77.918C45.6501 77.7266 45.4154 77.4714 45.2559 77.1523C45.1009 76.8288 45.0234 76.4733 45.0234 76.0859ZM46.1787 75.5527V76.0859C46.1787 76.373 46.2471 76.6328 46.3838 76.8652C46.5205 77.0977 46.7575 77.2139 47.0947 77.2139C47.4274 77.2139 47.6598 77.0977 47.792 76.8652C47.9242 76.6328 47.9902 76.373 47.9902 76.0859V75.5527C47.9902 75.2656 47.9264 75.0081 47.7988 74.7803C47.6712 74.5479 47.4365 74.4316 47.0947 74.4316C46.762 74.4316 46.5251 74.5479 46.3838 74.7803C46.2471 75.0081 46.1787 75.2656 46.1787 75.5527ZM39.9033 70.2617V69.7285C39.9033 69.3411 39.9831 68.988 40.1426 68.6689C40.3066 68.3454 40.5413 68.0879 40.8467 67.8965C41.1566 67.7051 41.5303 67.6094 41.9678 67.6094C42.4189 67.6094 42.7972 67.7051 43.1025 67.8965C43.4124 68.0879 43.6449 68.3454 43.7998 68.6689C43.9548 68.988 44.0299 69.3411 44.0254 69.7285V70.2617C44.0299 70.6445 43.9525 70.9977 43.793 71.3213C43.6335 71.6403 43.401 71.8978 43.0957 72.0938C42.7904 72.2852 42.4144 72.3809 41.9678 72.3809C41.5212 72.3809 41.1429 72.2852 40.833 72.0938C40.5277 71.8978 40.2952 71.6403 40.1357 71.3213C39.9808 70.9977 39.9033 70.6445 39.9033 70.2617ZM41.0586 69.7285V70.2617C41.0586 70.5488 41.127 70.8086 41.2637 71.041C41.4004 71.2734 41.6351 71.3874 41.9678 71.3828C42.305 71.3874 42.5397 71.2734 42.6719 71.041C42.804 70.8086 42.8701 70.5488 42.8701 70.2617V69.7285C42.8701 69.4414 42.8063 69.1816 42.6787 68.9492C42.5511 68.7168 42.3141 68.6029 41.9678 68.6074C41.6396 68.6029 41.4049 68.7168 41.2637 68.9492C41.127 69.1816 41.0586 69.4414 41.0586 69.7285ZM40.375 78L47.375 67.8145H48.5645L41.5645 78H40.375Z" fill="#0F62FE"/>
<path d="M57.376 78.1641C56.6149 78.1641 55.9541 78.0456 55.3936 77.8086C54.8376 77.5671 54.4023 77.223 54.0879 76.7764C53.7734 76.3298 53.598 75.7988 53.5615 75.1836H55.1064C55.1383 75.5527 55.2568 75.8604 55.4619 76.1064C55.6715 76.348 55.9427 76.528 56.2754 76.6465C56.6081 76.765 56.9727 76.8242 57.3691 76.8242C57.8021 76.8242 58.1895 76.7559 58.5312 76.6191C58.873 76.4824 59.1396 76.291 59.3311 76.0449C59.527 75.7943 59.625 75.5026 59.625 75.1699C59.625 74.8691 59.5384 74.623 59.3652 74.4316C59.1966 74.2402 58.9665 74.083 58.6748 73.96C58.3831 73.8324 58.055 73.7207 57.6904 73.625L56.4941 73.2969C55.6738 73.0781 55.0267 72.7523 54.5527 72.3193C54.0788 71.8818 53.8418 71.3099 53.8418 70.6035C53.8418 70.0156 53.999 69.5029 54.3135 69.0654C54.6325 68.6279 55.0632 68.2884 55.6055 68.0469C56.1523 67.8008 56.7653 67.6777 57.4443 67.6777C58.137 67.6777 58.7454 67.8008 59.2695 68.0469C59.7982 68.2884 60.2152 68.6211 60.5205 69.0449C60.8304 69.4642 60.9922 69.945 61.0059 70.4873H59.5156C59.4609 70.0179 59.2422 69.6533 58.8594 69.3936C58.4811 69.1338 57.998 69.0039 57.4102 69.0039C57 69.0039 56.64 69.07 56.3301 69.2021C56.0247 69.3298 55.7878 69.5075 55.6191 69.7354C55.4551 69.9632 55.373 70.2253 55.373 70.5215C55.373 70.8405 55.471 71.1003 55.667 71.3008C55.8675 71.5013 56.109 71.6608 56.3916 71.7793C56.6787 71.8932 56.9544 71.9867 57.2188 72.0596L58.21 72.3262C58.5335 72.4082 58.8662 72.5176 59.208 72.6543C59.5498 72.791 59.8665 72.971 60.1582 73.1943C60.4544 73.4131 60.6914 73.6865 60.8691 74.0146C61.0514 74.3382 61.1426 74.7301 61.1426 75.1904C61.1426 75.7601 60.9945 76.2705 60.6982 76.7217C60.402 77.1683 59.9736 77.5215 59.4131 77.7812C58.8525 78.0365 58.1735 78.1641 57.376 78.1641ZM62.3867 78V67.8145H68.7783V69.1338H63.9248V72.2031H68.4365V73.5156H63.9248V76.6807H68.8262V78H62.3867ZM74.5 78.1367C73.625 78.1367 72.8411 77.9271 72.1484 77.5078C71.4557 77.0885 70.9089 76.4893 70.5078 75.71C70.1068 74.9261 69.9062 73.9941 69.9062 72.9141C69.9062 71.8249 70.1068 70.8906 70.5078 70.1113C70.9089 69.3275 71.4557 68.7259 72.1484 68.3066C72.8411 67.8874 73.625 67.6777 74.5 67.6777C75.3841 67.6777 76.1702 67.8874 76.8584 68.3066C77.5465 68.7259 78.0889 69.3275 78.4854 70.1113C78.8864 70.8906 79.0869 71.8249 79.0869 72.9141C79.0869 73.9987 78.8864 74.9307 78.4854 75.71C78.0889 76.4893 77.5465 77.0885 76.8584 77.5078C76.1702 77.9271 75.3841 78.1367 74.5 78.1367ZM74.5 76.7354C75.0879 76.7354 75.612 76.5895 76.0723 76.2979C76.5326 76.0062 76.8949 75.5755 77.1592 75.0059C77.4281 74.4362 77.5625 73.7389 77.5625 72.9141C77.5625 72.0846 77.4281 71.3851 77.1592 70.8154C76.8949 70.2412 76.5326 69.8083 76.0723 69.5166C75.612 69.2249 75.0879 69.0791 74.5 69.0791C73.9167 69.0791 73.3926 69.2249 72.9277 69.5166C72.4674 69.8083 72.1029 70.2412 71.834 70.8154C71.5651 71.3851 71.4307 72.0846 71.4307 72.9141C71.4307 73.7389 71.5651 74.4362 71.834 75.0059C72.1029 75.5755 72.4674 76.0062 72.9277 76.2979C73.3926 76.5895 73.9167 76.7354 74.5 76.7354Z" fill="#F5F5F5"/>
<rect y="37" width="16" height="16" fill="#DEECFF"/>
<path d="M26.2314 50.1367C25.5433 50.1367 24.9326 50.0205 24.3994 49.7881C23.8662 49.5511 23.4447 49.223 23.1348 48.8037C22.8249 48.3844 22.6608 47.8991 22.6426 47.3477H24.1875C24.2103 47.6484 24.3128 47.9082 24.4951 48.127C24.6774 48.3457 24.9167 48.5166 25.2129 48.6396C25.5137 48.7581 25.8486 48.8174 26.2178 48.8174C26.6188 48.8174 26.9743 48.7467 27.2842 48.6055C27.5941 48.4642 27.8356 48.2705 28.0088 48.0244C28.1865 47.7738 28.2754 47.4844 28.2754 47.1562C28.2754 46.8145 28.1888 46.5137 28.0156 46.2539C27.8424 45.9896 27.5895 45.7845 27.2568 45.6387C26.9242 45.4928 26.5231 45.4199 26.0537 45.4199H25.1855V44.1621H26.0537C26.4274 44.1621 26.7578 44.0938 27.0449 43.957C27.332 43.8203 27.5553 43.6312 27.7148 43.3896C27.8789 43.1481 27.9609 42.8633 27.9609 42.5352C27.9609 42.2207 27.8903 41.9473 27.749 41.7148C27.6077 41.4779 27.4095 41.2956 27.1543 41.168C26.8991 41.0358 26.5983 40.9697 26.252 40.9697C25.9193 40.9697 25.6094 41.029 25.3223 41.1475C25.0352 41.266 24.8005 41.4368 24.6182 41.6602C24.4404 41.8789 24.347 42.1455 24.3379 42.46H22.8545C22.8682 41.9085 23.0277 41.4255 23.333 41.0107C23.6429 40.5915 24.0531 40.2656 24.5635 40.0332C25.0785 39.7962 25.6481 39.6777 26.2725 39.6777C26.9242 39.6777 27.487 39.8053 27.9609 40.0605C28.4395 40.3112 28.8086 40.6484 29.0684 41.0723C29.3281 41.4915 29.458 41.9495 29.458 42.4463C29.458 43.0251 29.2985 43.5127 28.9795 43.9092C28.6605 44.3011 28.2344 44.5677 27.7012 44.709V44.7842C28.3757 44.889 28.8975 45.1579 29.2666 45.5908C29.6403 46.0238 29.8271 46.5615 29.8271 47.2041C29.8271 47.7646 29.6699 48.266 29.3555 48.708C29.0456 49.1501 28.6195 49.4987 28.0771 49.7539C27.5394 50.0091 26.9242 50.1367 26.2314 50.1367ZM34.4824 50.1367C33.8581 50.1367 33.2975 50.0182 32.8008 49.7812C32.3086 49.5397 31.9144 49.2093 31.6182 48.79C31.3219 48.3662 31.1647 47.8854 31.1465 47.3477H32.6367C32.6732 47.7806 32.8669 48.1383 33.2178 48.4209C33.5687 48.7035 33.9902 48.8447 34.4824 48.8447C34.8743 48.8447 35.2207 48.7536 35.5215 48.5713C35.8223 48.389 36.0592 48.1406 36.2324 47.8262C36.4056 47.5072 36.4922 47.1426 36.4922 46.7324C36.4922 46.3223 36.4033 45.9554 36.2256 45.6318C36.0479 45.3037 35.8018 45.0462 35.4873 44.8594C35.1774 44.6725 34.8197 44.5791 34.4141 44.5791C34.1042 44.5791 33.7943 44.6338 33.4844 44.7432C33.1745 44.848 32.9238 44.9847 32.7324 45.1533L31.3174 44.9482L31.8916 39.8145H37.4902V41.1338H33.1768L32.8555 43.9844H32.9102C33.1061 43.7884 33.3682 43.6289 33.6963 43.5059C34.029 43.3783 34.3867 43.3145 34.7695 43.3145C35.3893 43.3145 35.9408 43.4626 36.4238 43.7588C36.9115 44.0505 37.2943 44.4515 37.5723 44.9619C37.8503 45.4678 37.9893 46.0488 37.9893 46.7051C37.9893 47.3659 37.8389 47.9561 37.5381 48.4756C37.2373 48.9906 36.8226 49.3962 36.2939 49.6924C35.7699 49.9886 35.166 50.1367 34.4824 50.1367ZM44.4902 48.0859V47.5527C44.4902 47.1654 44.57 46.8122 44.7295 46.4932C44.889 46.1742 45.1237 45.9189 45.4336 45.7275C45.7435 45.5316 46.1195 45.4336 46.5615 45.4336C47.0127 45.4336 47.391 45.5293 47.6963 45.7207C48.0016 45.9121 48.2318 46.1696 48.3867 46.4932C48.5417 46.8122 48.6191 47.1654 48.6191 47.5527V48.0859C48.6191 48.4733 48.5394 48.8288 48.3799 49.1523C48.2249 49.4714 47.9948 49.7266 47.6895 49.918C47.3841 50.1094 47.0081 50.2051 46.5615 50.2051C46.1149 50.2051 45.7367 50.1094 45.4268 49.918C45.1169 49.7266 44.8822 49.4714 44.7227 49.1523C44.5677 48.8288 44.4902 48.4733 44.4902 48.0859ZM45.6455 47.5527V48.0859C45.6455 48.373 45.7139 48.6328 45.8506 48.8652C45.9873 49.0977 46.2243 49.2139 46.5615 49.2139C46.8942 49.2139 47.1266 49.0977 47.2588 48.8652C47.391 48.6328 47.457 48.373 47.457 48.0859V47.5527C47.457 47.2656 47.3932 47.0081 47.2656 46.7803C47.138 46.5479 46.9033 46.4316 46.5615 46.4316C46.2288 46.4316 45.9919 46.5479 45.8506 46.7803C45.7139 47.0081 45.6455 47.2656 45.6455 47.5527ZM39.3701 42.2617V41.7285C39.3701 41.3411 39.4499 40.988 39.6094 40.6689C39.7734 40.3454 40.0081 40.0879 40.3135 39.8965C40.6234 39.7051 40.9971 39.6094 41.4346 39.6094C41.8857 39.6094 42.264 39.7051 42.5693 39.8965C42.8792 40.0879 43.1117 40.3454 43.2666 40.6689C43.4215 40.988 43.4967 41.3411 43.4922 41.7285V42.2617C43.4967 42.6445 43.4193 42.9977 43.2598 43.3213C43.1003 43.6403 42.8678 43.8978 42.5625 44.0938C42.2572 44.2852 41.8812 44.3809 41.4346 44.3809C40.988 44.3809 40.6097 44.2852 40.2998 44.0938C39.9945 43.8978 39.762 43.6403 39.6025 43.3213C39.4476 42.9977 39.3701 42.6445 39.3701 42.2617ZM40.5254 41.7285V42.2617C40.5254 42.5488 40.5938 42.8086 40.7305 43.041C40.8672 43.2734 41.1019 43.3874 41.4346 43.3828C41.7718 43.3874 42.0065 43.2734 42.1387 43.041C42.2708 42.8086 42.3369 42.5488 42.3369 42.2617V41.7285C42.3369 41.4414 42.2731 41.1816 42.1455 40.9492C42.0179 40.7168 41.7809 40.6029 41.4346 40.6074C41.1064 40.6029 40.8717 40.7168 40.7305 40.9492C40.5938 41.1816 40.5254 41.4414 40.5254 41.7285ZM39.8418 50L46.8418 39.8145H48.0312L41.0312 50H39.8418ZM57.7383 50.1367C56.8177 50.1367 56.0088 49.9248 55.3115 49.501C54.6188 49.0771 54.0765 48.4756 53.6846 47.6963C53.2972 46.9124 53.1035 45.985 53.1035 44.9141C53.1035 43.8294 53.2995 42.8975 53.6914 42.1182C54.0879 41.3343 54.6302 40.7327 55.3184 40.3135C56.0065 39.8896 56.7904 39.6777 57.6699 39.6777C58.2168 39.6777 58.7272 39.7598 59.2012 39.9238C59.6797 40.0833 60.1035 40.3135 60.4727 40.6143C60.8464 40.915 61.154 41.2705 61.3955 41.6807C61.6416 42.0863 61.8079 42.5374 61.8945 43.0342H60.3223C60.2266 42.7288 60.099 42.4577 59.9395 42.2207C59.7799 41.9792 59.5885 41.7741 59.3652 41.6055C59.1419 41.4323 58.889 41.3024 58.6064 41.2158C58.3285 41.1247 58.0186 41.0791 57.6768 41.0791C57.1025 41.0791 56.5853 41.2272 56.125 41.5234C55.6647 41.8151 55.3001 42.2458 55.0312 42.8154C54.7624 43.3851 54.6279 44.0824 54.6279 44.9072C54.6279 45.7321 54.7624 46.4294 55.0312 46.999C55.3001 47.5687 55.6693 48.0016 56.1387 48.2979C56.6081 48.5895 57.1413 48.7354 57.7383 48.7354C58.2897 48.7354 58.7705 48.6237 59.1807 48.4004C59.5908 48.1725 59.9098 47.8535 60.1377 47.4434C60.3656 47.0332 60.4795 46.5479 60.4795 45.9873L60.8828 46.0625H57.9707V44.791H61.9766V45.9531C61.9766 46.8099 61.7943 47.5505 61.4297 48.1748C61.0697 48.7992 60.5684 49.2822 59.9258 49.624C59.2878 49.9658 58.5586 50.1367 57.7383 50.1367ZM63.2207 50V42.3574H64.6494V43.5811H64.7314C64.8727 43.1709 65.1188 42.8473 65.4697 42.6104C65.8252 42.3688 66.2262 42.248 66.6729 42.248C66.764 42.248 66.8711 42.2526 66.9941 42.2617C67.1217 42.2663 67.2243 42.2731 67.3018 42.2822V43.7041C67.2425 43.6859 67.1354 43.6676 66.9805 43.6494C66.8301 43.6312 66.6774 43.6221 66.5225 43.6221C66.1715 43.6221 65.8571 43.6973 65.5791 43.8477C65.3057 43.9935 65.0892 44.1963 64.9297 44.4561C64.7747 44.7113 64.6973 45.0075 64.6973 45.3447V50H63.2207ZM70.9521 50.1572C70.2367 50.1572 69.61 49.9932 69.0723 49.665C68.5391 49.3369 68.1243 48.8766 67.8281 48.2842C67.5365 47.6917 67.3906 47.0036 67.3906 46.2197C67.3906 45.4268 67.5365 44.734 67.8281 44.1416C68.1243 43.5446 68.5391 43.082 69.0723 42.7539C69.61 42.4258 70.2367 42.2617 70.9521 42.2617C71.6722 42.2617 72.2988 42.4258 72.832 42.7539C73.3652 43.082 73.7799 43.5446 74.0762 44.1416C74.3724 44.734 74.5205 45.4268 74.5205 46.2197C74.5205 47.0036 74.3724 47.6917 74.0762 48.2842C73.7799 48.8766 73.3652 49.3369 72.832 49.665C72.2988 49.9932 71.6722 50.1572 70.9521 50.1572ZM70.9521 48.9062C71.4215 48.9062 71.8089 48.7832 72.1143 48.5371C72.4196 48.291 72.6452 47.9652 72.791 47.5596C72.9414 47.1494 73.0166 46.7028 73.0166 46.2197C73.0166 45.7275 72.9414 45.2764 72.791 44.8662C72.6452 44.4561 72.4196 44.1279 72.1143 43.8818C71.8089 43.6357 71.4215 43.5127 70.9521 43.5127C70.4873 43.5127 70.1022 43.6357 69.7969 43.8818C69.4961 44.1279 69.2705 44.4561 69.1201 44.8662C68.9697 45.2764 68.8945 45.7275 68.8945 46.2197C68.8945 46.7028 68.9697 47.1494 69.1201 47.5596C69.2705 47.9652 69.4961 48.291 69.7969 48.5371C70.1022 48.7832 70.4873 48.9062 70.9521 48.9062ZM77.0088 50L74.7666 42.3574H76.2979L77.7949 47.9697H77.877L79.374 42.3574H80.9121L82.3955 47.9492H82.4707L83.9609 42.3574H85.4922L83.25 50H81.7393L80.1807 44.4902H80.0781L78.5195 50H77.0088ZM89.8809 42.3574V43.5537H85.7109V42.3574H89.8809ZM86.8252 40.5391H88.3086V47.7578C88.3086 48.1087 88.3815 48.3662 88.5273 48.5303C88.6732 48.6898 88.9079 48.7695 89.2314 48.7695C89.3089 48.7695 89.391 48.765 89.4775 48.7559C89.5687 48.7467 89.6598 48.7331 89.751 48.7148L90.0312 49.9453C89.8809 49.9954 89.7168 50.0342 89.5391 50.0615C89.3613 50.0889 89.1836 50.1025 89.0059 50.1025C88.3451 50.1025 87.8164 49.918 87.4199 49.5488C87.0234 49.1751 86.8252 48.6784 86.8252 48.0586V40.5391ZM92.5879 45.4678V50H91.1113V39.8145H92.5674V43.6152H92.6699C92.8477 43.2005 93.1188 42.8724 93.4834 42.6309C93.8525 42.3848 94.3333 42.2617 94.9258 42.2617C95.4499 42.2617 95.9079 42.3688 96.2998 42.583C96.6917 42.7972 96.9971 43.1185 97.2158 43.5469C97.4391 43.9753 97.5508 44.5085 97.5508 45.1465V50H96.0605V45.3242C96.0605 44.7591 95.9147 44.3216 95.623 44.0117C95.3359 43.7018 94.9349 43.5469 94.4199 43.5469C94.0645 43.5469 93.75 43.6243 93.4766 43.7793C93.2031 43.9297 92.9867 44.1462 92.8271 44.4287C92.6676 44.7113 92.5879 45.0576 92.5879 45.4678Z" fill="#F5F5F5"/>
<rect y="93" width="16" height="16" fill="#5D7DFF"/>
<path d="M22.6836 106V104.893L26.1289 101.311C26.4935 100.928 26.7943 100.59 27.0312 100.299C27.2728 100.003 27.4528 99.7223 27.5713 99.458C27.6943 99.1937 27.7559 98.9134 27.7559 98.6172C27.7559 98.2754 27.6761 97.9814 27.5166 97.7354C27.3571 97.4893 27.1406 97.3001 26.8672 97.168C26.5938 97.0358 26.2839 96.9697 25.9375 96.9697C25.5729 96.9697 25.2562 97.0449 24.9873 97.1953C24.7184 97.3411 24.5088 97.5508 24.3584 97.8242C24.2126 98.0931 24.1396 98.4098 24.1396 98.7744H22.6768C22.6768 98.1546 22.818 97.6123 23.1006 97.1475C23.3877 96.6826 23.7796 96.3226 24.2764 96.0674C24.7777 95.8076 25.3428 95.6777 25.9717 95.6777C26.6143 95.6777 27.1794 95.8053 27.667 96.0605C28.1546 96.3158 28.5352 96.6621 28.8086 97.0996C29.082 97.5326 29.2188 98.0225 29.2188 98.5693C29.2188 98.9476 29.1481 99.3167 29.0068 99.6768C28.8701 100.037 28.6263 100.44 28.2754 100.887C27.929 101.329 27.446 101.862 26.8262 102.486L24.8027 104.605V104.688H29.3828V106H22.6836ZM34.0449 106.137C33.4206 106.137 32.86 106.018 32.3633 105.781C31.8711 105.54 31.4769 105.209 31.1807 104.79C30.8844 104.366 30.7272 103.885 30.709 103.348H32.1992C32.2357 103.781 32.4294 104.138 32.7803 104.421C33.1312 104.703 33.5527 104.845 34.0449 104.845C34.4368 104.845 34.7832 104.754 35.084 104.571C35.3848 104.389 35.6217 104.141 35.7949 103.826C35.9681 103.507 36.0547 103.143 36.0547 102.732C36.0547 102.322 35.9658 101.955 35.7881 101.632C35.6104 101.304 35.3643 101.046 35.0498 100.859C34.7399 100.673 34.3822 100.579 33.9766 100.579C33.6667 100.579 33.3568 100.634 33.0469 100.743C32.737 100.848 32.4863 100.985 32.2949 101.153L30.8799 100.948L31.4541 95.8145H37.0527V97.1338H32.7393L32.418 99.9844H32.4727C32.6686 99.7884 32.9307 99.6289 33.2588 99.5059C33.5915 99.3783 33.9492 99.3145 34.332 99.3145C34.9518 99.3145 35.5033 99.4626 35.9863 99.7588C36.474 100.05 36.8568 100.451 37.1348 100.962C37.4128 101.468 37.5518 102.049 37.5518 102.705C37.5518 103.366 37.4014 103.956 37.1006 104.476C36.7998 104.991 36.3851 105.396 35.8564 105.692C35.3324 105.989 34.7285 106.137 34.0449 106.137ZM44.0527 104.086V103.553C44.0527 103.165 44.1325 102.812 44.292 102.493C44.4515 102.174 44.6862 101.919 44.9961 101.728C45.306 101.532 45.682 101.434 46.124 101.434C46.5752 101.434 46.9535 101.529 47.2588 101.721C47.5641 101.912 47.7943 102.17 47.9492 102.493C48.1042 102.812 48.1816 103.165 48.1816 103.553V104.086C48.1816 104.473 48.1019 104.829 47.9424 105.152C47.7874 105.471 47.5573 105.727 47.252 105.918C46.9466 106.109 46.5706 106.205 46.124 106.205C45.6774 106.205 45.2992 106.109 44.9893 105.918C44.6794 105.727 44.4447 105.471 44.2852 105.152C44.1302 104.829 44.0527 104.473 44.0527 104.086ZM45.208 103.553V104.086C45.208 104.373 45.2764 104.633 45.4131 104.865C45.5498 105.098 45.7868 105.214 46.124 105.214C46.4567 105.214 46.6891 105.098 46.8213 104.865C46.9535 104.633 47.0195 104.373 47.0195 104.086V103.553C47.0195 103.266 46.9557 103.008 46.8281 102.78C46.7005 102.548 46.4658 102.432 46.124 102.432C45.7913 102.432 45.5544 102.548 45.4131 102.78C45.2764 103.008 45.208 103.266 45.208 103.553ZM38.9326 98.2617V97.7285C38.9326 97.3411 39.0124 96.988 39.1719 96.6689C39.3359 96.3454 39.5706 96.0879 39.876 95.8965C40.1859 95.7051 40.5596 95.6094 40.9971 95.6094C41.4482 95.6094 41.8265 95.7051 42.1318 95.8965C42.4417 96.0879 42.6742 96.3454 42.8291 96.6689C42.984 96.988 43.0592 97.3411 43.0547 97.7285V98.2617C43.0592 98.6445 42.9818 98.9977 42.8223 99.3213C42.6628 99.6403 42.4303 99.8978 42.125 100.094C41.8197 100.285 41.4437 100.381 40.9971 100.381C40.5505 100.381 40.1722 100.285 39.8623 100.094C39.557 99.8978 39.3245 99.6403 39.165 99.3213C39.0101 98.9977 38.9326 98.6445 38.9326 98.2617ZM40.0879 97.7285V98.2617C40.0879 98.5488 40.1562 98.8086 40.293 99.041C40.4297 99.2734 40.6644 99.3874 40.9971 99.3828C41.3343 99.3874 41.569 99.2734 41.7012 99.041C41.8333 98.8086 41.8994 98.5488 41.8994 98.2617V97.7285C41.8994 97.4414 41.8356 97.1816 41.708 96.9492C41.5804 96.7168 41.3434 96.6029 40.9971 96.6074C40.6689 96.6029 40.4342 96.7168 40.293 96.9492C40.1562 97.1816 40.0879 97.4414 40.0879 97.7285ZM39.4043 106L46.4043 95.8145H47.5938L40.5938 106H39.4043ZM52.9941 95.8145H54.8672L58.1074 103.73H58.2236L61.4707 95.8145H63.3711V106H61.8672V98.6309H61.7715L58.7568 105.986H57.54L54.5596 98.624H54.4639V106H52.9941V95.8145ZM67.1172 106.164C66.6341 106.164 66.1966 106.075 65.8047 105.897C65.4128 105.715 65.1029 105.451 64.875 105.104C64.6471 104.758 64.5332 104.337 64.5332 103.84C64.5332 103.407 64.6152 103.054 64.7793 102.78C64.9479 102.502 65.1735 102.281 65.4561 102.117C65.7386 101.953 66.0531 101.83 66.3994 101.748C66.7458 101.666 67.1012 101.602 67.4658 101.557C67.9261 101.507 68.2975 101.463 68.5801 101.427C68.8626 101.39 69.0677 101.333 69.1953 101.256C69.3275 101.174 69.3936 101.044 69.3936 100.866V100.832C69.3936 100.399 69.2705 100.064 69.0244 99.8271C68.7829 99.5902 68.4229 99.4717 67.9443 99.4717C67.4476 99.4717 67.0534 99.5811 66.7617 99.7998C66.4746 100.014 66.2764 100.258 66.167 100.531L64.7656 100.21C64.9342 99.7451 65.1781 99.3714 65.4971 99.0889C65.8206 98.8018 66.1898 98.5921 66.6045 98.46C67.0238 98.3278 67.4613 98.2617 67.917 98.2617C68.2223 98.2617 68.5459 98.2982 68.8877 98.3711C69.2295 98.4395 69.5508 98.5693 69.8516 98.7607C70.1569 98.9476 70.4053 99.2165 70.5967 99.5674C70.7881 99.9183 70.8838 100.372 70.8838 100.928V106H69.4277V104.954H69.373C69.2819 105.141 69.1383 105.328 68.9424 105.515C68.751 105.701 68.5049 105.856 68.2041 105.979C67.9033 106.103 67.541 106.164 67.1172 106.164ZM67.4385 104.975C67.8532 104.975 68.2064 104.895 68.498 104.735C68.7897 104.571 69.013 104.357 69.168 104.093C69.3229 103.828 69.4004 103.548 69.4004 103.252V102.261C69.3457 102.311 69.2432 102.359 69.0928 102.404C68.9424 102.45 68.7715 102.489 68.5801 102.521C68.3887 102.552 68.2018 102.582 68.0195 102.609C67.8372 102.632 67.6846 102.65 67.5615 102.664C67.2744 102.705 67.0124 102.769 66.7754 102.855C66.5384 102.938 66.347 103.061 66.2012 103.225C66.0599 103.384 65.9893 103.596 65.9893 103.86C65.9893 104.229 66.126 104.507 66.3994 104.694C66.6729 104.881 67.0192 104.975 67.4385 104.975ZM72.3125 106V98.3574H73.7412V99.5811H73.8232C73.9645 99.1709 74.2106 98.8473 74.5615 98.6104C74.917 98.3688 75.318 98.248 75.7646 98.248C75.8558 98.248 75.9629 98.2526 76.0859 98.2617C76.2135 98.2663 76.3161 98.2731 76.3936 98.2822V99.7041C76.3343 99.6859 76.2272 99.6676 76.0723 99.6494C75.9219 99.6312 75.7692 99.6221 75.6143 99.6221C75.2633 99.6221 74.9489 99.6973 74.6709 99.8477C74.3975 99.9935 74.181 100.196 74.0215 100.456C73.8665 100.711 73.7891 101.007 73.7891 101.345V106H72.3125ZM78.4785 103.409L78.458 101.598H78.7246L81.7666 98.3574H83.5439L80.0781 102.049H79.832L78.4785 103.409ZM77.1113 106V95.8145H78.5879V106H77.1113ZM81.9238 106L79.1895 102.377L80.2148 101.331L83.7559 106H81.9238ZM87.29 106.157C86.5426 106.157 85.8955 105.995 85.3486 105.672C84.8018 105.348 84.3802 104.893 84.084 104.305C83.7923 103.712 83.6465 103.022 83.6465 102.233C83.6465 101.45 83.79 100.759 84.0771 100.162C84.3688 99.5651 84.7767 99.1003 85.3008 98.7676C85.8294 98.4303 86.4492 98.2617 87.1602 98.2617C87.5931 98.2617 88.0124 98.3324 88.418 98.4736C88.8236 98.6149 89.1882 98.8382 89.5117 99.1436C89.8353 99.4489 90.0905 99.8454 90.2773 100.333C90.4688 100.821 90.5645 101.409 90.5645 102.097V102.63H84.4873V101.516H89.7988L89.1084 101.885C89.1084 101.415 89.0355 101.001 88.8896 100.641C88.7438 100.281 88.5251 100 88.2334 99.7998C87.9463 99.5947 87.5885 99.4922 87.1602 99.4922C86.7318 99.4922 86.3649 99.5947 86.0596 99.7998C85.7588 100.005 85.5286 100.276 85.3691 100.613C85.2096 100.951 85.1299 101.32 85.1299 101.721V102.479C85.1299 103.004 85.221 103.448 85.4033 103.812C85.5856 104.177 85.8385 104.455 86.1621 104.646C86.4902 104.838 86.8708 104.934 87.3037 104.934C87.5863 104.934 87.8415 104.893 88.0693 104.811C88.3018 104.729 88.5023 104.605 88.6709 104.441C88.8395 104.277 88.9671 104.075 89.0537 103.833L90.4619 104.1C90.348 104.51 90.1475 104.87 89.8604 105.18C89.5732 105.49 89.2109 105.731 88.7734 105.904C88.3405 106.073 87.846 106.157 87.29 106.157ZM95.1582 98.3574V99.5537H90.9883V98.3574H95.1582ZM92.1025 96.5391H93.5859V103.758C93.5859 104.109 93.6589 104.366 93.8047 104.53C93.9505 104.69 94.1852 104.77 94.5088 104.77C94.5863 104.77 94.6683 104.765 94.7549 104.756C94.846 104.747 94.9372 104.733 95.0283 104.715L95.3086 105.945C95.1582 105.995 94.9941 106.034 94.8164 106.062C94.6387 106.089 94.4609 106.103 94.2832 106.103C93.6224 106.103 93.0938 105.918 92.6973 105.549C92.3008 105.175 92.1025 104.678 92.1025 104.059V96.5391ZM96.2246 106V98.3574H97.7012V106H96.2246ZM96.9697 97.1816C96.71 97.1816 96.4889 97.0951 96.3066 96.9219C96.1243 96.7487 96.0332 96.5413 96.0332 96.2998C96.0332 96.0537 96.1243 95.8441 96.3066 95.6709C96.4889 95.4977 96.71 95.4111 96.9697 95.4111C97.2249 95.4111 97.4437 95.4977 97.626 95.6709C97.8128 95.8441 97.9062 96.0537 97.9062 96.2998C97.9062 96.5413 97.8128 96.7487 97.626 96.9219C97.4437 97.0951 97.2249 97.1816 96.9697 97.1816ZM100.6 101.468V106H99.123V98.3574H100.559V99.6152H100.661C100.834 99.2005 101.105 98.8724 101.475 98.6309C101.844 98.3848 102.318 98.2617 102.896 98.2617C103.416 98.2617 103.869 98.3711 104.257 98.5898C104.649 98.804 104.952 99.1253 105.166 99.5537C105.385 99.9821 105.494 100.513 105.494 101.146V106H104.018V101.324C104.018 100.773 103.872 100.34 103.58 100.025C103.288 99.7064 102.892 99.5469 102.391 99.5469C102.049 99.5469 101.741 99.6243 101.468 99.7793C101.199 99.9297 100.987 100.146 100.832 100.429C100.677 100.711 100.6 101.058 100.6 101.468ZM110.102 109.021C109.19 109.021 108.472 108.851 107.948 108.509C107.424 108.167 107.062 107.761 106.861 107.292L108.133 106.766C108.224 106.911 108.345 107.066 108.495 107.23C108.65 107.395 108.857 107.534 109.117 107.647C109.377 107.761 109.712 107.818 110.122 107.818C110.683 107.818 111.147 107.682 111.517 107.408C111.886 107.139 112.07 106.706 112.07 106.109V104.612H111.968C111.886 104.772 111.76 104.952 111.592 105.152C111.423 105.348 111.193 105.519 110.901 105.665C110.61 105.811 110.229 105.884 109.76 105.884C109.158 105.884 108.616 105.743 108.133 105.46C107.654 105.173 107.271 104.754 106.984 104.202C106.702 103.646 106.561 102.963 106.561 102.151C106.561 101.34 106.7 100.645 106.978 100.066C107.26 99.4831 107.643 99.0365 108.126 98.7266C108.609 98.4167 109.158 98.2617 109.773 98.2617C110.247 98.2617 110.63 98.3415 110.922 98.501C111.218 98.6559 111.448 98.8382 111.612 99.0479C111.776 99.2575 111.904 99.4421 111.995 99.6016H112.104V98.3574H113.547V106.171C113.547 106.827 113.394 107.365 113.089 107.784C112.788 108.203 112.378 108.513 111.858 108.714C111.339 108.919 110.753 109.021 110.102 109.021ZM110.088 104.646C110.73 104.646 111.223 104.425 111.564 103.983C111.911 103.537 112.084 102.919 112.084 102.131C112.084 101.616 112.009 101.165 111.858 100.777C111.708 100.385 111.485 100.08 111.188 99.8613C110.892 99.638 110.525 99.5264 110.088 99.5264C109.641 99.5264 109.268 99.6426 108.967 99.875C108.671 100.103 108.447 100.415 108.297 100.812C108.146 101.203 108.071 101.643 108.071 102.131C108.071 102.628 108.146 103.067 108.297 103.45C108.447 103.828 108.673 104.122 108.974 104.332C109.279 104.542 109.65 104.646 110.088 104.646Z" fill="#F5F5F5"/>
</svg>
