<svg width="89" height="27" viewBox="0 0 89 27" fill="none" xmlns="http://www.w3.org/2000/svg">
<g clip-path="url(#clip0_1509_29034)">
<mask id="mask0_1509_29034" style="mask-type:luminance" maskUnits="userSpaceOnUse" x="0" y="0" width="89" height="27">
<path d="M89 0H0V27H89V0Z" fill="white"/>
</mask>
<g mask="url(#mask0_1509_29034)">
<path d="M46.8947 6.78462C46.8947 7.75846 46.0877 8.54308 45.0861 8.54308C44.0845 8.54308 43.2775 7.75846 43.2775 6.78462C43.2775 5.81077 44.056 5.02615 45.0861 5.02615C46.1162 5.05385 46.8947 5.83846 46.8947 6.78462ZM39.4467 10.3246V10.7585C39.4467 10.7585 38.5875 9.67846 36.7505 9.67846C33.722 9.67846 31.358 11.9215 31.358 15.0277C31.358 18.1108 33.6935 20.3769 36.7505 20.3769C38.6113 20.3769 39.4467 19.2692 39.4467 19.2692V19.7308C39.4467 19.9477 39.6129 20.1092 39.836 20.1092H42.086V9.94615H39.836C39.6129 9.94615 39.4467 10.1354 39.4467 10.3246ZM39.4467 16.8369C39.029 17.4323 38.1983 17.9446 37.1967 17.9446C35.4166 17.9446 34.0542 16.8646 34.0542 15.0231C34.0542 13.1862 35.4166 12.1062 37.1967 12.1062C38.1698 12.1062 39.0575 12.6462 39.4467 13.2138V16.8369ZM43.7522 9.94615H46.42V20.1092H43.7522V9.94615ZM83.6121 9.67385C81.7798 9.67385 80.9158 10.7538 80.9158 10.7538V5.05385H78.2481V20.1092H80.4981C80.7212 20.1092 80.8873 19.92 80.8873 19.7308V19.2738C80.8873 19.2738 81.7513 20.3815 83.5836 20.3815C86.6121 20.3815 88.9761 18.1108 88.9761 15.0323C88.9761 11.9446 86.6169 9.67385 83.6121 9.67385ZM83.1706 17.9169C82.1405 17.9169 81.3383 17.4046 80.9206 16.8092V13.1862C81.3383 12.6462 82.226 12.0785 83.1706 12.0785C84.9507 12.0785 86.3131 13.1585 86.3131 14.9954C86.3083 16.8369 84.9507 17.9169 83.1706 17.9169ZM76.8572 14.0815V20.1369H74.1894V14.3769C74.1894 12.7015 73.634 12.0277 72.134 12.0277C71.327 12.0277 70.4963 12.4338 69.9647 13.0292V20.1092H67.2969V9.94615H69.4093C69.6324 9.94615 69.7985 10.1354 69.7985 10.3246V10.7585C70.577 9.97385 71.6071 9.67846 72.6325 9.67846C73.8002 9.67846 74.7733 10.0015 75.5518 10.6523C76.4964 11.4046 76.8572 12.3785 76.8572 14.0815ZM60.8221 9.67385C58.9898 9.67385 58.1259 10.7538 58.1259 10.7538V5.05385H55.4581V20.1092H57.7081C57.9312 20.1092 58.0974 19.92 58.0974 19.7308V19.2738C58.0974 19.2738 58.9613 20.3815 60.7936 20.3815C63.8222 20.3815 66.1861 18.1108 66.1861 15.0323C66.2146 11.9446 63.8507 9.67385 60.8221 9.67385ZM60.3759 17.9169C59.3458 17.9169 58.5436 17.4046 58.1259 16.8092V13.1862C58.5436 12.6462 59.4313 12.0785 60.3759 12.0785C62.156 12.0785 63.5184 13.1585 63.5184 14.9954C63.5184 16.8369 62.156 17.9169 60.3759 17.9169ZM53.1463 9.67385C53.9533 9.67385 54.3711 9.80769 54.3711 9.80769V12.2123C54.3711 12.2123 52.1495 11.4831 50.7586 13.0246V20.1323H48.0909V9.94615H50.3409C50.564 9.94615 50.7302 10.1354 50.7302 10.3246V10.7585C51.2286 10.1908 52.3156 9.67385 53.1463 9.67385ZM25.4338 19.1908C25.2962 18.8677 25.1538 18.5169 25.0161 18.2169C24.793 17.7323 24.5699 17.2708 24.3753 16.8369L24.3468 16.8092C22.429 12.7569 20.3736 8.64923 18.2043 4.59231L18.1188 4.43077C17.891 4.01077 17.6679 3.58615 17.4543 3.16154C17.1742 2.67692 16.8989 2.16 16.4527 1.67538C15.5697 0.595385 14.2881 0 12.9257 0C11.5348 0 10.2864 0.595384 9.37025 1.62C8.95252 2.10462 8.64872 2.62154 8.36865 3.10615C8.15029 3.53077 7.93194 3.95538 7.70408 4.37538L7.61864 4.53692C5.47778 8.58923 3.39388 12.6969 1.47612 16.7538L1.44764 16.8092C1.25302 17.2431 1.02991 17.7 0.806808 18.1892C0.669148 18.4846 0.531487 18.8123 0.389079 19.1631C0.0283135 20.1646 -0.0856126 21.1108 0.056795 22.0846C0.360598 24.1108 1.75145 25.8138 3.6692 26.5708C4.39073 26.8662 5.14075 27.0046 5.91924 27.0046C6.14235 27.0046 6.41767 26.9769 6.64077 26.9492C7.55693 26.8431 8.50157 26.5431 9.42247 26.0308C10.5617 25.4077 11.644 24.5169 12.8687 23.22C14.0934 24.5169 15.2042 25.4077 16.315 26.0308C17.2312 26.5431 18.1758 26.8431 19.0967 26.9492C19.3198 26.9769 19.5999 27.0046 19.8182 27.0046C20.5967 27.0046 21.3752 26.8708 22.0683 26.5708C24.0145 25.8138 25.3769 24.0831 25.6807 22.0846C25.9085 21.1338 25.7946 20.1877 25.4338 19.1908ZM12.8972 20.5938C11.3972 18.7569 10.4241 17.0262 10.0918 15.5677C9.95412 14.9446 9.92564 14.4046 10.0063 13.92C10.0633 13.4862 10.2294 13.1077 10.4525 12.7846C10.9795 12.0554 11.8719 11.5938 12.8972 11.5938C13.9273 11.5938 14.8435 12.0277 15.3419 12.7846C15.565 13.1077 15.7311 13.4862 15.7881 13.92C15.8735 14.4046 15.845 14.9723 15.7026 15.5677C15.3751 16.9985 14.402 18.7292 12.8972 20.5938ZM23.9908 21.8631C23.7961 23.2662 22.823 24.4846 21.4607 25.0246C20.7913 25.2923 20.0698 25.3754 19.3483 25.2923C18.6552 25.2092 17.9574 24.9969 17.2359 24.5908C16.2343 24.0508 15.2327 23.2108 14.065 21.9692C15.8973 19.7815 17.0128 17.7785 17.4305 15.9969C17.6251 15.1569 17.6536 14.4 17.5682 13.6985C17.459 13.0246 17.2074 12.4015 16.8182 11.8615C15.9542 10.6431 14.5112 9.94154 12.8972 9.94154C11.2833 9.94154 9.8402 10.6708 8.97626 11.8615C8.58701 12.4015 8.33542 13.0246 8.22624 13.6985C8.11707 14.4 8.1408 15.1846 8.3639 15.9969C8.78163 17.7785 9.92089 19.8092 11.7247 21.9969C10.5855 23.2385 9.55538 24.0785 8.55378 24.6185C7.83225 25.0246 7.13445 25.2415 6.4414 25.32C5.69139 25.4031 4.96986 25.2923 4.32902 25.0523C2.96666 24.5123 1.99354 23.2938 1.79891 21.8908C1.71347 21.2169 1.77043 20.5385 2.0505 19.7815C2.1312 19.5092 2.27361 19.2415 2.41127 18.9185C2.60589 18.4846 2.829 18.0277 3.0521 17.5662L3.08058 17.5108C4.99834 13.4815 7.05375 9.37385 9.19462 5.37692L9.28006 5.21538C9.50317 4.80923 9.72627 4.38 9.94938 3.97385C10.1725 3.54 10.4241 3.13385 10.7279 2.78308C11.3117 2.13692 12.0902 1.78154 12.9494 1.78154C13.8134 1.78154 14.5871 2.13231 15.171 2.78308C15.4748 3.13385 15.7264 3.54 15.9495 3.97385C16.1726 4.38 16.3957 4.81385 16.6188 5.21538L16.7042 5.37692C18.8119 9.39231 20.8436 13.4492 22.7898 17.5385V17.5662C23.0129 18 23.2075 18.4846 23.4306 18.9185C23.5683 19.2415 23.7107 19.5138 23.7914 19.7815C24.0192 20.4877 24.0999 21.1615 23.9908 21.8631Z" fill="#BCBFDB"/>
<path d="M46.8947 6.78462C46.8947 7.75846 46.0877 8.54308 45.0861 8.54308C44.0845 8.54308 43.2775 7.75846 43.2775 6.78462C43.2775 5.81077 44.056 5.02615 45.0861 5.02615C46.1162 5.05385 46.8947 5.83846 46.8947 6.78462ZM39.4467 10.3246V10.7585C39.4467 10.7585 38.5875 9.67846 36.7505 9.67846C33.722 9.67846 31.358 11.9215 31.358 15.0277C31.358 18.1108 33.6935 20.3769 36.7505 20.3769C38.6113 20.3769 39.4467 19.2692 39.4467 19.2692V19.7308C39.4467 19.9477 39.6129 20.1092 39.836 20.1092H42.086V9.94615H39.836C39.6129 9.94615 39.4467 10.1354 39.4467 10.3246ZM39.4467 16.8369C39.029 17.4323 38.1983 17.9446 37.1967 17.9446C35.4166 17.9446 34.0542 16.8646 34.0542 15.0231C34.0542 13.1862 35.4166 12.1062 37.1967 12.1062C38.1698 12.1062 39.0575 12.6462 39.4467 13.2138V16.8369ZM43.7522 9.94615H46.42V20.1092H43.7522V9.94615ZM83.6121 9.67385C81.7798 9.67385 80.9158 10.7538 80.9158 10.7538V5.05385H78.2481V20.1092H80.4981C80.7212 20.1092 80.8873 19.92 80.8873 19.7308V19.2738C80.8873 19.2738 81.7513 20.3815 83.5836 20.3815C86.6121 20.3815 88.9761 18.1108 88.9761 15.0323C88.9761 11.9446 86.6169 9.67385 83.6121 9.67385ZM83.1706 17.9169C82.1405 17.9169 81.3383 17.4046 80.9206 16.8092V13.1862C81.3383 12.6462 82.226 12.0785 83.1706 12.0785C84.9507 12.0785 86.3131 13.1585 86.3131 14.9954C86.3083 16.8369 84.9507 17.9169 83.1706 17.9169ZM76.8572 14.0815V20.1369H74.1894V14.3769C74.1894 12.7015 73.634 12.0277 72.134 12.0277C71.327 12.0277 70.4963 12.4338 69.9647 13.0292V20.1092H67.2969V9.94615H69.4093C69.6324 9.94615 69.7985 10.1354 69.7985 10.3246V10.7585C70.577 9.97385 71.6071 9.67846 72.6325 9.67846C73.8002 9.67846 74.7733 10.0015 75.5518 10.6523C76.4964 11.4046 76.8572 12.3785 76.8572 14.0815ZM60.8221 9.67385C58.9898 9.67385 58.1259 10.7538 58.1259 10.7538V5.05385H55.4581V20.1092H57.7081C57.9312 20.1092 58.0974 19.92 58.0974 19.7308V19.2738C58.0974 19.2738 58.9613 20.3815 60.7936 20.3815C63.8222 20.3815 66.1861 18.1108 66.1861 15.0323C66.2146 11.9446 63.8507 9.67385 60.8221 9.67385ZM60.3759 17.9169C59.3458 17.9169 58.5436 17.4046 58.1259 16.8092V13.1862C58.5436 12.6462 59.4313 12.0785 60.3759 12.0785C62.156 12.0785 63.5184 13.1585 63.5184 14.9954C63.5184 16.8369 62.156 17.9169 60.3759 17.9169ZM53.1463 9.67385C53.9533 9.67385 54.3711 9.80769 54.3711 9.80769V12.2123C54.3711 12.2123 52.1495 11.4831 50.7586 13.0246V20.1323H48.0909V9.94615H50.3409C50.564 9.94615 50.7302 10.1354 50.7302 10.3246V10.7585C51.2286 10.1908 52.3156 9.67385 53.1463 9.67385ZM25.4338 19.1908C25.2962 18.8677 25.1538 18.5169 25.0161 18.2169C24.793 17.7323 24.5699 17.2708 24.3753 16.8369L24.3468 16.8092C22.429 12.7569 20.3736 8.64923 18.2043 4.59231L18.1188 4.43077C17.891 4.01077 17.6679 3.58615 17.4543 3.16154C17.1742 2.67692 16.8989 2.16 16.4527 1.67538C15.5697 0.595385 14.2881 0 12.9257 0C11.5348 0 10.2864 0.595384 9.37025 1.62C8.95252 2.10462 8.64872 2.62154 8.36865 3.10615C8.15029 3.53077 7.93194 3.95538 7.70408 4.37538L7.61864 4.53692C5.47778 8.58923 3.39388 12.6969 1.47612 16.7538L1.44764 16.8092C1.25302 17.2431 1.02991 17.7 0.806808 18.1892C0.669148 18.4846 0.531487 18.8123 0.389079 19.1631C0.0283135 20.1646 -0.0856126 21.1108 0.056795 22.0846C0.360598 24.1108 1.75145 25.8138 3.6692 26.5708C4.39073 26.8662 5.14075 27.0046 5.91924 27.0046C6.14235 27.0046 6.41767 26.9769 6.64077 26.9492C7.55693 26.8431 8.50157 26.5431 9.42247 26.0308C10.5617 25.4077 11.644 24.5169 12.8687 23.22C14.0934 24.5169 15.2042 25.4077 16.315 26.0308C17.2312 26.5431 18.1758 26.8431 19.0967 26.9492C19.3198 26.9769 19.5999 27.0046 19.8182 27.0046C20.5967 27.0046 21.3752 26.8708 22.0683 26.5708C24.0145 25.8138 25.3769 24.0831 25.6807 22.0846C25.9085 21.1338 25.7946 20.1877 25.4338 19.1908ZM12.8972 20.5938C11.3972 18.7569 10.4241 17.0262 10.0918 15.5677C9.95412 14.9446 9.92564 14.4046 10.0063 13.92C10.0633 13.4862 10.2294 13.1077 10.4525 12.7846C10.9795 12.0554 11.8719 11.5938 12.8972 11.5938C13.9273 11.5938 14.8435 12.0277 15.3419 12.7846C15.565 13.1077 15.7311 13.4862 15.7881 13.92C15.8735 14.4046 15.845 14.9723 15.7026 15.5677C15.3751 16.9985 14.402 18.7292 12.8972 20.5938ZM23.9908 21.8631C23.7961 23.2662 22.823 24.4846 21.4607 25.0246C20.7913 25.2923 20.0698 25.3754 19.3483 25.2923C18.6552 25.2092 17.9574 24.9969 17.2359 24.5908C16.2343 24.0508 15.2327 23.2108 14.065 21.9692C15.8973 19.7815 17.0128 17.7785 17.4305 15.9969C17.6251 15.1569 17.6536 14.4 17.5682 13.6985C17.459 13.0246 17.2074 12.4015 16.8182 11.8615C15.9542 10.6431 14.5112 9.94154 12.8972 9.94154C11.2833 9.94154 9.8402 10.6708 8.97626 11.8615C8.58701 12.4015 8.33542 13.0246 8.22624 13.6985C8.11707 14.4 8.1408 15.1846 8.3639 15.9969C8.78163 17.7785 9.92089 19.8092 11.7247 21.9969C10.5855 23.2385 9.55538 24.0785 8.55378 24.6185C7.83225 25.0246 7.13445 25.2415 6.4414 25.32C5.69139 25.4031 4.96986 25.2923 4.32902 25.0523C2.96666 24.5123 1.99354 23.2938 1.79891 21.8908C1.71347 21.2169 1.77043 20.5385 2.0505 19.7815C2.1312 19.5092 2.27361 19.2415 2.41127 18.9185C2.60589 18.4846 2.829 18.0277 3.0521 17.5662L3.08058 17.5108C4.99834 13.4815 7.05375 9.37385 9.19462 5.37692L9.28006 5.21538C9.50317 4.80923 9.72627 4.38 9.94938 3.97385C10.1725 3.54 10.4241 3.13385 10.7279 2.78308C11.3117 2.13692 12.0902 1.78154 12.9494 1.78154C13.8134 1.78154 14.5871 2.13231 15.171 2.78308C15.4748 3.13385 15.7264 3.54 15.9495 3.97385C16.1726 4.38 16.3957 4.81385 16.6188 5.21538L16.7042 5.37692C18.8119 9.39231 20.8436 13.4492 22.7898 17.5385V17.5662C23.0129 18 23.2075 18.4846 23.4306 18.9185C23.5683 19.2415 23.7107 19.5138 23.7914 19.7815C24.0192 20.4877 24.0999 21.1615 23.9908 21.8631Z" fill="black" fill-opacity="0.4"/>
</g>
</g>
<defs>
<clipPath id="clip0_1509_29034">
<rect width="89" height="27" fill="white"/>
</clipPath>
</defs>
</svg>
