<svg width="388" height="495" viewBox="0 0 388 495" fill="none" xmlns="http://www.w3.org/2000/svg">
<path d="M356.234 495L340.807 468.105H307.642L292.214 495H291.472L307.312 467.527H341.137L356.977 495H356.234Z" fill="#614CE1"/>
<path d="M356.234 495L340.807 468.105H307.642L292.214 495H291.472L307.312 467.527H341.137L356.977 495H356.234Z" fill="white" fill-opacity="0.8"/>
<path d="M341.715 467.773L357.307 494.998H356.648L340.972 467.773L357.885 438.32H387.75V438.898H358.298L341.715 467.773Z" fill="#614CE1"/>
<path d="M341.715 467.773L357.307 494.998H356.648L340.972 467.773L357.885 438.32H387.75V438.898H358.298L341.715 467.773Z" fill="white" fill-opacity="0.8"/>
<path d="M291.142 494.998L306.734 467.773L290.152 438.898H256.987L240.404 467.773L256.079 494.998H255.337L239.662 467.773L256.657 438.32H290.482L307.477 467.773L291.802 494.998H291.142Z" fill="#614CE1"/>
<path d="M291.142 494.998L306.734 467.773L290.152 438.898H256.987L240.404 467.773L256.079 494.998H255.337L239.662 467.773L256.657 438.32H290.482L307.477 467.773L291.802 494.998H291.142Z" fill="white" fill-opacity="0.8"/>
<path d="M307.313 468.105H341.138L358.133 438.57L341.138 409.035H307.313L290.318 438.57L307.313 468.105ZM340.808 467.445H307.808L291.308 438.57L307.808 409.695H340.808L357.308 438.57L340.808 467.445Z" fill="#614CE1"/>
<path d="M307.313 468.105H341.138L358.133 438.57L341.138 409.035H307.313L290.318 438.57L307.313 468.105ZM340.808 467.445H307.808L291.308 438.57L307.808 409.695H340.808L357.308 438.57L340.808 467.445Z" fill="white" fill-opacity="0.8"/>
<path d="M357.885 379.828H387.75V380.488H358.298L341.715 409.363L358.298 438.238H387.75V438.898H357.885L340.972 409.363L357.885 379.828Z" fill="#614CE1"/>
<path d="M357.885 379.828H387.75V380.488H358.298L341.715 409.363L358.298 438.238H387.75V438.898H357.885L340.972 409.363L357.885 379.828Z" fill="white" fill-opacity="0.8"/>
<path d="M256.657 438.9H290.482L307.477 409.365L290.482 379.5H256.657L239.744 409.035L256.657 438.9ZM290.152 438.24H257.152L240.652 409.365L257.152 380.49H290.152L306.652 409.365L290.152 438.24Z" fill="#614CE1"/>
<path d="M256.657 438.9H290.482L307.477 409.365L290.482 379.5H256.657L239.744 409.035L256.657 438.9ZM290.152 438.24H257.152L240.652 409.365L257.152 380.49H290.152L306.652 409.365L290.152 438.24Z" fill="white" fill-opacity="0.8"/>
<path d="M155.346 438.898H189.254L205.754 409.363L189.254 379.828H155.346L138.846 409.363L155.346 438.898ZM188.924 438.238H155.924L139.424 409.363L155.924 380.488H188.924L205.424 409.363L188.924 438.238Z" fill="#614CE1"/>
<path d="M155.346 438.898H189.254L205.754 409.363L189.254 379.828H155.346L138.846 409.363L155.346 438.898ZM188.924 438.238H155.924L139.424 409.363L155.924 380.488H188.924L205.424 409.363L188.924 438.238Z" fill="white" fill-opacity="0.8"/>
<path d="M307.313 409.695H341.138L358.133 380.16L341.138 350.625H307.313L290.318 380.16L307.313 409.695ZM340.808 409.035H307.808L291.308 380.16L307.808 351.285H340.808L357.308 380.16L340.808 409.035Z" fill="#614CE1"/>
<path d="M307.313 409.695H341.138L358.133 380.16L341.138 350.625H307.313L290.318 380.16L307.313 409.695ZM340.808 409.035H307.808L291.308 380.16L307.808 351.285H340.808L357.308 380.16L340.808 409.035Z" fill="white" fill-opacity="0.8"/>
<path d="M206.25 409.695H239.91L256.822 380.16L239.91 350.625H206.25L189.75 380.16L206.25 409.695ZM239.25 409.035H206.25L189.75 380.16L206.25 351.285H239.25L255.75 380.16L239.25 409.035Z" fill="#614CE1"/>
<path d="M206.25 409.695H239.91L256.822 380.16L239.91 350.625H206.25L189.75 380.16L206.25 409.695ZM239.25 409.035H206.25L189.75 380.16L206.25 351.285H239.25L255.75 380.16L239.25 409.035Z" fill="white" fill-opacity="0.8"/>
<path d="M104.692 409.695H138.599L155.512 380.16L138.599 350.625H104.692L88.1917 380.16L104.692 409.695ZM138.269 409.035H105.269L88.7692 380.16L105.269 351.285H138.269L154.769 380.16L138.269 409.035Z" fill="#614CE1"/>
<path d="M104.692 409.695H138.599L155.512 380.16L138.599 350.625H104.692L88.1917 380.16L104.692 409.695ZM138.269 409.035H105.269L88.7692 380.16L105.269 351.285H138.269L154.769 380.16L138.269 409.035Z" fill="white" fill-opacity="0.8"/>
<path d="M357.885 321.422H387.75V322.082H358.298L341.715 350.957L358.298 379.832H387.75V380.409H357.885L340.972 350.957L357.885 321.422Z" fill="#614CE1"/>
<path d="M357.885 321.422H387.75V322.082H358.298L341.715 350.957L358.298 379.832H387.75V380.409H357.885L340.972 350.957L357.885 321.422Z" fill="white" fill-opacity="0.8"/>
<path d="M256.657 380.408H290.482L307.477 350.955L290.482 321.75H256.657L239.744 351.285L256.657 380.408ZM290.152 379.5H257.152L240.652 350.625L257.152 321.75H290.152L306.652 350.625L290.152 379.5Z" fill="#614CE1"/>
<path d="M256.657 380.408H290.482L307.477 350.955L290.482 321.75H256.657L239.744 351.285L256.657 380.408ZM290.152 379.5H257.152L240.652 350.625L257.152 321.75H290.152L306.652 350.625L290.152 379.5Z" fill="white" fill-opacity="0.8"/>
<path d="M155.346 380.409H189.254L205.754 350.957L189.254 321.422H155.346L138.846 350.957L155.346 380.409ZM188.924 379.502H155.924L139.424 350.627L155.924 321.752H188.924L205.424 350.627L188.924 379.502Z" fill="#614CE1"/>
<path d="M155.346 380.409H189.254L205.754 350.957L189.254 321.422H155.346L138.846 350.957L155.346 380.409ZM188.924 379.502H155.924L139.424 350.627L155.924 321.752H188.924L205.424 350.627L188.924 379.502Z" fill="white" fill-opacity="0.8"/>
<path d="M307.313 351.202H341.138L358.133 321.75L341.138 292.215H307.313L290.318 321.75L307.313 351.202ZM340.808 350.625H307.808L291.308 321.75L307.808 292.875H340.808L357.308 321.75L340.808 350.625Z" fill="#614CE1"/>
<path d="M307.313 351.202H341.138L358.133 321.75L341.138 292.215H307.313L290.318 321.75L307.313 351.202ZM340.808 350.625H307.808L291.308 321.75L307.808 292.875H340.808L357.308 321.75L340.808 350.625Z" fill="white" fill-opacity="0.8"/>
<path d="M206.25 351.202H239.91L256.822 321.75L239.91 292.215H206.25L189.75 321.75L206.25 351.202ZM239.25 350.625H206.25L189.75 321.75L206.25 292.875H239.25L255.75 321.75L239.25 350.625Z" fill="#614CE1"/>
<path d="M206.25 351.202H239.91L256.822 321.75L239.91 292.215H206.25L189.75 321.75L206.25 351.202ZM239.25 350.625H206.25L189.75 321.75L206.25 292.875H239.25L255.75 321.75L239.25 350.625Z" fill="white" fill-opacity="0.8"/>
<path d="M104.692 351.202H138.599L155.512 321.75L138.599 292.215H104.692L88.1917 321.75L104.692 351.202ZM138.269 350.625H105.269L88.7692 321.75L105.269 292.875H138.269L154.769 321.75L138.269 350.625Z" fill="#614CE1"/>
<path d="M104.692 351.202H138.599L155.512 321.75L138.599 292.215H104.692L88.1917 321.75L104.692 351.202ZM138.269 350.625H105.269L88.7692 321.75L105.269 292.875H138.269L154.769 321.75L138.269 350.625Z" fill="white" fill-opacity="0.8"/>
<path d="M357.885 263.008H387.75V263.585H358.298L341.715 292.543L358.298 321.418H387.75V321.995H357.885L340.972 292.543L357.885 263.008Z" fill="#614CE1"/>
<path d="M357.885 263.008H387.75V263.585H358.298L341.715 292.543L358.298 321.418H387.75V321.995H357.885L340.972 292.543L357.885 263.008Z" fill="white" fill-opacity="0.8"/>
<path d="M256.657 321.748H290.482L307.477 292.543L290.482 263.008H256.657L239.744 292.543L256.657 321.748ZM290.152 321.748H257.152L240.652 292.873L257.152 263.998H290.152L306.652 292.873L290.152 321.748Z" fill="#614CE1"/>
<path d="M256.657 321.748H290.482L307.477 292.543L290.482 263.008H256.657L239.744 292.543L256.657 321.748ZM290.152 321.748H257.152L240.652 292.873L257.152 263.998H290.152L306.652 292.873L290.152 321.748Z" fill="white" fill-opacity="0.8"/>
<path d="M155.346 321.749H189.254L205.754 292.297L189.254 262.762H155.346L138.846 292.297L155.346 321.749ZM188.924 321.749H155.924L139.424 292.874L155.924 263.999H188.924L205.424 292.874L188.924 321.749Z" fill="#614CE1"/>
<path d="M155.346 321.749H189.254L205.754 292.297L189.254 262.762H155.346L138.846 292.297L155.346 321.749ZM188.924 321.749H155.924L139.424 292.874L155.924 263.999H188.924L205.424 292.874L188.924 321.749Z" fill="white" fill-opacity="0.8"/>
<path d="M307.313 292.792H341.138L358.133 263.34L341.138 233.805H307.313L290.318 263.34L307.313 292.792ZM340.808 292.215H307.808L291.308 263.34L307.808 234.382H340.808L357.308 263.34L340.808 292.215Z" fill="#614CE1"/>
<path d="M307.313 292.792H341.138L358.133 263.34L341.138 233.805H307.313L290.318 263.34L307.313 292.792ZM340.808 292.215H307.808L291.308 263.34L307.808 234.382H340.808L357.308 263.34L340.808 292.215Z" fill="white" fill-opacity="0.8"/>
<path d="M206.25 292.792H239.91L256.822 263.34L239.91 233.805H206.25L189.75 263.34L206.25 292.792ZM239.25 292.215H206.25L189.75 263.34L206.25 234.382H239.25L255.75 263.34L239.25 292.215Z" fill="#614CE1"/>
<path d="M206.25 292.792H239.91L256.822 263.34L239.91 233.805H206.25L189.75 263.34L206.25 292.792ZM239.25 292.215H206.25L189.75 263.34L206.25 234.382H239.25L255.75 263.34L239.25 292.215Z" fill="white" fill-opacity="0.8"/>
<path d="M104.692 292.792H138.599L155.512 263.34L138.599 233.805H104.692L88.1917 263.34L104.692 292.792ZM138.269 292.215H105.269L88.7692 263.34L105.269 234.382H138.269L154.769 263.34L138.269 292.215Z" fill="#614CE1"/>
<path d="M104.692 292.792H138.599L155.512 263.34L138.599 233.805H104.692L88.1917 263.34L104.692 292.792ZM138.269 292.215H105.269L88.7692 263.34L105.269 234.382H138.269L154.769 263.34L138.269 292.215Z" fill="white" fill-opacity="0.8"/>
<path d="M357.885 204.602H387.75V205.179H358.298L341.715 234.054L358.298 263.012H387.75V263.589H357.885L340.972 234.054L357.885 204.602Z" fill="#614CE1"/>
<path d="M357.885 204.602H387.75V205.179H358.298L341.715 234.054L358.298 263.012H387.75V263.589H357.885L340.972 234.054L357.885 204.602Z" fill="white" fill-opacity="0.8"/>
<path d="M256.657 264.002H290.482L307.477 234.054L290.482 204.602H256.657L239.744 234.054L256.657 264.002ZM290.152 263.424H257.152L240.652 234.467L257.152 205.592H290.152L306.652 234.467L290.152 263.424Z" fill="#614CE1"/>
<path d="M256.657 264.002H290.482L307.477 234.054L290.482 204.602H256.657L239.744 234.054L256.657 264.002ZM290.152 263.424H257.152L240.652 234.467L257.152 205.592H290.152L306.652 234.467L290.152 263.424Z" fill="white" fill-opacity="0.8"/>
<path d="M155.346 263.999H189.254L205.754 234.464L189.254 205.012H155.346L138.846 234.464L155.346 263.999ZM188.924 263.422H155.924L139.424 234.464L155.924 205.589H188.924L205.424 234.464L188.924 263.422Z" fill="#614CE1"/>
<path d="M155.346 263.999H189.254L205.754 234.464L189.254 205.012H155.346L138.846 234.464L155.346 263.999ZM188.924 263.422H155.924L139.424 234.464L155.924 205.589H188.924L205.424 234.464L188.924 263.422Z" fill="white" fill-opacity="0.8"/>
<path d="M307.313 234.382H341.138L358.133 204.847L341.138 175.395H307.313L290.318 204.847L307.313 234.382ZM340.808 233.722H307.808L291.308 204.847L307.808 175.972H340.808L357.308 204.847L340.808 233.722Z" fill="#614CE1"/>
<path d="M307.313 234.382H341.138L358.133 204.847L341.138 175.395H307.313L290.318 204.847L307.313 234.382ZM340.808 233.722H307.808L291.308 204.847L307.808 175.972H340.808L357.308 204.847L340.808 233.722Z" fill="white" fill-opacity="0.8"/>
<path d="M206.25 234.382H239.91L256.822 204.847L239.91 175.395H206.25L189.75 204.847L206.25 234.382ZM239.25 233.722H206.25L189.75 204.847L206.25 175.972H239.25L255.75 204.847L239.25 233.722Z" fill="#614CE1"/>
<path d="M206.25 234.382H239.91L256.822 204.847L239.91 175.395H206.25L189.75 204.847L206.25 234.382ZM239.25 233.722H206.25L189.75 204.847L206.25 175.972H239.25L255.75 204.847L239.25 233.722Z" fill="white" fill-opacity="0.8"/>
<path d="M104.692 234.382H138.599L155.512 204.847L138.599 175.395H104.692L88.1917 204.847L104.692 234.382ZM138.269 233.722H105.269L88.7692 204.847L105.269 175.972H138.269L154.769 204.847L138.269 233.722Z" fill="#614CE1"/>
<path d="M104.692 234.382H138.599L155.512 204.847L138.599 175.395H104.692L88.1917 204.847L104.692 234.382ZM138.269 233.722H105.269L88.7692 204.847L105.269 175.972H138.269L154.769 204.847L138.269 233.722Z" fill="white" fill-opacity="0.8"/>
<path d="M357.885 146.191H387.75V146.769H358.298L341.715 175.644L358.298 204.519H387.75V205.179H357.885L340.972 175.644L357.885 146.191Z" fill="#614CE1"/>
<path d="M357.885 146.191H387.75V146.769H358.298L341.715 175.644L358.298 204.519H387.75V205.179H357.885L340.972 175.644L357.885 146.191Z" fill="white" fill-opacity="0.8"/>
<path d="M256.657 205.179H290.482L307.477 175.644L290.482 146.191H256.657L239.744 175.644L256.657 205.179ZM290.152 204.519H257.152L240.652 175.644L257.152 146.769H290.152L306.652 175.644L290.152 204.519Z" fill="#614CE1"/>
<path d="M256.657 205.179H290.482L307.477 175.644L290.482 146.191H256.657L239.744 175.644L256.657 205.179ZM290.152 204.519H257.152L240.652 175.644L257.152 146.769H290.152L306.652 175.644L290.152 204.519Z" fill="white" fill-opacity="0.8"/>
<path d="M155.346 205.179H189.254L205.754 175.644L189.254 146.191H155.346L138.846 175.644L155.346 205.179ZM188.924 204.519H155.924L139.424 175.644L155.924 146.769H188.924L205.424 175.644L188.924 204.519Z" fill="#614CE1"/>
<path d="M155.346 205.179H189.254L205.754 175.644L189.254 146.191H155.346L138.846 175.644L155.346 205.179ZM188.924 204.519H155.924L139.424 175.644L155.924 146.769H188.924L205.424 175.644L188.924 204.519Z" fill="white" fill-opacity="0.8"/>
<path d="M307.313 175.972H341.138L358.133 146.437L341.138 116.984H307.313L290.318 146.437L307.313 175.972ZM340.808 175.312H307.808L291.308 146.437L307.808 117.562H340.808L357.308 146.437L340.808 175.312Z" fill="#614CE1"/>
<path d="M307.313 175.972H341.138L358.133 146.437L341.138 116.984H307.313L290.318 146.437L307.313 175.972ZM340.808 175.312H307.808L291.308 146.437L307.808 117.562H340.808L357.308 146.437L340.808 175.312Z" fill="white" fill-opacity="0.8"/>
<path d="M206.25 175.972H239.91L256.822 146.437L239.91 116.984H206.25L189.75 146.437L206.25 175.972ZM239.25 175.312H206.25L189.75 146.437L206.25 117.562H239.25L255.75 146.437L239.25 175.312Z" fill="#614CE1"/>
<path d="M206.25 175.972H239.91L256.822 146.437L239.91 116.984H206.25L189.75 146.437L206.25 175.972ZM239.25 175.312H206.25L189.75 146.437L206.25 117.562H239.25L255.75 146.437L239.25 175.312Z" fill="white" fill-opacity="0.8"/>
<path d="M104.692 175.972H138.599L155.512 146.437L138.599 116.984H104.692L88.1917 146.437L104.692 175.972ZM138.269 175.312H105.269L88.7692 146.437L105.269 117.562H138.269L154.769 146.437L138.269 175.312Z" fill="#614CE1"/>
<path d="M104.692 175.972H138.599L155.512 146.437L138.599 116.984H104.692L88.1917 146.437L104.692 175.972ZM138.269 175.312H105.269L88.7692 146.437L105.269 117.562H138.269L154.769 146.437L138.269 175.312Z" fill="white" fill-opacity="0.8"/>
<path d="M357.885 87.6953H387.75V88.3553H358.298L341.715 117.23L358.298 146.105H387.75V146.765H357.885L340.972 117.23L357.885 87.6953Z" fill="#614CE1"/>
<path d="M357.885 87.6953H387.75V88.3553H358.298L341.715 117.23L358.298 146.105H387.75V146.765H357.885L340.972 117.23L357.885 87.6953Z" fill="white" fill-opacity="0.8"/>
<path d="M256.657 146.765H290.482L307.477 117.23L290.482 87.6953H256.657L239.744 117.23L256.657 146.765ZM290.152 146.105H257.152L240.652 117.23L257.152 88.3553H290.152L306.652 117.23L290.152 146.105Z" fill="#614CE1"/>
<path d="M256.657 146.765H290.482L307.477 117.23L290.482 87.6953H256.657L239.744 117.23L256.657 146.765ZM290.152 146.105H257.152L240.652 117.23L257.152 88.3553H290.152L306.652 117.23L290.152 146.105Z" fill="white" fill-opacity="0.8"/>
<path d="M155.346 146.765H189.254L205.754 117.23L189.254 87.6953H155.346L138.846 117.23L155.346 146.765ZM188.924 146.105H155.924L139.424 117.23L155.924 88.3553H188.924L205.424 117.23L188.924 146.105Z" fill="#614CE1"/>
<path d="M155.346 146.765H189.254L205.754 117.23L189.254 87.6953H155.346L138.846 117.23L155.346 146.765ZM188.924 146.105H155.924L139.424 117.23L155.924 88.3553H188.924L205.424 117.23L188.924 146.105Z" fill="white" fill-opacity="0.8"/>
<path d="M104.692 117.562H138.599L155.512 88.0272L138.599 58.4922H104.692L88.1917 88.0272L104.692 117.562ZM138.269 116.902H105.269L88.7692 88.0272L105.269 59.1522H138.269L154.769 88.0272L138.269 116.902Z" fill="#614CE1"/>
<path d="M104.692 117.562H138.599L155.512 88.0272L138.599 58.4922H104.692L88.1917 88.0272L104.692 117.562ZM138.269 116.902H105.269L88.7692 88.0272L105.269 59.1522H138.269L154.769 88.0272L138.269 116.902Z" fill="white" fill-opacity="0.8"/>
<path d="M357.885 29.2891H387.75V29.9491H358.298L341.715 58.8241L358.298 87.6991H387.75V88.3591H357.885L340.972 58.8241L357.885 29.2891Z" fill="#614CE1"/>
<path d="M357.885 29.2891H387.75V29.9491H358.298L341.715 58.8241L358.298 87.6991H387.75V88.3591H357.885L340.972 58.8241L357.885 29.2891Z" fill="white" fill-opacity="0.8"/>
<path d="M104.692 59.07H138.599L155.512 29.6175L138.599 0H104.692L88.1917 29.535L104.692 59.07ZM138.269 58.4925H105.269L88.7692 29.6175L105.269 0.7425H138.269L154.769 29.6175L138.269 58.4925Z" fill="#614CE1"/>
<path d="M104.692 59.07H138.599L155.512 29.6175L138.599 0H104.692L88.1917 29.535L104.692 59.07ZM138.269 58.4925H105.269L88.7692 29.6175L105.269 0.7425H138.269L154.769 29.6175L138.269 58.4925Z" fill="white" fill-opacity="0.8"/>
<path d="M341.22 0H341.962L341.715 0.4125L358.298 29.2875H387.75V29.865H357.885L340.972 0.4125L341.22 0Z" fill="#614CE1"/>
<path d="M341.22 0H341.962L341.715 0.4125L358.298 29.2875H387.75V29.865H357.885L340.972 0.4125L341.22 0Z" fill="white" fill-opacity="0.8"/>
<path d="M105.022 0L105.104 0.0825H138.269V0H139.012L138.599 0.66H104.774L104.362 0H105.022Z" fill="#614CE1"/>
<path d="M105.022 0L105.104 0.0825H138.269V0H139.012L138.599 0.66H104.774L104.362 0H105.022Z" fill="white" fill-opacity="0.8"/>
<g opacity="0.58">
<path d="M359.288 495.001H358.628L374.467 467.363H387.75V468.023H374.797L359.288 495.001Z" fill="#614CE1"/>
<path d="M359.288 495.001H358.628L374.467 467.363H387.75V468.023H374.797L359.288 495.001Z" fill="white" fill-opacity="0.8"/>
</g>
<g opacity="0.8">
<path d="M220.851 495.001L205.424 468.023H172.259L156.749 495.001H156.006L171.929 467.363H205.754L221.594 495.001H220.851Z" fill="#614CE1"/>
<path d="M220.851 495.001L205.424 468.023H172.259L156.749 495.001H156.006L171.929 467.363H205.754L221.594 495.001H220.851Z" fill="white" fill-opacity="0.8"/>
</g>
<g opacity="0.95">
<path d="M119.625 495.001L104.115 468.023H70.9497L55.5222 495.001H54.7797L70.6197 467.363H104.527L120.367 495.001H119.625Z" fill="#614CE1"/>
<path d="M119.625 495.001L104.115 468.023H70.9497L55.5222 495.001H54.7797L70.6197 467.363H104.527L120.367 495.001H119.625Z" fill="white" fill-opacity="0.8"/>
</g>
<g opacity="0.86">
<path d="M155.676 494.999L171.351 467.691L154.769 438.816H121.604L105.021 467.691L120.696 494.999H119.954L104.361 467.691L121.274 438.156H155.099L172.094 467.691L156.419 494.999H155.676Z" fill="#614CE1"/>
<path d="M155.676 494.999L171.351 467.691L154.769 438.816H121.604L105.021 467.691L120.696 494.999H119.954L104.361 467.691L121.274 438.156H155.099L172.094 467.691L156.419 494.999H155.676Z" fill="white" fill-opacity="0.8"/>
</g>
<g opacity="0.49">
<path d="M54.3676 494.999L70.0427 467.691L53.4601 438.816H20.3776L3.79513 467.691L19.4701 494.999H18.7276L3.05263 467.691L19.9651 438.156H53.8726L70.7852 467.691L55.1101 494.999H54.3676Z" fill="#614CE1"/>
<path d="M54.3676 494.999L70.0427 467.691L53.4601 438.816H20.3776L3.79513 467.691L19.4701 494.999H18.7276L3.05263 467.691L19.9651 438.156H53.8726L70.7852 467.691L55.1101 494.999H54.3676Z" fill="white" fill-opacity="0.8"/>
</g>
<g opacity="0.33">
<path d="M374.467 408.953H387.75V409.613H374.797L358.215 438.488L374.797 467.363H387.75V468.023H374.467L357.472 438.488L374.467 408.953Z" fill="#614CE1"/>
<path d="M374.467 408.953H387.75V409.613H374.797L358.215 438.488L374.797 467.363H387.75V468.023H374.467L357.472 438.488L374.467 408.953Z" fill="white" fill-opacity="0.8"/>
</g>
<g opacity="0.71">
<path d="M171.929 468.023H205.754L222.254 438.488L205.754 408.953H171.929L154.934 438.488L171.929 468.023ZM205.424 467.363H172.424L155.924 438.488L172.424 409.613H205.424L221.924 438.488L205.424 467.363Z" fill="#614CE1"/>
<path d="M171.929 468.023H205.754L222.254 438.488L205.754 408.953H171.929L154.934 438.488L171.929 468.023ZM205.424 467.363H172.424L155.924 438.488L172.424 409.613H205.424L221.924 438.488L205.424 467.363Z" fill="white" fill-opacity="0.8"/>
</g>
<g opacity="0.73">
<path d="M70.6199 468.023H104.527L121.027 438.488L104.527 408.953H70.6199L53.7073 438.488L70.6199 468.023ZM104.115 467.363H71.1148L54.6149 438.488L71.1148 409.613H104.115L120.615 438.488L104.115 467.363Z" fill="#614CE1"/>
<path d="M70.6199 468.023H104.527L121.027 438.488L104.527 408.953H70.6199L53.7073 438.488L70.6199 468.023ZM104.115 467.363H71.1148L54.6149 438.488L71.1148 409.613H104.115L120.615 438.488L104.115 467.363Z" fill="white" fill-opacity="0.8"/>
</g>
<g opacity="0.64">
<path d="M121.274 438.735H155.099L172.094 409.283L155.099 379.5H121.274L104.279 409.035L121.274 438.735ZM154.769 438.158H121.769L105.269 409.283L121.769 380.408H154.769L171.269 409.283L154.769 438.158Z" fill="#614CE1"/>
<path d="M121.274 438.735H155.099L172.094 409.283L155.099 379.5H121.274L104.279 409.035L121.274 438.735ZM154.769 438.158H121.769L105.269 409.283L121.769 380.408H154.769L171.269 409.283L154.769 438.158Z" fill="white" fill-opacity="0.8"/>
</g>
<g opacity="0.22">
<path d="M374.467 350.543H387.75V351.203H374.797L358.215 380.078L374.797 408.953H387.75V409.53H374.467L357.472 380.078L374.467 350.543Z" fill="#614CE1"/>
<path d="M374.467 350.543H387.75V351.203H374.797L358.215 380.078L374.797 408.953H387.75V409.53H374.467L357.472 380.078L374.467 350.543Z" fill="white" fill-opacity="0.8"/>
</g>
<g opacity="0.86">
<path d="M273.159 409.53H307.066L323.566 380.078L307.066 350.543H273.159L256.659 380.078L273.159 409.53ZM306.654 408.953H273.654L257.154 380.078L273.654 351.203H306.654L323.154 380.078L306.654 408.953Z" fill="#614CE1"/>
<path d="M273.159 409.53H307.066L323.566 380.078L307.066 350.543H273.159L256.659 380.078L273.159 409.53ZM306.654 408.953H273.654L257.154 380.078L273.654 351.203H306.654L323.154 380.078L306.654 408.953Z" fill="white" fill-opacity="0.8"/>
</g>
<g opacity="0.96">
<path d="M171.929 409.53H205.754L222.254 380.078L205.754 350.543H171.929L154.934 380.078L171.929 409.53ZM205.424 408.953H172.424L155.924 380.078L172.424 351.203H205.424L221.924 380.078L205.424 408.953Z" fill="#614CE1"/>
<path d="M171.929 409.53H205.754L222.254 380.078L205.754 350.543H171.929L154.934 380.078L171.929 409.53ZM205.424 408.953H172.424L155.924 380.078L172.424 351.203H205.424L221.924 380.078L205.424 408.953Z" fill="white" fill-opacity="0.8"/>
</g>
<g opacity="0.38">
<path d="M323.813 380.325H357.638L374.633 350.872L357.638 321.75H323.813L306.9 350.872L323.813 380.325ZM357.308 379.5H324.308L307.808 350.625L324.308 321.75H357.308L373.808 350.625L357.308 379.5Z" fill="#614CE1"/>
<path d="M323.813 380.325H357.638L374.633 350.872L357.638 321.75H323.813L306.9 350.872L323.813 380.325ZM357.308 379.5H324.308L307.808 350.625L324.308 321.75H357.308L373.808 350.625L357.308 379.5Z" fill="white" fill-opacity="0.8"/>
</g>
<g opacity="0.7">
<path d="M222.75 380.325H256.41L273.322 350.872L256.41 321.75H222.75L206.25 351.285L222.75 380.325ZM255.75 379.5H222.75L206.25 350.625L222.75 321.75H255.75L272.25 350.625L255.75 379.5Z" fill="#614CE1"/>
<path d="M222.75 380.325H256.41L273.322 350.872L256.41 321.75H222.75L206.25 351.285L222.75 380.325ZM255.75 379.5H222.75L206.25 350.625L222.75 321.75H255.75L272.25 350.625L255.75 379.5Z" fill="white" fill-opacity="0.8"/>
</g>
<g opacity="0.95">
<path d="M121.274 380.325H155.099L172.094 350.872L155.099 321.75H121.274L104.279 351.285L121.274 380.325ZM154.769 379.5H121.769L105.269 350.625L121.769 321.75H154.769L171.269 350.625L154.769 379.5Z" fill="#614CE1"/>
<path d="M121.274 380.325H155.099L172.094 350.872L155.099 321.75H121.274L104.279 351.285L121.274 380.325ZM154.769 379.5H121.769L105.269 350.625L121.769 321.75H154.769L171.269 350.625L154.769 379.5Z" fill="white" fill-opacity="0.8"/>
</g>
<g opacity="0.45">
<path d="M374.467 292.133H387.75V292.71H374.797L358.215 321.585L374.797 350.543H387.75V351.12H374.467L357.472 321.585L374.467 292.133Z" fill="#614CE1"/>
<path d="M374.467 292.133H387.75V292.71H374.797L358.215 321.585L374.797 350.543H387.75V351.12H374.467L357.472 321.585L374.467 292.133Z" fill="white" fill-opacity="0.8"/>
</g>
<g opacity="0.73">
<path d="M273.157 351.12H307.064L323.977 321.75L307.477 292.215H273.569L257.069 321.75L273.157 351.12ZM306.652 350.542H273.652L257.152 321.667L273.652 292.792H306.652L323.152 321.667L306.652 350.542Z" fill="#614CE1"/>
<path d="M273.157 351.12H307.064L323.977 321.75L307.477 292.215H273.569L257.069 321.75L273.157 351.12ZM306.652 350.542H273.652L257.152 321.667L273.652 292.792H306.652L323.152 321.667L306.652 350.542Z" fill="white" fill-opacity="0.8"/>
</g>
<g opacity="0.81">
<path d="M171.93 351.12H205.755L222.75 321.75L206.25 292.215H172.425L154.935 321.75L171.93 351.12ZM205.425 350.542H172.425L155.925 321.667L172.425 292.792H205.425L221.925 321.667L205.425 350.542Z" fill="#614CE1"/>
<path d="M171.93 351.12H205.755L222.75 321.75L206.25 292.215H172.425L154.935 321.75L171.93 351.12ZM205.425 350.542H172.425L155.925 321.667L172.425 292.792H205.425L221.925 321.667L205.425 350.542Z" fill="white" fill-opacity="0.8"/>
</g>
<g opacity="0.24">
<path d="M70.6199 351.12H104.527L121.027 321.668L104.527 292.133H70.6199L53.7073 321.75L70.6199 351.12ZM104.115 350.543H71.1148L54.6149 321.668L71.1148 292.793H104.115L120.615 321.668L104.115 350.543Z" fill="#614CE1"/>
<path d="M70.6199 351.12H104.527L121.027 321.668L104.527 292.133H70.6199L53.7073 321.75L70.6199 351.12ZM104.115 350.543H71.1148L54.6149 321.668L71.1148 292.793H104.115L120.615 321.668L104.115 350.543Z" fill="white" fill-opacity="0.8"/>
</g>
<g opacity="0.25">
<path d="M323.813 321.752H357.638L374.633 292.382L357.638 262.93H323.813L306.9 292.382L323.813 321.752ZM357.308 321.752H324.308L307.808 292.795L324.308 263.92H357.308L373.808 292.795L357.308 321.752Z" fill="#614CE1"/>
<path d="M323.813 321.752H357.638L374.633 292.382L357.638 262.93H323.813L306.9 292.382L323.813 321.752ZM357.308 321.752H324.308L307.808 292.795L324.308 263.92H357.308L373.808 292.795L357.308 321.752Z" fill="white" fill-opacity="0.8"/>
</g>
<g opacity="0.95">
<path d="M222.75 321.749H256.41L273.322 292.214L256.41 262.762H222.75L206.25 292.214L222.75 321.749ZM255.75 321.749H222.75L206.25 292.792L222.75 263.917H255.75L272.25 292.792L255.75 321.749Z" fill="#614CE1"/>
<path d="M222.75 321.749H256.41L273.322 292.214L256.41 262.762H222.75L206.25 292.214L222.75 321.749ZM255.75 321.749H222.75L206.25 292.792L222.75 263.917H255.75L272.25 292.792L255.75 321.749Z" fill="white" fill-opacity="0.8"/>
</g>
<g opacity="0.37">
<path d="M121.274 321.749H155.099L172.094 292.214L155.099 262.762H121.274L104.279 292.214L121.274 321.749ZM154.769 321.749H121.769L105.269 292.792L121.769 263.917H154.769L171.269 292.792L154.769 321.749Z" fill="#614CE1"/>
<path d="M121.274 321.749H155.099L172.094 292.214L155.099 262.762H121.274L104.279 292.214L121.274 321.749ZM154.769 321.749H121.769L105.269 292.792L121.769 263.917H154.769L171.269 292.792L154.769 321.749Z" fill="white" fill-opacity="0.8"/>
</g>
<g opacity="0.95">
<path d="M374.467 233.723H387.75V234.3H374.797L358.215 263.175L374.797 292.05H387.75V292.71H374.467L357.472 263.175L374.467 233.723Z" fill="#614CE1"/>
<path d="M374.467 233.723H387.75V234.3H374.797L358.215 263.175L374.797 292.05H387.75V292.71H374.467L357.472 263.175L374.467 233.723Z" fill="white" fill-opacity="0.8"/>
</g>
<g opacity="0.95">
<path d="M273.159 292.71H307.066L323.566 263.175L307.066 233.723H273.159L256.659 263.175L273.159 292.71ZM306.654 292.05H273.654L257.154 263.175L273.654 234.3H306.654L323.154 263.175L306.654 292.05Z" fill="#614CE1"/>
<path d="M273.159 292.71H307.066L323.566 263.175L307.066 233.723H273.159L256.659 263.175L273.159 292.71ZM306.654 292.05H273.654L257.154 263.175L273.654 234.3H306.654L323.154 263.175L306.654 292.05Z" fill="white" fill-opacity="0.8"/>
</g>
<g opacity="0.53">
<path d="M171.93 292.71H205.755L222.75 263.175L206.25 233.723H172.425L155.43 263.175L171.93 292.71ZM205.425 292.05H172.425L155.925 263.175L172.425 234.3H205.425L221.925 263.175L205.425 292.05Z" fill="#614CE1"/>
<path d="M171.93 292.71H205.755L222.75 263.175L206.25 233.723H172.425L155.43 263.175L171.93 292.71ZM205.425 292.05H172.425L155.925 263.175L172.425 234.3H205.425L221.925 263.175L205.425 292.05Z" fill="white" fill-opacity="0.8"/>
</g>
<g opacity="0.94">
<path d="M70.6199 292.71H104.527L121.027 263.175L104.527 233.723H70.6199L53.7073 263.175L70.6199 292.71ZM104.115 292.05H71.1148L54.6149 263.175L71.1148 234.3H104.115L120.615 263.175L104.115 292.05Z" fill="#614CE1"/>
<path d="M70.6199 292.71H104.527L121.027 263.175L104.527 233.723H70.6199L53.7073 263.175L70.6199 292.71ZM104.115 292.05H71.1148L54.6149 263.175L71.1148 234.3H104.115L120.615 263.175L104.115 292.05Z" fill="white" fill-opacity="0.8"/>
</g>
<g opacity="0.5">
<path d="M323.813 263.503H357.638L374.633 233.968L357.638 204.516H323.813L306.9 233.968L323.813 263.503ZM357.308 262.843H324.308L307.808 233.968L324.308 205.093H357.308L373.808 233.968L357.308 262.843Z" fill="#614CE1"/>
<path d="M323.813 263.503H357.638L374.633 233.968L357.638 204.516H323.813L306.9 233.968L323.813 263.503ZM357.308 262.843H324.308L307.808 233.968L324.308 205.093H357.308L373.808 233.968L357.308 262.843Z" fill="white" fill-opacity="0.8"/>
</g>
<g opacity="0.28">
<path d="M222.75 263.503H256.41L273.322 233.968L256.41 204.516H222.75L206.25 233.968L222.75 263.503ZM255.75 262.843H222.75L206.25 233.968L222.75 205.093H255.75L272.25 233.968L255.75 262.843Z" fill="#614CE1"/>
<path d="M222.75 263.503H256.41L273.322 233.968L256.41 204.516H222.75L206.25 233.968L222.75 263.503ZM255.75 262.843H222.75L206.25 233.968L222.75 205.093H255.75L272.25 233.968L255.75 262.843Z" fill="white" fill-opacity="0.8"/>
</g>
<g opacity="0.46">
<path d="M121.274 263.503H155.099L172.094 233.968L155.099 204.516H121.274L104.279 233.968L121.274 263.503ZM154.769 262.843H121.769L105.269 233.968L121.769 205.093H154.769L171.269 233.968L154.769 262.843Z" fill="#614CE1"/>
<path d="M121.274 263.503H155.099L172.094 233.968L155.099 204.516H121.274L104.279 233.968L121.274 263.503ZM154.769 262.843H121.769L105.269 233.968L121.769 205.093H154.769L171.269 233.968L154.769 262.843Z" fill="white" fill-opacity="0.8"/>
</g>
<g opacity="0.4">
<path d="M374.467 175.312H387.75V175.89H374.797L358.215 204.765L374.797 233.64H387.75V234.3H374.467L357.472 204.765L374.467 175.312Z" fill="#614CE1"/>
<path d="M374.467 175.312H387.75V175.89H374.797L358.215 204.765L374.797 233.64H387.75V234.3H374.467L357.472 204.765L374.467 175.312Z" fill="white" fill-opacity="0.8"/>
</g>
<g opacity="0.23">
<path d="M273.159 234.3H307.066L323.566 204.765L307.066 175.312H273.159L256.659 204.765L273.159 234.3ZM306.654 233.64H273.654L257.154 204.765L273.654 175.89H306.654L323.154 204.765L306.654 233.64Z" fill="#614CE1"/>
<path d="M273.159 234.3H307.066L323.566 204.765L307.066 175.312H273.159L256.659 204.765L273.159 234.3ZM306.654 233.64H273.654L257.154 204.765L273.654 175.89H306.654L323.154 204.765L306.654 233.64Z" fill="white" fill-opacity="0.8"/>
</g>
<g opacity="0.56">
<path d="M171.929 234.3H205.754L222.254 204.765L205.754 175.312H171.929L154.934 204.765L171.929 234.3ZM205.424 233.64H172.424L155.924 204.765L172.424 175.89H205.424L221.924 204.765L205.424 233.64Z" fill="#614CE1"/>
<path d="M171.929 234.3H205.754L222.254 204.765L205.754 175.312H171.929L154.934 204.765L171.929 234.3ZM205.424 233.64H172.424L155.924 204.765L172.424 175.89H205.424L221.924 204.765L205.424 233.64Z" fill="white" fill-opacity="0.8"/>
</g>
<g opacity="0.23">
<path d="M323.813 205.097H357.638L374.633 175.562L357.638 146.109H323.813L306.9 175.562L323.813 205.097ZM357.308 204.437H324.308L307.808 175.562L324.308 146.687H357.308L373.808 175.562L357.308 204.437Z" fill="#614CE1"/>
<path d="M323.813 205.097H357.638L374.633 175.562L357.638 146.109H323.813L306.9 175.562L323.813 205.097ZM357.308 204.437H324.308L307.808 175.562L324.308 146.687H357.308L373.808 175.562L357.308 204.437Z" fill="white" fill-opacity="0.8"/>
</g>
<g opacity="0.92">
<path d="M222.75 205.097H256.41L273.322 175.562L256.41 146.109H222.75L206.25 175.562L222.75 205.097ZM255.75 204.437H222.75L206.25 175.562L222.75 146.687H255.75L272.25 175.562L255.75 204.437Z" fill="#614CE1"/>
<path d="M222.75 205.097H256.41L273.322 175.562L256.41 146.109H222.75L206.25 175.562L222.75 205.097ZM255.75 204.437H222.75L206.25 175.562L222.75 146.687H255.75L272.25 175.562L255.75 204.437Z" fill="white" fill-opacity="0.8"/>
</g>
<g opacity="0.47">
<path d="M121.274 205.097H155.099L172.094 175.562L155.099 146.109H121.274L104.279 175.562L121.274 205.097ZM154.769 204.437H121.769L105.269 175.562L121.769 146.687H154.769L171.269 175.562L154.769 204.437Z" fill="#614CE1"/>
<path d="M121.274 205.097H155.099L172.094 175.562L155.099 146.109H121.274L104.279 175.562L121.274 205.097ZM154.769 204.437H121.769L105.269 175.562L121.769 146.687H154.769L171.269 175.562L154.769 204.437Z" fill="white" fill-opacity="0.8"/>
</g>
<g opacity="0.46">
<path d="M19.9636 205.097H53.8711L70.3711 175.562L53.8711 146.109H19.9636L3.05109 175.562L19.9636 205.097ZM53.4586 204.437H20.4586L3.9586 175.562L20.4586 146.687H53.4586L69.9586 175.562L53.4586 204.437Z" fill="#614CE1"/>
<path d="M19.9636 205.097H53.8711L70.3711 175.562L53.8711 146.109H19.9636L3.05109 175.562L19.9636 205.097ZM53.4586 204.437H20.4586L3.9586 175.562L20.4586 146.687H53.4586L69.9586 175.562L53.4586 204.437Z" fill="white" fill-opacity="0.8"/>
</g>
<g opacity="0.66">
<path d="M374.467 116.82H387.75V117.48H374.797L358.215 146.355L374.797 175.23H387.75V175.89H374.467L357.472 146.355L374.467 116.82Z" fill="#614CE1"/>
<path d="M374.467 116.82H387.75V117.48H374.797L358.215 146.355L374.797 175.23H387.75V175.89H374.467L357.472 146.355L374.467 116.82Z" fill="white" fill-opacity="0.8"/>
</g>
<g opacity="0.88">
<path d="M273.159 175.89H307.066L323.566 146.355L307.066 116.82H273.159L256.659 146.355L273.159 175.89ZM306.654 175.23H273.654L257.154 146.355L273.654 117.48H306.654L323.154 146.355L306.654 175.23Z" fill="#614CE1"/>
<path d="M273.159 175.89H307.066L323.566 146.355L307.066 116.82H273.159L256.659 146.355L273.159 175.89ZM306.654 175.23H273.654L257.154 146.355L273.654 117.48H306.654L323.154 146.355L306.654 175.23Z" fill="white" fill-opacity="0.8"/>
</g>
<g opacity="0.74">
<path d="M171.929 175.89H205.754L222.254 146.355L205.754 116.82H171.929L154.934 146.355L171.929 175.89ZM205.424 175.23H172.424L155.924 146.355L172.424 117.48H205.424L221.924 146.355L205.424 175.23Z" fill="#614CE1"/>
<path d="M171.929 175.89H205.754L222.254 146.355L205.754 116.82H171.929L154.934 146.355L171.929 175.89ZM205.424 175.23H172.424L155.924 146.355L172.424 117.48H205.424L221.924 146.355L205.424 175.23Z" fill="white" fill-opacity="0.8"/>
</g>
<g opacity="0.35">
<path d="M70.6199 175.89H104.527L121.027 146.355L104.527 116.82H70.6199L53.7073 146.355L70.6199 175.89ZM104.115 175.23H71.1148L54.6149 146.355L71.1148 117.48H104.115L120.615 146.355L104.115 175.23Z" fill="#614CE1"/>
<path d="M70.6199 175.89H104.527L121.027 146.355L104.527 116.82H70.6199L53.7073 146.355L70.6199 175.89ZM104.115 175.23H71.1148L54.6149 146.355L71.1148 117.48H104.115L120.615 146.355L104.115 175.23Z" fill="white" fill-opacity="0.8"/>
</g>
<g opacity="0.82">
<path d="M323.813 146.687H357.638L374.633 117.152L357.638 87.6172H323.813L306.9 117.152L323.813 146.687ZM357.308 146.027H324.308L307.808 117.152L324.308 88.2772H357.308L373.808 117.152L357.308 146.027Z" fill="#614CE1"/>
<path d="M323.813 146.687H357.638L374.633 117.152L357.638 87.6172H323.813L306.9 117.152L323.813 146.687ZM357.308 146.027H324.308L307.808 117.152L324.308 88.2772H357.308L373.808 117.152L357.308 146.027Z" fill="white" fill-opacity="0.8"/>
</g>
<g opacity="0.82">
<path d="M222.75 146.687H256.41L273.322 117.152L256.41 87.6172H222.75L206.25 117.152L222.75 146.687ZM255.75 146.027H222.75L206.25 117.152L222.75 88.2772H255.75L272.25 117.152L255.75 146.027Z" fill="#614CE1"/>
<path d="M222.75 146.687H256.41L273.322 117.152L256.41 87.6172H222.75L206.25 117.152L222.75 146.687ZM255.75 146.027H222.75L206.25 117.152L222.75 88.2772H255.75L272.25 117.152L255.75 146.027Z" fill="white" fill-opacity="0.8"/>
</g>
<g opacity="0.75">
<path d="M121.274 146.687H155.099L172.094 117.152L155.099 87.6172H121.274L104.279 117.152L121.274 146.687ZM154.769 146.027H121.769L105.269 117.152L121.769 88.2772H154.769L171.269 117.152L154.769 146.027Z" fill="#614CE1"/>
<path d="M121.274 146.687H155.099L172.094 117.152L155.099 87.6172H121.274L104.279 117.152L121.274 146.687ZM154.769 146.027H121.769L105.269 117.152L121.769 88.2772H154.769L171.269 117.152L154.769 146.027Z" fill="white" fill-opacity="0.8"/>
</g>
<g opacity="0.61">
<path d="M374.467 58.4102H387.75V59.0702H374.797L358.215 87.9452L374.797 116.82H387.75V117.398H374.467L357.472 87.9452L374.467 58.4102Z" fill="#614CE1"/>
<path d="M374.467 58.4102H387.75V59.0702H374.797L358.215 87.9452L374.797 116.82H387.75V117.398H374.467L357.472 87.9452L374.467 58.4102Z" fill="white" fill-opacity="0.8"/>
</g>
<g opacity="0.98">
<path d="M273.159 117.398H307.066L323.566 87.9452L307.066 58.4102H273.159L256.659 87.9452L273.159 117.398ZM306.654 116.82H273.654L257.154 87.9452L273.654 59.0702H306.654L323.154 87.9452L306.654 116.82Z" fill="#614CE1"/>
<path d="M273.159 117.398H307.066L323.566 87.9452L307.066 58.4102H273.159L256.659 87.9452L273.159 117.398ZM306.654 116.82H273.654L257.154 87.9452L273.654 59.0702H306.654L323.154 87.9452L306.654 116.82Z" fill="white" fill-opacity="0.8"/>
</g>
<g opacity="0.64">
<path d="M171.929 117.398H205.754L222.254 87.9452L205.754 58.4102H171.929L154.934 87.9452L171.929 117.398ZM205.424 116.82H172.424L155.924 87.9452L172.424 59.0702H205.424L221.924 87.9452L205.424 116.82Z" fill="#614CE1"/>
<path d="M171.929 117.398H205.754L222.254 87.9452L205.754 58.4102H171.929L154.934 87.9452L171.929 117.398ZM205.424 116.82H172.424L155.924 87.9452L172.424 59.0702H205.424L221.924 87.9452L205.424 116.82Z" fill="white" fill-opacity="0.8"/>
</g>
<g opacity="0.4">
<path d="M70.6199 117.398H104.527L121.027 87.9452L104.527 58.4102H70.6199L53.7073 87.9452L70.6199 117.398ZM104.115 116.82H71.1148L54.6149 87.9452L71.1148 59.0702H104.115L120.615 87.9452L104.115 116.82Z" fill="#614CE1"/>
<path d="M70.6199 117.398H104.527L121.027 87.9452L104.527 58.4102H70.6199L53.7073 87.9452L70.6199 117.398ZM104.115 116.82H71.1148L54.6149 87.9452L71.1148 59.0702H104.115L120.615 87.9452L104.115 116.82Z" fill="white" fill-opacity="0.8"/>
</g>
<g opacity="0.56">
<path d="M323.813 88.1906H357.638L374.633 58.7381L357.638 29.2031H323.813L306.9 58.7381L323.813 88.1906ZM357.308 87.6131H324.308L307.808 58.7381L324.308 29.8631H357.308L373.808 58.7381L357.308 87.6131Z" fill="#614CE1"/>
<path d="M323.813 88.1906H357.638L374.633 58.7381L357.638 29.2031H323.813L306.9 58.7381L323.813 88.1906ZM357.308 87.6131H324.308L307.808 58.7381L324.308 29.8631H357.308L373.808 58.7381L357.308 87.6131Z" fill="white" fill-opacity="0.8"/>
</g>
<g opacity="0.51">
<path d="M222.75 88.1906H256.41L273.322 58.7381L256.41 29.2031H222.75L206.25 58.7381L222.75 88.1906ZM255.75 87.6131H222.75L206.25 58.7381L222.75 29.8631H255.75L272.25 58.7381L255.75 87.6131Z" fill="#614CE1"/>
<path d="M222.75 88.1906H256.41L273.322 58.7381L256.41 29.2031H222.75L206.25 58.7381L222.75 88.1906ZM255.75 87.6131H222.75L206.25 58.7381L222.75 29.8631H255.75L272.25 58.7381L255.75 87.6131Z" fill="white" fill-opacity="0.8"/>
</g>
<g opacity="0.89">
<path d="M121.274 88.1906H155.099L172.094 58.7381L155.099 29.2031H121.274L104.279 58.7381L121.274 88.1906ZM154.769 87.6131H121.769L105.269 58.7381L121.769 29.8631H154.769L171.269 58.7381L154.769 87.6131Z" fill="#614CE1"/>
<path d="M121.274 88.1906H155.099L172.094 58.7381L155.099 29.2031H121.274L104.279 58.7381L121.274 88.1906ZM154.769 87.6131H121.769L105.269 58.7381L121.769 29.8631H154.769L171.269 58.7381L154.769 87.6131Z" fill="white" fill-opacity="0.8"/>
</g>
<g opacity="0.29">
<path d="M19.9636 88.1906H53.8711L70.3711 58.7381L53.8711 29.2031H19.9636L3.05109 58.7381L19.9636 88.1906ZM53.4586 87.6131H20.4586L3.9586 58.7381L20.4586 29.8631H53.4586L69.9586 58.7381L53.4586 87.6131Z" fill="#614CE1"/>
<path d="M19.9636 88.1906H53.8711L70.3711 58.7381L53.8711 29.2031H19.9636L3.05109 58.7381L19.9636 88.1906ZM53.4586 87.6131H20.4586L3.9586 58.7381L20.4586 29.8631H53.4586L69.9586 58.7381L53.4586 87.6131Z" fill="white" fill-opacity="0.8"/>
</g>
<g opacity="0.47">
<path d="M374.467 0H387.75V0.66H374.797L358.215 29.535L374.797 58.41H387.75V58.9875H374.467L357.472 29.535L374.467 0Z" fill="#614CE1"/>
<path d="M374.467 0H387.75V0.66H374.797L358.215 29.535L374.797 58.41H387.75V58.9875H374.467L357.472 29.535L374.467 0Z" fill="white" fill-opacity="0.8"/>
</g>
<g opacity="0.6">
<path d="M273.159 58.9875H307.066L323.566 29.535L307.066 0H273.159L256.659 29.535L273.159 58.9875ZM306.654 58.41H273.654L257.154 29.535L273.654 0.66H306.654L323.154 29.535L306.654 58.41Z" fill="#614CE1"/>
<path d="M273.159 58.9875H307.066L323.566 29.535L307.066 0H273.159L256.659 29.535L273.159 58.9875ZM306.654 58.41H273.654L257.154 29.535L273.654 0.66H306.654L323.154 29.535L306.654 58.41Z" fill="white" fill-opacity="0.8"/>
</g>
<g opacity="0.49">
<path d="M171.93 58.9875H205.755L222.75 29.535L206.25 0H172.425L155.43 29.535L171.93 58.9875ZM205.425 58.41H172.425L155.925 29.535L172.425 0.66H205.425L221.925 29.535L205.425 58.41Z" fill="#614CE1"/>
<path d="M171.93 58.9875H205.755L222.75 29.535L206.25 0H172.425L155.43 29.535L171.93 58.9875ZM205.425 58.41H172.425L155.925 29.535L172.425 0.66H205.425L221.925 29.535L205.425 58.41Z" fill="white" fill-opacity="0.8"/>
</g>
<g opacity="0.58">
<path d="M70.6199 58.9875H104.527L121.027 29.535L104.527 0H70.6199L53.7073 29.535L70.6199 58.9875ZM104.115 58.41H71.1148L54.6149 29.535L71.1148 0.66H104.115L120.615 29.535L104.115 58.41Z" fill="#614CE1"/>
<path d="M70.6199 58.9875H104.527L121.027 29.535L104.527 0H70.6199L53.7073 29.535L70.6199 58.9875ZM104.115 58.41H71.1148L54.6149 29.535L71.1148 0.66H104.115L120.615 29.535L104.115 58.41Z" fill="white" fill-opacity="0.8"/>
</g>
<g opacity="0.62">
<path d="M307.725 0L307.56 0.33L324.143 29.205H357.308L373.89 0.33L373.725 0H374.468L374.633 0.33L357.638 29.7825H323.813L306.9 0.33L307.065 0H307.725Z" fill="#614CE1"/>
<path d="M307.725 0L307.56 0.33L324.143 29.205H357.308L373.89 0.33L373.725 0H374.468L374.633 0.33L357.638 29.7825H323.813L306.9 0.33L307.065 0H307.725Z" fill="white" fill-opacity="0.8"/>
</g>
<g opacity="0.6">
<path d="M206.497 0L206.332 0.33L222.915 29.205H256.08L272.662 0.33L272.497 0H273.157L273.322 0.33L256.41 29.7825H222.502L205.59 0.33L205.755 0H206.497Z" fill="#614CE1"/>
<path d="M206.497 0L206.332 0.33L222.915 29.205H256.08L272.662 0.33L272.497 0H273.157L273.322 0.33L256.41 29.7825H222.502L205.59 0.33L205.755 0H206.497Z" fill="white" fill-opacity="0.8"/>
</g>
<g opacity="0.54">
<path d="M105.186 0L105.021 0.33L121.604 29.205H154.769L171.351 0.33L171.186 0H171.929L172.094 0.33L155.099 29.7825H121.274L104.361 0.33L104.444 0H105.186Z" fill="#614CE1"/>
<path d="M105.186 0L105.021 0.33L121.604 29.205H154.769L171.351 0.33L171.186 0H171.929L172.094 0.33L155.099 29.7825H121.274L104.361 0.33L104.444 0H105.186Z" fill="white" fill-opacity="0.8"/>
</g>
<g opacity="0.57">
<path d="M3.96013 0L3.79513 0.33L20.3776 29.205H53.4601L70.0427 0.33L69.8777 0H70.6202L70.7852 0.33L53.8726 29.7825H19.9651L3.05263 0.33L3.21763 0H3.96013Z" fill="#614CE1"/>
<path d="M3.96013 0L3.79513 0.33L20.3776 29.205H53.4601L70.0427 0.33L69.8777 0H70.6202L70.7852 0.33L53.8726 29.7825H19.9651L3.05263 0.33L3.21763 0H3.96013Z" fill="white" fill-opacity="0.8"/>
</g>
<g opacity="0.84">
<path d="M118.798 494.998C119.08 494.66 119.433 494.387 119.833 494.202C120.232 494.016 120.668 493.922 121.108 493.926C121.536 493.929 121.958 494.026 122.343 494.212C122.728 494.397 123.067 494.666 123.336 494.998H118.798Z" fill="#614CE1"/>
<path d="M118.798 494.998C119.08 494.66 119.433 494.387 119.833 494.202C120.232 494.016 120.668 493.922 121.108 493.926C121.536 493.929 121.958 494.026 122.343 494.212C122.728 494.397 123.067 494.666 123.336 494.998H118.798Z" fill="white" fill-opacity="0.8"/>
</g>
<g opacity="0.78">
<path d="M169.042 467.694C169.042 468.503 169.364 469.28 169.936 469.852C170.509 470.424 171.285 470.746 172.095 470.746C172.828 470.626 173.496 470.249 173.977 469.682C174.458 469.115 174.723 468.396 174.723 467.652C174.723 466.909 174.458 466.189 173.977 465.623C173.496 465.056 172.828 464.679 172.095 464.559C171.687 464.558 171.283 464.64 170.907 464.799C170.531 464.957 170.191 465.189 169.906 465.482C169.622 465.774 169.399 466.12 169.25 466.5C169.102 466.88 169.031 467.286 169.042 467.694Z" fill="#614CE1"/>
<path d="M169.042 467.694C169.042 468.503 169.364 469.28 169.936 469.852C170.509 470.424 171.285 470.746 172.095 470.746C172.828 470.626 173.496 470.249 173.977 469.682C174.458 469.115 174.723 468.396 174.723 467.652C174.723 466.909 174.458 466.189 173.977 465.623C173.496 465.056 172.828 464.679 172.095 464.559C171.687 464.558 171.283 464.64 170.907 464.799C170.531 464.957 170.191 465.189 169.906 465.482C169.622 465.774 169.399 466.12 169.25 466.5C169.102 466.88 169.031 467.286 169.042 467.694Z" fill="white" fill-opacity="0.8"/>
</g>
<g opacity="0.22">
<path d="M101.145 467.692C101.071 468.152 101.097 468.623 101.223 469.071C101.348 469.52 101.57 469.936 101.872 470.291C102.174 470.646 102.549 470.931 102.972 471.126C103.395 471.322 103.856 471.423 104.322 471.423C104.788 471.423 105.248 471.322 105.671 471.126C106.094 470.931 106.469 470.646 106.772 470.291C107.074 469.936 107.295 469.52 107.42 469.071C107.546 468.623 107.572 468.152 107.498 467.692C107.572 467.232 107.546 466.761 107.42 466.313C107.295 465.864 107.074 465.448 106.772 465.093C106.469 464.738 106.094 464.453 105.671 464.258C105.248 464.062 104.788 463.961 104.322 463.961C103.856 463.961 103.395 464.062 102.972 464.258C102.549 464.453 102.174 464.738 101.872 465.093C101.57 465.448 101.348 465.864 101.223 466.313C101.097 466.761 101.071 467.232 101.145 467.692Z" fill="#614CE1"/>
<path d="M101.145 467.692C101.071 468.152 101.097 468.623 101.223 469.071C101.348 469.52 101.57 469.936 101.872 470.291C102.174 470.646 102.549 470.931 102.972 471.126C103.395 471.322 103.856 471.423 104.322 471.423C104.788 471.423 105.248 471.322 105.671 471.126C106.094 470.931 106.469 470.646 106.772 470.291C107.074 469.936 107.295 469.52 107.42 469.071C107.546 468.623 107.572 468.152 107.498 467.692C107.572 467.232 107.546 466.761 107.42 466.313C107.295 465.864 107.074 465.448 106.772 465.093C106.469 464.738 106.094 464.453 105.671 464.258C105.248 464.062 104.788 463.961 104.322 463.961C103.856 463.961 103.395 464.062 102.972 464.258C102.549 464.453 102.174 464.738 101.872 465.093C101.57 465.448 101.348 465.864 101.223 466.313C101.097 466.761 101.071 467.232 101.145 467.692Z" fill="white" fill-opacity="0.8"/>
</g>
<g opacity="0.95">
<path d="M269.692 350.873C269.692 351.836 270.075 352.759 270.755 353.44C271.436 354.121 272.359 354.503 273.322 354.503C274.285 354.503 275.208 354.121 275.889 353.44C276.57 352.759 276.952 351.836 276.952 350.873C276.963 350.393 276.877 349.916 276.699 349.471C276.52 349.025 276.253 348.621 275.914 348.281C275.575 347.942 275.17 347.675 274.725 347.496C274.279 347.318 273.802 347.232 273.322 347.243C272.359 347.243 271.436 347.626 270.755 348.306C270.075 348.987 269.692 349.91 269.692 350.873Z" fill="#614CE1"/>
<path d="M269.692 350.873C269.692 351.836 270.075 352.759 270.755 353.44C271.436 354.121 272.359 354.503 273.322 354.503C274.285 354.503 275.208 354.121 275.889 353.44C276.57 352.759 276.952 351.836 276.952 350.873C276.963 350.393 276.877 349.916 276.699 349.471C276.52 349.025 276.253 348.621 275.914 348.281C275.575 347.942 275.17 347.675 274.725 347.496C274.279 347.318 273.802 347.232 273.322 347.243C272.359 347.243 271.436 347.626 270.755 348.306C270.075 348.987 269.692 349.91 269.692 350.873Z" fill="white" fill-opacity="0.8"/>
</g>
<g opacity="0.32">
<path d="M168.301 350.873C168.322 351.873 168.728 352.826 169.435 353.533C170.143 354.24 171.096 354.647 172.096 354.668C173.102 354.668 174.067 354.268 174.779 353.557C175.491 352.845 175.891 351.88 175.891 350.873C175.891 349.867 175.491 348.901 174.779 348.19C174.067 347.478 173.102 347.078 172.096 347.078C171.096 347.099 170.143 347.506 169.435 348.213C168.728 348.92 168.322 349.873 168.301 350.873Z" fill="#614CE1"/>
<path d="M168.301 350.873C168.322 351.873 168.728 352.826 169.435 353.533C170.143 354.24 171.096 354.647 172.096 354.668C173.102 354.668 174.067 354.268 174.779 353.557C175.491 352.845 175.891 351.88 175.891 350.873C175.891 349.867 175.491 348.901 174.779 348.19C174.067 347.478 173.102 347.078 172.096 347.078C171.096 347.099 170.143 347.506 169.435 348.213C168.728 348.92 168.322 349.873 168.301 350.873Z" fill="white" fill-opacity="0.8"/>
</g>
<g opacity="0.96">
<path d="M320.842 380.077C320.859 380.693 321.056 381.291 321.41 381.796C321.765 382.3 322.26 382.689 322.834 382.914C323.408 383.138 324.035 383.189 324.638 383.059C325.241 382.929 325.791 382.624 326.222 382.182C326.652 381.741 326.942 381.182 327.057 380.576C327.171 379.97 327.105 379.344 326.865 378.776C326.626 378.208 326.224 377.723 325.71 377.383C325.197 377.042 324.594 376.86 323.977 376.859C323.559 376.859 323.144 376.943 322.758 377.106C322.372 377.268 322.023 377.507 321.731 377.807C321.439 378.106 321.21 378.462 321.057 378.852C320.904 379.242 320.831 379.658 320.842 380.077Z" fill="#614CE1"/>
<path d="M320.842 380.077C320.859 380.693 321.056 381.291 321.41 381.796C321.765 382.3 322.26 382.689 322.834 382.914C323.408 383.138 324.035 383.189 324.638 383.059C325.241 382.929 325.791 382.624 326.222 382.182C326.652 381.741 326.942 381.182 327.057 380.576C327.171 379.97 327.105 379.344 326.865 378.776C326.626 378.208 326.224 377.723 325.71 377.383C325.197 377.042 324.594 376.86 323.977 376.859C323.559 376.859 323.144 376.943 322.758 377.106C322.372 377.268 322.023 377.507 321.731 377.807C321.439 378.106 321.21 378.462 321.057 378.852C320.904 379.242 320.831 379.658 320.842 380.077Z" fill="white" fill-opacity="0.8"/>
</g>
<g opacity="0.44">
<path d="M219.864 380.077C219.979 380.749 220.327 381.358 220.848 381.798C221.369 382.237 222.029 382.478 222.71 382.478C223.392 382.478 224.051 382.237 224.572 381.798C225.093 381.358 225.442 380.749 225.556 380.077C225.627 379.663 225.607 379.238 225.496 378.832C225.386 378.427 225.188 378.05 224.917 377.729C224.646 377.407 224.308 377.149 223.927 376.972C223.546 376.795 223.131 376.703 222.71 376.703C222.29 376.703 221.875 376.795 221.493 376.972C221.112 377.149 220.774 377.407 220.503 377.729C220.232 378.05 220.034 378.427 219.924 378.832C219.814 379.238 219.793 379.663 219.864 380.077Z" fill="#614CE1"/>
<path d="M219.864 380.077C219.979 380.749 220.327 381.358 220.848 381.798C221.369 382.237 222.029 382.478 222.71 382.478C223.392 382.478 224.051 382.237 224.572 381.798C225.093 381.358 225.442 380.749 225.556 380.077C225.627 379.663 225.607 379.238 225.496 378.832C225.386 378.427 225.188 378.05 224.917 377.729C224.646 377.407 224.308 377.149 223.927 376.972C223.546 376.795 223.131 376.703 222.71 376.703C222.29 376.703 221.875 376.795 221.493 376.972C221.112 377.149 220.774 377.407 220.503 377.729C220.232 378.05 220.034 378.427 219.924 378.832C219.814 379.238 219.793 379.663 219.864 380.077Z" fill="white" fill-opacity="0.8"/>
</g>
<g opacity="0.6">
<path d="M253.356 380.079C253.377 380.83 253.691 381.544 254.23 382.068C254.769 382.591 255.492 382.884 256.243 382.884C256.915 382.769 257.525 382.42 257.964 381.9C258.403 381.379 258.645 380.719 258.645 380.038C258.645 379.356 258.403 378.697 257.964 378.176C257.525 377.655 256.915 377.306 256.243 377.191C255.478 377.191 254.743 377.496 254.202 378.037C253.66 378.579 253.356 379.313 253.356 380.079Z" fill="#614CE1"/>
<path d="M253.356 380.079C253.377 380.83 253.691 381.544 254.23 382.068C254.769 382.591 255.492 382.884 256.243 382.884C256.915 382.769 257.525 382.42 257.964 381.9C258.403 381.379 258.645 380.719 258.645 380.038C258.645 379.356 258.403 378.697 257.964 378.176C257.525 377.655 256.915 377.306 256.243 377.191C255.478 377.191 254.743 377.496 254.202 378.037C253.66 378.579 253.356 379.313 253.356 380.079Z" fill="white" fill-opacity="0.8"/>
</g>
<g opacity="0.58">
<path d="M50.9839 321.75C50.9837 322.104 51.0546 322.454 51.1924 322.78C51.3302 323.105 51.5321 323.4 51.786 323.646C52.04 323.893 52.3408 324.085 52.6707 324.213C53.0006 324.341 53.3528 324.401 53.7063 324.39C54.4065 324.39 55.078 324.112 55.5731 323.617C56.0682 323.122 56.3464 322.45 56.3464 321.75C56.3574 321.396 56.2973 321.044 56.1696 320.714C56.0418 320.384 55.8491 320.083 55.6029 319.83C55.3566 319.576 55.0619 319.374 54.7361 319.236C54.4103 319.098 54.0601 319.027 53.7063 319.027C52.9843 319.027 52.2918 319.314 51.7812 319.825C51.2707 320.335 50.9839 321.028 50.9839 321.75Z" fill="#614CE1"/>
<path d="M50.9839 321.75C50.9837 322.104 51.0546 322.454 51.1924 322.78C51.3302 323.105 51.5321 323.4 51.786 323.646C52.04 323.893 52.3408 324.085 52.6707 324.213C53.0006 324.341 53.3528 324.401 53.7063 324.39C54.4065 324.39 55.078 324.112 55.5731 323.617C56.0682 323.122 56.3464 322.45 56.3464 321.75C56.3574 321.396 56.2973 321.044 56.1696 320.714C56.0418 320.384 55.8491 320.083 55.6029 319.83C55.3566 319.576 55.0619 319.374 54.7361 319.236C54.4103 319.098 54.0601 319.027 53.7063 319.027C52.9843 319.027 52.2918 319.314 51.7812 319.825C51.2707 320.335 50.9839 321.028 50.9839 321.75Z" fill="white" fill-opacity="0.8"/>
</g>
<g opacity="0.64">
<path d="M270.682 292.465C270.682 293.165 270.961 293.836 271.456 294.331C271.951 294.827 272.622 295.105 273.322 295.105C273.676 295.116 274.028 295.056 274.358 294.928C274.688 294.8 274.989 294.608 275.243 294.361C275.497 294.115 275.699 293.82 275.836 293.494C275.974 293.169 276.045 292.818 276.045 292.465C276.045 291.743 275.758 291.05 275.248 290.54C274.737 290.029 274.044 289.742 273.322 289.742C272.969 289.742 272.619 289.813 272.293 289.951C271.967 290.089 271.672 290.29 271.426 290.544C271.18 290.798 270.987 291.099 270.859 291.429C270.731 291.759 270.671 292.111 270.682 292.465Z" fill="#614CE1"/>
<path d="M270.682 292.465C270.682 293.165 270.961 293.836 271.456 294.331C271.951 294.827 272.622 295.105 273.322 295.105C273.676 295.116 274.028 295.056 274.358 294.928C274.688 294.8 274.989 294.608 275.243 294.361C275.497 294.115 275.699 293.82 275.836 293.494C275.974 293.169 276.045 292.818 276.045 292.465C276.045 291.743 275.758 291.05 275.248 290.54C274.737 290.029 274.044 289.742 273.322 289.742C272.969 289.742 272.619 289.813 272.293 289.951C271.967 290.089 271.672 290.29 271.426 290.544C271.18 290.798 270.987 291.099 270.859 291.429C270.731 291.759 270.671 292.111 270.682 292.465Z" fill="white" fill-opacity="0.8"/>
</g>
<g opacity="0.99">
<path d="M168.382 350.788C168.302 351.316 168.338 351.855 168.486 352.368C168.634 352.882 168.891 353.357 169.24 353.762C169.588 354.167 170.02 354.492 170.505 354.714C170.991 354.937 171.519 355.052 172.053 355.052C172.587 355.052 173.115 354.937 173.601 354.714C174.086 354.492 174.518 354.167 174.867 353.762C175.215 353.357 175.472 352.882 175.62 352.368C175.768 351.855 175.804 351.316 175.724 350.788C175.804 350.26 175.768 349.72 175.62 349.207C175.472 348.694 175.215 348.219 174.867 347.814C174.518 347.409 174.086 347.084 173.601 346.861C173.115 346.639 172.587 346.523 172.053 346.523C171.519 346.523 170.991 346.639 170.505 346.861C170.02 347.084 169.588 347.409 169.24 347.814C168.891 348.219 168.634 348.694 168.486 349.207C168.338 349.72 168.302 350.26 168.382 350.788Z" fill="#614CE1"/>
<path d="M168.382 350.788C168.302 351.316 168.338 351.855 168.486 352.368C168.634 352.882 168.891 353.357 169.24 353.762C169.588 354.167 170.02 354.492 170.505 354.714C170.991 354.937 171.519 355.052 172.053 355.052C172.587 355.052 173.115 354.937 173.601 354.714C174.086 354.492 174.518 354.167 174.867 353.762C175.215 353.357 175.472 352.882 175.62 352.368C175.768 351.855 175.804 351.316 175.724 350.788C175.804 350.26 175.768 349.72 175.62 349.207C175.472 348.694 175.215 348.219 174.867 347.814C174.518 347.409 174.086 347.084 173.601 346.861C173.115 346.639 172.587 346.523 172.053 346.523C171.519 346.523 170.991 346.639 170.505 346.861C170.02 347.084 169.588 347.409 169.24 347.814C168.891 348.219 168.634 348.694 168.486 349.207C168.338 349.72 168.302 350.26 168.382 350.788Z" fill="white" fill-opacity="0.8"/>
</g>
<g opacity="0.22">
<path d="M151.965 321.751C151.965 322.42 152.164 323.074 152.536 323.63C152.907 324.186 153.435 324.62 154.054 324.876C154.672 325.132 155.352 325.199 156.008 325.068C156.664 324.938 157.267 324.616 157.74 324.143C158.213 323.669 158.535 323.067 158.665 322.411C158.796 321.754 158.729 321.074 158.473 320.456C158.217 319.838 157.783 319.31 157.227 318.938C156.671 318.567 156.017 318.368 155.348 318.368C154.901 318.357 154.456 318.437 154.04 318.603C153.625 318.769 153.247 319.017 152.931 319.334C152.615 319.65 152.366 320.028 152.2 320.443C152.034 320.859 151.954 321.303 151.965 321.751Z" fill="#614CE1"/>
<path d="M151.965 321.751C151.965 322.42 152.164 323.074 152.536 323.63C152.907 324.186 153.435 324.62 154.054 324.876C154.672 325.132 155.352 325.199 156.008 325.068C156.664 324.938 157.267 324.616 157.74 324.143C158.213 323.669 158.535 323.067 158.665 322.411C158.796 321.754 158.729 321.074 158.473 320.456C158.217 319.838 157.783 319.31 157.227 318.938C156.671 318.567 156.017 318.368 155.348 318.368C154.901 318.357 154.456 318.437 154.04 318.603C153.625 318.769 153.247 319.017 152.931 319.334C152.615 319.65 152.366 320.028 152.2 320.443C152.034 320.859 151.954 321.303 151.965 321.751Z" fill="white" fill-opacity="0.8"/>
</g>
<g opacity="0.49">
<path d="M168.96 292.463C168.96 293.083 169.144 293.689 169.489 294.205C169.833 294.72 170.323 295.122 170.896 295.359C171.469 295.597 172.099 295.659 172.707 295.538C173.315 295.417 173.874 295.118 174.312 294.68C174.751 294.241 175.049 293.683 175.17 293.075C175.291 292.467 175.229 291.836 174.992 291.263C174.755 290.691 174.353 290.201 173.837 289.856C173.322 289.512 172.716 289.328 172.095 289.328C171.264 289.328 170.467 289.658 169.879 290.246C169.291 290.834 168.96 291.632 168.96 292.463Z" fill="#614CE1"/>
<path d="M168.96 292.463C168.96 293.083 169.144 293.689 169.489 294.205C169.833 294.72 170.323 295.122 170.896 295.359C171.469 295.597 172.099 295.659 172.707 295.538C173.315 295.417 173.874 295.118 174.312 294.68C174.751 294.241 175.049 293.683 175.17 293.075C175.291 292.467 175.229 291.836 174.992 291.263C174.755 290.691 174.353 290.201 173.837 289.856C173.322 289.512 172.716 289.328 172.095 289.328C171.264 289.328 170.467 289.658 169.879 290.246C169.291 290.834 168.96 291.632 168.96 292.463Z" fill="white" fill-opacity="0.8"/>
</g>
<g opacity="0.99">
<path d="M202.457 350.791C202.457 351.411 202.64 352.017 202.985 352.533C203.329 353.049 203.819 353.45 204.392 353.688C204.965 353.925 205.595 353.987 206.203 353.866C206.811 353.745 207.37 353.446 207.808 353.008C208.247 352.57 208.545 352.011 208.666 351.403C208.787 350.795 208.725 350.164 208.488 349.592C208.251 349.019 207.849 348.529 207.333 348.185C206.818 347.84 206.212 347.656 205.592 347.656C204.76 347.656 203.963 347.987 203.375 348.574C202.787 349.162 202.457 349.96 202.457 350.791Z" fill="#614CE1"/>
<path d="M202.457 350.791C202.457 351.411 202.64 352.017 202.985 352.533C203.329 353.049 203.819 353.45 204.392 353.688C204.965 353.925 205.595 353.987 206.203 353.866C206.811 353.745 207.37 353.446 207.808 353.008C208.247 352.57 208.545 352.011 208.666 351.403C208.787 350.795 208.725 350.164 208.488 349.592C208.251 349.019 207.849 348.529 207.333 348.185C206.818 347.84 206.212 347.656 205.592 347.656C204.76 347.656 203.963 347.987 203.375 348.574C202.787 349.162 202.457 349.96 202.457 350.791Z" fill="white" fill-opacity="0.8"/>
</g>
<g opacity="0.45">
<path d="M203.279 292.38C203.268 292.734 203.328 293.086 203.455 293.416C203.583 293.746 203.776 294.047 204.022 294.301C204.268 294.555 204.563 294.757 204.889 294.894C205.215 295.032 205.565 295.103 205.919 295.103C206.31 295.172 206.712 295.154 207.096 295.051C207.48 294.948 207.837 294.763 208.141 294.507C208.445 294.252 208.69 293.932 208.858 293.572C209.026 293.212 209.113 292.819 209.113 292.422C209.113 292.024 209.026 291.632 208.858 291.271C208.69 290.911 208.445 290.592 208.141 290.336C207.837 290.081 207.48 289.895 207.096 289.792C206.712 289.689 206.31 289.672 205.919 289.74C205.218 289.74 204.547 290.019 204.052 290.514C203.557 291.009 203.279 291.68 203.279 292.38Z" fill="#614CE1"/>
<path d="M203.279 292.38C203.268 292.734 203.328 293.086 203.455 293.416C203.583 293.746 203.776 294.047 204.022 294.301C204.268 294.555 204.563 294.757 204.889 294.894C205.215 295.032 205.565 295.103 205.919 295.103C206.31 295.172 206.712 295.154 207.096 295.051C207.48 294.948 207.837 294.763 208.141 294.507C208.445 294.252 208.69 293.932 208.858 293.572C209.026 293.212 209.113 292.819 209.113 292.422C209.113 292.024 209.026 291.632 208.858 291.271C208.69 290.911 208.445 290.592 208.141 290.336C207.837 290.081 207.48 289.895 207.096 289.792C206.712 289.689 206.31 289.672 205.919 289.74C205.218 289.74 204.547 290.019 204.052 290.514C203.557 291.009 203.279 291.68 203.279 292.38Z" fill="white" fill-opacity="0.8"/>
</g>
<g opacity="0.22">
<path d="M151.717 263.257C151.738 264.104 152.084 264.91 152.683 265.509C153.282 266.108 154.088 266.454 154.935 266.475C155.71 266.351 156.416 265.955 156.925 265.357C157.435 264.76 157.715 264.001 157.715 263.216C157.715 262.431 157.435 261.671 156.925 261.074C156.416 260.477 155.71 260.081 154.935 259.957C154.074 259.979 153.256 260.336 152.655 260.952C152.054 261.569 151.717 262.396 151.717 263.257Z" fill="#614CE1"/>
<path d="M151.717 263.257C151.738 264.104 152.084 264.91 152.683 265.509C153.282 266.108 154.088 266.454 154.935 266.475C155.71 266.351 156.416 265.955 156.925 265.357C157.435 264.76 157.715 264.001 157.715 263.216C157.715 262.431 157.435 261.671 156.925 261.074C156.416 260.477 155.71 260.081 154.935 259.957C154.074 259.979 153.256 260.336 152.655 260.952C152.054 261.569 151.717 262.396 151.717 263.257Z" fill="white" fill-opacity="0.8"/>
</g>
<g opacity="0.3">
<path d="M269.856 234.052C269.985 234.889 270.41 235.653 271.053 236.205C271.696 236.757 272.515 237.06 273.363 237.06C274.21 237.06 275.029 236.757 275.673 236.205C276.316 235.653 276.74 234.889 276.869 234.052C276.947 233.546 276.914 233.03 276.774 232.538C276.633 232.046 276.388 231.591 276.055 231.202C275.722 230.814 275.309 230.503 274.844 230.289C274.38 230.075 273.874 229.965 273.363 229.965C272.851 229.965 272.346 230.075 271.881 230.289C271.416 230.503 271.003 230.814 270.67 231.202C270.337 231.591 270.092 232.046 269.952 232.538C269.811 233.03 269.779 233.546 269.856 234.052Z" fill="#614CE1"/>
<path d="M269.856 234.052C269.985 234.889 270.41 235.653 271.053 236.205C271.696 236.757 272.515 237.06 273.363 237.06C274.21 237.06 275.029 236.757 275.673 236.205C276.316 235.653 276.74 234.889 276.869 234.052C276.947 233.546 276.914 233.03 276.774 232.538C276.633 232.046 276.388 231.591 276.055 231.202C275.722 230.814 275.309 230.503 274.844 230.289C274.38 230.075 273.874 229.965 273.363 229.965C272.851 229.965 272.346 230.075 271.881 230.289C271.416 230.503 271.003 230.814 270.67 231.202C270.337 231.591 270.092 232.046 269.952 232.538C269.811 233.03 269.779 233.546 269.856 234.052Z" fill="white" fill-opacity="0.8"/>
</g>
<g opacity="0.65">
<path d="M168.878 292.38C168.803 292.84 168.83 293.31 168.955 293.759C169.081 294.208 169.302 294.624 169.604 294.979C169.906 295.334 170.282 295.619 170.705 295.814C171.128 296.01 171.588 296.111 172.054 296.111C172.52 296.111 172.98 296.01 173.403 295.814C173.826 295.619 174.202 295.334 174.504 294.979C174.806 294.624 175.027 294.208 175.153 293.759C175.278 293.31 175.305 292.84 175.23 292.38C175.108 291.625 174.722 290.939 174.14 290.443C173.558 289.948 172.818 289.676 172.054 289.676C171.29 289.676 170.55 289.948 169.968 290.443C169.386 290.939 169 291.625 168.878 292.38Z" fill="#614CE1"/>
<path d="M168.878 292.38C168.803 292.84 168.83 293.31 168.955 293.759C169.081 294.208 169.302 294.624 169.604 294.979C169.906 295.334 170.282 295.619 170.705 295.814C171.128 296.01 171.588 296.111 172.054 296.111C172.52 296.111 172.98 296.01 173.403 295.814C173.826 295.619 174.202 295.334 174.504 294.979C174.806 294.624 175.027 294.208 175.153 293.759C175.278 293.31 175.305 292.84 175.23 292.38C175.108 291.625 174.722 290.939 174.14 290.443C173.558 289.948 172.818 289.676 172.054 289.676C171.29 289.676 170.55 289.948 169.968 290.443C169.386 290.939 169 291.625 168.878 292.38Z" fill="white" fill-opacity="0.8"/>
</g>
<g opacity="0.36">
<path d="M219.119 263.175C219.119 264.028 219.458 264.846 220.061 265.45C220.664 266.053 221.483 266.392 222.336 266.392C222.762 266.403 223.185 266.328 223.581 266.17C223.976 266.013 224.335 265.776 224.636 265.475C224.938 265.174 225.174 264.815 225.332 264.419C225.489 264.024 225.565 263.6 225.554 263.175C225.554 262.321 225.215 261.503 224.611 260.899C224.008 260.296 223.189 259.957 222.336 259.957C221.489 259.978 220.683 260.324 220.084 260.923C219.485 261.521 219.139 262.328 219.119 263.175Z" fill="#614CE1"/>
<path d="M219.119 263.175C219.119 264.028 219.458 264.846 220.061 265.45C220.664 266.053 221.483 266.392 222.336 266.392C222.762 266.403 223.185 266.328 223.581 266.17C223.976 266.013 224.335 265.776 224.636 265.475C224.938 265.174 225.174 264.815 225.332 264.419C225.489 264.024 225.565 263.6 225.554 263.175C225.554 262.321 225.215 261.503 224.611 260.899C224.008 260.296 223.189 259.957 222.336 259.957C221.489 259.978 220.683 260.324 220.084 260.923C219.485 261.521 219.139 262.328 219.119 263.175Z" fill="white" fill-opacity="0.8"/>
</g>
<g opacity="0.68">
<path d="M219.697 204.764C219.681 205.375 219.848 205.976 220.177 206.49C220.506 207.005 220.982 207.409 221.543 207.65C222.104 207.891 222.724 207.958 223.324 207.843C223.924 207.728 224.475 207.436 224.907 207.004C225.339 206.572 225.631 206.021 225.746 205.421C225.861 204.821 225.794 204.201 225.553 203.64C225.311 203.079 224.907 202.603 224.393 202.274C223.879 201.945 223.277 201.778 222.667 201.794C221.879 201.794 221.124 202.107 220.567 202.664C220.01 203.221 219.697 203.976 219.697 204.764Z" fill="#614CE1"/>
<path d="M219.697 204.764C219.681 205.375 219.848 205.976 220.177 206.49C220.506 207.005 220.982 207.409 221.543 207.65C222.104 207.891 222.724 207.958 223.324 207.843C223.924 207.728 224.475 207.436 224.907 207.004C225.339 206.572 225.631 206.021 225.746 205.421C225.861 204.821 225.794 204.201 225.553 203.64C225.311 203.079 224.907 202.603 224.393 202.274C223.879 201.945 223.277 201.778 222.667 201.794C221.879 201.794 221.124 202.107 220.567 202.664C220.01 203.221 219.697 203.976 219.697 204.764Z" fill="white" fill-opacity="0.8"/>
</g>
<g opacity="0.74">
<path d="M101.311 233.972C101.235 234.454 101.265 234.948 101.398 235.418C101.531 235.889 101.764 236.324 102.081 236.696C102.399 237.068 102.793 237.366 103.237 237.57C103.681 237.775 104.164 237.881 104.653 237.881C105.141 237.881 105.624 237.775 106.068 237.57C106.512 237.366 106.906 237.068 107.224 236.696C107.541 236.324 107.775 235.889 107.908 235.418C108.041 234.948 108.07 234.454 107.994 233.972C108.07 233.489 108.041 232.995 107.908 232.525C107.775 232.055 107.541 231.619 107.224 231.247C106.906 230.876 106.512 230.577 106.068 230.373C105.624 230.168 105.141 230.062 104.653 230.062C104.164 230.062 103.681 230.168 103.237 230.373C102.793 230.577 102.399 230.876 102.081 231.247C101.764 231.619 101.531 232.055 101.398 232.525C101.265 232.995 101.235 233.489 101.311 233.972Z" fill="#614CE1"/>
<path d="M101.311 233.972C101.235 234.454 101.265 234.948 101.398 235.418C101.531 235.889 101.764 236.324 102.081 236.696C102.399 237.068 102.793 237.366 103.237 237.57C103.681 237.775 104.164 237.881 104.653 237.881C105.141 237.881 105.624 237.775 106.068 237.57C106.512 237.366 106.906 237.068 107.224 236.696C107.541 236.324 107.775 235.889 107.908 235.418C108.041 234.948 108.07 234.454 107.994 233.972C108.07 233.489 108.041 232.995 107.908 232.525C107.775 232.055 107.541 231.619 107.224 231.247C106.906 230.876 106.512 230.577 106.068 230.373C105.624 230.168 105.141 230.062 104.653 230.062C104.164 230.062 103.681 230.168 103.237 230.373C102.793 230.577 102.399 230.876 102.081 231.247C101.764 231.619 101.531 232.055 101.398 232.525C101.265 232.995 101.235 233.489 101.311 233.972Z" fill="white" fill-opacity="0.8"/>
</g>
<g opacity="0.4">
<path d="M49.4989 263.174C49.4989 263.941 49.7263 264.691 50.1524 265.329C50.5784 265.966 51.184 266.463 51.8925 266.757C52.6011 267.05 53.3807 267.127 54.1329 266.977C54.885 266.828 55.5759 266.458 56.1182 265.916C56.6605 265.374 57.0298 264.683 57.1794 263.931C57.329 263.179 57.2522 262.399 56.9588 261.691C56.6653 260.982 56.1683 260.376 55.5306 259.95C54.893 259.524 54.1433 259.297 53.3764 259.297C52.348 259.297 51.3618 259.705 50.6346 260.433C49.9074 261.16 49.4989 262.146 49.4989 263.174Z" fill="#614CE1"/>
<path d="M49.4989 263.174C49.4989 263.941 49.7263 264.691 50.1524 265.329C50.5784 265.966 51.184 266.463 51.8925 266.757C52.6011 267.05 53.3807 267.127 54.1329 266.977C54.885 266.828 55.5759 266.458 56.1182 265.916C56.6605 265.374 57.0298 264.683 57.1794 263.931C57.329 263.179 57.2522 262.399 56.9588 261.691C56.6653 260.982 56.1683 260.376 55.5306 259.95C54.893 259.524 54.1433 259.297 53.3764 259.297C52.348 259.297 51.3618 259.705 50.6346 260.433C49.9074 261.16 49.4989 262.146 49.4989 263.174Z" fill="white" fill-opacity="0.8"/>
</g>
<g opacity="0.49">
<path d="M270.105 233.971C270.105 234.825 270.444 235.643 271.047 236.247C271.651 236.85 272.469 237.189 273.322 237.189C273.748 237.2 274.171 237.125 274.567 236.967C274.962 236.809 275.322 236.573 275.623 236.272C275.924 235.971 276.16 235.612 276.318 235.216C276.476 234.821 276.551 234.397 276.54 233.971C276.54 233.549 276.457 233.131 276.295 232.74C276.133 232.35 275.896 231.995 275.598 231.696C275.299 231.398 274.944 231.161 274.554 230.999C274.163 230.837 273.745 230.754 273.322 230.754C272.476 230.775 271.669 231.121 271.07 231.719C270.472 232.318 270.126 233.125 270.105 233.971Z" fill="#614CE1"/>
<path d="M270.105 233.971C270.105 234.825 270.444 235.643 271.047 236.247C271.651 236.85 272.469 237.189 273.322 237.189C273.748 237.2 274.171 237.125 274.567 236.967C274.962 236.809 275.322 236.573 275.623 236.272C275.924 235.971 276.16 235.612 276.318 235.216C276.476 234.821 276.551 234.397 276.54 233.971C276.54 233.549 276.457 233.131 276.295 232.74C276.133 232.35 275.896 231.995 275.598 231.696C275.299 231.398 274.944 231.161 274.554 230.999C274.163 230.837 273.745 230.754 273.322 230.754C272.476 230.775 271.669 231.121 271.07 231.719C270.472 232.318 270.126 233.125 270.105 233.971Z" fill="white" fill-opacity="0.8"/>
</g>
<g opacity="0.94">
<path d="M101.475 233.971C101.475 234.545 101.647 235.107 101.968 235.583C102.289 236.06 102.745 236.429 103.277 236.645C103.81 236.861 104.395 236.913 104.957 236.795C105.519 236.677 106.033 236.394 106.434 235.981C106.834 235.569 107.102 235.047 107.204 234.482C107.306 233.916 107.237 233.333 107.006 232.807C106.775 232.281 106.392 231.836 105.906 231.529C105.42 231.222 104.854 231.067 104.28 231.083C103.529 231.105 102.815 231.418 102.291 231.958C101.768 232.497 101.475 233.219 101.475 233.971Z" fill="#614CE1"/>
<path d="M101.475 233.971C101.475 234.545 101.647 235.107 101.968 235.583C102.289 236.06 102.745 236.429 103.277 236.645C103.81 236.861 104.395 236.913 104.957 236.795C105.519 236.677 106.033 236.394 106.434 235.981C106.834 235.569 107.102 235.047 107.204 234.482C107.306 233.916 107.237 233.333 107.006 232.807C106.775 232.281 106.392 231.836 105.906 231.529C105.42 231.222 104.854 231.067 104.28 231.083C103.529 231.105 102.815 231.418 102.291 231.958C101.768 232.497 101.475 233.219 101.475 233.971Z" fill="white" fill-opacity="0.8"/>
</g>
<g opacity="0.43">
<path d="M16.5001 204.765C16.4891 205.194 16.5641 205.622 16.7209 206.021C16.8777 206.421 17.1129 206.786 17.4128 207.093C17.7126 207.401 18.0711 207.645 18.4669 207.812C18.8628 207.979 19.288 208.065 19.7176 208.065C20.5928 208.065 21.4322 207.717 22.051 207.098C22.6699 206.479 23.0176 205.64 23.0176 204.765C23.0176 203.89 22.6699 203.05 22.051 202.431C21.4322 201.813 20.5928 201.465 19.7176 201.465C19.288 201.465 18.8628 201.551 18.4669 201.717C18.0711 201.884 17.7126 202.129 17.4128 202.436C17.1129 202.744 16.8777 203.108 16.7209 203.508C16.5641 203.908 16.4891 204.335 16.5001 204.765Z" fill="#614CE1"/>
<path d="M16.5001 204.765C16.4891 205.194 16.5641 205.622 16.7209 206.021C16.8777 206.421 17.1129 206.786 17.4128 207.093C17.7126 207.401 18.0711 207.645 18.4669 207.812C18.8628 207.979 19.288 208.065 19.7176 208.065C20.5928 208.065 21.4322 207.717 22.051 207.098C22.6699 206.479 23.0176 205.64 23.0176 204.765C23.0176 203.89 22.6699 203.05 22.051 202.431C21.4322 201.813 20.5928 201.465 19.7176 201.465C19.288 201.465 18.8628 201.551 18.4669 201.717C18.0711 201.884 17.7126 202.129 17.4128 202.436C17.1129 202.744 16.8777 203.108 16.7209 203.508C16.5641 203.908 16.4891 204.335 16.5001 204.765Z" fill="white" fill-opacity="0.8"/>
</g>
<g opacity="0.51">
<path d="M354.254 146.354C354.179 146.825 354.206 147.308 354.336 147.767C354.465 148.227 354.692 148.653 355.002 149.016C355.312 149.379 355.697 149.671 356.13 149.871C356.563 150.071 357.035 150.174 357.513 150.174C357.99 150.174 358.462 150.071 358.895 149.871C359.328 149.671 359.713 149.379 360.023 149.016C360.333 148.653 360.56 148.227 360.689 147.767C360.819 147.308 360.846 146.825 360.771 146.354C360.648 145.579 360.251 144.873 359.654 144.364C359.057 143.854 358.298 143.574 357.513 143.574C356.727 143.574 355.968 143.854 355.371 144.364C354.774 144.873 354.377 145.579 354.254 146.354Z" fill="#614CE1"/>
<path d="M354.254 146.354C354.179 146.825 354.206 147.308 354.336 147.767C354.465 148.227 354.692 148.653 355.002 149.016C355.312 149.379 355.697 149.671 356.13 149.871C356.563 150.071 357.035 150.174 357.513 150.174C357.99 150.174 358.462 150.071 358.895 149.871C359.328 149.671 359.713 149.379 360.023 149.016C360.333 148.653 360.56 148.227 360.689 147.767C360.819 147.308 360.846 146.825 360.771 146.354C360.648 145.579 360.251 144.873 359.654 144.364C359.057 143.854 358.298 143.574 357.513 143.574C356.727 143.574 355.968 143.854 355.371 144.364C354.774 144.873 354.377 145.579 354.254 146.354Z" fill="white" fill-opacity="0.8"/>
</g>
<g opacity="0.67">
<path d="M219.119 146.357C219.119 147.075 219.332 147.776 219.731 148.373C220.13 148.97 220.696 149.436 221.36 149.71C222.023 149.985 222.753 150.057 223.457 149.917C224.161 149.777 224.808 149.431 225.316 148.923C225.823 148.416 226.169 147.769 226.309 147.065C226.449 146.361 226.377 145.631 226.103 144.967C225.828 144.304 225.363 143.737 224.766 143.338C224.169 142.939 223.467 142.727 222.749 142.727C221.786 142.727 220.863 143.109 220.182 143.79C219.501 144.471 219.119 145.394 219.119 146.357Z" fill="#614CE1"/>
<path d="M219.119 146.357C219.119 147.075 219.332 147.776 219.731 148.373C220.13 148.97 220.696 149.436 221.36 149.71C222.023 149.985 222.753 150.057 223.457 149.917C224.161 149.777 224.808 149.431 225.316 148.923C225.823 148.416 226.169 147.769 226.309 147.065C226.449 146.361 226.377 145.631 226.103 144.967C225.828 144.304 225.363 143.737 224.766 143.338C224.169 142.939 223.467 142.727 222.749 142.727C221.786 142.727 220.863 143.109 220.182 143.79C219.501 144.471 219.119 145.394 219.119 146.357Z" fill="white" fill-opacity="0.8"/>
</g>
<g opacity="0.57">
<path d="M119.048 204.764C119.065 205.233 119.219 205.688 119.491 206.07C119.764 206.452 120.143 206.746 120.581 206.915C121.019 207.083 121.498 207.119 121.956 207.018C122.415 206.916 122.833 206.682 123.16 206.344C123.486 206.007 123.706 205.581 123.792 205.119C123.878 204.657 123.826 204.18 123.642 203.748C123.459 203.316 123.153 202.947 122.761 202.687C122.37 202.428 121.911 202.289 121.441 202.289C120.799 202.31 120.19 202.581 119.744 203.043C119.298 203.504 119.048 204.122 119.048 204.764Z" fill="#614CE1"/>
<path d="M119.048 204.764C119.065 205.233 119.219 205.688 119.491 206.07C119.764 206.452 120.143 206.746 120.581 206.915C121.019 207.083 121.498 207.119 121.956 207.018C122.415 206.916 122.833 206.682 123.16 206.344C123.486 206.007 123.706 205.581 123.792 205.119C123.878 204.657 123.826 204.18 123.642 203.748C123.459 203.316 123.153 202.947 122.761 202.687C122.37 202.428 121.911 202.289 121.441 202.289C120.799 202.31 120.19 202.581 119.744 203.043C119.298 203.504 119.048 204.122 119.048 204.764Z" fill="white" fill-opacity="0.8"/>
</g>
<g opacity="0.55">
<path d="M219.697 146.355C219.697 146.877 219.851 147.387 220.141 147.822C220.432 148.256 220.844 148.594 221.326 148.794C221.809 148.994 222.339 149.046 222.852 148.944C223.364 148.842 223.834 148.591 224.203 148.222C224.573 147.852 224.824 147.382 224.926 146.87C225.028 146.358 224.975 145.827 224.776 145.345C224.576 144.862 224.237 144.45 223.803 144.16C223.369 143.87 222.859 143.715 222.337 143.715C221.636 143.715 220.965 143.993 220.47 144.488C219.975 144.983 219.697 145.655 219.697 146.355Z" fill="#614CE1"/>
<path d="M219.697 146.355C219.697 146.877 219.851 147.387 220.141 147.822C220.432 148.256 220.844 148.594 221.326 148.794C221.809 148.994 222.339 149.046 222.852 148.944C223.364 148.842 223.834 148.591 224.203 148.222C224.573 147.852 224.824 147.382 224.926 146.87C225.028 146.358 224.975 145.827 224.776 145.345C224.576 144.862 224.237 144.45 223.803 144.16C223.369 143.87 222.859 143.715 222.337 143.715C221.636 143.715 220.965 143.993 220.47 144.488C219.975 144.983 219.697 145.655 219.697 146.355Z" fill="white" fill-opacity="0.8"/>
</g>
<g opacity="0.4">
<path d="M202.457 175.561C202.457 176.392 202.787 177.19 203.375 177.778C203.963 178.365 204.76 178.696 205.592 178.696C206.423 178.696 207.22 178.365 207.808 177.778C208.396 177.19 208.727 176.392 208.727 175.561C208.727 174.729 208.396 173.932 207.808 173.344C207.22 172.756 206.423 172.426 205.592 172.426C204.76 172.426 203.963 172.756 203.375 173.344C202.787 173.932 202.457 174.729 202.457 175.561Z" fill="#614CE1"/>
<path d="M202.457 175.561C202.457 176.392 202.787 177.19 203.375 177.778C203.963 178.365 204.76 178.696 205.592 178.696C206.423 178.696 207.22 178.365 207.808 177.778C208.396 177.19 208.727 176.392 208.727 175.561C208.727 174.729 208.396 173.932 207.808 173.344C207.22 172.756 206.423 172.426 205.592 172.426C204.76 172.426 203.963 172.756 203.375 173.344C202.787 173.932 202.457 174.729 202.457 175.561Z" fill="white" fill-opacity="0.8"/>
</g>
<g opacity="0.48">
<path d="M320.594 146.355C320.594 147.024 320.793 147.678 321.164 148.234C321.536 148.791 322.064 149.224 322.682 149.48C323.301 149.736 323.981 149.803 324.637 149.673C325.293 149.542 325.896 149.22 326.369 148.747C326.842 148.274 327.164 147.671 327.294 147.015C327.425 146.359 327.358 145.679 327.102 145.061C326.846 144.443 326.412 143.914 325.856 143.543C325.3 143.171 324.646 142.973 323.977 142.973C323.08 142.973 322.219 143.329 321.585 143.963C320.951 144.598 320.594 145.458 320.594 146.355Z" fill="#614CE1"/>
<path d="M320.594 146.355C320.594 147.024 320.793 147.678 321.164 148.234C321.536 148.791 322.064 149.224 322.682 149.48C323.301 149.736 323.981 149.803 324.637 149.673C325.293 149.542 325.896 149.22 326.369 148.747C326.842 148.274 327.164 147.671 327.294 147.015C327.425 146.359 327.358 145.679 327.102 145.061C326.846 144.443 326.412 143.914 325.856 143.543C325.3 143.171 324.646 142.973 323.977 142.973C323.08 142.973 322.219 143.329 321.585 143.963C320.951 144.598 320.594 145.458 320.594 146.355Z" fill="white" fill-opacity="0.8"/>
</g>
<g opacity="0.76">
<path d="M304.674 117.151C304.674 117.657 304.824 118.152 305.105 118.572C305.386 118.993 305.786 119.32 306.253 119.514C306.72 119.708 307.234 119.758 307.731 119.66C308.227 119.561 308.682 119.317 309.04 118.96C309.398 118.602 309.641 118.146 309.74 117.65C309.839 117.154 309.788 116.64 309.594 116.173C309.401 115.705 309.073 115.306 308.652 115.025C308.232 114.744 307.737 114.594 307.232 114.594C306.553 114.594 305.903 114.863 305.423 115.343C304.944 115.822 304.674 116.473 304.674 117.151Z" fill="#614CE1"/>
<path d="M304.674 117.151C304.674 117.657 304.824 118.152 305.105 118.572C305.386 118.993 305.786 119.32 306.253 119.514C306.72 119.708 307.234 119.758 307.731 119.66C308.227 119.561 308.682 119.317 309.04 118.96C309.398 118.602 309.641 118.146 309.74 117.65C309.839 117.154 309.788 116.64 309.594 116.173C309.401 115.705 309.073 115.306 308.652 115.025C308.232 114.744 307.737 114.594 307.232 114.594C306.553 114.594 305.903 114.863 305.423 115.343C304.944 115.822 304.674 116.473 304.674 117.151Z" fill="white" fill-opacity="0.8"/>
</g>
<g opacity="0.38">
<path d="M354.751 146.353C354.751 146.94 354.926 147.514 355.252 148.003C355.578 148.491 356.042 148.872 356.585 149.097C357.128 149.322 357.725 149.38 358.301 149.266C358.877 149.151 359.406 148.868 359.822 148.453C360.237 148.038 360.52 147.508 360.634 146.932C360.749 146.356 360.69 145.759 360.465 145.216C360.241 144.674 359.86 144.21 359.371 143.883C358.883 143.557 358.309 143.383 357.721 143.383C356.934 143.383 356.178 143.696 355.621 144.253C355.064 144.81 354.751 145.565 354.751 146.353Z" fill="#614CE1"/>
<path d="M354.751 146.353C354.751 146.94 354.926 147.514 355.252 148.003C355.578 148.491 356.042 148.872 356.585 149.097C357.128 149.322 357.725 149.38 358.301 149.266C358.877 149.151 359.406 148.868 359.822 148.453C360.237 148.038 360.52 147.508 360.634 146.932C360.749 146.356 360.69 145.759 360.465 145.216C360.241 144.674 359.86 144.21 359.371 143.883C358.883 143.557 358.309 143.383 357.721 143.383C356.934 143.383 356.178 143.696 355.621 144.253C355.064 144.81 354.751 145.565 354.751 146.353Z" fill="white" fill-opacity="0.8"/>
</g>
<g opacity="0.85">
<path d="M219.286 87.945C219.286 88.8421 219.642 89.7024 220.276 90.3368C220.911 90.9711 221.771 91.3275 222.668 91.3275C223.565 91.3275 224.426 90.9711 225.06 90.3368C225.694 89.7024 226.051 88.8421 226.051 87.945C226.051 87.0479 225.694 86.1876 225.06 85.5532C224.426 84.9189 223.565 84.5625 222.668 84.5625C221.771 84.5625 220.911 84.9189 220.276 85.5532C219.642 86.1876 219.286 87.0479 219.286 87.945Z" fill="#614CE1"/>
<path d="M219.286 87.945C219.286 88.8421 219.642 89.7024 220.276 90.3368C220.911 90.9711 221.771 91.3275 222.668 91.3275C223.565 91.3275 224.426 90.9711 225.06 90.3368C225.694 89.7024 226.051 88.8421 226.051 87.945C226.051 87.0479 225.694 86.1876 225.06 85.5532C224.426 84.9189 223.565 84.5625 222.668 84.5625C221.771 84.5625 220.911 84.9189 220.276 85.5532C219.642 86.1876 219.286 87.0479 219.286 87.945Z" fill="white" fill-opacity="0.8"/>
</g>
<g opacity="0.78">
<path d="M118.221 87.9452C118.21 88.3708 118.285 88.7943 118.443 89.1898C118.601 89.5853 118.837 89.9445 119.138 90.2456C119.439 90.5466 119.799 90.7832 120.194 90.9409C120.59 91.0986 121.013 91.174 121.439 91.1627C122.292 91.1627 123.11 90.8237 123.714 90.2203C124.317 89.6169 124.656 88.7985 124.656 87.9452C124.656 87.0918 124.317 86.2735 123.714 85.6701C123.11 85.0667 122.292 84.7277 121.439 84.7277C121.013 84.7163 120.59 84.7918 120.194 84.9495C119.799 85.1071 119.439 85.3437 119.138 85.6448C118.837 85.9458 118.601 86.3051 118.443 86.7006C118.285 87.0961 118.21 87.5196 118.221 87.9452Z" fill="#614CE1"/>
<path d="M118.221 87.9452C118.21 88.3708 118.285 88.7943 118.443 89.1898C118.601 89.5853 118.837 89.9445 119.138 90.2456C119.439 90.5466 119.799 90.7832 120.194 90.9409C120.59 91.0986 121.013 91.174 121.439 91.1627C122.292 91.1627 123.11 90.8237 123.714 90.2203C124.317 89.6169 124.656 88.7985 124.656 87.9452C124.656 87.0918 124.317 86.2735 123.714 85.6701C123.11 85.0667 122.292 84.7277 121.439 84.7277C121.013 84.7163 120.59 84.7918 120.194 84.9495C119.799 85.1071 119.439 85.3437 119.138 85.6448C118.837 85.9458 118.601 86.3051 118.443 86.7006C118.285 87.0961 118.21 87.5196 118.221 87.9452Z" fill="white" fill-opacity="0.8"/>
</g>
<g opacity="0.36">
<path d="M50.3251 146.354C50.249 146.837 50.2784 147.331 50.4113 147.801C50.5443 148.271 50.7775 148.707 51.0951 149.079C51.4126 149.45 51.8069 149.749 52.2508 149.953C52.6947 150.158 53.1776 150.264 53.6663 150.264C54.1551 150.264 54.638 150.158 55.0819 149.953C55.5258 149.749 55.92 149.45 56.2376 149.079C56.5551 148.707 56.7884 148.271 56.9213 147.801C57.0542 147.331 57.0837 146.837 57.0076 146.354C57.0837 145.872 57.0542 145.378 56.9213 144.908C56.7884 144.438 56.5551 144.002 56.2376 143.63C55.92 143.259 55.5258 142.96 55.0819 142.756C54.638 142.551 54.1551 142.445 53.6663 142.445C53.1776 142.445 52.6947 142.551 52.2508 142.756C51.8069 142.96 51.4126 143.259 51.0951 143.63C50.7775 144.002 50.5443 144.438 50.4113 144.908C50.2784 145.378 50.249 145.872 50.3251 146.354Z" fill="#614CE1"/>
<path d="M50.3251 146.354C50.249 146.837 50.2784 147.331 50.4113 147.801C50.5443 148.271 50.7775 148.707 51.0951 149.079C51.4126 149.45 51.8069 149.749 52.2508 149.953C52.6947 150.158 53.1776 150.264 53.6663 150.264C54.1551 150.264 54.638 150.158 55.0819 149.953C55.5258 149.749 55.92 149.45 56.2376 149.079C56.5551 148.707 56.7884 148.271 56.9213 147.801C57.0542 147.331 57.0837 146.837 57.0076 146.354C57.0837 145.872 57.0542 145.378 56.9213 144.908C56.7884 144.438 56.5551 144.002 56.2376 143.63C55.92 143.259 55.5258 142.96 55.0819 142.756C54.638 142.551 54.1551 142.445 53.6663 142.445C53.1776 142.445 52.6947 142.551 52.2508 142.756C51.8069 142.96 51.4126 143.259 51.0951 143.63C50.7775 144.002 50.5443 144.438 50.4113 144.908C50.2784 145.378 50.249 145.872 50.3251 146.354Z" fill="white" fill-opacity="0.8"/>
</g>
<g opacity="0.69">
<path d="M371.746 117.149C371.768 117.901 372.082 118.614 372.621 119.138C373.16 119.662 373.882 119.955 374.634 119.954C375.306 119.839 375.915 119.491 376.355 118.97C376.794 118.449 377.035 117.789 377.035 117.108C377.035 116.426 376.794 115.767 376.355 115.246C375.915 114.725 375.306 114.376 374.634 114.262C373.868 114.262 373.134 114.566 372.592 115.107C372.051 115.649 371.746 116.383 371.746 117.149Z" fill="#614CE1"/>
<path d="M371.746 117.149C371.768 117.901 372.082 118.614 372.621 119.138C373.16 119.662 373.882 119.955 374.634 119.954C375.306 119.839 375.915 119.491 376.355 118.97C376.794 118.449 377.035 117.789 377.035 117.108C377.035 116.426 376.794 115.767 376.355 115.246C375.915 114.725 375.306 114.376 374.634 114.262C373.868 114.262 373.134 114.566 372.592 115.107C372.051 115.649 371.746 116.383 371.746 117.149Z" fill="white" fill-opacity="0.8"/>
</g>
<g opacity="0.55">
<path d="M354.751 87.9459C354.676 88.4059 354.703 88.8766 354.828 89.3253C354.954 89.7741 355.175 90.1903 355.477 90.5451C355.779 90.8999 356.155 91.1849 356.578 91.3803C357.001 91.5758 357.461 91.677 357.927 91.677C358.393 91.677 358.853 91.5758 359.276 91.3803C359.699 91.1849 360.075 90.8999 360.377 90.5451C360.679 90.1903 360.9 89.7741 361.026 89.3253C361.151 88.8766 361.178 88.4059 361.103 87.9459C361.178 87.4859 361.151 87.0152 361.026 86.5665C360.9 86.1177 360.679 85.7015 360.377 85.3467C360.075 84.9919 359.699 84.7069 359.276 84.5115C358.853 84.3161 358.393 84.2148 357.927 84.2148C357.461 84.2148 357.001 84.3161 356.578 84.5115C356.155 84.7069 355.779 84.9919 355.477 85.3467C355.175 85.7015 354.954 86.1177 354.828 86.5665C354.703 87.0152 354.676 87.4859 354.751 87.9459Z" fill="#614CE1"/>
<path d="M354.751 87.9459C354.676 88.4059 354.703 88.8766 354.828 89.3253C354.954 89.7741 355.175 90.1903 355.477 90.5451C355.779 90.8999 356.155 91.1849 356.578 91.3803C357.001 91.5758 357.461 91.677 357.927 91.677C358.393 91.677 358.853 91.5758 359.276 91.3803C359.699 91.1849 360.075 90.8999 360.377 90.5451C360.679 90.1903 360.9 89.7741 361.026 89.3253C361.151 88.8766 361.178 88.4059 361.103 87.9459C361.178 87.4859 361.151 87.0152 361.026 86.5665C360.9 86.1177 360.679 85.7015 360.377 85.3467C360.075 84.9919 359.699 84.7069 359.276 84.5115C358.853 84.3161 358.393 84.2148 357.927 84.2148C357.461 84.2148 357.001 84.3161 356.578 84.5115C356.155 84.7069 355.779 84.9919 355.477 85.3467C355.175 85.7015 354.954 86.1177 354.828 86.5665C354.703 87.0152 354.676 87.4859 354.751 87.9459Z" fill="white" fill-opacity="0.8"/>
</g>
<g opacity="0.73">
<path d="M354.75 29.5341C354.75 30.0399 354.9 30.5344 355.181 30.9549C355.462 31.3755 355.862 31.7033 356.329 31.8969C356.796 32.0905 357.311 32.1411 357.807 32.0424C358.303 31.9437 358.758 31.7002 359.116 31.3425C359.474 30.9848 359.717 30.5291 359.816 30.033C359.915 29.5369 359.864 29.0227 359.671 28.5553C359.477 28.088 359.149 27.6886 358.729 27.4076C358.308 27.1266 357.814 26.9766 357.308 26.9766C356.629 26.9766 355.979 27.246 355.499 27.7256C355.02 28.2053 354.75 28.8558 354.75 29.5341Z" fill="#614CE1"/>
<path d="M354.75 29.5341C354.75 30.0399 354.9 30.5344 355.181 30.9549C355.462 31.3755 355.862 31.7033 356.329 31.8969C356.796 32.0905 357.311 32.1411 357.807 32.0424C358.303 31.9437 358.758 31.7002 359.116 31.3425C359.474 30.9848 359.717 30.5291 359.816 30.033C359.915 29.5369 359.864 29.0227 359.671 28.5553C359.477 28.088 359.149 27.6886 358.729 27.4076C358.308 27.1266 357.814 26.9766 357.308 26.9766C356.629 26.9766 355.979 27.246 355.499 27.7256C355.02 28.2053 354.75 28.8558 354.75 29.5341Z" fill="white" fill-opacity="0.8"/>
</g>
<g opacity="0.3">
<path d="M269.694 58.7419C269.71 59.3908 269.917 60.0205 270.29 60.5522C270.662 61.084 271.183 61.4941 271.787 61.7312C272.392 61.9684 273.052 62.0221 273.687 61.8856C274.321 61.7491 274.902 61.4285 275.355 60.9638C275.808 60.4992 276.115 59.9112 276.235 59.2734C276.356 58.6356 276.286 57.9764 276.034 57.3782C275.782 56.78 275.359 56.2694 274.819 55.9103C274.278 55.5512 273.643 55.3596 272.994 55.3594C272.554 55.3592 272.118 55.4473 271.712 55.6182C271.306 55.7892 270.938 56.0397 270.631 56.3549C270.323 56.6701 270.082 57.0437 269.921 57.4537C269.76 57.8636 269.683 58.3016 269.694 58.7419Z" fill="#614CE1"/>
<path d="M269.694 58.7419C269.71 59.3908 269.917 60.0205 270.29 60.5522C270.662 61.084 271.183 61.4941 271.787 61.7312C272.392 61.9684 273.052 62.0221 273.687 61.8856C274.321 61.7491 274.902 61.4285 275.355 60.9638C275.808 60.4992 276.115 59.9112 276.235 59.2734C276.356 58.6356 276.286 57.9764 276.034 57.3782C275.782 56.78 275.359 56.2694 274.819 55.9103C274.278 55.5512 273.643 55.3596 272.994 55.3594C272.554 55.3592 272.118 55.4473 271.712 55.6182C271.306 55.7892 270.938 56.0397 270.631 56.3549C270.323 56.6701 270.082 57.0437 269.921 57.4537C269.76 57.8636 269.683 58.3016 269.694 58.7419Z" fill="white" fill-opacity="0.8"/>
</g>
<g opacity="0.57">
<path d="M151.717 29.5344C151.706 29.9638 151.781 30.3911 151.938 30.791C152.094 31.1909 152.33 31.5554 152.63 31.863C152.929 32.1706 153.288 32.415 153.684 32.5818C154.08 32.7486 154.505 32.8345 154.934 32.8344C155.81 32.8344 156.649 32.4867 157.268 31.8678C157.887 31.249 158.234 30.4096 158.234 29.5344C158.234 28.6592 157.887 27.8198 157.268 27.2009C156.649 26.5821 155.81 26.2344 154.934 26.2344C154.505 26.2342 154.08 26.3201 153.684 26.4869C153.288 26.6538 152.929 26.8982 152.63 27.2057C152.33 27.5133 152.094 27.8778 151.938 28.2777C151.781 28.6777 151.706 29.105 151.717 29.5344Z" fill="#614CE1"/>
<path d="M151.717 29.5344C151.706 29.9638 151.781 30.3911 151.938 30.791C152.094 31.1909 152.33 31.5554 152.63 31.863C152.929 32.1706 153.288 32.415 153.684 32.5818C154.08 32.7486 154.505 32.8345 154.934 32.8344C155.81 32.8344 156.649 32.4867 157.268 31.8678C157.887 31.249 158.234 30.4096 158.234 29.5344C158.234 28.6592 157.887 27.8198 157.268 27.2009C156.649 26.5821 155.81 26.2344 154.934 26.2344C154.505 26.2342 154.08 26.3201 153.684 26.4869C153.288 26.6538 152.929 26.8982 152.63 27.2057C152.33 27.5133 152.094 27.8778 151.938 28.2777C151.781 28.6777 151.706 29.105 151.717 29.5344Z" fill="white" fill-opacity="0.8"/>
</g>
<g opacity="0.58">
<path d="M16.9956 29.5334C16.9956 30.1535 17.1795 30.7596 17.524 31.2751C17.8685 31.7907 18.3581 32.1925 18.9309 32.4298C19.5037 32.6671 20.1341 32.7292 20.7422 32.6082C21.3504 32.4872 21.909 32.1887 22.3474 31.7502C22.7859 31.3118 23.0844 30.7532 23.2054 30.145C23.3264 29.5369 23.2643 28.9066 23.027 28.3337C22.7897 27.7609 22.3879 27.2713 21.8723 26.9268C21.3568 26.5823 20.7507 26.3984 20.1306 26.3984C19.7189 26.3984 19.3113 26.4795 18.9309 26.6371C18.5505 26.7946 18.205 27.0255 17.9138 27.3167C17.6227 27.6078 17.3918 27.9534 17.2343 28.3337C17.0767 28.7141 16.9956 29.1217 16.9956 29.5334Z" fill="#614CE1"/>
<path d="M16.9956 29.5334C16.9956 30.1535 17.1795 30.7596 17.524 31.2751C17.8685 31.7907 18.3581 32.1925 18.9309 32.4298C19.5037 32.6671 20.1341 32.7292 20.7422 32.6082C21.3504 32.4872 21.909 32.1887 22.3474 31.7502C22.7859 31.3118 23.0844 30.7532 23.2054 30.145C23.3264 29.5369 23.2643 28.9066 23.027 28.3337C22.7897 27.7609 22.3879 27.2713 21.8723 26.9268C21.3568 26.5823 20.7507 26.3984 20.1306 26.3984C19.7189 26.3984 19.3113 26.4795 18.9309 26.6371C18.5505 26.7946 18.205 27.0255 17.9138 27.3167C17.6227 27.6078 17.3918 27.9534 17.2343 28.3337C17.0767 28.7141 16.9956 29.1217 16.9956 29.5334Z" fill="white" fill-opacity="0.8"/>
</g>
<g opacity="0.51">
<path d="M50.4078 87.9445C50.4078 88.8197 50.7555 89.6591 51.3744 90.278C51.9932 90.8969 52.8326 91.2445 53.7078 91.2445C54.583 91.2445 55.4224 90.8969 56.0413 90.278C56.6601 89.6591 57.0078 88.8197 57.0078 87.9445C57.0078 87.0693 56.6601 86.2299 56.0413 85.6111C55.4224 84.9922 54.583 84.6445 53.7078 84.6445C52.8326 84.6445 51.9932 84.9922 51.3744 85.6111C50.7555 86.2299 50.4078 87.0693 50.4078 87.9445Z" fill="#614CE1"/>
<path d="M50.4078 87.9445C50.4078 88.8197 50.7555 89.6591 51.3744 90.278C51.9932 90.8969 52.8326 91.2445 53.7078 91.2445C54.583 91.2445 55.4224 90.8969 56.0413 90.278C56.6601 89.6591 57.0078 88.8197 57.0078 87.9445C57.0078 87.0693 56.6601 86.2299 56.0413 85.6111C55.4224 84.9922 54.583 84.6445 53.7078 84.6445C52.8326 84.6445 51.9932 84.9922 51.3744 85.6111C50.7555 86.2299 50.4078 87.0693 50.4078 87.9445Z" fill="white" fill-opacity="0.8"/>
</g>
<g opacity="0.71">
<path d="M354.749 29.5357C354.745 30.4002 355.065 31.235 355.645 31.8761C356.225 32.5173 357.024 32.9184 357.884 33.0007C358.601 33.0845 359.326 32.9477 359.963 32.6085C360.601 32.2693 361.119 31.7439 361.45 31.1024C361.78 30.4608 361.907 29.7337 361.814 29.0181C361.721 28.3024 361.411 27.6323 360.927 27.0971C360.443 26.5619 359.807 26.1872 359.104 26.0229C358.401 25.8585 357.665 25.9125 356.994 26.1775C356.322 26.4425 355.748 26.9059 355.347 27.5059C354.946 28.106 354.737 28.8141 354.749 29.5357Z" fill="#614CE1"/>
<path d="M354.749 29.5357C354.745 30.4002 355.065 31.235 355.645 31.8761C356.225 32.5173 357.024 32.9184 357.884 33.0007C358.601 33.0845 359.326 32.9477 359.963 32.6085C360.601 32.2693 361.119 31.7439 361.45 31.1024C361.78 30.4608 361.907 29.7337 361.814 29.0181C361.721 28.3024 361.411 27.6323 360.927 27.0971C360.443 26.5619 359.807 26.1872 359.104 26.0229C358.401 25.8585 357.665 25.9125 356.994 26.1775C356.322 26.4425 355.748 26.9059 355.347 27.5059C354.946 28.106 354.737 28.8141 354.749 29.5357Z" fill="white" fill-opacity="0.8"/>
</g>
<g opacity="0.29">
<path d="M320.511 29.5334C320.511 30.1535 320.695 30.7596 321.04 31.2751C321.384 31.7907 321.874 32.1925 322.447 32.4298C323.019 32.6671 323.65 32.7292 324.258 32.6082C324.866 32.4872 325.425 32.1887 325.863 31.7502C326.301 31.3118 326.6 30.7532 326.721 30.145C326.842 29.5369 326.78 28.9066 326.543 28.3337C326.305 27.7609 325.904 27.2713 325.388 26.9268C324.872 26.5823 324.266 26.3984 323.646 26.3984C322.815 26.3984 322.017 26.7287 321.429 27.3167C320.842 27.9046 320.511 28.702 320.511 29.5334Z" fill="#614CE1"/>
<path d="M320.511 29.5334C320.511 30.1535 320.695 30.7596 321.04 31.2751C321.384 31.7907 321.874 32.1925 322.447 32.4298C323.019 32.6671 323.65 32.7292 324.258 32.6082C324.866 32.4872 325.425 32.1887 325.863 31.7502C326.301 31.3118 326.6 30.7532 326.721 30.145C326.842 29.5369 326.78 28.9066 326.543 28.3337C326.305 27.7609 325.904 27.2713 325.388 26.9268C324.872 26.5823 324.266 26.3984 323.646 26.3984C322.815 26.3984 322.017 26.7287 321.429 27.3167C320.842 27.9046 320.511 28.702 320.511 29.5334Z" fill="white" fill-opacity="0.8"/>
</g>
<g opacity="0.56">
<path d="M208.477 0C208.477 0.787693 208.164 1.54312 207.607 2.10011C207.05 2.65709 206.294 2.97 205.507 2.97C204.719 2.97 203.963 2.65709 203.406 2.10011C202.849 1.54312 202.537 0.787693 202.537 0H208.477Z" fill="#614CE1"/>
<path d="M208.477 0C208.477 0.787693 208.164 1.54312 207.607 2.10011C207.05 2.65709 206.294 2.97 205.507 2.97C204.719 2.97 203.963 2.65709 203.406 2.10011C202.849 1.54312 202.537 0.787693 202.537 0H208.477Z" fill="white" fill-opacity="0.8"/>
</g>
<g opacity="0.33">
<path d="M6.10547 0C6.10547 0.809573 5.78386 1.58599 5.2114 2.15844C4.63895 2.7309 3.86252 3.0525 3.05295 3.0525C2.64899 3.06389 2.24698 2.99271 1.87148 2.84334C1.49599 2.69397 1.15491 2.46954 0.869156 2.18379C0.583404 1.89803 0.358985 1.55697 0.209613 1.18148C0.0602403 0.805983 -0.010931 0.403954 0.000454903 0L6.10547 0Z" fill="#614CE1"/>
<path d="M6.10547 0C6.10547 0.809573 5.78386 1.58599 5.2114 2.15844C4.63895 2.7309 3.86252 3.0525 3.05295 3.0525C2.64899 3.06389 2.24698 2.99271 1.87148 2.84334C1.49599 2.69397 1.15491 2.46954 0.869156 2.18379C0.583404 1.89803 0.358985 1.55697 0.209613 1.18148C0.0602403 0.805983 -0.010931 0.403954 0.000454903 0L6.10547 0Z" fill="white" fill-opacity="0.8"/>
</g>
<g opacity="0.48">
<path d="M276.375 0C276.375 0.897095 276.019 1.75745 275.384 2.39179C274.75 3.02613 273.89 3.3825 272.993 3.3825C272.095 3.3825 271.235 3.02613 270.601 2.39179C269.966 1.75745 269.61 0.897095 269.61 0L276.375 0Z" fill="#614CE1"/>
<path d="M276.375 0C276.375 0.897095 276.019 1.75745 275.384 2.39179C274.75 3.02613 273.89 3.3825 272.993 3.3825C272.095 3.3825 271.235 3.02613 270.601 2.39179C269.966 1.75745 269.61 0.897095 269.61 0L276.375 0Z" fill="white" fill-opacity="0.8"/>
</g>
</svg>
